<?xml version="1.0" encoding="UTF-8"?>
<svg width="500" height="500" version="1.1" viewBox="0 0 500 500" xmlns="http://www.w3.org/2000/svg" xmlns:cc="http://creativecommons.org/ns#" xmlns:dc="http://purl.org/dc/elements/1.1/" xmlns:osb="http://www.openswatchbook.org/uri/2009/osb" xmlns:rdf="http://www.w3.org/1999/02/22-rdf-syntax-ns#">
 <defs>
  <marker id="marker11887" overflow="visible" orient="auto">
   <path transform="scale(.8)" d="m5.77 0-8.65 5v-10l8.65 5z" fill="#0f0" fill-rule="evenodd" stroke="#008000" stroke-width="1pt"/>
  </marker>
  <marker id="marker11773" overflow="visible" orient="auto">
   <path transform="scale(.8)" d="m5.77 0-8.65 5v-10l8.65 5z" fill="#0f0" fill-rule="evenodd" stroke="#008000" stroke-width="1pt"/>
  </marker>
  <marker id="marker10961" overflow="visible" orient="auto">
   <path transform="scale(.8)" d="m5.77 0-8.65 5v-10l8.65 5z" fill="#0f0" fill-rule="evenodd" stroke="#008000" stroke-width="1pt"/>
  </marker>
  <marker id="marker10569" overflow="visible" orient="auto">
   <path transform="scale(.8)" d="m5.77 0-8.65 5v-10l8.65 5z" fill="#0f0" fill-rule="evenodd" stroke="#008000" stroke-width="1pt"/>
  </marker>
  <marker id="marker10179" overflow="visible" orient="auto">
   <path transform="scale(.8)" d="m5.77 0-8.65 5v-10l8.65 5z" fill="#0f0" fill-rule="evenodd" stroke="#008000" stroke-width="1pt"/>
  </marker>
  <marker id="marker9791" overflow="visible" orient="auto">
   <path transform="scale(.8)" d="m5.77 0-8.65 5v-10l8.65 5z" fill="#0f0" fill-rule="evenodd" stroke="#008000" stroke-width="1pt"/>
  </marker>
  <marker id="marker9423" overflow="visible" orient="auto">
   <path transform="scale(.8)" d="m5.77 0-8.65 5v-10l8.65 5z" fill="#0f0" fill-rule="evenodd" stroke="#008000" stroke-width="1pt"/>
  </marker>
  <marker id="marker9045" overflow="visible" orient="auto">
   <path transform="scale(.8)" d="m5.77 0-8.65 5v-10l8.65 5z" fill="#0f0" fill-rule="evenodd" stroke="#008000" stroke-width="1pt"/>
  </marker>
  <marker id="marker8687" overflow="visible" orient="auto">
   <path transform="scale(.8)" d="m5.77 0-8.65 5v-10l8.65 5z" fill="#0f0" fill-rule="evenodd" stroke="#008000" stroke-width="1pt"/>
  </marker>
  <marker id="marker8343" overflow="visible" orient="auto">
   <path transform="scale(.8)" d="m5.77 0-8.65 5v-10l8.65 5z" fill="#0f0" fill-rule="evenodd" stroke="#008000" stroke-width="1pt"/>
  </marker>
  <marker id="marker8007" overflow="visible" orient="auto">
   <path transform="scale(.8)" d="m5.77 0-8.65 5v-10l8.65 5z" fill="#0f0" fill-rule="evenodd" stroke="#008000" stroke-width="1pt"/>
  </marker>
  <marker id="marker7679" overflow="visible" orient="auto">
   <path transform="scale(.8)" d="m5.77 0-8.65 5v-10l8.65 5z" fill="#0f0" fill-rule="evenodd" stroke="#008000" stroke-width="1pt"/>
  </marker>
  <marker id="marker7359" overflow="visible" orient="auto">
   <path transform="scale(.8)" d="m5.77 0-8.65 5v-10l8.65 5z" fill="#0f0" fill-rule="evenodd" stroke="#008000" stroke-width="1pt"/>
  </marker>
  <marker id="marker7047" overflow="visible" orient="auto">
   <path transform="scale(.8)" d="m5.77 0-8.65 5v-10l8.65 5z" fill="#0f0" fill-rule="evenodd" stroke="#008000" stroke-width="1pt"/>
  </marker>
  <marker id="marker6743" overflow="visible" orient="auto">
   <path transform="scale(.8)" d="m5.77 0-8.65 5v-10l8.65 5z" fill="#0f0" fill-rule="evenodd" stroke="#008000" stroke-width="1pt"/>
  </marker>
  <marker id="marker6435" overflow="visible" orient="auto">
   <path transform="scale(.8)" d="m5.77 0-8.65 5v-10l8.65 5z" fill="#0f0" fill-rule="evenodd" stroke="#008000" stroke-width="1pt"/>
  </marker>
  <marker id="marker6141" overflow="visible" orient="auto">
   <path transform="scale(.8)" d="m5.77 0-8.65 5v-10l8.65 5z" fill="#0f0" fill-rule="evenodd" stroke="#008000" stroke-width="1pt"/>
  </marker>
  <marker id="marker5861" overflow="visible" orient="auto">
   <path transform="scale(.8)" d="m5.77 0-8.65 5v-10l8.65 5z" fill="#0f0" fill-rule="evenodd" stroke="#008000" stroke-width="1pt"/>
  </marker>
  <marker id="marker5589" overflow="visible" orient="auto">
   <path transform="scale(.8)" d="m5.77 0-8.65 5v-10l8.65 5z" fill="#0f0" fill-rule="evenodd" stroke="#008000" stroke-width="1pt"/>
  </marker>
  <marker id="marker5301" overflow="visible" orient="auto">
   <path transform="scale(.8)" d="m5.77 0-8.65 5v-10l8.65 5z" fill="#0f0" fill-rule="evenodd" stroke="#008000" stroke-width="1pt"/>
  </marker>
  <marker id="marker5039" overflow="visible" orient="auto">
   <path transform="scale(.8)" d="m5.77 0-8.65 5v-10l8.65 5z" fill="#f00" fill-rule="evenodd" stroke="#a00" stroke-width="1pt"/>
  </marker>
  <marker id="marker4785" overflow="visible" orient="auto">
   <path transform="scale(.8)" d="m5.77 0-8.65 5v-10l8.65 5z" fill="#f00" fill-rule="evenodd" stroke="#a00" stroke-width="1pt"/>
  </marker>
  <marker id="marker4707" overflow="visible" orient="auto">
   <path transform="scale(.8)" d="m5.77 0-8.65 5v-10l8.65 5z" fill="#f00" fill-rule="evenodd" stroke="#a00" stroke-width="1pt"/>
  </marker>
  <marker id="marker4387" overflow="visible" orient="auto">
   <path transform="scale(.8)" d="m5.77 0-8.65 5v-10l8.65 5z" fill="#f00" fill-rule="evenodd" stroke="#a00" stroke-width="1pt"/>
  </marker>
  <marker id="marker3927" overflow="visible" orient="auto">
   <path transform="scale(.8)" d="m5.77 0-8.65 5v-10l8.65 5z" fill="#f00" fill-rule="evenodd" stroke="#a00" stroke-width="1pt"/>
  </marker>
  <marker id="marker3705" overflow="visible" orient="auto">
   <path transform="scale(.8)" d="m5.77 0-8.65 5v-10l8.65 5z" fill="#f00" fill-rule="evenodd" stroke="#a00" stroke-width="1pt"/>
  </marker>
  <marker id="marker3491" overflow="visible" orient="auto">
   <path transform="scale(.8)" d="m5.77 0-8.65 5v-10l8.65 5z" fill="#f00" fill-rule="evenodd" stroke="#a00" stroke-width="1pt"/>
  </marker>
  <marker id="marker3285" overflow="visible" orient="auto">
   <path transform="scale(.8)" d="m5.77 0-8.65 5v-10l8.65 5z" fill="#f00" fill-rule="evenodd" stroke="#a00" stroke-width="1pt"/>
  </marker>
  <marker id="marker3087" overflow="visible" orient="auto">
   <path transform="scale(.8)" d="m5.77 0-8.65 5v-10l8.65 5z" fill="#f00" fill-rule="evenodd" stroke="#a00" stroke-width="1pt"/>
  </marker>
  <marker id="marker2891" overflow="visible" orient="auto">
   <path transform="scale(.8)" d="m5.77 0-8.65 5v-10l8.65 5z" fill="#f00" fill-rule="evenodd" stroke="#a00" stroke-width="1pt"/>
  </marker>
  <marker id="marker2703" overflow="visible" orient="auto">
   <path transform="scale(.8)" d="m5.77 0-8.65 5v-10l8.65 5z" fill="#f00" fill-rule="evenodd" stroke="#a00" stroke-width="1pt"/>
  </marker>
  <marker id="marker2529" overflow="visible" orient="auto">
   <path transform="scale(.8)" d="m5.77 0-8.65 5v-10l8.65 5z" fill="#f00" fill-rule="evenodd" stroke="#a00" stroke-width="1pt"/>
  </marker>
  <marker id="marker2363" overflow="visible" orient="auto">
   <path transform="scale(.8)" d="m5.77 0-8.65 5v-10l8.65 5z" fill="#f00" fill-rule="evenodd" stroke="#a00" stroke-width="1pt"/>
  </marker>
  <marker id="marker2205" overflow="visible" orient="auto">
   <path transform="scale(.8)" d="m5.77 0-8.65 5v-10l8.65 5z" fill="#f00" fill-rule="evenodd" stroke="#a00" stroke-width="1pt"/>
  </marker>
  <marker id="marker2061" overflow="visible" orient="auto">
   <path transform="scale(.8)" d="m5.77 0-8.65 5v-10l8.65 5z" fill="#f00" fill-rule="evenodd" stroke="#a00" stroke-width="1pt"/>
  </marker>
  <marker id="marker1901" overflow="visible" orient="auto">
   <path transform="scale(.8)" d="m5.77 0-8.65 5v-10l8.65 5z" fill="#f00" fill-rule="evenodd" stroke="#a00" stroke-width="1pt"/>
  </marker>
  <marker id="marker1761" overflow="visible" orient="auto">
   <path transform="scale(.8)" d="m5.77 0-8.65 5v-10l8.65 5z" fill="#f00" fill-rule="evenodd" stroke="#a00" stroke-width="1pt"/>
  </marker>
  <marker id="marker1635" overflow="visible" orient="auto">
   <path transform="scale(.8)" d="m5.77 0-8.65 5v-10l8.65 5z" fill="#f00" fill-rule="evenodd" stroke="#a00" stroke-width="1pt"/>
  </marker>
  <marker id="marker1433" overflow="visible" orient="auto">
   <path transform="scale(.8)" d="m5.77 0-8.65 5v-10l8.65 5z" fill="#f00" fill-rule="evenodd" stroke="#a00" stroke-width="1pt"/>
  </marker>
  <marker id="TriangleOutL" overflow="visible" orient="auto">
   <path transform="scale(.8)" d="m5.77 0-8.65 5v-10l8.65 5z" fill="#f00" fill-rule="evenodd" stroke="#a00" stroke-width="1pt"/>
  </marker>
 </defs>
 <metadata>
  <rdf:RDF>
   <cc:Work rdf:about="">
    <dc:format>image/svg+xml</dc:format>
    <dc:type rdf:resource="http://purl.org/dc/dcmitype/StillImage"/>
    <dc:title/>
   </cc:Work>
  </rdf:RDF>
 </metadata>
 <path d="m50 450h40" fill="#0f0" marker-end="url(#marker5301)" stroke="#008000" stroke-width="1.0016"/>
 <path d="m50 450v40" fill="#f00" marker-end="url(#marker1901)" stroke="#a00" stroke-width="1.0016"/>
 <g fill="none" stroke="#000" stroke-width=".998">
  <path d="m0.499 0.499h499v499h-499z"/>
  <path d="m100.3 0.499v499"/>
  <path d="m200.1 0.499v499"/>
  <path d="m299.9 0.499v499"/>
  <path d="m399.7 0.499v499"/>
  <path d="m0.499 100.3h499"/>
  <path d="m0.499 200.1h499"/>
  <path d="m0.499 299.9h499"/>
  <path d="m0.499 399.7h499"/>
 </g>
 <circle cx="50.399" cy="449.6" r="29.94" fill="#fff" stroke="#000" stroke-width="1.996"/>
 <path transform="matrix(-5.6455 0 0 -5.9826 125.08 129.54)" d="m13.229 16.999-4.5827-7.9375 9.1654-3e-7z" fill="#fff" stroke="#000" stroke-width=".34345"/>
 <g transform="matrix(3.772 0 0 3.772 .499 .499)" fill="none" stroke="#000">
  <rect x="2.6458" y="55.562" width="21.167" height="21.167" stroke-width=".26458"/>
  <g stroke-width=".26458px">
   <path d="m2.6458 60.854 5.2917-5.2917"/>
   <path d="m2.6458 66.146 10.583-10.583"/>
   <path d="m2.6458 71.437 15.875-15.875"/>
   <path d="m2.6458 76.729 21.167-21.167"/>
   <path d="m7.9375 76.729 15.875-15.875"/>
   <path d="m13.229 76.729 10.583-10.583"/>
   <path d="m18.521 76.729 5.2917-5.2917"/>
  </g>
 </g>
 <g transform="matrix(3.772 0 0 3.772 100.3 .499)" fill="none" stroke="#000">
  <rect x="2.6458" y="55.562" width="21.167" height="21.167" stroke-width=".26458"/>
  <g stroke-width=".26458px">
   <path d="m2.6458 60.854 5.2917-5.2917"/>
   <path d="m2.6458 66.146 10.583-10.583"/>
   <path d="m2.6458 71.437 15.875-15.875"/>
   <path d="m2.6458 76.729 21.167-21.167"/>
   <path d="m7.9375 76.729 15.875-15.875"/>
   <path d="m13.229 76.729 10.583-10.583"/>
   <path d="m18.521 76.729 5.2917-5.2917"/>
  </g>
 </g>
 <g transform="matrix(3.772 0 0 3.772 200.1 .499)" fill="none" stroke="#000">
  <rect x="2.6458" y="55.562" width="21.167" height="21.167" stroke-width=".26458"/>
  <g stroke-width=".26458px">
   <path d="m2.6458 60.854 5.2917-5.2917"/>
   <path d="m2.6458 66.146 10.583-10.583"/>
   <path d="m2.6458 71.437 15.875-15.875"/>
   <path d="m2.6458 76.729 21.167-21.167"/>
   <path d="m7.9375 76.729 15.875-15.875"/>
   <path d="m13.229 76.729 10.583-10.583"/>
   <path d="m18.521 76.729 5.2917-5.2917"/>
  </g>
 </g>
 <g transform="matrix(3.772 0 0 3.772 299.9 .499)" fill="none" stroke="#000">
  <rect x="2.6458" y="55.562" width="21.167" height="21.167" stroke-width=".26458"/>
  <g stroke-width=".26458px">
   <path d="m2.6458 60.854 5.2917-5.2917"/>
   <path d="m2.6458 66.146 10.583-10.583"/>
   <path d="m2.6458 71.437 15.875-15.875"/>
   <path d="m2.6458 76.729 21.167-21.167"/>
   <path d="m7.9375 76.729 15.875-15.875"/>
   <path d="m13.229 76.729 10.583-10.583"/>
   <path d="m18.521 76.729 5.2917-5.2917"/>
  </g>
 </g>
 <g fill="none" stroke="#000">
  <g stroke-width=".998">
   <path d="m30.439 449.6 19.96-19.96"/>
   <path d="m30.439 459.58 29.94-29.94"/>
   <path d="m30.439 469.56 39.92-39.92"/>
   <path d="m40.419 469.56 29.94-29.94"/>
   <path d="m50.399 469.56 19.96-19.96"/>
   <path d="m60.379 469.56 9.98-9.9801"/>
  </g>
  <g stroke-width=".998px">
   <path d="m30.439 439.62 9.98-9.9801"/>
   <path d="m40.419 50.399h19.96"/>
   <path d="m40.419 60.379h19.96"/>
   <path d="m30.439 70.359h39.92"/>
   <path d="m80.339 10.479-19.96 19.96"/>
   <path d="m70.359 50.399h19.96"/>
   <path d="m70.359 80.339 9.98 9.98"/>
   <path d="m30.439 80.339-9.98 9.98"/>
   <path d="m30.439 50.399h-19.96"/>
   <path d="m40.419 30.439-19.96-19.96"/>
  </g>
 </g>
 <g fill="#f00" stroke="#a00">
  <path d="m150 450v40" marker-end="url(#TriangleOutL)" stroke-width="1.0016"/>
  <g stroke-width="1.0016">
   <path d="m252.85 450h-40" marker-end="url(#marker1433)"/>
   <path d="m350 452.85v-40" marker-end="url(#marker1635)"/>
   <path d="m447.15 450h40" marker-end="url(#marker1761)"/>
   <path d="m47.155 340h40" marker-end="url(#marker2061)"/>
   <path d="m447.15 350h40" marker-end="url(#marker2205)"/>
   <path d="m150 352.85v-40" marker-end="url(#marker2363)"/>
   <path d="m252.85 350h-40" marker-end="url(#marker2529)"/>
   <path d="m350 350v-40" marker-end="url(#marker2703)"/>
   <path d="m450 250v40" marker-end="url(#marker2891)"/>
   <path d="m447.15 150h40" marker-end="url(#marker3087)"/>
   <path d="m352.85 150h-40" marker-end="url(#marker3285)"/>
   <path d="m250 150v40" marker-end="url(#marker3491)"/>
   <path d="m150 150v40" marker-end="url(#marker3705)"/>
   <path d="m52.845 150h-40" marker-end="url(#marker3927)"/>
   <path d="m452.85 40h-40" marker-end="url(#marker4387)"/>
   <path d="m350 52.845v-40" marker-end="url(#marker4707)"/>
   <path d="m252.85 40h-40" marker-end="url(#marker4785)"/>
   <path d="m150 47.155v40" marker-end="url(#marker5039)"/>
  </g>
 </g>
 <g fill="#0f0" stroke="#008000" stroke-width="1.0016">
  <path d="m150 450h40" marker-end="url(#marker5589)"/>
  <path d="m247.15 450h40" marker-end="url(#marker5861)"/>
  <path d="m347.15 450h40" marker-end="url(#marker6141)"/>
  <path d="m450 452.85v-40" marker-end="url(#marker6435)"/>
  <path d="m450 352.85v-40" marker-end="url(#marker6743)"/>
  <path d="m450 252.85v-40" marker-end="url(#marker7047)"/>
  <path d="m450 152.85v-40" marker-end="url(#marker7359)"/>
  <path d="m350 152.85v-40" marker-end="url(#marker7679)"/>
  <path d="m250 152.85v-40" marker-end="url(#marker8007)"/>
  <path d="m150 150v-40" marker-end="url(#marker8343)"/>
  <path d="m50 150v-40" marker-end="url(#marker8687)"/>
  <path d="m452.85 60h-40" marker-end="url(#marker9045)"/>
  <path d="m350 50h-40" marker-end="url(#marker9423)"/>
  <path d="m252.85 60h-40" marker-end="url(#marker9791)"/>
  <path d="m152.85 50h-40" marker-end="url(#marker10179)"/>
  <path d="m350 350h40" marker-end="url(#marker10569)"/>
  <path d="m250 350h40" marker-end="url(#marker10961)"/>
  <path d="m147.15 350h40" marker-end="url(#marker11773)"/>
  <path d="m47.155 360h40" marker-end="url(#marker11887)"/>
 </g>
</svg>
