<?xml version="1.0" encoding="UTF-8"?>
<svg width="500" height="350" version="1.1" viewBox="0 0 500 350" xmlns="http://www.w3.org/2000/svg" xmlns:cc="http://creativecommons.org/ns#" xmlns:dc="http://purl.org/dc/elements/1.1/" xmlns:osb="http://www.openswatchbook.org/uri/2009/osb" xmlns:rdf="http://www.w3.org/1999/02/22-rdf-syntax-ns#">
 <metadata>
  <rdf:RDF>
   <cc:Work rdf:about="">
    <dc:format>image/svg+xml</dc:format>
    <dc:type rdf:resource="http://purl.org/dc/dcmitype/StillImage"/>
    <dc:title/>
   </cc:Work>
  </rdf:RDF>
 </metadata>
 <path d="m340 50h20v20h-20z" fill="#8dd35f" stroke="#000"/>
 <path d="m0.4998 0.4998h499v349h-499z" fill="none" stroke="#000" stroke-width=".9996"/>
 <g fill="#ff8080" stroke="#000">
  <path d="m10 50h20v20h-20z"/>
  <path d="m40 50h20v20h-20z"/>
  <path d="m70 50h20v20h-20z"/>
  <path d="m100 50h20v20h-20z"/>
  <path d="m130 50h20v20h-20z"/>
  <path d="m160 50h20v20h-20z"/>
  <path d="m190 50h20v20h-20z"/>
  <path d="m220 50h20v20h-20z"/>
  <path d="m250 50h20v20h-20z"/>
  <path d="m280 50h20v20h-20z"/>
  <path d="m310 50h20v20h-20z"/>
  <path d="m10 140h20v20h-20z"/>
  <path d="m40 140h20v20h-20z"/>
  <path d="m70 140h20v20h-20z"/>
  <path d="m100 140h20v20h-20z"/>
  <path d="m130 140h20v20h-20z"/>
  <path d="m160 140h20v20h-20z"/>
  <path d="m190 140h20v20h-20z"/>
  <path d="m220 140h20v20h-20z"/>
  <path d="m250 140h20v20h-20z"/>
  <path d="m280 140h20v20h-20z"/>
  <path d="m310 140h20v20h-20z"/>
  <path d="m340 140h20v20h-20z"/>
  <path d="m370 140h20v20h-20z"/>
  <path d="m400 140h20v20h-20z"/>
  <path d="m430 140h20v20h-20z"/>
 </g>
 <path d="m460 140h20v20h-20z" fill="#8dd35f" stroke="#000"/>
 <path d="m0 84h500" fill="none" stroke="#000" stroke-width="1px"/>
 <text x="5.3417969" y="34.804688" font-family="Roboto" font-size="40px" style="line-height:1.25" xml:space="preserve"><tspan x="5.3417969" y="34.804688">Path 1</tspan></text>
 <path d="m0 180h500" fill="none" stroke="#000" stroke-width="1px"/>
 <text x="5.3417969" y="124.80469" font-family="Roboto" font-size="40px" style="line-height:1.25" xml:space="preserve"><tspan x="5.3417969" y="124.80469">Path 2</tspan></text>
 <text x="5.3417969" y="224.80469" font-family="Roboto" font-size="40px" style="line-height:1.25" xml:space="preserve"><tspan x="5.3417969" y="224.80469">Path 3</tspan></text>
 <g fill="#ff8080" stroke="#000">
  <path d="m10 240h20v20h-20z"/>
  <path d="m40 240h20v20h-20z"/>
  <path d="m70 240h20v20h-20z"/>
  <path d="m100 240h20v20h-20z"/>
  <path d="m130 240h20v20h-20z"/>
  <path d="m160 240h20v20h-20z"/>
  <path d="m190 240h20v20h-20z"/>
  <path d="m220 240h20v20h-20z"/>
  <path d="m250 240h20v20h-20z"/>
  <path d="m280 240h20v20h-20z"/>
  <path d="m310 240h20v20h-20z"/>
  <path d="m340 240h20v20h-20z"/>
  <path d="m370 240h20v20h-20z"/>
  <path d="m400 240h20v20h-20z"/>
  <path d="m430 240h20v20h-20z"/>
 </g>
 <path d="m160 300h20v20h-20z" fill="#8dd35f" stroke="#000"/>
 <g fill="#ff8080" stroke="#000">
  <path d="m460 240h20v20h-20z"/>
  <path d="m10 270h20v20h-20z"/>
  <path d="m40 270h20v20h-20z"/>
  <path d="m70 270h20v20h-20z"/>
  <path d="m100 270h20v20h-20z"/>
  <path d="m130 270h20v20h-20z"/>
  <path d="m160 270h20v20h-20z"/>
  <path d="m190 270h20v20h-20z"/>
  <path d="m220 270h20v20h-20z"/>
  <path d="m250 270h20v20h-20z"/>
  <path d="m280 270h20v20h-20z"/>
  <path d="m310 270h20v20h-20z"/>
  <path d="m340 270h20v20h-20z"/>
  <path d="m370 270h20v20h-20z"/>
  <path d="m400 270h20v20h-20z"/>
  <path d="m430 270h20v20h-20z"/>
  <path d="m460 270h20v20h-20z"/>
  <path d="m10 300h20v20h-20z"/>
  <path d="m40 300h20v20h-20z"/>
  <path d="m70 300h20v20h-20z"/>
  <path d="m100 300h20v20h-20z"/>
  <path d="m130 300h20v20h-20z"/>
 </g>
</svg>
