<?xml version="1.0" encoding="UTF-8"?>
<svg width="500" height="500" version="1.1" viewBox="0 0 500 500" xmlns="http://www.w3.org/2000/svg" xmlns:cc="http://creativecommons.org/ns#" xmlns:dc="http://purl.org/dc/elements/1.1/" xmlns:rdf="http://www.w3.org/1999/02/22-rdf-syntax-ns#">
 <defs>
  <marker id="TriangleOutM" overflow="visible" orient="auto">
   <path transform="scale(.4)" d="m5.77 0-8.65 5v-10l8.65 5z" fill="context-stroke" fill-rule="evenodd" stroke="context-stroke" stroke-width="1pt"/>
  </marker>
  <marker id="marker1689" overflow="visible" orient="auto">
   <path transform="scale(.8)" d="m5.77 0-8.65 5v-10l8.65 5z" fill-rule="evenodd" stroke="#000" stroke-width="1pt"/>
  </marker>
 </defs>
 <metadata>
  <rdf:RDF>
   <cc:Work rdf:about="">
    <dc:format>image/svg+xml</dc:format>
    <dc:type rdf:resource="http://purl.org/dc/dcmitype/StillImage"/>
   </cc:Work>
  </rdf:RDF>
 </metadata>
 <path d="m0.499 0.499h499v499h-499z" fill="none" stroke="#000" stroke-width=".998"/>
 <g fill="#acf" fill-rule="evenodd" stroke="#000" stroke-linejoin="round" stroke-width="2">
  <rect x="200" y="392.45" width="90" height="30"/>
  <circle cx="216.4" cy="422.26" r="10"/>
  <circle cx="273.44" cy="422.26" r="10"/>
 </g>
 <g fill-rule="evenodd" stroke="#000" stroke-linejoin="round">
  <circle cx="216.4" cy="422.26" r="2.4431" fill="#f59"/>
  <circle cx="273.44" cy="422.26" r="2.4431" fill="#f59"/>
  <rect transform="rotate(15)" x="329.26" y="30.525" width="20" height="290" fill="#fd5" stroke-linecap="round"/>
  <circle cx="246.36" cy="392.86" r="2.4431" fill="#f59"/>
 </g>
 <g fill="none">
  <g stroke-width="5">
   <path d="m0 436h500" stroke="#000"/>
   <path d="m30 440v-240" stroke="#f59"/>
   <path d="m470 440v-240" stroke="#f59"/>
  </g>
  <g stroke="#000" stroke-width="1px">
   <path d="m20 500 40-60"/>
   <path d="m80 500 40-60"/>
   <path d="m140 500 40-60"/>
   <path d="m200 500 40-60"/>
   <path d="m260 500 40-60"/>
   <path d="m320 500 40-60"/>
   <path d="m380 500 40-60"/>
   <path d="m440 500 40-60"/>
   <path d="m440 500 40-60"/>
   <path d="m0 460h500"/>
   <path d="m0 480h500"/>
  </g>
  <g stroke-width="2">
   <path d="m180 410h-130" marker-end="url(#marker1689)" stroke="#f59"/>
   <path d="m340 121.72c1.4508-4.5094 6.2824-6.9889 10.792-5.5381 4.5094 1.4507 6.9889 6.2824 5.5381 10.792" marker-end="url(#TriangleOutM)" stroke="#ff5598" stroke-linecap="round" stroke-linejoin="round" stroke-opacity=".78039"/>
   <path d="m296.33 114.75c-1.4508-4.5094-6.2824-6.9889-10.792-5.5381-4.5094 1.4507-6.9889 6.2824-5.5381 10.792" marker-end="url(#TriangleOutM)" stroke="#ff5598" stroke-linecap="round" stroke-linejoin="round" stroke-opacity=".78039"/>
   <path d="m310 410h120" marker-end="url(#marker1689)" stroke="#f59"/>
  </g>
 </g>
</svg>
