<?xml version="1.0" encoding="UTF-8"?>
<svg width="500" height="500" version="1.1" viewBox="0 0 500 500" xmlns="http://www.w3.org/2000/svg" xmlns:cc="http://creativecommons.org/ns#" xmlns:dc="http://purl.org/dc/elements/1.1/" xmlns:rdf="http://www.w3.org/1999/02/22-rdf-syntax-ns#">
 <defs>
  <marker id="marker2591" overflow="visible" orient="auto">
   <path transform="scale(.8)" d="m5.77 0-8.65 5v-10l8.65 5z" fill-rule="evenodd" stroke="#000" stroke-width="1pt"/>
  </marker>
  <marker id="marker2441" overflow="visible" orient="auto">
   <path transform="scale(.8)" d="m5.77 0-8.65 5v-10l8.65 5z" fill-rule="evenodd" stroke="#000" stroke-width="1pt"/>
  </marker>
  <marker id="marker2305" overflow="visible" orient="auto">
   <path transform="scale(.8)" d="m5.77 0-8.65 5v-10l8.65 5z" fill-rule="evenodd" stroke="#000" stroke-width="1pt"/>
  </marker>
  <marker id="marker2171" overflow="visible" orient="auto">
   <path transform="scale(.8)" d="m5.77 0-8.65 5v-10l8.65 5z" fill-rule="evenodd" stroke="#000" stroke-width="1pt"/>
  </marker>
  <marker id="marker2045" overflow="visible" orient="auto">
   <path transform="scale(.8)" d="m5.77 0-8.65 5v-10l8.65 5z" fill-rule="evenodd" stroke="#000" stroke-width="1pt"/>
  </marker>
  <marker id="marker1927" overflow="visible" orient="auto">
   <path transform="scale(.8)" d="m5.77 0-8.65 5v-10l8.65 5z" fill-rule="evenodd" stroke="#000" stroke-width="1pt"/>
  </marker>
  <marker id="marker1823" overflow="visible" orient="auto">
   <path transform="scale(.8)" d="m5.77 0-8.65 5v-10l8.65 5z" fill-rule="evenodd" stroke="#000" stroke-width="1pt"/>
  </marker>
  <marker id="marker1709" overflow="visible" orient="auto">
   <path transform="scale(.8)" d="m5.77 0-8.65 5v-10l8.65 5z" fill-rule="evenodd" stroke="#000" stroke-width="1pt"/>
  </marker>
  <marker id="marker1621" overflow="visible" orient="auto">
   <path transform="scale(.8)" d="m5.77 0-8.65 5v-10l8.65 5z" fill-rule="evenodd" stroke="#000" stroke-width="1pt"/>
  </marker>
  <marker id="marker1535" overflow="visible" orient="auto">
   <path transform="scale(.8)" d="m5.77 0-8.65 5v-10l8.65 5z" fill-rule="evenodd" stroke="#000" stroke-width="1pt"/>
  </marker>
  <marker id="marker1457" overflow="visible" orient="auto">
   <path transform="scale(.8)" d="m5.77 0-8.65 5v-10l8.65 5z" fill-rule="evenodd" stroke="#000" stroke-width="1pt"/>
  </marker>
  <marker id="marker1393" overflow="visible" orient="auto">
   <path transform="scale(.8)" d="m5.77 0-8.65 5v-10l8.65 5z" fill-rule="evenodd" stroke="#000" stroke-width="1pt"/>
  </marker>
  <marker id="marker1337" overflow="visible" orient="auto">
   <path transform="scale(.8)" d="m5.77 0-8.65 5v-10l8.65 5z" fill-rule="evenodd" stroke="#000" stroke-width="1pt"/>
  </marker>
  <marker id="marker1283" overflow="visible" orient="auto">
   <path transform="scale(.8)" d="m5.77 0-8.65 5v-10l8.65 5z" fill-rule="evenodd" stroke="#000" stroke-width="1pt"/>
  </marker>
  <marker id="marker1237" overflow="visible" orient="auto">
   <path transform="scale(.8)" d="m5.77 0-8.65 5v-10l8.65 5z" fill-rule="evenodd" stroke="#000" stroke-width="1pt"/>
  </marker>
  <marker id="TriangleOutL" overflow="visible" orient="auto">
   <path transform="scale(.8)" d="m5.77 0-8.65 5v-10l8.65 5z" fill-rule="evenodd" stroke="#000" stroke-width="1pt"/>
  </marker>
 </defs>
 <metadata>
  <rdf:RDF>
   <cc:Work rdf:about="">
    <dc:format>image/svg+xml</dc:format>
    <dc:type rdf:resource="http://purl.org/dc/dcmitype/StillImage"/>
    <dc:title/>
   </cc:Work>
  </rdf:RDF>
 </metadata>
 <g fill="none" stroke="#000">
  <path d="m0.499 0.499h499v499h-499z" stroke-width=".998"/>
  <g stroke-width="1px">
   <path d="m125.5 0v500"/>
   <path d="m250.5 0v500"/>
   <path d="m375.5 0v500"/>
   <path d="m0 125.5h500"/>
   <path d="m0 250.5h500"/>
   <path d="m0 375.5h500"/>
  </g>
 </g>
 <g fill-rule="evenodd" stroke="#000" stroke-linejoin="round">
  <circle cx="60" cy="60" r="42" fill="#fd5" stroke-width="1.0016"/>
  <path transform="matrix(1.2025 0 0 1.2029 -91.098 -81.475)" d="m478.73 463.54h-77.46l38.73-67.082z" fill="#f59" stroke-width=".83277"/>
  <g fill="#acf">
   <rect x="137" y="137" width="100" height="100"/>
   <g stroke-width="1.0016">
    <rect x="388" y="136" width="100" height="100"/>
    <rect x="388" y="263" width="100" height="100"/>
    <rect x="13" y="387" width="100" height="100"/>
   </g>
  </g>
 </g>
 <g font-family="Roboto" font-size="40px">
  <text x="48.105469" y="74.21875" style="line-height:1.25" xml:space="preserve"><tspan x="48.105469" y="74.21875">S</tspan></text>
  <text x="424.56995" y="461.39032" style="line-height:1.25" xml:space="preserve"><tspan x="424.56995" y="461.39032">G</tspan></text>
  <text x="178.92023" y="74.21875" style="line-height:1.25" xml:space="preserve"><tspan x="178.92023" y="74.21875">F</tspan></text>
  <text x="305.49234" y="74.21875" style="line-height:1.25" xml:space="preserve"><tspan x="305.49234" y="74.21875">F</tspan></text>
  <text x="427.82181" y="74.21875" style="line-height:1.25" xml:space="preserve"><tspan x="427.82181" y="74.21875">F</tspan></text>
  <text x="45.984146" y="198.66954" style="line-height:1.25" xml:space="preserve"><tspan x="45.984146" y="198.66954">F</tspan></text>
  <text x="304.07812" y="198.66954" style="line-height:1.25" xml:space="preserve"><tspan x="304.07812" y="198.66954">F</tspan></text>
  <text x="45.984146" y="329.48428" style="line-height:1.25" xml:space="preserve"><tspan x="45.984146" y="329.48428">F</tspan></text>
  <text x="179.62732" y="329.48428" style="line-height:1.25" xml:space="preserve"><tspan x="179.62732" y="329.48428">F</tspan></text>
  <text x="302.66391" y="329.48428" style="line-height:1.25" xml:space="preserve"><tspan x="302.66391" y="329.48428">F</tspan></text>
  <text x="179.62732" y="456.76349" style="line-height:1.25" xml:space="preserve"><tspan x="179.62732" y="456.76349">F</tspan></text>
  <text x="303.371" y="456.76349" style="line-height:1.25" xml:space="preserve"><tspan x="303.371" y="456.76349">F</tspan></text>
  <text x="173.97047" y="198.66954" style="line-height:1.25" xml:space="preserve"><tspan x="173.97047" y="198.66954">H</tspan></text>
  <text x="425.11469" y="198.66954" style="line-height:1.25" xml:space="preserve"><tspan x="425.11469" y="198.66954">H</tspan></text>
  <text x="44.569935" y="450.39954" style="line-height:1.25" xml:space="preserve"><tspan x="44.569935" y="450.39954">H</tspan></text>
  <text x="425.11469" y="328.77719" style="line-height:1.25" xml:space="preserve"><tspan x="425.11469" y="328.77719">H</tspan></text>
 </g>
 <g fill="none" stroke="#000">
  <path d="m65 60h50" marker-end="url(#TriangleOutL)" stroke-width="1.0016"/>
  <g stroke-width="1.0016">
   <path d="m190 60h50" marker-end="url(#marker1237)"/>
   <path d="m315 65v50" marker-end="url(#marker1283)"/>
   <path d="m315 190v50" marker-end="url(#marker1337)"/>
   <path d="m315 315v50" marker-end="url(#marker1393)"/>
   <path d="m315 440h50" marker-end="url(#marker1457)"/>
   <path d="m440 60h-50" marker-end="url(#marker1535)"/>
   <path d="m60 190v50" marker-end="url(#marker1621)"/>
   <path d="m190 190v50" marker-end="url(#marker1709)"/>
   <path d="m440 190v50" marker-end="url(#marker1823)"/>
   <path d="m440 320v50" marker-end="url(#marker1927)"/>
   <path d="m60 312h50" marker-end="url(#marker2045)"/>
   <path d="m190 315v50" marker-end="url(#marker2171)"/>
   <path d="m190 440h50" marker-end="url(#marker2305)"/>
   <path d="m60 440h50" marker-end="url(#marker2441)"/>
   <path d="m430 440h50" marker-end="url(#marker2591)"/>
  </g>
 </g>
 <g font-family="Roboto" font-size="40px">
  <text x="100" y="110" style="line-height:1.25" xml:space="preserve"><tspan x="100" y="110">0</tspan></text>
  <text x="220.25626" y="110" style="line-height:1.25" xml:space="preserve"><tspan x="220.25626" y="110">1</tspan></text>
  <text x="347.9812" y="110" style="line-height:1.25" xml:space="preserve"><tspan x="347.9812" y="110">2</tspan></text>
  <text x="467.27539" y="110" style="line-height:1.25" xml:space="preserve"><tspan x="467.27539" y="110">3</tspan></text>
  <text x="100" y="236.02855" style="line-height:1.25" xml:space="preserve"><tspan x="100" y="236.02855">4</tspan></text>
  <text x="98.075897" y="363.01917" style="line-height:1.25" xml:space="preserve"><tspan x="98.075897" y="363.01917">8</tspan></text>
  <text x="224.10445" y="236.02855" style="line-height:1.25" xml:space="preserve"><tspan x="224.10445" y="236.02855">5</tspan></text>
  <text x="349.17096" y="236.02855" style="line-height:1.25" xml:space="preserve"><tspan x="349.17096" y="236.02855">6</tspan></text>
  <text x="471.35132" y="236.02855" style="line-height:1.25" xml:space="preserve"><tspan x="471.35132" y="236.02855">7</tspan></text>
  <text x="224.10445" y="363.01917" style="line-height:1.25" xml:space="preserve"><tspan x="224.10445" y="363.01917">9</tspan></text>
  <text x="326.08176" y="363.01917" style="line-height:1.25" xml:space="preserve"><tspan x="326.08176" y="363.01917">10</tspan></text>
  <text x="454.99646" y="363.01917" style="line-height:1.25" xml:space="preserve"><tspan x="454.99646" y="363.01917">11</tspan></text>
  <text x="75.948753" y="490.00977" style="line-height:1.25" xml:space="preserve"><tspan x="75.948753" y="490.00977">12</tspan></text>
  <text x="201.01524" y="490.00977" style="line-height:1.25" xml:space="preserve"><tspan x="201.01524" y="490.00977">13</tspan></text>
  <text x="325.11972" y="490.00977" style="line-height:1.25" xml:space="preserve"><tspan x="325.11972" y="490.00977">14</tspan></text>
  <text x="450.18622" y="490.00977" style="line-height:1.25" xml:space="preserve"><tspan x="450.18622" y="490.00977">15</tspan></text>
 </g>
</svg>
