<?xml version="1.0" encoding="UTF-8"?>
<svg width="500" height="500" version="1.1" viewBox="0 0 500 500" xmlns="http://www.w3.org/2000/svg" xmlns:cc="http://creativecommons.org/ns#" xmlns:dc="http://purl.org/dc/elements/1.1/" xmlns:rdf="http://www.w3.org/1999/02/22-rdf-syntax-ns#">
 <defs>
  <marker id="marker1689" overflow="visible" orient="auto">
   <path transform="scale(.8)" d="m5.77 0-8.65 5v-10l8.65 5z" fill-rule="evenodd" stroke="#000" stroke-width="1pt"/>
  </marker>
  <marker id="marker1601" overflow="visible" orient="auto">
   <path transform="scale(.8)" d="m5.77 0-8.65 5v-10l8.65 5z" fill-rule="evenodd" stroke="#000" stroke-width="1pt"/>
  </marker>
  <marker id="marker1521" overflow="visible" orient="auto">
   <path transform="scale(.8)" d="m5.77 0-8.65 5v-10l8.65 5z" fill-rule="evenodd" stroke="#000" stroke-width="1pt"/>
  </marker>
  <marker id="marker1443" overflow="visible" orient="auto">
   <path transform="scale(.8)" d="m5.77 0-8.65 5v-10l8.65 5z" fill-rule="evenodd" stroke="#000" stroke-width="1pt"/>
  </marker>
  <marker id="marker1379" overflow="visible" orient="auto">
   <path transform="scale(.8)" d="m5.77 0-8.65 5v-10l8.65 5z" fill-rule="evenodd" stroke="#000" stroke-width="1pt"/>
  </marker>
  <marker id="marker1323" overflow="visible" orient="auto">
   <path transform="scale(.8)" d="m5.77 0-8.65 5v-10l8.65 5z" fill-rule="evenodd" stroke="#000" stroke-width="1pt"/>
  </marker>
  <marker id="marker1269" overflow="visible" orient="auto">
   <path transform="scale(.8)" d="m5.77 0-8.65 5v-10l8.65 5z" fill-rule="evenodd" stroke="#000" stroke-width="1pt"/>
  </marker>
  <marker id="TriangleOutL" overflow="visible" orient="auto">
   <path transform="scale(.8)" d="m5.77 0-8.65 5v-10l8.65 5z" fill-rule="evenodd" stroke="#000" stroke-width="1pt"/>
  </marker>
 </defs>
 <metadata>
  <rdf:RDF>
   <cc:Work rdf:about="">
    <dc:format>image/svg+xml</dc:format>
    <dc:type rdf:resource="http://purl.org/dc/dcmitype/StillImage"/>
    <dc:title/>
   </cc:Work>
  </rdf:RDF>
 </metadata>
 <g fill="none" stroke="#000">
  <path d="m0.499 0.499h499v499h-499z" stroke-width=".998"/>
  <g stroke-width="1px">
   <path d="m125.5 0v500"/>
   <path d="m250.5 0v500"/>
   <path d="m375.5 0v500"/>
   <path d="m0 125.5h500"/>
   <path d="m0 250.5h500"/>
   <path d="m0 375.5h500"/>
  </g>
 </g>
 <g fill-rule="evenodd" stroke="#000" stroke-linejoin="round">
  <circle cx="60" cy="60" r="42" fill="#fd5" stroke-width="1.0016"/>
  <path transform="matrix(1.2025 0 0 1.2029 -91.098 -81.475)" d="m478.73 463.54h-77.46l38.73-67.082z" fill="#f59" stroke-width=".83277"/>
  <g fill="#acf">
   <rect x="137" y="137" width="100" height="100"/>
   <g stroke-width="1.0016">
    <rect x="388" y="136" width="100" height="100"/>
    <rect x="388" y="263" width="100" height="100"/>
    <rect x="13" y="387" width="100" height="100"/>
   </g>
  </g>
 </g>
 <g font-family="Roboto" font-size="40px">
  <text x="48.105469" y="74.21875" style="line-height:1.25" xml:space="preserve"><tspan x="48.105469" y="74.21875">S</tspan></text>
  <text x="424.56995" y="461.39032" style="line-height:1.25" xml:space="preserve"><tspan x="424.56995" y="461.39032">G</tspan></text>
  <text x="178.92023" y="74.21875" style="line-height:1.25" xml:space="preserve"><tspan x="178.92023" y="74.21875">F</tspan></text>
  <text x="305.49234" y="74.21875" style="line-height:1.25" xml:space="preserve"><tspan x="305.49234" y="74.21875">F</tspan></text>
  <text x="427.82181" y="74.21875" style="line-height:1.25" xml:space="preserve"><tspan x="427.82181" y="74.21875">F</tspan></text>
  <text x="45.984146" y="198.66954" style="line-height:1.25" xml:space="preserve"><tspan x="45.984146" y="198.66954">F</tspan></text>
  <text x="304.07812" y="198.66954" style="line-height:1.25" xml:space="preserve"><tspan x="304.07812" y="198.66954">F</tspan></text>
  <text x="45.984146" y="329.48428" style="line-height:1.25" xml:space="preserve"><tspan x="45.984146" y="329.48428">F</tspan></text>
  <text x="179.62732" y="329.48428" style="line-height:1.25" xml:space="preserve"><tspan x="179.62732" y="329.48428">F</tspan></text>
  <text x="302.66391" y="329.48428" style="line-height:1.25" xml:space="preserve"><tspan x="302.66391" y="329.48428">F</tspan></text>
  <text x="179.62732" y="456.76349" style="line-height:1.25" xml:space="preserve"><tspan x="179.62732" y="456.76349">F</tspan></text>
  <text x="303.371" y="456.76349" style="line-height:1.25" xml:space="preserve"><tspan x="303.371" y="456.76349">F</tspan></text>
  <text x="173.97047" y="198.66954" style="line-height:1.25" xml:space="preserve"><tspan x="173.97047" y="198.66954">H</tspan></text>
  <text x="425.11469" y="198.66954" style="line-height:1.25" xml:space="preserve"><tspan x="425.11469" y="198.66954">H</tspan></text>
  <text x="44.569935" y="450.39954" style="line-height:1.25" xml:space="preserve"><tspan x="44.569935" y="450.39954">H</tspan></text>
  <text x="425.11469" y="328.77719" style="line-height:1.25" xml:space="preserve"><tspan x="425.11469" y="328.77719">H</tspan></text>
 </g>
 <g fill="none" stroke="#000" stroke-width="1.0016">
  <path d="m106 65h60" marker-end="url(#TriangleOutL)"/>
  <path d="m225 65h60" marker-end="url(#marker1269)"/>
  <path d="m315 90v60" marker-end="url(#marker1323)"/>
  <path d="m315 225v60" marker-end="url(#marker1379)"/>
  <path d="m290 315h-60" marker-end="url(#marker1443)"/>
  <path d="m190 350v60" marker-end="url(#marker1521)"/>
  <path d="m225 440h60" marker-end="url(#marker1601)"/>
  <path d="m340 440h60" marker-end="url(#marker1689)"/>
 </g>
 <g font-family="Roboto" font-size="40px">
  <text x="220" y="110" style="line-height:1.25" xml:space="preserve"><tspan x="220" y="110">0</tspan></text>
  <text x="345.85034" y="110" style="line-height:1.25" xml:space="preserve"><tspan x="345.85034" y="110">0</tspan></text>
  <text x="345.85034" y="237.21089" style="line-height:1.25" xml:space="preserve"><tspan x="345.85034" y="237.21089">0</tspan></text>
  <text x="345.85034" y="364.42178" style="line-height:1.25" xml:space="preserve"><tspan x="345.85034" y="364.42178">0</tspan></text>
  <text x="216.59865" y="366.46259" style="line-height:1.25" xml:space="preserve"><tspan x="216.59865" y="366.46259">0</tspan></text>
  <text x="216.59865" y="490.95239" style="line-height:1.25" xml:space="preserve"><tspan x="216.59865" y="490.95239">0</tspan></text>
  <text x="347.21091" y="488.23129" style="line-height:1.25" xml:space="preserve"><tspan x="347.21091" y="488.23129">0</tspan></text>
  <text x="474.42181" y="416.80273" fill="#445016" style="line-height:1.25" xml:space="preserve"><tspan x="474.42181" y="416.80273">1</tspan></text>
 </g>
</svg>
