<?xml version="1.0" encoding="UTF-8"?>
<svg width="500" height="500" version="1.1" viewBox="0 0 500 500" xmlns="http://www.w3.org/2000/svg" xmlns:cc="http://creativecommons.org/ns#" xmlns:dc="http://purl.org/dc/elements/1.1/" xmlns:osb="http://www.openswatchbook.org/uri/2009/osb" xmlns:rdf="http://www.w3.org/1999/02/22-rdf-syntax-ns#">
 <defs>
  <marker id="marker3604" overflow="visible" orient="auto">
   <path transform="scale(.8) rotate(180) translate(12.5)" d="m0 0 5-5-17.5 5 17.5 5-5-5z" fill-rule="evenodd" stroke="#000" stroke-width="1pt"/>
  </marker>
  <marker id="Arrow1Lend" overflow="visible" orient="auto">
   <path transform="scale(.8) rotate(180) translate(12.5)" d="m0 0 5-5-17.5 5 17.5 5-5-5z" fill-rule="evenodd" stroke="#000" stroke-width="1pt"/>
  </marker>
  <pattern id="Wavy" width="30.066020" height="5.1805778" patternUnits="userSpaceOnUse">
   <path d="m7.597 0.061c-2.518-0.248-4.941 0.241-7.607 1.727v1.273c2.783-1.63 5.183-2.009 7.482-1.781 2.298 0.228 4.497 1.081 6.781 1.938 4.567 1.713 9.551 3.458 15.813-0.157l-4e-3 -1.273c-6.44 3.709-10.816 1.982-15.371 0.273-2.278-0.854-4.576-1.75-7.094-2z"/>
  </pattern>
 </defs>
 <metadata>
  <rdf:RDF>
   <cc:Work rdf:about="">
    <dc:format>image/svg+xml</dc:format>
    <dc:type rdf:resource="http://purl.org/dc/dcmitype/StillImage"/>
    <dc:title/>
   </cc:Work>
  </rdf:RDF>
 </metadata>
 <g stroke="#000">
  <rect x=".5" y=".5" width="499" height="499" fill="none" stroke-linejoin="round"/>
  <g fill="#ccc" fill-rule="evenodd" stroke-linejoin="round">
   <g>
    <rect x="20" y="20" width="100" height="30"/>
    <g>
     <rect x="140" y="20" width="100" height="30"/>
     <rect x="260" y="20" width="100" height="30"/>
     <rect x="380" y="20" width="100" height="30"/>
    </g>
   </g>
   <g>
    <rect x="80" y="70" width="100" height="30"/>
    <rect x="200" y="70" width="100" height="30"/>
    <rect x="320" y="70" width="100" height="30"/>
    <rect x="20" y="120" width="100" height="30"/>
    <rect x="140" y="120" width="100" height="30"/>
    <rect x="260" y="120" width="100" height="30"/>
    <rect x="380" y="120" width="100" height="30"/>
    <rect x="80" y="170" width="100" height="30"/>
    <rect x="200" y="170" width="100" height="30"/>
    <rect x="320" y="170" width="100" height="30"/>
   </g>
  </g>
  <circle cx="185.61" cy="247.83" r="16.414" fill="url(#Wavy)" fill-rule="evenodd" stroke-linejoin="round"/>
  <g fill="none">
   <rect x="100" y="450" width="170" height="30" ry="15" stroke-linejoin="round"/>
   <g>
    <g stroke-width="1px">
     <path d="m110 480 20-30"/>
     <path d="m130 480 20-30"/>
     <path d="m150 480 20-30"/>
     <path d="m170 480 20-30"/>
     <path d="m190 480 20-30"/>
     <path d="m210 480 20-30"/>
     <path d="m230 480 20-30"/>
    </g>
    <path d="m210 270 150 160" marker-end="url(#marker3604)" stroke-dasharray="1,8"/>
    <path d="m290 470h180" marker-end="url(#Arrow1Lend)" stroke-dasharray="1,6"/>
   </g>
  </g>
 </g>
</svg>
