<?xml version="1.0" encoding="UTF-8"?>
<svg width="500" height="500" version="1.1" viewBox="0 0 500 500" xmlns="http://www.w3.org/2000/svg" xmlns:cc="http://creativecommons.org/ns#" xmlns:dc="http://purl.org/dc/elements/1.1/" xmlns:osb="http://www.openswatchbook.org/uri/2009/osb" xmlns:rdf="http://www.w3.org/1999/02/22-rdf-syntax-ns#">
 <defs>
  <marker id="marker2594" overflow="visible" orient="auto">
   <path transform="scale(.4)" d="m0-7.0711-7.0711 7.0711 7.0711 7.0711 7.071-7.0711-7.071-7.0711z" fill="#fff" fill-rule="evenodd" stroke="#000" stroke-width="1pt"/>
  </marker>
  <marker id="EmptyDiamondM" overflow="visible" orient="auto">
   <path transform="scale(.4)" d="m0-7.0711-7.0711 7.0711 7.0711 7.0711 7.071-7.0711-7.071-7.0711z" fill="#fff" fill-rule="evenodd" stroke="#000" stroke-width="1pt"/>
  </marker>
 </defs>
 <metadata>
  <rdf:RDF>
   <cc:Work rdf:about="">
    <dc:format>image/svg+xml</dc:format>
    <dc:type rdf:resource="http://purl.org/dc/dcmitype/StillImage"/>
    <dc:title/>
   </cc:Work>
  </rdf:RDF>
 </metadata>
 <rect x=".5" y=".5" width="499" height="499" fill="none" stroke="#000" stroke-linejoin="round"/>
 <g fill="#e3dbdb" fill-rule="evenodd" stroke="#000" stroke-linejoin="round" stroke-width="3">
  <rect x="64.192" y="47.26" width="20" height="100"/>
  <rect x="94.192" y="107.26" width="20" height="40"/>
  <rect x="124.19" y="77.26" width="20" height="70"/>
  <rect x="154.19" y="57.26" width="20" height="90"/>
  <rect transform="scale(1,-1)" x="184.19" y="-187.26" width="20" height="40"/>
  <rect transform="scale(1,-1)" x="214.19" y="-147.26" width="20" height="50"/>
  <rect transform="scale(1,-1)" x="244.19" y="-147.26" width="20" height="130"/>
  <rect x="274.19" y="147.26" width="20" height="50"/>
  <rect x="304.19" y="127.26" width="20" height="20"/>
  <rect x="64.192" y="257.26" width="20" height="100"/>
  <rect x="94.192" y="317.26" width="20" height="40"/>
  <rect x="124.19" y="287.26" width="20" height="70"/>
  <rect x="154.19" y="267.26" width="20" height="90"/>
  <rect transform="scale(1,-1)" x="184.19" y="-397.26" width="20" height="40"/>
  <rect transform="scale(1,-1)" x="214.19" y="-357.26" width="20" height="50"/>
  <rect transform="scale(1,-1)" x="244.19" y="-357.26" width="20" height="130"/>
  <rect x="274.19" y="357.26" width="20" height="50"/>
  <rect x="304.19" y="337.26" width="20" height="20"/>
 </g>
 <rect x="64.192" y="257.26" width="20" height="20" fill="#de8787" fill-rule="evenodd" stroke="#000" stroke-linejoin="round" stroke-width="3"/>
 <rect x="304.19" y="317.26" width="20" height="20" fill="#80b3ff" fill-rule="evenodd" stroke="#000" stroke-linejoin="round" stroke-width="3"/>
 <g fill="#000000" font-family="Roboto" font-size="20.477px">
  <text transform="rotate(-90)" x="-489.15549" y="79.906662" style="line-height:1.25" xml:space="preserve"><tspan x="-489.15549" y="79.906662" font-family="Roboto">Stock 1</tspan></text>
  <text transform="rotate(-90)" x="-489.15549" y="109.90666" style="line-height:1.25" xml:space="preserve"><tspan x="-489.15549" y="109.90666" font-family="Roboto">Stock 2</tspan></text>
  <text transform="rotate(-90)" x="-489.15549" y="141.33525" style="line-height:1.25" xml:space="preserve"><tspan x="-489.15549" y="141.33525" font-family="Roboto">Stock 3</tspan></text>
  <text transform="rotate(-90)" x="-489.15549" y="169.19237" style="line-height:1.25" xml:space="preserve"><tspan x="-489.15549" y="169.19237" font-family="Roboto">Stock 4</tspan></text>
  <text transform="rotate(-90)" x="-489.15549" y="200.62094" style="line-height:1.25" xml:space="preserve"><tspan x="-489.15549" y="200.62094" font-family="Roboto">Stock 5</tspan></text>
  <text transform="rotate(-90)" x="-489.15549" y="232.04951" style="line-height:1.25" xml:space="preserve"><tspan x="-489.15549" y="232.04951" font-family="Roboto">Stock 6</tspan></text>
  <text transform="rotate(-90)" x="-489.15549" y="259.19238" style="line-height:1.25" xml:space="preserve"><tspan x="-489.15549" y="259.19238" font-family="Roboto">Stock 7</tspan></text>
  <text transform="rotate(-90)" x="-489.15549" y="289.90665" style="line-height:1.25" xml:space="preserve"><tspan x="-489.15549" y="289.90665" font-family="Roboto">Stock 8</tspan></text>
  <text transform="rotate(-90)" x="-489.15549" y="323.47809" style="line-height:1.25" xml:space="preserve"><tspan x="-489.15549" y="323.47809" font-family="Roboto">Stock 9</tspan></text>
 </g>
 <g transform="matrix(.13379 0 0 .13379 401.03 172.48)" fill="#fd5" fill-rule="evenodd" stroke="#000" stroke-linejoin="round" stroke-width="7.4742">
  <circle cx="678.64" cy="642.95" r="10"/>
  <circle cx="701.66" cy="449.46" r="10"/>
  <circle cx="629.76" cy="368.51" r="10"/>
  <circle cx="706.03" cy="298.86" r="10"/>
  <circle cx="628.91" cy="228.29" r="10"/>
 </g>
 <g transform="translate(14.192 7.26)" stroke="#000">
  <g transform="matrix(.13379 0 0 .13379 386.33 165.3)" fill="none" stroke-width="7.4742">
   <path d="m317.42 159.98v-71.523"/>
   <path d="m467.42 159.98v-71.523"/>
   <path d="m419.27 159.98v-71.523"/>
   <path d="m369.27 159.98s-6.3853-48.553 0-71.523c5.0705-18.24 29.312-48.648 29.312-48.648"/>
  </g>
  <rect x="411.81" y="186.09" width="47.848" height="47.848" ry="4.7861" fill="#f59"/>
  <rect x="416.6" y="190.88" width="38.277" height="38.277" ry="2.6463" fill="#ececec"/>
  <g transform="matrix(.13379 0 0 .13379 386.33 165.3)" fill="none" stroke-width="7.4742">
   <path d="m367.42 514.82v127.54"/>
   <path d="m548.07 226.92h71.523"/>
   <path d="m548.07 298.44h147.66"/>
   <path d="m548.07 369.97h71.523"/>
   <path d="m190.46 226.92h-71.523"/>
   <path d="m190.46 298.44h-153.01"/>
   <path d="m190.46 441.49h-136.34"/>
   <path d="m321.12 514.82v161.74"/>
   <path d="m269.27 149.98s10-20 0-60-80-90-150-50-80 50-80 50"/>
  </g>
  <g transform="matrix(.13379 0 0 .13379 386.33 165.3)" stroke-width="7.4742">
   <circle cx="39.266" cy="89.975" r="10" fill="#fd5" fill-rule="evenodd" stroke-linejoin="round"/>
   <path d="m265.15 514.83s54.116 65.144 4.1155 85.144-80 30-80 30" fill="none"/>
   <circle cx="189.27" cy="629.98" r="10" fill="#fd5" fill-rule="evenodd" stroke-linejoin="round"/>
  </g>
  <circle cx="435.74" cy="210.02" r="13.15" fill="#fd5" fill-rule="evenodd" stroke-linejoin="round"/>
  <g transform="matrix(.13379 0 0 .13379 386.33 165.3)" stroke-width="7.4742">
   <path d="m401.14 259.34h-62.657l31.328-54.262z"/>
   <circle cx="460.29" cy="360.93" r="26.243"/>
   <rect transform="rotate(-45)" x="-89.012" y="456.01" width="42.74" height="42.74"/>
  </g>
  <g transform="matrix(.13379 0 0 .13379 386.33 165.3)" fill="#fd5" fill-rule="evenodd" stroke-linejoin="round" stroke-width="7.4742">
   <circle cx="317.18" cy="81.245" r="10"/>
   <circle cx="404.64" cy="33.402" r="10"/>
   <circle cx="114.93" cy="225.3" r="10"/>
   <circle cx="419.56" cy="80.216" r="10"/>
   <circle cx="467.4" cy="82.788" r="10"/>
   <circle cx="34.117" cy="298.35" r="10"/>
  </g>
  <path d="m411.69 213.37s-9.7737-4.0609-16.174 0.0688" fill="none"/>
  <g transform="matrix(.13379 0 0 .13379 386.33 165.3)" fill="#fd5" fill-rule="evenodd" stroke-linejoin="round" stroke-width="7.4742">
   <circle cx="67.81" cy="361.39" r="10"/>
   <circle cx="43.936" cy="441.36" r="10"/>
   <circle cx="321.12" cy="681.44" r="10"/>
   <circle cx="366.95" cy="651.62" r="10"/>
  </g>
  <g transform="matrix(.13379 0 0 .13379 386.33 165.3)" stroke-width="7.4742">
   <path d="m418.49 514.13s-28.809 53.502-2.0578 93.628c26.751 40.126 79.224 80.253 114.21 78.195" fill="none"/>
   <circle cx="541.86" cy="686.6" r="10" fill="#fd5" fill-rule="evenodd" stroke-linejoin="round"/>
   <path d="m470.6 513.42s-36.376 93.124 197.89 126.59" fill="none"/>
  </g>
  <path d="m459.66 225.48h19.756" fill="none"/>
 </g>
 <text x="25.649006" y="242.79709" font-family="Roboto" font-size="21.386px" stroke-width=".53466" style="line-height:1.25" xml:space="preserve"><tspan x="25.649006" y="242.79709" stroke-width=".53466">Minus 10 Shares</tspan></text>
 <text x="276.67194" y="306.94174" font-family="Roboto" font-size="21.386px" stroke-width=".53466" style="line-height:1.25" xml:space="preserve"><tspan x="276.67194" y="306.94174" stroke-width=".53466">Plus 10 Shares</tspan></text>
 <path d="m394.19 207.26h-300v10" fill="none" marker-end="url(#EmptyDiamondM)" stroke="#000" stroke-width="1px"/>
 <path d="m414.19 257.26h-100v30" fill="none" marker-end="url(#marker2594)" stroke="#000" stroke-width="1px"/>
 <text x="5.6489968" y="102.79707" font-family="Roboto" font-size="21.386px" stroke-width=".53466" style="line-height:1.25" xml:space="preserve"><tspan x="5.6489968" y="102.79707" stroke-width=".53466">Day 1</tspan></text>
 <text x="4.934711" y="324.93991" font-family="Roboto" font-size="21.386px" stroke-width=".53466" style="line-height:1.25" xml:space="preserve"><tspan x="4.934711" y="324.93991" stroke-width=".53466">Day 2</tspan></text>
</svg>
