<?xml version="1.0" encoding="UTF-8"?>
<svg width="500" height="500" version="1.1" viewBox="0 0 500 500" xmlns="http://www.w3.org/2000/svg" xmlns:cc="http://creativecommons.org/ns#" xmlns:dc="http://purl.org/dc/elements/1.1/" xmlns:osb="http://www.openswatchbook.org/uri/2009/osb" xmlns:rdf="http://www.w3.org/1999/02/22-rdf-syntax-ns#">
 <defs>
  <marker id="marker1938" overflow="visible" orient="auto">
   <path transform="scale(.6) rotate(180) translate(0)" d="m8.7186 4.0337-10.926-4.0177 10.926-4.0177c-1.7455 2.3721-1.7354 5.6175-6e-7 8.0354z" fill-rule="evenodd" stroke="#000" stroke-linejoin="round" stroke-width=".625"/>
  </marker>
  <marker id="marker1868" overflow="visible" orient="auto">
   <path transform="scale(.4)" d="m0-7.0711-7.0711 7.0711 7.0711 7.0711 7.071-7.0711-7.071-7.0711z" fill="#fff" fill-rule="evenodd" stroke="#000" stroke-width="1pt"/>
  </marker>
  <marker id="Arrow2Mend" overflow="visible" orient="auto">
   <path transform="scale(.6) rotate(180) translate(0)" d="m8.7186 4.0337-10.926-4.0177 10.926-4.0177c-1.7455 2.3721-1.7354 5.6175-6e-7 8.0354z" fill-rule="evenodd" stroke="#000" stroke-linejoin="round" stroke-width=".625"/>
  </marker>
  <marker id="marker2594" overflow="visible" orient="auto">
   <path transform="scale(.4)" d="m0-7.0711-7.0711 7.0711 7.0711 7.0711 7.071-7.0711-7.071-7.0711z" fill="#fff" fill-rule="evenodd" stroke="#000" stroke-width="1pt"/>
  </marker>
 </defs>
 <metadata>
  <rdf:RDF>
   <cc:Work rdf:about="">
    <dc:format>image/svg+xml</dc:format>
    <dc:type rdf:resource="http://purl.org/dc/dcmitype/StillImage"/>
    <dc:title/>
   </cc:Work>
  </rdf:RDF>
 </metadata>
 <g stroke="#000">
  <g fill="none">
   <path d="m128.79 93.944 28.789-29.294" stroke-width="1px"/>
   <path d="m77.277 85.863 28.789 23.739" stroke-width="1px"/>
   <rect x=".5" y=".5" width="499" height="499" stroke-linejoin="round"/>
  </g>
  <g transform="translate(-508.11 82.833)">
   <g fill="#fd5" fill-rule="evenodd" stroke-linejoin="round">
    <circle cx="636.62" cy="261.33" r="1.3379"/>
    <circle cx="639.7" cy="235.44" r="1.3379"/>
    <circle cx="630.08" cy="224.61" r="1.3379"/>
    <circle cx="640.29" cy="215.29" r="1.3379"/>
    <circle cx="629.97" cy="205.85" r="1.3379"/>
   </g>
   <g fill="none">
    <path d="m587.79 196.79v-9.5694"/>
    <path d="m607.85 196.79v-9.5694"/>
    <path d="m601.41 196.79v-9.5694"/>
    <path d="m594.72 196.79s-0.85432-6.4961 0-9.5694c0.6784-2.4404 3.9218-6.5088 3.9218-6.5088"/>
   </g>
   <rect x="570.8" y="196.17" width="47.848" height="47.848" ry="4.7861" fill="#f59"/>
   <rect x="575.58" y="200.96" width="38.277" height="38.277" ry="2.6463" fill="#ececec"/>
   <g fill="none">
    <path d="m594.48 244.26v17.064"/>
    <path d="m618.65 205.74h9.5694"/>
    <path d="m618.65 215.31h19.756"/>
    <path d="m618.65 224.88h9.5694"/>
    <path d="m570.8 205.74h-9.5694"/>
    <path d="m570.8 215.31h-20.472"/>
    <path d="m570.8 234.45h-18.242"/>
    <path d="m588.28 244.26v21.64"/>
    <path d="m581.34 195.45s1.3379-2.6759 0-8.0277c-1.338-5.3518-10.704-12.042-20.069-6.6897-9.3656 5.3518-10.704 6.6897-10.704 6.6897"/>
   </g>
   <circle cx="550.57" cy="187.42" r="1.3379" fill="#fd5" fill-rule="evenodd" stroke-linejoin="round"/>
   <path d="m580.79 244.26s7.2404 8.7159 0.55063 11.392-10.704 4.0138-10.704 4.0138" fill="none"/>
   <circle cx="570.64" cy="259.67" r="1.3379" fill="#fd5" fill-rule="evenodd" stroke-linejoin="round"/>
   <circle cx="594.72" cy="220.1" r="13.15" fill="#fd5" fill-rule="evenodd" stroke-linejoin="round"/>
   <path d="m598.99 210.08h-8.3832l4.1915-7.26z"/>
   <circle cx="606.9" cy="223.67" r="3.5112"/>
   <rect transform="rotate(-45)" x="249.67" y="570.62" width="5.7184" height="5.7184"/>
   <g fill="#fd5" fill-rule="evenodd" stroke-linejoin="round">
    <circle cx="587.75" cy="186.25" r="1.3379"/>
    <circle cx="599.46" cy="179.85" r="1.3379"/>
    <circle cx="560.69" cy="205.53" r="1.3379"/>
    <circle cx="601.45" cy="186.11" r="1.3379"/>
    <circle cx="607.85" cy="186.46" r="1.3379"/>
    <circle cx="549.88" cy="215.3" r="1.3379"/>
   </g>
   <path d="m570.68 223.45s-9.7737-4.0609-16.174 0.0688" fill="none"/>
   <g fill="#fd5" fill-rule="evenodd" stroke-linejoin="round">
    <circle cx="554.39" cy="223.73" r="1.3379"/>
    <circle cx="551.19" cy="234.43" r="1.3379"/>
    <circle cx="588.28" cy="266.56" r="1.3379"/>
    <circle cx="594.41" cy="262.57" r="1.3379"/>
   </g>
   <path d="m601.31 244.17s-3.8545 7.1583-0.27532 12.527c3.5791 5.3686 10.6 10.737 15.281 10.462" fill="none"/>
   <circle cx="617.81" cy="267.25" r="1.3379" fill="#fd5" fill-rule="evenodd" stroke-linejoin="round"/>
   <path d="m608.28 244.08s-4.8669 12.459 26.477 16.937" fill="none"/>
   <path d="m618.65 235.56h19.756" fill="none"/>
  </g>
  <g fill-rule="evenodd" stroke-linejoin="round" stroke-width="1.874">
   <g transform="matrix(.53335 0 0 .5339 -79.924 -61.262)">
    <path transform="matrix(.98998 0 0 .99 2.5038 2.5)" d="m293.3 225v50l-43.301 25-43.301-25v-50l43.301-25z" fill="#fd5" stroke-width="1.8929"/>
    <g fill="#f59" stroke-width="1.874">
     <circle cx="208.99" cy="227.07" r="10.683"/>
     <circle cx="208.48" cy="274.95" r="10.683"/>
     <circle cx="250" cy="300" r="10.683"/>
     <circle cx="250" cy="200" r="10.683"/>
     <circle cx="293.2" cy="274.95" r="10.683"/>
     <circle cx="292.02" cy="228.08" r="10.683"/>
     <circle cx="250" cy="249.32" r="10.683"/>
    </g>
   </g>
   <g transform="matrix(.53335 0 0 .5339 -6.1824 -12.269)">
    <path transform="matrix(.98998 0 0 .99 2.5038 2.5)" d="m293.3 225v50l-43.301 25-43.301-25v-50l43.301-25z" fill="#fd5" stroke-width="1.8929"/>
    <g fill="#f59" stroke-width="1.874">
     <circle cx="208.99" cy="227.07" r="10.683"/>
     <circle cx="208.48" cy="274.95" r="10.683"/>
     <circle cx="250" cy="300" r="10.683"/>
     <circle cx="250" cy="200" r="10.683"/>
     <circle cx="293.2" cy="274.95" r="10.683"/>
     <circle cx="292.02" cy="228.08" r="10.683"/>
     <circle cx="250" cy="249.32" r="10.683"/>
    </g>
   </g>
   <g transform="matrix(.53335 0 0 .5339 44.83 -81.97)">
    <path transform="matrix(.98998 0 0 .99 2.5038 2.5)" d="m293.3 225v50l-43.301 25-43.301-25v-50l43.301-25z" fill="#fd5" stroke-width="1.8929"/>
    <g fill="#f59" stroke-width="1.874">
     <circle cx="208.99" cy="227.07" r="10.683"/>
     <circle cx="208.48" cy="274.95" r="10.683"/>
     <circle cx="250" cy="300" r="10.683"/>
     <circle cx="250" cy="200" r="10.683"/>
     <circle cx="293.2" cy="274.95" r="10.683"/>
     <circle cx="292.02" cy="228.08" r="10.683"/>
     <circle cx="250" cy="249.32" r="10.683"/>
    </g>
   </g>
  </g>
  <path d="m410.63 427.29 28.789-29.294" fill="none" stroke-width="1px"/>
  <path d="m359.11 419.21 28.789 23.739" fill="none" stroke-width="1px"/>
  <path transform="matrix(.52801 0 0 .52856 203.24 273.42)" d="m293.3 225v50l-43.301 25-43.301-25v-50l43.301-25z" fill="#fd5" fill-rule="evenodd" stroke-linejoin="round" stroke-width="1.8929"/>
  <g fill="#f59" fill-rule="evenodd" stroke-linejoin="round">
   <ellipse cx="313.37" cy="393.32" rx="5.6976" ry="5.7035"/>
   <ellipse cx="313.1" cy="418.88" rx="5.6976" ry="5.7035"/>
   <ellipse cx="335.25" cy="432.26" rx="5.6976" ry="5.7035"/>
   <ellipse cx="335.25" cy="378.87" rx="5.6976" ry="5.7035"/>
   <ellipse cx="358.29" cy="418.88" rx="5.6976" ry="5.7035"/>
  </g>
  <ellipse cx="357.66" cy="393.86" rx="5.6976" ry="5.7035" fill="#f00" fill-rule="evenodd" stroke-linejoin="round"/>
  <ellipse cx="335.25" cy="405.2" rx="5.6976" ry="5.7035" fill="#f59" fill-rule="evenodd" stroke-linejoin="round"/>
  <g transform="matrix(.53335 0 0 .5339 275.65 321.08)" fill-rule="evenodd" stroke-linejoin="round">
   <path transform="matrix(.98998 0 0 .99 2.5038 2.5)" d="m293.3 225v50l-43.301 25-43.301-25v-50l43.301-25z" fill="#fd5" stroke-width="1.8929"/>
   <g fill="#f59" stroke-width="1.874">
    <circle cx="208.99" cy="227.07" r="10.683"/>
    <circle cx="208.48" cy="274.95" r="10.683"/>
    <circle cx="250" cy="300" r="10.683"/>
    <circle cx="250" cy="200" r="10.683"/>
    <circle cx="293.2" cy="274.95" r="10.683"/>
    <circle cx="292.02" cy="228.08" r="10.683"/>
    <circle cx="250" cy="249.32" r="10.683"/>
   </g>
  </g>
  <path transform="matrix(.52801 0 0 .52856 328 252.72)" d="m293.3 225v50l-43.301 25-43.301-25v-50l43.301-25z" fill="#fd5" fill-rule="evenodd" stroke-linejoin="round" stroke-width="1.8929"/>
  <g fill="#f59" fill-rule="evenodd" stroke-linejoin="round">
   <ellipse cx="438.13" cy="372.61" rx="5.6976" ry="5.7035"/>
   <ellipse cx="437.86" cy="398.18" rx="5.6976" ry="5.7035"/>
   <ellipse cx="460" cy="411.55" rx="5.6976" ry="5.7035"/>
  </g>
  <ellipse cx="460" cy="358.16" rx="5.6976" ry="5.7035" fill="#00f" fill-rule="evenodd" stroke-linejoin="round"/>
  <g fill="#f59" fill-rule="evenodd" stroke-linejoin="round">
   <ellipse cx="483.04" cy="398.18" rx="5.6976" ry="5.7035"/>
   <ellipse cx="482.41" cy="373.15" rx="5.6976" ry="5.7035"/>
   <ellipse cx="460" cy="384.49" rx="5.6976" ry="5.7035"/>
  </g>
  <path d="m90 240.57v-81.148" fill="none" marker-end="url(#Arrow2Mend)" marker-start="url(#marker2594)" stroke-dasharray="1,1"/>
  <path d="m250 50h150v300" fill="none" marker-end="url(#marker1938)" marker-start="url(#marker1868)" stroke-dasharray="1,1"/>
 </g>
</svg>
