<?xml version="1.0" encoding="UTF-8"?>
<!-- Created with Inkscape (http://www.inkscape.org/) -->
<svg width="84.72" height="200" version="1.1" viewBox="0 0 84.72 200" xmlns="http://www.w3.org/2000/svg">
 <g transform="translate(1.0972 2.5904)" stroke="#000">
  <g fill-rule="evenodd" stroke-linecap="round" stroke-linejoin="round">
   <rect transform="rotate(90)" x="187.28" y="-66.978" width="9.6314" height="9.6361" fill="#4eb6d7" style="paint-order:markers fill stroke"/>
   <rect transform="rotate(90)" x="187.28" y="-25.176" width="9.6314" height="9.6361" fill="#4eb6d7" style="paint-order:markers fill stroke"/>
   <rect transform="rotate(90)" x="142.38" y="-66.978" width="41.736" height="9.6361" fill="#ff683c" style="paint-order:markers fill stroke"/>
   <rect transform="rotate(90)" x="142.38" y="-25.176" width="41.736" height="9.6361" fill="#ff683c" style="paint-order:markers fill stroke"/>
  </g>
  <g fill="#4eb6d7" fill-rule="evenodd" stroke-linecap="round" stroke-linejoin="round">
   <rect transform="rotate(90)" x="98.665" y="-66.978" width="41.736" height="9.6361" style="paint-order:markers fill stroke"/>
   <rect transform="rotate(90)" x="98.665" y="-25.176" width="41.736" height="9.6361" style="paint-order:markers fill stroke"/>
   <rect x="12.35" y="59.967" width="57.816" height="13.912" style="paint-order:markers fill stroke"/>
  </g>
  <g fill-rule="evenodd" stroke-linecap="round" stroke-linejoin="round">
   <rect x="12.35" y="43.386" width="57.816" height="13.912" fill="#ff683c" style="paint-order:markers fill stroke"/>
   <rect x="12.35" y="26.806" width="57.816" height="13.912" fill="#4eb6d7" style="paint-order:markers fill stroke"/>
   <rect x="17.704" y="76.547" width="47.11" height="20.333" fill="#4eb6d7" style="paint-order:markers fill stroke"/>
  </g>
  <g fill="#ff683c" fill-rule="evenodd" stroke-linecap="round" stroke-linejoin="round">
   <rect x="28.411" y="-2.0904" width="25.696" height="25.684" ry="0" style="paint-order:markers fill stroke"/>
   <rect transform="rotate(90)" x="27.576" y="-9.0389" width="9.6314" height="9.6361" style="paint-order:markers fill stroke"/>
   <rect transform="matrix(0,1,1,0,0,0)" x="27.994" y="73.478" width="9.6314" height="9.6361" style="paint-order:markers fill stroke"/>
  </g>
  <g fill-rule="evenodd" stroke-linecap="round" stroke-linejoin="round">
   <rect x=".32786" y="41.233" width="7.4947" height="27.824" fill="#4eb6d7" style="paint-order:markers fill stroke"/>
   <rect transform="scale(-1,1)" x="-82.189" y="41.651" width="7.4947" height="27.824" fill="#4eb6d7" style="paint-order:markers fill stroke"/>
   <rect transform="matrix(.99997 -.0075742 .0075215 .99997 0 0)" x="-.22241" y="73.158" width="7.286" height="27.77" fill="#ff683c" style="paint-order:markers fill stroke"/>
   <rect transform="matrix(-.99999 .0041997 .0042671 .99999 0 0)" x="-81.759" y="73.128" width="7.3762" height="27.793" fill="#ff683c" style="paint-order:markers fill stroke"/>
   <rect transform="rotate(90)" x="102.61" y="-7.2872" width="6.4209" height="6.424" fill="#4eb6d7" style="paint-order:markers fill stroke"/>
   <rect transform="rotate(90)" x="102.61" y="-81.654" width="6.4209" height="6.424" fill="#4eb6d7" style="paint-order:markers fill stroke"/>
  </g>
  <path d="m41.259 5.8051v10.702" fill="none"/>
 </g>
</svg>
