<?xml version="1.0" encoding="UTF-8"?>
<svg width="500" height="500" version="1.1" viewBox="0 0 500 500" xmlns="http://www.w3.org/2000/svg" xmlns:cc="http://creativecommons.org/ns#" xmlns:dc="http://purl.org/dc/elements/1.1/" xmlns:osb="http://www.openswatchbook.org/uri/2009/osb" xmlns:rdf="http://www.w3.org/1999/02/22-rdf-syntax-ns#">
 <defs>
  <marker id="marker1704" overflow="visible" orient="auto">
   <path transform="scale(.6) rotate(180) translate(0)" d="m8.7186 4.0337-10.926-4.0177 10.926-4.0177c-1.7455 2.3721-1.7354 5.6175-6e-7 8.0354z" fill-rule="evenodd" stroke="#000" stroke-linejoin="round" stroke-width=".625"/>
  </marker>
  <marker id="marker1610" overflow="visible" orient="auto">
   <path transform="scale(.6) rotate(180) translate(0)" d="m8.7186 4.0337-10.926-4.0177 10.926-4.0177c-1.7455 2.3721-1.7354 5.6175-6e-7 8.0354z" fill-rule="evenodd" stroke="#000" stroke-linejoin="round" stroke-width=".625"/>
  </marker>
  <marker id="marker1522" overflow="visible" orient="auto">
   <path transform="scale(.6) rotate(180) translate(0)" d="m8.7186 4.0337-10.926-4.0177 10.926-4.0177c-1.7455 2.3721-1.7354 5.6175-6e-7 8.0354z" fill-rule="evenodd" stroke="#000" stroke-linejoin="round" stroke-width=".625"/>
  </marker>
  <marker id="marker1440" overflow="visible" orient="auto">
   <path transform="scale(.6) rotate(180) translate(0)" d="m8.7186 4.0337-10.926-4.0177 10.926-4.0177c-1.7455 2.3721-1.7354 5.6175-6e-7 8.0354z" fill-rule="evenodd" stroke="#000" stroke-linejoin="round" stroke-width=".625"/>
  </marker>
 </defs>
 <metadata>
  <rdf:RDF>
   <cc:Work rdf:about="">
    <dc:format>image/svg+xml</dc:format>
    <dc:type rdf:resource="http://purl.org/dc/dcmitype/StillImage"/>
    <dc:title/>
   </cc:Work>
  </rdf:RDF>
 </metadata>
 <g fill="none" stroke="#000" stroke-width=".998">
  <path d="m0.499 0.499h499v499h-499z"/>
  <path d="m100.3 0.499v499"/>
  <path d="m200.1 0.499v499"/>
  <path d="m299.9 0.499v499"/>
  <path d="m399.7 0.499v499"/>
  <path d="m0.499 100.3h499"/>
  <path d="m0.499 200.1h499"/>
  <path d="m0.499 299.9h499"/>
  <path d="m0.499 399.7h499"/>
 </g>
 <circle cx="50.399" cy="449.6" r="29.94" fill="#fff" stroke="#000" stroke-width="1.996"/>
 <path transform="matrix(-5.6455 0 0 -5.9826 125.08 129.54)" d="m13.229 16.999-4.5827-7.9375 9.1654-3e-7z" fill="#fff" stroke="#000" stroke-width=".34345"/>
 <g transform="matrix(3.772 0 0 3.772 .499 .499)" fill="none" stroke="#000">
  <rect x="2.6458" y="55.562" width="21.167" height="21.167" stroke-width=".26458"/>
  <g stroke-width=".26458px">
   <path d="m2.6458 60.854 5.2917-5.2917"/>
   <path d="m2.6458 66.146 10.583-10.583"/>
   <path d="m2.6458 71.437 15.875-15.875"/>
   <path d="m2.6458 76.729 21.167-21.167"/>
   <path d="m7.9375 76.729 15.875-15.875"/>
   <path d="m13.229 76.729 10.583-10.583"/>
   <path d="m18.521 76.729 5.2917-5.2917"/>
  </g>
 </g>
 <g transform="matrix(3.772 0 0 3.772 100.3 .499)" fill="none" stroke="#000">
  <rect x="2.6458" y="55.562" width="21.167" height="21.167" stroke-width=".26458"/>
  <g stroke-width=".26458px">
   <path d="m2.6458 60.854 5.2917-5.2917"/>
   <path d="m2.6458 66.146 10.583-10.583"/>
   <path d="m2.6458 71.437 15.875-15.875"/>
   <path d="m2.6458 76.729 21.167-21.167"/>
   <path d="m7.9375 76.729 15.875-15.875"/>
   <path d="m13.229 76.729 10.583-10.583"/>
   <path d="m18.521 76.729 5.2917-5.2917"/>
  </g>
 </g>
 <g transform="matrix(3.772 0 0 3.772 200.1 .499)" fill="none" stroke="#000">
  <rect x="2.6458" y="55.562" width="21.167" height="21.167" stroke-width=".26458"/>
  <g stroke-width=".26458px">
   <path d="m2.6458 60.854 5.2917-5.2917"/>
   <path d="m2.6458 66.146 10.583-10.583"/>
   <path d="m2.6458 71.437 15.875-15.875"/>
   <path d="m2.6458 76.729 21.167-21.167"/>
   <path d="m7.9375 76.729 15.875-15.875"/>
   <path d="m13.229 76.729 10.583-10.583"/>
   <path d="m18.521 76.729 5.2917-5.2917"/>
  </g>
 </g>
 <g transform="matrix(3.772 0 0 3.772 299.9 .499)" fill="none" stroke="#000">
  <rect x="2.6458" y="55.562" width="21.167" height="21.167" stroke-width=".26458"/>
  <g stroke-width=".26458px">
   <path d="m2.6458 60.854 5.2917-5.2917"/>
   <path d="m2.6458 66.146 10.583-10.583"/>
   <path d="m2.6458 71.437 15.875-15.875"/>
   <path d="m2.6458 76.729 21.167-21.167"/>
   <path d="m7.9375 76.729 15.875-15.875"/>
   <path d="m13.229 76.729 10.583-10.583"/>
   <path d="m18.521 76.729 5.2917-5.2917"/>
  </g>
 </g>
 <g fill="none" stroke="#000">
  <g stroke-width=".998">
   <path d="m30.439 449.6 19.96-19.96"/>
   <path d="m30.439 459.58 29.94-29.94"/>
   <path d="m30.439 469.56 39.92-39.92"/>
   <path d="m40.419 469.56 29.94-29.94"/>
   <path d="m50.399 469.56 19.96-19.96"/>
   <path d="m60.379 469.56 9.98-9.9801"/>
  </g>
  <g stroke-width=".998px">
   <path d="m30.439 439.62 9.98-9.9801"/>
   <path d="m40.419 50.399h19.96"/>
   <path d="m40.419 60.379h19.96"/>
   <path d="m30.439 70.359h39.92"/>
   <path d="m80.339 10.479-19.96 19.96"/>
   <path d="m70.359 50.399h19.96"/>
   <path d="m70.359 80.339 9.98 9.98"/>
   <path d="m30.439 80.339-9.98 9.98"/>
   <path d="m30.439 50.399h-19.96"/>
   <path d="m40.419 30.439-19.96-19.96"/>
  </g>
 </g>
 <g font-family="Roboto" font-size="27.022px" stroke-width=".67556">
  <text x="147.16562" y="327.18631" style="line-height:1.25" xml:space="preserve"><tspan x="147.16562" y="327.18631" stroke-width=".67556">1</tspan></text>
  <text x="179.31314" y="358.59763" style="line-height:1.25" xml:space="preserve"><tspan x="179.31314" y="358.59763" stroke-width=".67556">2</tspan></text>
  <text x="133.9883" y="391.79691" style="line-height:1.25" xml:space="preserve"><tspan x="133.9883" y="391.79691" stroke-width=".67556">3</tspan></text>
  <text x="104.59293" y="361.71774" style="line-height:1.25" xml:space="preserve"><tspan x="104.59293" y="361.71774" stroke-width=".67556">4</tspan></text>
 </g>
 <g fill="none" stroke="#000">
  <path d="m150 350v-30" marker-end="url(#marker1440)" stroke-width=".75119"/>
  <g stroke-width=".75001px">
   <path d="m150 350h30" marker-end="url(#marker1522)"/>
   <path d="m150 350v30" marker-end="url(#marker1610)"/>
   <path d="m150 350h-30" marker-end="url(#marker1704)"/>
  </g>
 </g>
</svg>
