<?xml version="1.0" encoding="UTF-8"?>
<svg width="500" height="500" version="1.1" viewBox="0 0 500 500" xmlns="http://www.w3.org/2000/svg" xmlns:cc="http://creativecommons.org/ns#" xmlns:dc="http://purl.org/dc/elements/1.1/" xmlns:osb="http://www.openswatchbook.org/uri/2009/osb" xmlns:rdf="http://www.w3.org/1999/02/22-rdf-syntax-ns#">
 <defs>
  <marker id="marker4005" overflow="visible" orient="auto">
   <path transform="scale(.8)" d="m5.77 0-8.65 5v-10l8.65 5z" fill-rule="evenodd" stroke="#000" stroke-width="1pt"/>
  </marker>
  <marker id="marker3806" overflow="visible" orient="auto">
   <path transform="scale(.8)" d="m0-7.0711-7.0711 7.0711 7.0711 7.0711 7.071-7.0711-7.071-7.0711z" fill="#fff" fill-rule="evenodd" stroke="#000" stroke-width="1pt"/>
  </marker>
  <marker id="marker3359" overflow="visible" orient="auto">
   <path transform="scale(.8)" d="m5.77 0-8.65 5v-10l8.65 5z" fill-rule="evenodd" stroke="#000" stroke-width="1pt"/>
  </marker>
  <marker id="marker3172" overflow="visible" orient="auto">
   <path transform="scale(.8)" d="m0-7.0711-7.0711 7.0711 7.0711 7.0711 7.071-7.0711-7.071-7.0711z" fill="#fff" fill-rule="evenodd" stroke="#000" stroke-width="1pt"/>
  </marker>
  <marker id="marker2510" overflow="visible" orient="auto">
   <path transform="scale(.8)" d="m5.77 0-8.65 5v-10l8.65 5z" fill-rule="evenodd" stroke="#000" stroke-width="1pt"/>
  </marker>
  <marker id="marker2500" overflow="visible" orient="auto">
   <path transform="scale(.8)" d="m0-7.0711-7.0711 7.0711 7.0711 7.0711 7.071-7.0711-7.071-7.0711z" fill="#fff" fill-rule="evenodd" stroke="#000" stroke-width="1pt"/>
  </marker>
  <marker id="marker5204" overflow="visible" orient="auto">
   <path transform="scale(.8)" d="m5.77 0-8.65 5v-10l8.65 5z" fill-rule="evenodd" stroke="#000" stroke-width="1pt"/>
  </marker>
  <marker id="marker5194" overflow="visible" orient="auto">
   <path transform="scale(.8) translate(7.4 1)" d="m-2.5-1c0 2.76-2.24 5-5 5s-5-2.24-5-5 2.24-5 5-5 5 2.24 5 5z" fill-rule="evenodd" stroke="#000" stroke-width="1pt"/>
  </marker>
  <marker id="marker5184" overflow="visible" orient="auto">
   <path transform="scale(.8)" d="m0-7.0711-7.0711 7.0711 7.0711 7.0711 7.071-7.0711-7.071-7.0711z" fill="#fff" fill-rule="evenodd" stroke="#000" stroke-width="1pt"/>
  </marker>
  <marker id="TriangleOutL" overflow="visible" orient="auto">
   <path transform="scale(.8)" d="m5.77 0-8.65 5v-10l8.65 5z" fill-rule="evenodd" stroke="#000" stroke-width="1pt"/>
  </marker>
  <marker id="marker4840" overflow="visible" orient="auto">
   <path transform="scale(.8) translate(7.4 1)" d="m-2.5-1c0 2.76-2.24 5-5 5s-5-2.24-5-5 2.24-5 5-5 5 2.24 5 5z" fill-rule="evenodd" stroke="#000" stroke-width="1pt"/>
  </marker>
  <marker id="EmptyDiamondL" overflow="visible" orient="auto">
   <path transform="scale(.8)" d="m0-7.0711-7.0711 7.0711 7.0711 7.0711 7.071-7.0711-7.071-7.0711z" fill="#fff" fill-rule="evenodd" stroke="#000" stroke-width="1pt"/>
  </marker>
 </defs>
 <metadata>
  <rdf:RDF>
   <cc:Work rdf:about="">
    <dc:format>image/svg+xml</dc:format>
    <dc:type rdf:resource="http://purl.org/dc/dcmitype/StillImage"/>
    <dc:title/>
   </cc:Work>
  </rdf:RDF>
 </metadata>
 <path d="m0.499 0.499h499v499h-499z" fill="none" stroke="#000" stroke-width=".998"/>
 <g transform="matrix(1.6016 0 0 1.6016 -519.36 -97.492)" stroke="#000">
  <g transform="matrix(.13379 0 0 .13379 531.03 162.48)" fill="#fd5" fill-rule="evenodd" stroke-linejoin="round" stroke-width="7.4742">
   <circle cx="678.64" cy="642.95" r="10"/>
   <circle cx="701.66" cy="449.46" r="10"/>
   <circle cx="629.76" cy="368.51" r="10"/>
   <circle cx="706.03" cy="298.86" r="10"/>
   <circle cx="628.91" cy="228.29" r="10"/>
  </g>
  <g transform="translate(144.19 -2.74)">
   <g transform="matrix(.13379 0 0 .13379 386.33 165.3)" fill="none" stroke-width="7.4742">
    <path d="m317.42 159.98v-71.523"/>
    <path d="m467.42 159.98v-71.523"/>
    <path d="m419.27 159.98v-71.523"/>
    <path d="m369.27 159.98s-6.3853-48.553 0-71.523c5.0705-18.24 29.312-48.648 29.312-48.648"/>
   </g>
   <rect x="411.81" y="186.09" width="47.848" height="47.848" ry="4.7861" fill="#f59"/>
   <rect x="416.6" y="190.88" width="38.277" height="38.277" ry="2.6463" fill="#ececec"/>
   <g transform="matrix(.13379 0 0 .13379 386.33 165.3)" fill="none" stroke-width="7.4742">
    <path d="m367.42 514.82v127.54"/>
    <path d="m548.07 226.92h71.523"/>
    <path d="m548.07 298.44h147.66"/>
    <path d="m548.07 369.97h71.523"/>
    <path d="m190.46 226.92h-71.523"/>
    <path d="m190.46 298.44h-153.01"/>
    <path d="m190.46 441.49h-136.34"/>
    <path d="m321.12 514.82v161.74"/>
    <path d="m269.27 149.98s10-20 0-60-80-90-150-50-80 50-80 50"/>
   </g>
   <g transform="matrix(.13379 0 0 .13379 386.33 165.3)" stroke-width="7.4742">
    <circle cx="39.266" cy="89.975" r="10" fill="#fd5" fill-rule="evenodd" stroke-linejoin="round"/>
    <path d="m265.15 514.83s54.116 65.144 4.1155 85.144-80 30-80 30" fill="none"/>
    <circle cx="189.27" cy="629.98" r="10" fill="#fd5" fill-rule="evenodd" stroke-linejoin="round"/>
   </g>
   <circle cx="435.74" cy="210.02" r="13.15" fill="#fd5" fill-rule="evenodd" stroke-linejoin="round"/>
   <g transform="matrix(.13379 0 0 .13379 386.33 165.3)" stroke-width="7.4742">
    <path d="m401.14 259.34h-62.657l31.328-54.262z"/>
    <circle cx="460.29" cy="360.93" r="26.243"/>
    <rect transform="rotate(-45)" x="-89.012" y="456.01" width="42.74" height="42.74"/>
   </g>
   <g transform="matrix(.13379 0 0 .13379 386.33 165.3)" fill="#fd5" fill-rule="evenodd" stroke-linejoin="round" stroke-width="7.4742">
    <circle cx="317.18" cy="81.245" r="10"/>
    <circle cx="404.64" cy="33.402" r="10"/>
    <circle cx="114.93" cy="225.3" r="10"/>
    <circle cx="419.56" cy="80.216" r="10"/>
    <circle cx="467.4" cy="82.788" r="10"/>
    <circle cx="34.117" cy="298.35" r="10"/>
   </g>
   <path d="m411.69 213.37s-9.7737-4.0609-16.174 0.0688" fill="none"/>
   <g transform="matrix(.13379 0 0 .13379 386.33 165.3)" fill="#fd5" fill-rule="evenodd" stroke-linejoin="round" stroke-width="7.4742">
    <circle cx="67.81" cy="361.39" r="10"/>
    <circle cx="43.936" cy="441.36" r="10"/>
    <circle cx="321.12" cy="681.44" r="10"/>
    <circle cx="366.95" cy="651.62" r="10"/>
   </g>
   <g transform="matrix(.13379 0 0 .13379 386.33 165.3)" stroke-width="7.4742">
    <path d="m418.49 514.13s-28.809 53.502-2.0578 93.628c26.751 40.126 79.224 80.253 114.21 78.195" fill="none"/>
    <circle cx="541.86" cy="686.6" r="10" fill="#fd5" fill-rule="evenodd" stroke-linejoin="round"/>
    <path d="m470.6 513.42s-36.376 93.124 197.89 126.59" fill="none"/>
   </g>
   <path d="m459.66 225.48h19.756" fill="none"/>
  </g>
 </g>
 <g transform="translate(-20 102.96)" stroke="#000">
  <rect x="40" y="80" width="120" height="120" fill="#acf" fill-rule="evenodd" opacity=".999" stroke-linejoin="round" stroke-width="1.2"/>
  <rect x="50" y="90" width="100" height="100" fill="#59f" fill-rule="evenodd" opacity=".999" stroke-linejoin="round"/>
  <g fill="none" stroke-width="1px">
   <path d="m60 90v100"/>
   <path d="m70 90v100"/>
   <path d="m80 90v100"/>
   <path d="m90 90v100"/>
   <path d="m100 90v100"/>
   <path d="m110 90v100"/>
   <path d="m120 90v100"/>
   <path d="m130 90v100"/>
   <path d="m140 90v100"/>
   <path d="m50 100h100"/>
   <path d="m50 110h100"/>
   <path d="m50 120h100"/>
   <path d="m50 130h100"/>
   <path d="m50 140h100"/>
   <path d="m50 150h100"/>
   <path d="m50 160h100"/>
   <path d="m50 170h100"/>
   <path d="m50 180h100"/>
  </g>
 </g>
 <text x="377.98828" y="480.05859" font-family="Roboto" font-size="40px" style="line-height:1.25" xml:space="preserve"><tspan x="377.98828" y="480.05859">Agent</tspan></text>
 <text x="17.988281" y="40.058594" font-family="Roboto" font-size="40px" style="line-height:1.25" xml:space="preserve"><tspan x="17.988281" y="40.058594">Environment</tspan></text>
 <path d="m80 154v-84h340v74" fill="none" marker-end="url(#TriangleOutL)" marker-mid="url(#marker4840)" marker-start="url(#EmptyDiamondL)" stroke="#000" stroke-dasharray="1, 2"/>
 <path d="m420 348v70h-340v-100" fill="none" marker-end="url(#marker5204)" marker-mid="url(#marker5194)" marker-start="url(#marker5184)" stroke="#000" stroke-dasharray="1, 2"/>
 <g font-family="Roboto">
  <text x="157.55345" y="99.272934" font-size="30.483px" stroke-width=".76208" style="line-height:1.25" xml:space="preserve"><tspan x="157.55345" y="99.272934" stroke-width=".76208">State, Reward</tspan></text>
  <text x="207.1257" y="399.27295" font-size="30.483px" stroke-width=".76208" style="line-height:1.25" xml:space="preserve"><tspan x="207.1257" y="399.27295" stroke-width=".76208">Action</tspan></text>
  <text transform="rotate(-90)" x="-311.70435" y="328.7066" font-size="18.867px" stroke-width=".47167" style="line-height:1.25" xml:space="preserve"><tspan x="-311.70435" y="328.7066" stroke-width=".47167">State to Action</tspan></text>
  <text transform="rotate(-90)" x="-308.66428" y="165.19115" font-size="18.867px" stroke-width=".47167" style="line-height:1.25" xml:space="preserve"><tspan x="-308.66428" y="165.19115">State and Action</tspan><tspan x="-308.66428" y="188.77477">to new State</tspan></text>
 </g>
 <g fill="none" stroke="#000">
  <path d="m120 180v-30h80v200h-80v-40" marker-end="url(#marker2510)" marker-start="url(#marker2500)" stroke-dasharray="4,8"/>
  <path d="m394 170v-30h-90v210h80v-40" marker-end="url(#marker3359)" marker-start="url(#marker3172)" stroke-dasharray="4, 8"/>
  <path d="m410 160v-40h-140v250h130v-50" marker-end="url(#marker4005)" marker-start="url(#marker3806)" stroke-dasharray="4,8"/>
 </g>
 <text transform="rotate(-90)" x="-319.70435" y="290.7066" font-family="Roboto" font-size="18.867px" stroke-width=".47167" style="line-height:1.25" xml:space="preserve"><tspan x="-319.70435" y="290.7066" stroke-width=".47167">Learn from Reward</tspan></text>
</svg>
