<?xml version="1.0" encoding="UTF-8"?>
<svg width="500" height="100" version="1.1" viewBox="0 0 500 100" xmlns="http://www.w3.org/2000/svg" xmlns:cc="http://creativecommons.org/ns#" xmlns:dc="http://purl.org/dc/elements/1.1/" xmlns:rdf="http://www.w3.org/1999/02/22-rdf-syntax-ns#">
 <defs>
  <marker id="marker27437" overflow="visible" orient="auto">
   <path transform="scale(-.6)" d="m8.7186 4.0337-10.926-4.0177 10.926-4.0177c-1.7455 2.3721-1.7354 5.6175-6e-7 8.0354z" fill="context-stroke" fill-rule="evenodd" stroke-linejoin="round" stroke-width=".625"/>
  </marker>
 </defs>
 <metadata>
  <rdf:RDF>
   <cc:Work rdf:about="">
    <dc:format>image/svg+xml</dc:format>
    <dc:type rdf:resource="http://purl.org/dc/dcmitype/StillImage"/>
   </cc:Work>
  </rdf:RDF>
 </metadata>
 <path d="m0.499 0.499h499v99.002h-499z" fill="none" stroke="#000" stroke-width=".998"/>
 <rect x="26.5" y="25" width="50" height="50" fill="#fd5" fill-rule="evenodd" stroke="#000" stroke-linecap="round" stroke-linejoin="round" stroke-width="2" style="paint-order:markers fill stroke"/>
 <g fill="#acf" fill-rule="evenodd" stroke="#000" stroke-linecap="round" stroke-linejoin="round" stroke-width="2">
  <rect x="126.5" y="25" width="50" height="50" style="paint-order:markers fill stroke"/>
  <rect x="226.5" y="25" width="50" height="50" style="paint-order:markers fill stroke"/>
  <rect x="326.5" y="25" width="50" height="50" style="paint-order:markers fill stroke"/>
 </g>
 <rect x="423.5" y="25" width="50" height="50" fill="#f59" fill-rule="evenodd" stroke="#000" stroke-linecap="round" stroke-linejoin="round" stroke-width="2" style="paint-order:markers fill stroke"/>
 <g fill="none" stroke="#000" stroke-width="1px">
  <path d="m82.5 51h40" marker-end="url(#marker27437)"/>
  <path d="m181.84 51h40" marker-end="url(#marker27437)"/>
  <path d="m281.84 51h40" marker-end="url(#marker27437)"/>
  <path d="m379.84 49h40" marker-end="url(#marker27437)"/>
 </g>
 <g font-family="Roboto" font-size="40px">
  <text x="35.226562" y="63" style="line-height:1.25" xml:space="preserve"><tspan x="35.226562" y="63">-1</tspan></text>
  <text x="143.22656" y="63" style="line-height:1.25" xml:space="preserve"><tspan x="143.22656" y="63">-1</tspan></text>
  <text x="243.22656" y="63" style="line-height:1.25" xml:space="preserve"><tspan x="243.22656" y="63">-1</tspan></text>
  <text x="343.22656" y="63" style="line-height:1.25" xml:space="preserve"><tspan x="343.22656" y="63">-1</tspan></text>
  <text x="443.22656" y="63" style="line-height:1.25" xml:space="preserve"><tspan x="443.22656" y="63">1</tspan></text>
 </g>
 <g fill="none" stroke="#000" stroke-width="1px">
  <path d="m120.66 42.401h-40" marker-end="url(#marker27437)"/>
  <path d="m220 42.401h-40" marker-end="url(#marker27437)"/>
  <path d="m320.66 42.401h-40" marker-end="url(#marker27437)"/>
 </g>
</svg>
