<?xml version="1.0" encoding="UTF-8"?>
<svg width="500" height="200" version="1.1" viewBox="0 0 500 200" xmlns="http://www.w3.org/2000/svg" xmlns:cc="http://creativecommons.org/ns#" xmlns:dc="http://purl.org/dc/elements/1.1/" xmlns:osb="http://www.openswatchbook.org/uri/2009/osb" xmlns:rdf="http://www.w3.org/1999/02/22-rdf-syntax-ns#">
 <defs>
  <marker id="marker2336" overflow="visible" orient="auto">
   <path transform="scale(.8)" d="m5.77 0-8.65 5v-10z" fill-rule="evenodd" stroke="#000" stroke-width="1pt"/>
  </marker>
  <marker id="marker4005" overflow="visible" orient="auto">
   <path transform="scale(.8)" d="m5.77 0-8.65 5v-10z" fill-rule="evenodd" stroke="#000" stroke-width="1pt"/>
  </marker>
 </defs>
 <metadata>
  <rdf:RDF>
   <cc:Work rdf:about="">
    <dc:format>image/svg+xml</dc:format>
    <dc:type rdf:resource="http://purl.org/dc/dcmitype/StillImage"/>
    <dc:title/>
   </cc:Work>
  </rdf:RDF>
 </metadata>
 <path d="m0.31553 0.31553h499.37v199.37h-499.37z" fill="none" stroke="#000" stroke-width=".63106"/>
 <text x="13.535156" y="99.578125" font-family="Roboto" font-size="40px" style="line-height:1.25" xml:space="preserve"><tspan x="13.535156" y="99.578125">State</tspan></text>
 <rect x="200" y="72" width="100" height="100" fill="#ff8080" fill-rule="evenodd" opacity=".999" stroke="#000" stroke-linejoin="round" stroke-width="2.5"/>
 <text x="367.53516" y="99.578125" font-family="Roboto" font-size="40px" style="line-height:1.25" xml:space="preserve"><tspan x="367.53516" y="99.578125">State</tspan></text>
 <path d="m106 122h80" fill="none" marker-end="url(#marker4005)" stroke="#000" stroke-width="1px"/>
 <path d="m304 122h60" fill="none" marker-end="url(#marker2336)" stroke="#000" stroke-width="1px"/>
 <g font-family="Roboto" font-size="40px">
  <text x="194.27734" y="38.351562" style="line-height:1.25" xml:space="preserve"><tspan x="194.27734" y="38.351562">Model</tspan></text>
  <text x="13.535156" y="172.85938" style="line-height:1.25" xml:space="preserve"><tspan x="13.535156" y="172.85938">Action</tspan></text>
  <text x="363.11523" y="172.85938" style="line-height:1.25" xml:space="preserve"><tspan x="363.11523" y="172.85938">Reward</tspan></text>
 </g>
 <g fill="none" stroke="#000" stroke-width="1px">
  <path d="m60 110v20"/>
  <path d="m50 120h20"/>
  <path d="m420 110v20"/>
  <path d="m410 120h20"/>
 </g>
</svg>
