<?xml version="1.0" encoding="UTF-8"?>
<svg width="500" height="350" version="1.1" viewBox="0 0 500 350" xmlns="http://www.w3.org/2000/svg" xmlns:cc="http://creativecommons.org/ns#" xmlns:dc="http://purl.org/dc/elements/1.1/" xmlns:osb="http://www.openswatchbook.org/uri/2009/osb" xmlns:rdf="http://www.w3.org/1999/02/22-rdf-syntax-ns#">
 <defs>
  <marker id="marker15903" overflow="visible" orient="auto">
   <path transform="scale(.4) translate(-4.5)" d="m5.77 0-8.65 5v-10l8.65 5z" fill="#fff" fill-rule="evenodd" stroke="#000" stroke-width="1pt"/>
  </marker>
  <marker id="marker15593" overflow="visible" orient="auto">
   <path transform="scale(.4) translate(-4.5)" d="m5.77 0-8.65 5v-10l8.65 5z" fill="#fff" fill-rule="evenodd" stroke="#000" stroke-width="1pt"/>
  </marker>
  <marker id="marker15289" overflow="visible" orient="auto">
   <path transform="scale(.4) translate(-4.5)" d="m5.77 0-8.65 5v-10l8.65 5z" fill="#fff" fill-rule="evenodd" stroke="#000" stroke-width="1pt"/>
  </marker>
  <marker id="marker14703" overflow="visible" orient="auto">
   <path transform="scale(.4) translate(-4.5)" d="m5.77 0-8.65 5v-10l8.65 5z" fill="#fff" fill-rule="evenodd" stroke="#000" stroke-width="1pt"/>
  </marker>
  <marker id="marker14117" overflow="visible" orient="auto">
   <path transform="scale(.4) translate(-4.5)" d="m5.77 0-8.65 5v-10l8.65 5z" fill="#fff" fill-rule="evenodd" stroke="#000" stroke-width="1pt"/>
  </marker>
  <marker id="marker13531" overflow="visible" orient="auto">
   <path transform="scale(.4) translate(-4.5)" d="m5.77 0-8.65 5v-10l8.65 5z" fill="#fff" fill-rule="evenodd" stroke="#000" stroke-width="1pt"/>
  </marker>
  <marker id="marker12945" overflow="visible" orient="auto">
   <path transform="scale(.4) translate(-4.5)" d="m5.77 0-8.65 5v-10l8.65 5z" fill="#fff" fill-rule="evenodd" stroke="#000" stroke-width="1pt"/>
  </marker>
  <marker id="marker12359" overflow="visible" orient="auto">
   <path transform="scale(.4) translate(-4.5)" d="m5.77 0-8.65 5v-10l8.65 5z" fill="#fff" fill-rule="evenodd" stroke="#000" stroke-width="1pt"/>
  </marker>
  <marker id="marker11773" overflow="visible" orient="auto">
   <path transform="scale(.4) translate(-4.5)" d="m5.77 0-8.65 5v-10l8.65 5z" fill="#fff" fill-rule="evenodd" stroke="#000" stroke-width="1pt"/>
  </marker>
  <marker id="marker11187" overflow="visible" orient="auto">
   <path transform="scale(.4) translate(-4.5)" d="m5.77 0-8.65 5v-10l8.65 5z" fill="#fff" fill-rule="evenodd" stroke="#000" stroke-width="1pt"/>
  </marker>
  <marker id="marker10601" overflow="visible" orient="auto">
   <path transform="scale(.4) translate(-4.5)" d="m5.77 0-8.65 5v-10l8.65 5z" fill="#fff" fill-rule="evenodd" stroke="#000" stroke-width="1pt"/>
  </marker>
  <marker id="EmptyTriangleOutM" overflow="visible" orient="auto">
   <path transform="scale(.4) translate(-4.5)" d="m5.77 0-8.65 5v-10l8.65 5z" fill="#fff" fill-rule="evenodd" stroke="#000" stroke-width="1pt"/>
  </marker>
  <marker id="marker3815" overflow="visible" orient="auto">
   <path transform="scale(.8)" d="m5.77 0-8.65 5v-10l8.65 5z" fill-rule="evenodd" stroke="#000" stroke-width="1pt"/>
  </marker>
  <marker id="marker3805" overflow="visible" orient="auto">
   <path transform="scale(.8)" d="m5.77 0-8.65 5v-10l8.65 5z" fill-rule="evenodd" stroke="#000" stroke-width="1pt"/>
  </marker>
  <marker id="marker3795" overflow="visible" orient="auto">
   <path transform="scale(.8)" d="m5.77 0-8.65 5v-10l8.65 5z" fill-rule="evenodd" stroke="#000" stroke-width="1pt"/>
  </marker>
  <marker id="marker3785" overflow="visible" orient="auto">
   <path transform="scale(.8)" d="m5.77 0-8.65 5v-10l8.65 5z" fill-rule="evenodd" stroke="#000" stroke-width="1pt"/>
  </marker>
  <marker id="marker3531" overflow="visible" orient="auto">
   <path transform="scale(.8)" d="m5.77 0-8.65 5v-10l8.65 5z" fill-rule="evenodd" stroke="#000" stroke-width="1pt"/>
  </marker>
  <marker id="marker3363" overflow="visible" orient="auto">
   <path transform="scale(.8)" d="m5.77 0-8.65 5v-10l8.65 5z" fill-rule="evenodd" stroke="#000" stroke-width="1pt"/>
  </marker>
  <marker id="marker3203" overflow="visible" orient="auto">
   <path transform="scale(.8)" d="m5.77 0-8.65 5v-10l8.65 5z" fill-rule="evenodd" stroke="#000" stroke-width="1pt"/>
  </marker>
  <marker id="marker3045" overflow="visible" orient="auto">
   <path transform="scale(.8)" d="m5.77 0-8.65 5v-10l8.65 5z" fill-rule="evenodd" stroke="#000" stroke-width="1pt"/>
  </marker>
  <marker id="marker2889" overflow="visible" orient="auto">
   <path transform="scale(.8)" d="m5.77 0-8.65 5v-10l8.65 5z" fill-rule="evenodd" stroke="#000" stroke-width="1pt"/>
  </marker>
  <marker id="marker2753" overflow="visible" orient="auto">
   <path transform="scale(.8)" d="m5.77 0-8.65 5v-10l8.65 5z" fill-rule="evenodd" stroke="#000" stroke-width="1pt"/>
  </marker>
  <marker id="marker2619" overflow="visible" orient="auto">
   <path transform="scale(.8)" d="m5.77 0-8.65 5v-10l8.65 5z" fill-rule="evenodd" stroke="#000" stroke-width="1pt"/>
  </marker>
  <marker id="TriangleOutL" overflow="visible" orient="auto">
   <path transform="scale(.8)" d="m5.77 0-8.65 5v-10l8.65 5z" fill-rule="evenodd" stroke="#000" stroke-width="1pt"/>
  </marker>
 </defs>
 <metadata>
  <rdf:RDF>
   <cc:Work rdf:about="">
    <dc:format>image/svg+xml</dc:format>
    <dc:type rdf:resource="http://purl.org/dc/dcmitype/StillImage"/>
    <dc:title/>
   </cc:Work>
  </rdf:RDF>
 </metadata>
 <path d="m372.84 225.84h20v20h-20z" fill="#8dd35f" stroke="#000"/>
 <path d="m0.4998 0.4998h499v349h-499z" fill="none" stroke="#000" stroke-width=".9996"/>
 <text x="193.39648" y="51.804688" font-family="Roboto" font-size="40px" style="line-height:1.25" xml:space="preserve"><tspan x="193.39648" y="51.804688">Trial 1</tspan></text>
 <g fill="none" stroke="#000">
  <g stroke-width="1px">
   <path d="m52.841 145.84v-20" marker-end="url(#TriangleOutL)"/>
   <path d="m70 133h20" marker-end="url(#marker2619)"/>
   <path d="m100.84 133h20" marker-end="url(#marker2753)"/>
   <path d="m130 133h20" marker-end="url(#marker2889)"/>
   <path d="m160 133h20" marker-end="url(#marker3045)"/>
   <path d="m202.84 145.84v-20" marker-end="url(#marker3203)"/>
   <path d="m232.84 145.84v-20" marker-end="url(#marker3363)"/>
   <path d="m262.84 145.84v-20" marker-end="url(#marker3531)"/>
   <path d="m280 133h20" marker-end="url(#marker3815)"/>
   <path d="m310.84 133h20" marker-end="url(#marker3805)"/>
   <path d="m340 133h20" marker-end="url(#marker3795)"/>
   <path d="m370 133h20" marker-end="url(#marker3785)"/>
  </g>
  <g stroke-dasharray="1, 2">
   <path d="m382.76 254.98-31.152 35.178h-303.02v-112.21" marker-end="url(#marker10601)"/>
   <path d="m377.6 249.98-26.87 33.234h-275.77v-127.99" marker-end="url(#marker11187)"/>
   <path d="m367.7 242.91-22.627 28.991h-231.93v-111.72" marker-end="url(#marker11773)"/>
   <path d="m361.33 234.43-18.385 24.749h-209.3v-96.874" marker-end="url(#marker12359)"/>
   <path d="m370.52 224.53h-205.77v-72.125" marker-end="url(#marker12945)"/>
   <path d="m382.54 223.82v-14.849h-182.43v-47.376" marker-end="url(#marker13531)"/>
   <path d="m388.91 222.41v-24.042h-158.39v-36.062" marker-end="url(#marker14117)"/>
   <path d="m392 224v-34.5h-131.5v-33.5" marker-end="url(#marker14703)"/>
   <path d="m394.5 230.5h3v-49.5h-110.5v-34" marker-end="url(#marker15289)"/>
   <path d="m394.5 236.5h9v-64h-78v-28" marker-end="url(#EmptyTriangleOutM)"/>
   <path d="m397 243h17.5v-82.5h-62v-17" marker-end="url(#marker15593)"/>
   <path d="m390 248.5v20.5h61v-121.5h-75.5v-7" marker-end="url(#marker15903)"/>
  </g>
 </g>
</svg>
