<?xml version="1.0" encoding="UTF-8"?>
<svg width="500" height="500" version="1.1" viewBox="0 0 500 500" xmlns="http://www.w3.org/2000/svg" xmlns:cc="http://creativecommons.org/ns#" xmlns:dc="http://purl.org/dc/elements/1.1/" xmlns:rdf="http://www.w3.org/1999/02/22-rdf-syntax-ns#">
 <metadata>
  <rdf:RDF>
   <cc:Work rdf:about="">
    <dc:format>image/svg+xml</dc:format>
    <dc:type rdf:resource="http://purl.org/dc/dcmitype/StillImage"/>
   </cc:Work>
  </rdf:RDF>
 </metadata>
 <g stroke="#000">
  <rect x="314.62" y="128" width="68" height="175" ry="34" fill="#fea" fill-rule="evenodd" stroke-linecap="round" stroke-linejoin="round" stroke-width="3" style="paint-order:markers fill stroke"/>
  <path d="m0.499 0.499h499v499h-499z" fill="none" stroke-width=".998"/>
  <g fill="#fd5" fill-rule="evenodd" stroke-linecap="round" stroke-linejoin="round" stroke-width="2">
   <circle cx="31.618" cy="66" r="20"/>
   <circle cx="31.618" cy="131" r="20"/>
   <circle cx="29.618" cy="215" r="20"/>
   <circle cx="31.618" cy="292" r="20"/>
  </g>
  <g fill-rule="evenodd" stroke-linecap="round" stroke-linejoin="round" stroke-width="2">
   <ellipse cx="258.62" cy="219.44" rx="4.0617" ry="4.443"/>
   <ellipse cx="258.62" cy="253.75" rx="4.0617" ry="4.443"/>
   <ellipse cx="258.62" cy="288.56" rx="4.0617" ry="4.443"/>
   <ellipse cx="137.68" cy="214" rx="4.0617" ry="4.443"/>
   <ellipse cx="137.68" cy="254" rx="4.0617" ry="4.443"/>
   <ellipse cx="137.68" cy="288.56" rx="4.0617" ry="4.443"/>
  </g>
  <g fill="#fd5" fill-rule="evenodd" stroke-linecap="round" stroke-linejoin="round" stroke-width="2">
   <circle cx="258.62" cy="164" r="20"/>
   <circle cx="258.62" cy="345" r="20"/>
   <circle cx="258.62" cy="433" r="20"/>
  </g>
  <circle cx="348.62" cy="254" r="20" fill="#faa" fill-rule="evenodd" stroke-linecap="round" stroke-linejoin="round" stroke-width="2"/>
  <g fill="none">
   <path d="m178.62 64.25h80" stroke-dasharray="1, 1"/>
   <path d="m178.88 113.65 79.681-49.641" stroke-dasharray="0.999996, 0.999996"/>
   <path d="m169.01 223.75 89.653-159.69" stroke-dasharray="0.999999, 0.999999"/>
   <path d="m168.98 293.82 89.664-229.75" stroke-dasharray="0.999998, 0.999998"/>
  </g>
  <g fill="#fd5" fill-rule="evenodd" stroke-linecap="round" stroke-linejoin="round" stroke-width="2">
   <circle cx="142.62" cy="164" r="20"/>
   <circle cx="142.62" cy="344" r="20"/>
   <circle cx="142.62" cy="434" r="20"/>
   <circle cx="258.62" cy="65" r="20"/>
  </g>
  <g fill="none">
   <path d="m62.72 54.246h80" stroke-dasharray="1, 1"/>
   <path d="m62.986 103.65 79.681-49.641" stroke-dasharray="0.999996, 0.999996"/>
   <path d="m53.113 213.74 89.653-159.69" stroke-dasharray="0.999999, 0.999999"/>
   <path d="m53.083 283.82 89.664-229.75" stroke-dasharray="0.999998, 0.999998"/>
  </g>
  <g fill-rule="evenodd" stroke-linecap="round" stroke-linejoin="round" stroke-width="2">
   <circle cx="142.62" cy="63" r="20" fill="#fd5"/>
   <circle cx="348.62" cy="180" r="20" fill="#faa"/>
   <circle cx="348.62" cy="367" r="20" fill="#7f2aff"/>
  </g>
  <g transform="matrix(.9 0 0 .9 17 -63)" fill="none" stroke-width="3.3333">
   <path d="m450 330v40"/>
   <path d="m470 350"/>
   <path d="m430 350h40"/>
  </g>
  <circle cx="473" cy="180" r="20" fill="#e9afdd" fill-rule="evenodd" stroke-linecap="round" stroke-linejoin="round" stroke-width="2"/>
  <circle cx="473" cy="254" r="20" fill="#e9afdd" fill-rule="evenodd" stroke-linecap="round" stroke-linejoin="round" stroke-width="2"/>
  <g transform="matrix(.9 0 0 .9 17 -135)" fill="none" stroke-width="3.3333">
   <path d="m450 330v40"/>
   <path d="m470 350"/>
   <path d="m430 350h40"/>
  </g>
  <g fill="none">
   <g>
    <path d="m372 370h50v-190" stroke-dasharray="1, 1"/>
    <path d="m370 180h80" stroke-dasharray="1,1"/>
    <path d="m370 252h80" stroke-dasharray="1, 1"/>
   </g>
   <g stroke-width="5">
    <path d="m330 406.65 20 40 20-40"/>
    <path d="m370 91.342-20-40-20 40"/>
    <path d="m340 70.894h20"/>
   </g>
  </g>
  <g transform="translate(6)" fill="none" stroke-width="5">
   <path d="m450 100h30v40h-30z" stroke-linejoin="round"/>
   <path d="m480 140.5h10"/>
  </g>
 </g>
</svg>
