<?xml version="1.0" encoding="UTF-8"?>
<svg width="500" height="200" version="1.1" viewBox="0 0 500 200" xmlns="http://www.w3.org/2000/svg" xmlns:cc="http://creativecommons.org/ns#" xmlns:dc="http://purl.org/dc/elements/1.1/" xmlns:rdf="http://www.w3.org/1999/02/22-rdf-syntax-ns#">
 <defs>
  <marker id="marker4005" overflow="visible" orient="auto">
   <path transform="scale(.8)" d="m5.77 0-8.65 5v-10z" fill-rule="evenodd" stroke="#000" stroke-width="1pt"/>
  </marker>
 </defs>
 <metadata>
  <rdf:RDF>
   <cc:Work rdf:about="">
    <dc:format>image/svg+xml</dc:format>
    <dc:type rdf:resource="http://purl.org/dc/dcmitype/StillImage"/>
   </cc:Work>
  </rdf:RDF>
 </metadata>
 <g stroke="#000">
  <circle cx="15" cy="24.536" r="10" fill="#c8b7b7" fill-rule="evenodd" stroke-linecap="round" stroke-linejoin="round" stroke-width="2"/>
  <rect x="280.6" y="17.464" width="14.142" height="14.142" fill="#999" fill-rule="evenodd" stroke-linecap="round" stroke-linejoin="round" stroke-width="2"/>
  <path d="m27.82 24.536h36.223" fill="none" marker-end="url(#marker4005)" stroke-width="1px"/>
  <g fill="#c8b7b7" fill-rule="evenodd" stroke-linecap="round" stroke-linejoin="round" stroke-width="2">
   <circle cx="15" cy="52.536" r="10"/>
   <circle cx="15" cy="112.54" r="10"/>
   <circle cx="15" cy="142.54" r="10"/>
   <circle cx="15" cy="172.54" r="10"/>
  </g>
  <g fill-rule="evenodd" stroke-linecap="round" stroke-linejoin="round">
   <g>
    <circle cx="15.577" cy="73.537" r="2.1213"/>
    <circle cx="15.577" cy="82.729" r="2.1213"/>
    <circle cx="15.577" cy="91.922" r="2.1213"/>
   </g>
   <g stroke-width="2">
    <circle cx="78.953" cy="24.536" r="4.9497"/>
    <circle cx="78.953" cy="52.536" r="4.9497"/>
    <circle cx="78.953" cy="110.1" r="4.9497"/>
    <circle cx="78.953" cy="142.54" r="4.9497"/>
    <circle cx="78.953" cy="172.54" r="4.9497"/>
   </g>
  </g>
  <g fill="#999" fill-rule="evenodd" stroke-linecap="round" stroke-linejoin="round" stroke-width="2">
   <rect x="478.71" y="48.205" width="14.142" height="14.142"/>
   <rect x="416.49" y="104.77" width="14.142" height="14.142"/>
   <rect x="478.71" y="135.76" width="14.142" height="14.142"/>
   <rect x="478.71" y="166.29" width="14.142" height="14.142"/>
  </g>
  <g fill="none" stroke-width="1px">
   <path d="m27.82 52.536h36.223" marker-end="url(#marker4005)"/>
   <path d="m27.82 110.1h36.223" marker-end="url(#marker4005)"/>
   <path d="m27.82 142.54h36.223" marker-end="url(#marker4005)"/>
   <path d="m27.82 172.32h36.223" marker-end="url(#marker4005)"/>
  </g>
  <g fill-rule="evenodd" stroke-linecap="round" stroke-linejoin="round" stroke-width="2">
   <circle cx="147.94" cy="24.536" r="10" fill="#ffe680"/>
   <circle cx="147.94" cy="52.536" r="10" fill="#ffb380"/>
   <circle cx="147.94" cy="112.54" r="10" fill="#aade87"/>
   <circle cx="147.94" cy="142.54" r="10" fill="#87cdde"/>
   <circle cx="147.94" cy="172.54" r="10" fill="#ff80e5"/>
  </g>
  <g fill-rule="evenodd" stroke-linecap="round" stroke-linejoin="round">
   <circle cx="148.51" cy="73.537" r="2.1213"/>
   <circle cx="148.51" cy="82.729" r="2.1213"/>
   <circle cx="148.51" cy="91.922" r="2.1213"/>
  </g>
  <g fill="none" stroke-width="1px">
   <path d="m90.752 24.536h36.223" marker-end="url(#marker4005)"/>
   <path d="m90.752 52.536h36.223" marker-end="url(#marker4005)"/>
   <path d="m90.752 110.1h36.223" marker-end="url(#marker4005)"/>
   <path d="m90.752 142.54h36.223" marker-end="url(#marker4005)"/>
   <path d="m90.752 172.32h36.223" marker-end="url(#marker4005)"/>
  </g>
  <g fill-rule="evenodd" stroke-linecap="round" stroke-linejoin="round">
   <circle cx="78.51" cy="73.537" r="2.1213"/>
   <circle cx="78.51" cy="82.729" r="2.1213"/>
   <circle cx="78.51" cy="91.922" r="2.1213"/>
  </g>
  <path d="m165.71 24.536h36.223" fill="none" marker-end="url(#marker4005)" stroke-width="1px"/>
  <g fill-rule="evenodd" stroke-linecap="round" stroke-linejoin="round" stroke-width="2">
   <circle cx="218.84" cy="24.536" r="4.9497"/>
   <circle cx="216.84" cy="52.536" r="4.9497"/>
   <circle cx="216.84" cy="110.1" r="4.9497"/>
   <circle cx="216.84" cy="142.54" r="4.9497"/>
   <circle cx="216.84" cy="172.54" r="4.9497"/>
  </g>
  <g fill="none" stroke-width="1px">
   <path d="m165.71 52.536h36.223" marker-end="url(#marker4005)"/>
   <path d="m165.71 110.1h36.223" marker-end="url(#marker4005)"/>
   <path d="m165.71 142.54h36.223" marker-end="url(#marker4005)"/>
   <path d="m165.71 172.32h36.223" marker-end="url(#marker4005)"/>
  </g>
  <g fill-rule="evenodd" stroke-linecap="round" stroke-linejoin="round">
   <circle cx="216.4" cy="73.537" r="2.1213"/>
   <circle cx="216.4" cy="82.729" r="2.1213"/>
   <circle cx="216.4" cy="91.922" r="2.1213"/>
  </g>
  <g fill-rule="evenodd" stroke-linecap="round" stroke-linejoin="round" stroke-width="2">
   <circle cx="287.24" cy="52.536" r="10" fill="#aade87"/>
   <circle cx="287.24" cy="112.54" r="10" fill="#ffe680"/>
   <circle cx="287.24" cy="142.54" r="10" fill="#aade87"/>
   <circle cx="287.24" cy="172.54" r="10" fill="#ff80e5"/>
  </g>
  <g fill-rule="evenodd" stroke-linecap="round" stroke-linejoin="round">
   <circle cx="287.81" cy="73.537" r="2.1213"/>
   <circle cx="287.81" cy="82.729" r="2.1213"/>
   <circle cx="287.81" cy="91.922" r="2.1213"/>
  </g>
  <g fill="none" stroke-width="1px">
   <path d="m230.05 24.536h36.223" marker-end="url(#marker4005)"/>
   <path d="m230.05 52.536h36.223" marker-end="url(#marker4005)"/>
   <path d="m230.05 110.1h36.223" marker-end="url(#marker4005)"/>
   <path d="m230.05 142.54h36.223" marker-end="url(#marker4005)"/>
   <path d="m230.05 172.32h36.223" marker-end="url(#marker4005)"/>
  </g>
  <g fill-rule="evenodd" stroke-linecap="round" stroke-linejoin="round" stroke-width="2">
   <circle cx="355.43" cy="52.536" r="4.9497"/>
   <circle cx="355.43" cy="110.1" r="4.9497"/>
   <circle cx="355.43" cy="142.54" r="4.9497"/>
   <circle cx="355.43" cy="172.54" r="4.9497"/>
  </g>
  <g fill="none" stroke-width="1px">
   <path d="m304.3 52.536h36.223" marker-end="url(#marker4005)"/>
   <path d="m304.3 110.1h36.223" marker-end="url(#marker4005)"/>
   <path d="m304.3 142.54h36.223" marker-end="url(#marker4005)"/>
   <path d="m304.3 172.32h36.223" marker-end="url(#marker4005)"/>
  </g>
  <g fill-rule="evenodd" stroke-linecap="round" stroke-linejoin="round">
   <circle cx="354.99" cy="73.537" r="2.1213"/>
   <circle cx="354.99" cy="82.729" r="2.1213"/>
   <circle cx="354.99" cy="91.922" r="2.1213"/>
  </g>
  <g fill-rule="evenodd" stroke-linecap="round" stroke-linejoin="round" stroke-width="2">
   <circle cx="424.41" cy="52.536" r="10" fill="#87cdde"/>
   <circle cx="424.41" cy="142.54" r="10" fill="#87cdde"/>
   <circle cx="424.41" cy="172.54" r="10" fill="#aade87"/>
  </g>
  <g fill-rule="evenodd" stroke-linecap="round" stroke-linejoin="round">
   <circle cx="424.99" cy="73.537" r="2.1213"/>
   <circle cx="424.99" cy="82.729" r="2.1213"/>
   <circle cx="424.99" cy="91.922" r="2.1213"/>
  </g>
  <g fill="none" stroke-width="1px">
   <path d="m367.23 52.536h36.223" marker-end="url(#marker4005)"/>
   <path d="m367.23 142.54h36.223" marker-end="url(#marker4005)"/>
   <path d="m367.23 172.32h36.223" marker-end="url(#marker4005)"/>
  </g>
  <g fill-rule="evenodd" stroke-linecap="round" stroke-linejoin="round">
   <circle transform="rotate(90)" cx="52.324" cy="-464.59" r="2.1213"/>
   <circle transform="rotate(90)" cx="52.324" cy="-455.4" r="2.1213"/>
   <circle transform="rotate(90)" cx="52.324" cy="-446.21" r="2.1213"/>
   <circle transform="rotate(90)" cx="142.83" cy="-464.59" r="2.1213"/>
   <circle transform="rotate(90)" cx="142.83" cy="-455.4" r="2.1213"/>
   <circle transform="rotate(90)" cx="142.83" cy="-446.21" r="2.1213"/>
   <circle transform="rotate(90)" cx="171.12" cy="-464.59" r="2.1213"/>
   <circle transform="rotate(90)" cx="171.12" cy="-455.4" r="2.1213"/>
   <circle transform="rotate(90)" cx="171.12" cy="-446.21" r="2.1213"/>
   <circle cx="485.1" cy="73.537" r="2.1213"/>
   <circle cx="485.1" cy="82.729" r="2.1213"/>
   <circle cx="485.1" cy="91.922" r="2.1213"/>
  </g>
  <path d="m367.23 109.81h36.223" fill="none" marker-end="url(#marker4005)" stroke-width="1px"/>
 </g>
</svg>
