<?xml version="1.0" encoding="UTF-8"?>
<svg width="500" height="200" version="1.1" viewBox="0 0 500 200" xmlns="http://www.w3.org/2000/svg" xmlns:cc="http://creativecommons.org/ns#" xmlns:dc="http://purl.org/dc/elements/1.1/" xmlns:rdf="http://www.w3.org/1999/02/22-rdf-syntax-ns#">
 <defs>
  <marker id="marker48456" overflow="visible" orient="auto">
   <path transform="scale(.6) rotate(180) translate(0)" d="m8.7186 4.0337-10.926-4.0177 10.926-4.0177c-1.7455 2.3721-1.7354 5.6175-6e-7 8.0354z" fill="context-stroke" fill-rule="evenodd" stroke-linejoin="round" stroke-width=".625"/>
  </marker>
  <marker id="Arrow2Mend" overflow="visible" orient="auto">
   <path transform="scale(-.6)" d="m8.7186 4.0337-10.926-4.0177 10.926-4.0177c-1.7455 2.3721-1.7354 5.6175-6e-7 8.0354z" fill-rule="evenodd" stroke="#000" stroke-linejoin="round" stroke-width=".625"/>
  </marker>
 </defs>
 <metadata>
  <rdf:RDF>
   <cc:Work rdf:about="">
    <dc:format>image/svg+xml</dc:format>
    <dc:type rdf:resource="http://purl.org/dc/dcmitype/StillImage"/>
   </cc:Work>
  </rdf:RDF>
 </metadata>
 <g fill="none">
  <g>
   <g>
    <path d="m0.499 0.499h499v199h-499z" stroke="#000" stroke-width=".998"/>
    <g stroke-width="2">
     <path d="m0 100 50-50 20 20 30-20 50 50 20-20 20 10 20-20 30 10 20-20 30 20 20-10 20 10 20-20 10 20 30 10 20-10 10 10 30-20 10 10 40-30" stroke="#0f22c2"/>
     <path d="m0 100h500" stroke="#000"/>
     <path d="m0 100 20 10 20-20 10 30h30l20-30 20 30 30 20 20-10 30 10 20-20 10 20 30-20 20 20 50-10v20l50-20 20 10 20-10 20 10 30-20 20 30 10-20" stroke="#ff3334"/>
    </g>
   </g>
   <path d="m0 100 30-20 20 10 10-10s0 10 10 10 30-20 30-20l10 20 30-30 10 20 20-30 10 20 30-20v10l30-20 10 10 30-30v10l20-10 10 20 30-10 10 20 10-20 20 30 20-10v10l30-20 10 10 30-20v10l30-10" stroke="#0f22c2" stroke-opacity=".98431" stroke-width="2"/>
   <path d="m0 100 30 30 40-10 10 20 30-10 20 30 30-10 20 20 20-10 30 20 20-20 20 20 20-20 50 30 40-30 50 30 10-20 20 10 40-20" stroke="#ff3334" stroke-width="2"/>
  </g>
  <path d="m10 40v-30" marker-end="url(#marker48456)" stroke="#000" stroke-width="1px"/>
  <path d="m10 160v30" marker-end="url(#Arrow2Mend)" stroke="#000" stroke-width="1px"/>
 </g>
</svg>
