<?xml version="1.0" encoding="UTF-8"?>
<svg width="500" height="500" version="1.1" viewBox="0 0 500 500" xmlns="http://www.w3.org/2000/svg" xmlns:cc="http://creativecommons.org/ns#" xmlns:dc="http://purl.org/dc/elements/1.1/" xmlns:rdf="http://www.w3.org/1999/02/22-rdf-syntax-ns#">
 <defs>
  <marker id="marker27437" overflow="visible" orient="auto">
   <path transform="scale(.6) rotate(180) translate(0)" d="m8.7186 4.0337-10.926-4.0177 10.926-4.0177c-1.7455 2.3721-1.7354 5.6175-6e-7 8.0354z" fill="context-stroke" fill-rule="evenodd" stroke-linejoin="round" stroke-width=".625"/>
  </marker>
 </defs>
 <metadata>
  <rdf:RDF>
   <cc:Work rdf:about="">
    <dc:format>image/svg+xml</dc:format>
    <dc:type rdf:resource="http://purl.org/dc/dcmitype/StillImage"/>
   </cc:Work>
  </rdf:RDF>
 </metadata>
 <g fill="none" stroke="#000">
  <path d="m50 30h30l20 20-10 30 10 20 30 10 10 20" marker-end="url(#marker27437)" stroke-dasharray="1,1"/>
  <g stroke-width="1px">
   <path d="m280 50-20 110" marker-end="url(#marker27437)"/>
   <path d="m403.58 271.66 32.263 127.51" marker-end="url(#marker27437)"/>
   <path d="m150 400 230-110" marker-end="url(#marker27437)"/>
   <path d="m68 258 60 110" marker-end="url(#marker27437)"/>
   <path d="m262 188-160 50" marker-end="url(#marker27437)"/>
  </g>
  <path d="m0.499 0.499h499v499h-499z" stroke-width=".998"/>
 </g>
 <circle cx="50" cy="29" r="8" fill="#fd5" fill-rule="evenodd" stroke="#000" stroke-linecap="round" stroke-linejoin="round" stroke-width="2"/>
 <circle cx="146" cy="142" r="8" fill="#fd5" fill-rule="evenodd" stroke="#000" stroke-linecap="round" stroke-linejoin="round" stroke-width="2"/>
 <rect x="256.59" y="28.595" width="44.81" height="44.81" ry="22.405" fill="#acf" fill-rule="evenodd" stroke="#000" stroke-linecap="round" stroke-linejoin="round"/>
 <circle cx="279" cy="51" r="8" fill="#fd5" fill-rule="evenodd" stroke="#000" stroke-linecap="round" stroke-linejoin="round" stroke-width="2"/>
 <g transform="translate(-24 141)">
  <rect x="256.59" y="28.595" width="44.81" height="44.81" ry="22.405" fill="#acf" fill-rule="evenodd" stroke="#000" stroke-linecap="round" stroke-linejoin="round"/>
  <circle cx="279" cy="51" r="8" fill="#fd5" fill-rule="evenodd" stroke="#000" stroke-linecap="round" stroke-linejoin="round" stroke-width="2"/>
 </g>
 <g transform="translate(-205 205)">
  <rect x="256.59" y="28.595" width="44.81" height="44.81" ry="22.405" fill="#acf" fill-rule="evenodd" stroke="#000" stroke-linecap="round" stroke-linejoin="round"/>
  <circle cx="279" cy="51" r="8" fill="#fd5" fill-rule="evenodd" stroke="#000" stroke-linecap="round" stroke-linejoin="round" stroke-width="2"/>
 </g>
 <g transform="translate(-135 345)">
  <rect x="256.59" y="28.595" width="44.81" height="44.81" ry="22.405" fill="#acf" fill-rule="evenodd" stroke="#000" stroke-linecap="round" stroke-linejoin="round"/>
  <circle cx="279" cy="51" r="8" fill="#fd5" fill-rule="evenodd" stroke="#000" stroke-linecap="round" stroke-linejoin="round" stroke-width="2"/>
 </g>
 <g transform="translate(131 221)">
  <rect x="256.59" y="28.595" width="44.81" height="44.81" ry="22.405" fill="#acf" fill-rule="evenodd" stroke="#000" stroke-linecap="round" stroke-linejoin="round"/>
  <circle cx="279" cy="51" r="8" fill="#fd5" fill-rule="evenodd" stroke="#000" stroke-linecap="round" stroke-linejoin="round" stroke-width="2"/>
 </g>
 <g transform="translate(163 381)">
  <rect x="256.59" y="28.595" width="44.81" height="44.81" ry="22.405" fill="#acf" fill-rule="evenodd" stroke="#000" stroke-linecap="round" stroke-linejoin="round"/>
  <circle cx="279" cy="51" r="8" fill="#fd5" fill-rule="evenodd" stroke="#000" stroke-linecap="round" stroke-linejoin="round" stroke-width="2"/>
 </g>
</svg>
