<?xml version="1.0" encoding="UTF-8"?>
<svg width="500" height="300" version="1.1" viewBox="0 0 500 300" xmlns="http://www.w3.org/2000/svg" xmlns:cc="http://creativecommons.org/ns#" xmlns:dc="http://purl.org/dc/elements/1.1/" xmlns:rdf="http://www.w3.org/1999/02/22-rdf-syntax-ns#">
 <defs>
  <marker id="marker23755" overflow="visible" orient="auto">
   <path transform="scale(.2) translate(7.4 1)" d="m-2.5-1c0 2.76-2.24 5-5 5s-5-2.24-5-5 2.24-5 5-5 5 2.24 5 5z" fill="context-stroke" fill-rule="evenodd" stroke="context-stroke" stroke-width="1pt"/>
  </marker>
  <marker id="DotS" overflow="visible" orient="auto">
   <path transform="matrix(.2 0 0 .2 1.48 .2)" d="m-2.5-1c0 2.76-2.24 5-5 5s-5-2.24-5-5 2.24-5 5-5 5 2.24 5 5z" fill="context-stroke" fill-rule="evenodd" stroke="context-stroke" stroke-width="1pt"/>
  </marker>
 </defs>
 <metadata>
  <rdf:RDF>
   <cc:Work rdf:about="">
    <dc:format>image/svg+xml</dc:format>
    <dc:type rdf:resource="http://purl.org/dc/dcmitype/StillImage"/>
   </cc:Work>
  </rdf:RDF>
 </metadata>
 <path d="m0.499 0.499h499v299h-499z" fill="none" stroke="#000" stroke-width=".99801"/>
 <g transform="translate(262.33 175.5)" stroke="#000">
  <rect x="-233.17" y="-23.184" width="46.333" height="46.368" fill="#f59" fill-rule="evenodd" opacity=".999" stroke-linejoin="round"/>
  <path d="m-222.88-16.316h20v30h-20v-30" fill="none" stroke-linecap="round" stroke-linejoin="round" stroke-width="5"/>
  <path d="m-202.88 13.684h10" fill="none" stroke-width="5"/>
 </g>
 <g transform="translate(192 77.5)" stroke="#000">
  <rect x="-163.17" y="-23.184" width="46.333" height="46.368" fill="#f59" fill-rule="evenodd" opacity=".999" stroke-linejoin="round"/>
  <g fill="none" stroke-width="5">
   <path d="m-152.88-16.316h20v30h-20v-30" stroke-linecap="round" stroke-linejoin="round"/>
   <path d="m-132.88 13.684h10"/>
   <path d="m-124.33-16.316v10"/>
  </g>
 </g>
 <path d="m90 181.5c6.6679 3.3339 13.335 6.6673 18.334 5.0004 4.9993-1.6668 8.3326-8.3334 13.333-8.333 5.0007 3.7e-4 11.667 6.6669 20 3.333 8.3329-3.3339 18.333-16.667 26.667-18.333 8.3338-1.6661 15 8.3337 25 8.333 9.9998-7.4e-4 23.333-10.001 35-6.6664s21.667 20 30 23.333c8.333 3.3328 15-6.667 25-3.3331 10.001 3.3339 23.334 20 35 21.666 11.666 1.6661 21.666-11.667 31.667-9.9997 10.001 1.6674 20 18.334 30 20 9.9997 1.666 19.999-11.667 28.333-8.333 8.3337 3.334 15 23.334 25.001 38.334 10 15 23.334 25 36.666 34.999" fill="none" marker-mid="url(#DotS)" stroke="#59f" stroke-width="3"/>
 <path d="m90 80c3.3343 3.3343 6.6677 6.6677 10.001 10.001 3.3334 3.3334 6.6666 6.6666 11.667 9.9998 5.0002 3.3332 11.667 6.6664 20 9.9997 8.3334 3.3333 18.333 6.6665 28.333 9.9999 10 3.3334 20 6.6666 31.667 8.3331 11.667 1.6665 25 1.6665 35 3.3335 10 1.667 16.667 5.0003 25 6.6666 8.3333 1.6664 18.333 1.6664 28.333 3.3333s20 5.0002 30 6.6666c10 1.6665 20 1.6665 26.666 3.3337s10 5.0005 16.667 8.3335c6.6669 3.3331 16.667 6.6663 26.667 9.9997 10 3.3334 20 6.6666 28.333 10 8.3334 3.3335 15 6.6667 25 13.334 10 6.6669 23.333 16.667 36.665 26.666" fill="none" marker-mid="url(#marker23755)" stroke="#f59" stroke-width="3"/>
</svg>
