<?xml version="1.0" encoding="UTF-8"?>
<svg width="500" height="200" version="1.1" viewBox="0 0 500 200" xmlns="http://www.w3.org/2000/svg" xmlns:cc="http://creativecommons.org/ns#" xmlns:dc="http://purl.org/dc/elements/1.1/" xmlns:rdf="http://www.w3.org/1999/02/22-rdf-syntax-ns#">
 <defs>
  <marker id="DotS" overflow="visible" orient="auto">
   <path transform="matrix(.2 0 0 .2 1.48 .2)" d="m-2.5-1c0 2.76-2.24 5-5 5s-5-2.24-5-5 2.24-5 5-5 5 2.24 5 5z" fill="context-stroke" fill-rule="evenodd" stroke="context-stroke" stroke-width="1pt"/>
  </marker>
 </defs>
 <metadata>
  <rdf:RDF>
   <cc:Work rdf:about="">
    <dc:format>image/svg+xml</dc:format>
    <dc:type rdf:resource="http://purl.org/dc/dcmitype/StillImage"/>
   </cc:Work>
  </rdf:RDF>
 </metadata>
 <g fill="none" stroke-width="3">
  <path d="m0.67082 200.6 10-10h10l10-10 10-10h10l10-10 10 10 10-10 10-10 10 10 10-10 10 10 20-20 10 10 10-10 20 10 20-20 10 10 10-10 20 20 30-30 10 20 20-30 10 10 20-20 10 20 20-20 10 20h20l10 20 20-20 10-20 10 10 10-20 10 10 10-10h10l10-10 10 10" marker-mid="url(#DotS)" stroke="#ff8080"/>
  <path d="m0.67082 200.6 10-20 10 10 10-20 10 20 10-10h10l20-10 10-10 10-20 10 20 20-20 10 20 30-20v20l10-10h20l10-10 20-10h10l10-10 10 10 10 20h10l10-10 20-10 10 10 20-10 10 10 10-10 20 10 20-20 20 10 10-10 10 10 20-20 10 10 10-10 10 20 10-10" marker-mid="url(#DotS)" stroke="#acf"/>
  <path d="m0.67082 200.6 20-10 10-20 10 10 10-10 10 10 20-20 10 10 20-10v10l20-10 10 20 20-10 10 10 10-10 10 10 10-20 10 10 10-10 20 10 10-20 10 20 30-20 10 10 10-10 10 10 20-10 10 20 20-20 20 20 10-20 20 10 10-10 20 10 10-20 10 10 20-10 10 10" marker-mid="url(#DotS)" stroke="#59f"/>
  <path d="m0.67082 200.6 20-20 20 10 20-30 10 20 20-30 20 10 20-20 20 10 20-20 30 20 20-30 10 20 30-30 30 20 30-30 20 30 20-30 20 20 20-20 10 10 20-20 10 20 20-10 20 20 20-20" marker-mid="url(#DotS)" stroke="#f59"/>
  <path d="m0.67082 200.6 20-10 10-20 20 10 10-20 10 20 20-20 20 20 20-20 10 30 20-30 20 20 10-20 20 10 30-20 20 20 10-20 30 20 10-10 10 10 20-10 20 10 20-10h20l20-10 20 10 10-20 20 20 10-20 10 10 10-20" marker-mid="url(#DotS)" stroke="#000"/>
  <path d="m0 200 30-30 20-10 20-20h10l20-10 30 10 10-20 20 10 10-20 10 10 20-20 20 10 10-10 10 10 10-20 10 10 20-20 10 10 10-10 10 10 20-10 20 10 10-10 10 10 20-20 10 10 10-10 10 10 30-20 10 10 10-10 10 10 20 10" marker-mid="url(#DotS)" stroke="#9393ac"/>
 </g>
</svg>
