<?xml version="1.0" encoding="UTF-8"?>
<svg width="500" height="500" version="1.1" viewBox="0 0 500 500" xmlns="http://www.w3.org/2000/svg" xmlns:cc="http://creativecommons.org/ns#" xmlns:dc="http://purl.org/dc/elements/1.1/" xmlns:rdf="http://www.w3.org/1999/02/22-rdf-syntax-ns#">
 <defs>
  <marker id="marker2591" overflow="visible" orient="auto">
   <path transform="scale(.8)" d="m5.77 0-8.65 5v-10l8.65 5z" fill-rule="evenodd" stroke="#000" stroke-width="1pt"/>
  </marker>
  <marker id="marker2441" overflow="visible" orient="auto">
   <path transform="scale(.8)" d="m5.77 0-8.65 5v-10l8.65 5z" fill-rule="evenodd" stroke="#000" stroke-width="1pt"/>
  </marker>
  <marker id="marker2305" overflow="visible" orient="auto">
   <path transform="scale(.8)" d="m5.77 0-8.65 5v-10l8.65 5z" fill-rule="evenodd" stroke="#000" stroke-width="1pt"/>
  </marker>
  <marker id="marker2171" overflow="visible" orient="auto">
   <path transform="scale(.8)" d="m5.77 0-8.65 5v-10l8.65 5z" fill-rule="evenodd" stroke="#000" stroke-width="1pt"/>
  </marker>
  <marker id="marker2045" overflow="visible" orient="auto">
   <path transform="scale(.8)" d="m5.77 0-8.65 5v-10l8.65 5z" fill-rule="evenodd" stroke="#000" stroke-width="1pt"/>
  </marker>
  <marker id="marker1927" overflow="visible" orient="auto">
   <path transform="scale(.8)" d="m5.77 0-8.65 5v-10l8.65 5z" fill-rule="evenodd" stroke="#000" stroke-width="1pt"/>
  </marker>
  <marker id="marker1823" overflow="visible" orient="auto">
   <path transform="scale(.8)" d="m5.77 0-8.65 5v-10l8.65 5z" fill-rule="evenodd" stroke="#000" stroke-width="1pt"/>
  </marker>
  <marker id="marker1709" overflow="visible" orient="auto">
   <path transform="scale(.8)" d="m5.77 0-8.65 5v-10l8.65 5z" fill-rule="evenodd" stroke="#000" stroke-width="1pt"/>
  </marker>
  <marker id="marker1621" overflow="visible" orient="auto">
   <path transform="scale(.8)" d="m5.77 0-8.65 5v-10l8.65 5z" fill-rule="evenodd" stroke="#000" stroke-width="1pt"/>
  </marker>
  <marker id="marker1535" overflow="visible" orient="auto">
   <path transform="scale(.8)" d="m5.77 0-8.65 5v-10l8.65 5z" fill-rule="evenodd" stroke="#000" stroke-width="1pt"/>
  </marker>
  <marker id="marker1457" overflow="visible" orient="auto">
   <path transform="scale(.8)" d="m5.77 0-8.65 5v-10l8.65 5z" fill-rule="evenodd" stroke="#000" stroke-width="1pt"/>
  </marker>
  <marker id="marker1393" overflow="visible" orient="auto">
   <path transform="scale(.8)" d="m5.77 0-8.65 5v-10l8.65 5z" fill-rule="evenodd" stroke="#000" stroke-width="1pt"/>
  </marker>
  <marker id="marker1337" overflow="visible" orient="auto">
   <path transform="scale(.8)" d="m5.77 0-8.65 5v-10l8.65 5z" fill-rule="evenodd" stroke="#000" stroke-width="1pt"/>
  </marker>
  <marker id="marker1283" overflow="visible" orient="auto">
   <path transform="scale(.8)" d="m5.77 0-8.65 5v-10l8.65 5z" fill-rule="evenodd" stroke="#000" stroke-width="1pt"/>
  </marker>
  <marker id="marker1237" overflow="visible" orient="auto">
   <path transform="scale(.8)" d="m5.77 0-8.65 5v-10l8.65 5z" fill-rule="evenodd" stroke="#000" stroke-width="1pt"/>
  </marker>
  <marker id="TriangleOutL" overflow="visible" orient="auto">
   <path transform="scale(.8)" d="m5.77 0-8.65 5v-10l8.65 5z" fill-rule="evenodd" stroke="#000" stroke-width="1pt"/>
  </marker>
 </defs>
 <metadata>
  <rdf:RDF>
   <cc:Work rdf:about="">
    <dc:format>image/svg+xml</dc:format>
    <dc:type rdf:resource="http://purl.org/dc/dcmitype/StillImage"/>
    <dc:title/>
   </cc:Work>
  </rdf:RDF>
 </metadata>
 <g fill="none" stroke="#000">
  <path d="m0.499 0.499h499v499h-499z" stroke-width=".998"/>
  <g stroke-width="1px">
   <path d="m125.5 0v500"/>
   <path d="m250.5 0v500"/>
   <path d="m375.5 0v500"/>
   <path d="m0 125.5h500"/>
   <path d="m0 250.5h500"/>
   <path d="m0 375.5h500"/>
  </g>
 </g>
 <g fill-rule="evenodd" stroke="#000" stroke-linejoin="round">
  <circle cx="60" cy="60" r="42" fill="#fd5" stroke-width="1.0016"/>
  <path transform="matrix(1.2025 0 0 1.2029 -91.098 -81.475)" d="m478.73 463.54h-77.46l38.73-67.082z" fill="#f59" stroke-width=".83277"/>
  <g fill="#acf">
   <rect x="137" y="137" width="100" height="100"/>
   <g stroke-width="1.0016">
    <rect x="388" y="136" width="100" height="100"/>
    <rect x="388" y="263" width="100" height="100"/>
    <rect x="13" y="387" width="100" height="100"/>
   </g>
  </g>
 </g>
 <g fill="none" stroke="#000">
  <path d="m65 60h50" marker-end="url(#TriangleOutL)" stroke-width="1.0016"/>
  <g stroke-width="1.0016">
   <path d="m190 60h50" marker-end="url(#marker1237)"/>
   <path d="m315 65v50" marker-end="url(#marker1283)"/>
   <path d="m315 190v50" marker-end="url(#marker1337)"/>
   <path d="m315 315v50" marker-end="url(#marker1393)"/>
   <path d="m315 440h50" marker-end="url(#marker1457)"/>
   <path d="m440 60h-50" marker-end="url(#marker1535)"/>
   <path d="m60 190v50" marker-end="url(#marker1621)"/>
   <path d="m190 190v50" marker-end="url(#marker1709)"/>
   <path d="m440 190v50" marker-end="url(#marker1823)"/>
   <path d="m440 320v50" marker-end="url(#marker1927)"/>
   <path d="m60 312h50" marker-end="url(#marker2045)"/>
   <path d="m190 315v50" marker-end="url(#marker2171)"/>
   <path d="m190 440h50" marker-end="url(#marker2305)"/>
   <path d="m60 440h50" marker-end="url(#marker2441)"/>
   <path d="m430 440h50" marker-end="url(#marker2591)"/>
  </g>
 </g>
 <g font-family="Roboto" font-size="40px">
  <text x="42.806805" y="47.832909" style="line-height:1.25" xml:space="preserve"><tspan x="42.806805" y="47.832909">0.04</tspan></text>
  <text x="164.57552" y="42.390732" style="line-height:1.25" xml:space="preserve"><tspan x="164.57552" y="42.390732">0.02</tspan></text>
  <text x="291.78641" y="43.071003" style="line-height:1.25" xml:space="preserve"><tspan x="291.78641" y="43.071003">0.05</tspan></text>
  <text x="416.95648" y="43.071003" style="line-height:1.25" xml:space="preserve"><tspan x="416.95648" y="43.071003">0.02</tspan></text>
  <text x="25.11973" y="169.60161" style="line-height:1.25" xml:space="preserve"><tspan x="25.11973" y="169.60161">0.06</tspan></text>
  <text x="178.18094" y="170.28188" style="line-height:1.25" xml:space="preserve"><tspan x="178.18094" y="170.28188">0</tspan></text>
  <text x="278.18097" y="170.28189" style="line-height:1.25" xml:space="preserve"><tspan x="278.18097" y="170.28189">0.10</tspan></text>
  <text x="429.20132" y="170.28188" style="line-height:1.25" xml:space="preserve"><tspan x="429.20132" y="170.28188">0</tspan></text>
  <text x="25.11973" y="294.77167" style="line-height:1.25" xml:space="preserve"><tspan x="25.11973" y="294.77167">0.12</tspan></text>
  <text x="148.24898" y="294.77167" style="line-height:1.25" xml:space="preserve"><tspan x="148.24898" y="294.77167">0.30</tspan></text>
  <text x="278.18094" y="294.77167" style="line-height:1.25" xml:space="preserve"><tspan x="278.18094" y="294.77167">0.31</tspan></text>
  <text x="429.20132" y="295.45193" style="line-height:1.25" xml:space="preserve"><tspan x="429.20132" y="295.45193">0</tspan></text>
  <text x="55.051678" y="424.70364" style="line-height:1.25" xml:space="preserve"><tspan x="55.051678" y="424.70364">0</tspan></text>
  <text x="148.24898" y="421.30228" style="line-height:1.25" xml:space="preserve"><tspan x="148.24898" y="421.30228">0.47</tspan></text>
  <text x="277.50067" y="421.30228" style="line-height:1.25" xml:space="preserve"><tspan x="277.50067" y="421.30228">0.65</tspan></text>
  <text x="469.33737" y="417.90091" style="line-height:1.25" xml:space="preserve"><tspan x="469.33737" y="417.90091">0</tspan></text>
 </g>
</svg>
