<?xml version="1.0" encoding="UTF-8"?>
<svg width="500" height="500" version="1.1" viewBox="0 0 500 500" xmlns="http://www.w3.org/2000/svg" xmlns:cc="http://creativecommons.org/ns#" xmlns:dc="http://purl.org/dc/elements/1.1/" xmlns:rdf="http://www.w3.org/1999/02/22-rdf-syntax-ns#">
 <metadata>
  <rdf:RDF>
   <cc:Work rdf:about="">
    <dc:format>image/svg+xml</dc:format>
    <dc:type rdf:resource="http://purl.org/dc/dcmitype/StillImage"/>
   </cc:Work>
  </rdf:RDF>
 </metadata>
 <path d="m0.499 0.499h499v499h-499z" fill="none" stroke="#000" stroke-width=".998"/>
 <g fill="#fd5" fill-rule="evenodd" stroke="#000" stroke-linecap="round" stroke-linejoin="round" stroke-width="2">
  <circle cx="84.618" cy="50" r="20"/>
  <circle cx="84.618" cy="138" r="20"/>
  <circle cx="84.618" cy="227" r="20"/>
  <circle cx="84.618" cy="327" r="20"/>
 </g>
 <circle cx="84.618" cy="418" r="20" fill="#acf" fill-rule="evenodd" stroke="#000" stroke-linecap="round" stroke-linejoin="round" stroke-width="2"/>
 <g fill-rule="evenodd" stroke="#000" stroke-linecap="round" stroke-linejoin="round" stroke-width="2">
  <ellipse cx="374.62" cy="203.44" rx="4.0617" ry="4.443"/>
  <ellipse cx="374.62" cy="237.75" rx="4.0617" ry="4.443"/>
  <ellipse cx="374.62" cy="272.56" rx="4.0617" ry="4.443"/>
  <ellipse cx="229.68" cy="198" rx="4.0617" ry="4.443"/>
  <ellipse cx="229.68" cy="238" rx="4.0617" ry="4.443"/>
  <ellipse cx="229.68" cy="272.56" rx="4.0617" ry="4.443"/>
 </g>
 <g fill="none" stroke="#000" stroke-dasharray="6, 12" stroke-width="3">
  <path d="m374.62 48 100 190"/>
  <path d="m374.62 148 100 90"/>
  <path d="m374.62 318 100-80"/>
  <path d="m374.62 418 100-180"/>
 </g>
 <g fill="#fd5" fill-rule="evenodd" stroke="#000" stroke-linecap="round" stroke-linejoin="round" stroke-width="2">
  <circle cx="374.62" cy="148" r="20"/>
  <circle cx="374.62" cy="317" r="20"/>
  <circle cx="374.62" cy="417" r="20"/>
 </g>
 <circle cx="474.62" cy="238" r="20" fill="#59f" fill-rule="evenodd" stroke="#000" stroke-linecap="round" stroke-linejoin="round" stroke-width="2"/>
 <g fill="none" stroke="#000">
  <path d="m294.62 48.25h80" stroke-dasharray="1, 1"/>
  <path d="m294.88 97.654 79.681-49.641" stroke-dasharray="0.999996, 0.999996"/>
  <path d="m285.01 207.75 89.653-159.69" stroke-dasharray="0.999999, 0.999999"/>
  <path d="m284.98 277.82 89.664-229.75" stroke-dasharray="0.999998, 0.999998"/>
 </g>
 <g fill="#fd5" fill-rule="evenodd" stroke="#000" stroke-linecap="round" stroke-linejoin="round" stroke-width="2">
  <circle cx="234.62" cy="148" r="20"/>
  <circle cx="234.62" cy="328" r="20"/>
  <circle cx="234.62" cy="418" r="20"/>
  <circle cx="374.62" cy="49" r="20"/>
 </g>
 <g fill="none" stroke="#000">
  <path d="m154.72 38.246h80" stroke-dasharray="1, 1"/>
  <path d="m154.99 87.65 79.681-49.641" stroke-dasharray="0.999996, 0.999996"/>
  <path d="m145.11 197.74 89.653-159.69" stroke-dasharray="0.999999, 0.999999"/>
  <path d="m145.08 267.82 89.664-229.75" stroke-dasharray="0.999998, 0.999998"/>
 </g>
 <circle cx="234.62" cy="47" r="20" fill="#fd5" fill-rule="evenodd" stroke="#000" stroke-linecap="round" stroke-linejoin="round" stroke-width="2"/>
 <g font-family="Roboto">
  <text transform="rotate(-90)" x="-282.54056" y="48.505966" font-size="50.588px" style="line-height:1.25" xml:space="preserve"><tspan x="-282.54056" y="48.505966">STATES</tspan></text>
  <text x="21.276932" y="493.69659" font-size="36.898px" style="line-height:1.25" xml:space="preserve"><tspan x="21.276932" y="493.69659">ACTION</tspan></text>
  <text transform="rotate(-90)" x="-480.26306" y="489.07523" font-size="29.174px" style="line-height:1.25" xml:space="preserve"><tspan x="-480.26306" y="489.07523">ACTION VALUE</tspan></text>
 </g>
</svg>
