<?xml version="1.0" encoding="UTF-8"?>
<svg width="500" height="500" version="1.1" viewBox="0 0 500 500" xmlns="http://www.w3.org/2000/svg" xmlns:cc="http://creativecommons.org/ns#" xmlns:dc="http://purl.org/dc/elements/1.1/" xmlns:rdf="http://www.w3.org/1999/02/22-rdf-syntax-ns#">
 <metadata>
  <rdf:RDF>
   <cc:Work rdf:about="">
    <dc:format>image/svg+xml</dc:format>
    <dc:type rdf:resource="http://purl.org/dc/dcmitype/StillImage"/>
   </cc:Work>
  </rdf:RDF>
 </metadata>
 <path d="m0.499 0.499h499v499h-499z" fill="none" stroke="#000" stroke-width=".998"/>
 <g fill="#fd5" fill-rule="evenodd" stroke="#000" stroke-linecap="round" stroke-linejoin="round" stroke-width="2">
  <circle cx="77.618" cy="54" r="20"/>
  <circle cx="77.618" cy="119" r="20"/>
  <circle cx="75.618" cy="203" r="20"/>
  <circle cx="77.618" cy="280" r="20"/>
 </g>
 <g fill-rule="evenodd" stroke="#000" stroke-linecap="round" stroke-linejoin="round" stroke-width="2">
  <ellipse cx="328.62" cy="207.44" rx="4.0617" ry="4.443"/>
  <ellipse cx="328.62" cy="241.75" rx="4.0617" ry="4.443"/>
  <ellipse cx="328.62" cy="276.56" rx="4.0617" ry="4.443"/>
  <ellipse cx="183.68" cy="202" rx="4.0617" ry="4.443"/>
  <ellipse cx="183.68" cy="242" rx="4.0617" ry="4.443"/>
  <ellipse cx="183.68" cy="276.56" rx="4.0617" ry="4.443"/>
 </g>
 <g fill="none" stroke="#000" stroke-dasharray="6, 12" stroke-width="3">
  <path d="m328.62 52 100 190"/>
  <path d="m328.62 152 100 90"/>
  <path d="m328.62 322 100-80"/>
  <path d="m328.62 422 100-180"/>
 </g>
 <g fill="#fd5" fill-rule="evenodd" stroke="#000" stroke-linecap="round" stroke-linejoin="round" stroke-width="2">
  <circle cx="328.62" cy="152" r="20"/>
  <circle cx="328.62" cy="321" r="20"/>
  <circle cx="328.62" cy="421" r="20"/>
 </g>
 <circle cx="432.62" cy="242" r="20" fill="#59f" fill-rule="evenodd" stroke="#000" stroke-linecap="round" stroke-linejoin="round" stroke-width="2"/>
 <g fill="none" stroke="#000">
  <path d="m248.62 52.25h80" stroke-dasharray="1, 1"/>
  <path d="m248.88 101.65 79.681-49.641" stroke-dasharray="0.999996, 0.999996"/>
  <path d="m239.01 211.75 89.653-159.69" stroke-dasharray="0.999999, 0.999999"/>
  <path d="m238.98 281.82 89.664-229.75" stroke-dasharray="0.999998, 0.999998"/>
 </g>
 <g fill="#fd5" fill-rule="evenodd" stroke="#000" stroke-linecap="round" stroke-linejoin="round" stroke-width="2">
  <circle cx="188.62" cy="152" r="20"/>
  <circle cx="188.62" cy="332" r="20"/>
  <circle cx="188.62" cy="422" r="20"/>
  <circle cx="328.62" cy="53" r="20"/>
 </g>
 <g fill="none" stroke="#000">
  <path d="m108.72 42.246h80" stroke-dasharray="1, 1"/>
  <path d="m108.99 91.65 79.681-49.641" stroke-dasharray="0.999996, 0.999996"/>
  <path d="m99.113 201.74 89.653-159.69" stroke-dasharray="0.999999, 0.999999"/>
  <path d="m99.083 271.82 89.664-229.75" stroke-dasharray="0.999998, 0.999998"/>
 </g>
 <circle cx="188.62" cy="51" r="20" fill="#fd5" fill-rule="evenodd" stroke="#000" stroke-linecap="round" stroke-linejoin="round" stroke-width="2"/>
 <text transform="rotate(-90)" x="-288.54056" y="44.505966" font-family="Roboto" font-size="50.588px" style="line-height:1.25" xml:space="preserve"><tspan x="-288.54056" y="44.505966">STATE</tspan></text>
 <circle cx="432.62" cy="168" r="20" fill="#59f" fill-rule="evenodd" stroke="#000" stroke-linecap="round" stroke-linejoin="round" stroke-width="2"/>
 <text transform="rotate(-90)" x="-392.54056" y="495.50598" font-family="Roboto" font-size="50.588px" style="line-height:1.25" xml:space="preserve"><tspan x="-392.54056" y="495.50598">ACTION VALUE</tspan></text>
</svg>
