<?xml version="1.0" encoding="UTF-8"?>
<svg width="500" height="500" version="1.1" viewBox="0 0 500 500" xmlns="http://www.w3.org/2000/svg" xmlns:cc="http://creativecommons.org/ns#" xmlns:dc="http://purl.org/dc/elements/1.1/" xmlns:rdf="http://www.w3.org/1999/02/22-rdf-syntax-ns#">
 <metadata>
  <rdf:RDF>
   <cc:Work rdf:about="">
    <dc:format>image/svg+xml</dc:format>
    <dc:type rdf:resource="http://purl.org/dc/dcmitype/StillImage"/>
   </cc:Work>
  </rdf:RDF>
 </metadata>
 <path d="m0.499 0.499h499v499h-499z" fill="none" stroke="#000" stroke-width=".998"/>
 <g fill="#fd5" fill-rule="evenodd" stroke="#000" stroke-linecap="round" stroke-linejoin="round" stroke-width="2">
  <circle cx="37.618" cy="60" r="20"/>
  <circle cx="37.618" cy="125" r="20"/>
  <circle cx="35.618" cy="209" r="20"/>
  <circle cx="37.618" cy="286" r="20"/>
 </g>
 <g fill-rule="evenodd" stroke="#000" stroke-linecap="round" stroke-linejoin="round" stroke-width="2">
  <ellipse cx="288.62" cy="213.44" rx="4.0617" ry="4.443"/>
  <ellipse cx="288.62" cy="247.75" rx="4.0617" ry="4.443"/>
  <ellipse cx="288.62" cy="282.56" rx="4.0617" ry="4.443"/>
  <ellipse cx="143.68" cy="208" rx="4.0617" ry="4.443"/>
  <ellipse cx="143.68" cy="248" rx="4.0617" ry="4.443"/>
  <ellipse cx="143.68" cy="282.56" rx="4.0617" ry="4.443"/>
 </g>
 <g fill="none" stroke="#000" stroke-dasharray="6, 12" stroke-width="3">
  <path d="m288.62 58 100 190"/>
  <path d="m288.62 158 100 90"/>
  <path d="m288.62 328 100-80"/>
  <path d="m288.62 428 100-180"/>
 </g>
 <g fill="#fd5" fill-rule="evenodd" stroke="#000" stroke-linecap="round" stroke-linejoin="round" stroke-width="2">
  <circle cx="288.62" cy="158" r="20"/>
  <circle cx="288.62" cy="327" r="20"/>
  <circle cx="288.62" cy="427" r="20"/>
 </g>
 <g fill="none" stroke="#000">
  <path d="m208.62 58.25h80" stroke-dasharray="1, 1"/>
  <path d="m208.88 107.65 79.681-49.641" stroke-dasharray="0.999996, 0.999996"/>
  <path d="m199.01 217.75 89.653-159.69" stroke-dasharray="0.999999, 0.999999"/>
  <path d="m198.98 287.82 89.664-229.75" stroke-dasharray="0.999998, 0.999998"/>
 </g>
 <g fill="#fd5" fill-rule="evenodd" stroke="#000" stroke-linecap="round" stroke-linejoin="round" stroke-width="2">
  <circle cx="148.62" cy="158" r="20"/>
  <circle cx="148.62" cy="338" r="20"/>
  <circle cx="148.62" cy="428" r="20"/>
  <circle cx="288.62" cy="59" r="20"/>
 </g>
 <g fill="none" stroke="#000">
  <path d="m68.72 48.246h80" stroke-dasharray="1, 1"/>
  <path d="m68.986 97.65 79.681-49.641" stroke-dasharray="0.999996, 0.999996"/>
  <path d="m59.113 207.74 89.653-159.69" stroke-dasharray="0.999999, 0.999999"/>
  <path d="m59.083 277.82 89.664-229.75" stroke-dasharray="0.999998, 0.999998"/>
 </g>
 <circle cx="148.62" cy="57" r="20" fill="#fd5" fill-rule="evenodd" stroke="#000" stroke-linecap="round" stroke-linejoin="round" stroke-width="2"/>
 <g fill="#6c5367" fill-rule="evenodd" stroke="#6c5367" stroke-linecap="round" stroke-linejoin="round" stroke-width="3">
  <rect x="395" y="178.5" width="48.5" height="20" style="paint-order:markers fill stroke"/>
  <rect x="395" y="207" width="90" height="20" style="paint-order:markers fill stroke"/>
  <rect x="395" y="236.5" width="28.5" height="20" style="paint-order:markers fill stroke"/>
  <rect x="395" y="267" width="78.5" height="20" style="paint-order:markers fill stroke"/>
  <rect x="395" y="297" width="58.5" height="20" style="paint-order:markers fill stroke"/>
 </g>
</svg>
