<?xml version="1.0" encoding="UTF-8"?>
<svg width="500" height="500" version="1.1" viewBox="0 0 500 500" xmlns="http://www.w3.org/2000/svg" xmlns:cc="http://creativecommons.org/ns#" xmlns:dc="http://purl.org/dc/elements/1.1/" xmlns:rdf="http://www.w3.org/1999/02/22-rdf-syntax-ns#">
 <metadata>
  <rdf:RDF>
   <cc:Work rdf:about="">
    <dc:format>image/svg+xml</dc:format>
    <dc:type rdf:resource="http://purl.org/dc/dcmitype/StillImage"/>
   </cc:Work>
  </rdf:RDF>
 </metadata>
 <path d="m0.499 0.499h499v499h-499z" fill="none" stroke="#000" stroke-width=".998"/>
 <g fill-rule="evenodd" stroke="#000" stroke-linecap="round" stroke-linejoin="round" stroke-width="2">
  <ellipse cx="324.62" cy="227.44" rx="4.0617" ry="4.443"/>
  <ellipse cx="324.62" cy="261.75" rx="4.0617" ry="4.443"/>
  <ellipse cx="324.62" cy="296.56" rx="4.0617" ry="4.443"/>
 </g>
 <g fill="none" stroke="#000" stroke-dasharray="6, 12" stroke-width="3">
  <path d="m324.62 72 100 190"/>
  <path d="m324.62 172 100 90"/>
  <path d="m324.62 342 100-80"/>
  <path d="m324.62 442 100-180"/>
 </g>
 <g fill="#fd5" fill-rule="evenodd" stroke="#000" stroke-linecap="round" stroke-linejoin="round" stroke-width="2">
  <circle cx="324.62" cy="172" r="20"/>
  <circle cx="324.62" cy="341" r="20"/>
  <circle cx="324.62" cy="441" r="20"/>
 </g>
 <circle cx="428.62" cy="262" r="20" fill="#59f" fill-rule="evenodd" stroke="#000" stroke-linecap="round" stroke-linejoin="round" stroke-width="2"/>
 <g fill="none" stroke="#000">
  <path d="m244.62 72.25h80" stroke-dasharray="1, 1"/>
  <path d="m244.88 121.65 79.681-49.641" stroke-dasharray="0.999996, 0.999996"/>
  <path d="m235.01 231.75 89.653-159.69" stroke-dasharray="0.999999, 0.999999"/>
  <path d="m234.98 301.82 89.664-229.75" stroke-dasharray="0.999998, 0.999998"/>
 </g>
 <circle cx="324.62" cy="73" r="20" fill="#fd5" fill-rule="evenodd" stroke="#000" stroke-linecap="round" stroke-linejoin="round" stroke-width="2"/>
 <text transform="rotate(-90)" x="-293.54056" y="50.505966" font-family="Roboto" font-size="50.588px" style="line-height:1.25" xml:space="preserve"><tspan x="-293.54056" y="50.505966">STATE</tspan></text>
 <circle cx="428.62" cy="188" r="20" fill="#59f" fill-rule="evenodd" stroke="#000" stroke-linecap="round" stroke-linejoin="round" stroke-width="2"/>
 <circle cx="428.62" cy="113" r="20" fill="#59f" fill-rule="evenodd" stroke="#000" stroke-linecap="round" stroke-linejoin="round" stroke-width="2"/>
 <text transform="rotate(-90)" x="-392.54056" y="493.50598" font-family="Roboto" font-size="50.588px" style="line-height:1.25" xml:space="preserve"><tspan x="-392.54056" y="493.50598">ACTION VALUE</tspan></text>
 <g transform="translate(37,15)">
  <g transform="translate(157.5,111.5)" fill="#ccc" fill-rule="evenodd" stroke="#000" stroke-linecap="round" stroke-linejoin="round" stroke-width="1.0016">
   <rect x="-130" y="50.501" width="10" height="10"/>
   <rect x="-119.37" y="50.501" width="10" height="10"/>
   <rect x="-108.75" y="50.501" width="10" height="10"/>
   <rect x="-98.124" y="50.501" width="10" height="10"/>
   <rect x="-87.499" y="50.501" width="10" height="10"/>
   <rect x="-130" y="61.501" width="10" height="10"/>
   <rect x="-119.37" y="61.501" width="10" height="10"/>
   <rect x="-108.75" y="61.501" width="10" height="10"/>
   <rect x="-98.124" y="61.501" width="10" height="10"/>
   <rect x="-87.499" y="61.501" width="10" height="10"/>
   <rect x="-130" y="72.126" width="10" height="10"/>
   <rect x="-119.37" y="72.126" width="10" height="10"/>
   <rect x="-108.75" y="72.126" width="10" height="10"/>
   <rect x="-98.124" y="72.126" width="10" height="10"/>
   <rect x="-87.499" y="72.126" width="10" height="10"/>
   <rect x="-130" y="82.626" width="10" height="10"/>
   <rect x="-119.37" y="82.626" width="10" height="10"/>
   <rect x="-108.75" y="82.626" width="10" height="10"/>
   <rect x="-98.124" y="82.626" width="10" height="10"/>
   <rect x="-87.499" y="82.626" width="10" height="10"/>
   <rect x="-130" y="93.251" width="10" height="10"/>
   <rect x="-119.37" y="93.251" width="10" height="10"/>
   <rect x="-108.75" y="93.251" width="10" height="10"/>
   <rect x="-98.124" y="93.251" width="10" height="10"/>
   <rect x="-87.499" y="93.251" width="10" height="10"/>
  </g>
  <g transform="translate(210,111.5)" fill="#ccc" fill-rule="evenodd" stroke="#000" stroke-linecap="round" stroke-linejoin="round" stroke-width="1.0016">
   <rect x="-130" y="50.501" width="10" height="10"/>
   <rect x="-119.37" y="50.501" width="10" height="10"/>
   <rect x="-108.75" y="50.501" width="10" height="10"/>
   <rect x="-98.124" y="50.501" width="10" height="10"/>
   <rect x="-87.499" y="50.501" width="10" height="10"/>
   <rect x="-130" y="61.501" width="10" height="10"/>
   <rect x="-119.37" y="61.501" width="10" height="10"/>
   <rect x="-108.75" y="61.501" width="10" height="10"/>
   <rect x="-98.124" y="61.501" width="10" height="10"/>
   <rect x="-87.499" y="61.501" width="10" height="10"/>
   <rect x="-130" y="72.126" width="10" height="10"/>
   <rect x="-119.37" y="72.126" width="10" height="10"/>
   <rect x="-108.75" y="72.126" width="10" height="10"/>
   <rect x="-98.124" y="72.126" width="10" height="10"/>
   <rect x="-87.499" y="72.126" width="10" height="10"/>
   <rect x="-130" y="82.626" width="10" height="10"/>
   <rect x="-119.37" y="82.626" width="10" height="10"/>
   <rect x="-108.75" y="82.626" width="10" height="10"/>
   <rect x="-98.124" y="82.626" width="10" height="10"/>
   <rect x="-87.499" y="82.626" width="10" height="10"/>
   <rect x="-130" y="93.251" width="10" height="10"/>
   <rect x="-119.37" y="93.251" width="10" height="10"/>
   <rect x="-108.75" y="93.251" width="10" height="10"/>
   <rect x="-98.124" y="93.251" width="10" height="10"/>
   <rect x="-87.499" y="93.251" width="10" height="10"/>
  </g>
  <g transform="translate(157.5,164.5)" fill="#ccc" fill-rule="evenodd" stroke="#000" stroke-linecap="round" stroke-linejoin="round" stroke-width="1.0016">
   <rect x="-130" y="50.501" width="10" height="10"/>
   <rect x="-119.37" y="50.501" width="10" height="10"/>
   <rect x="-108.75" y="50.501" width="10" height="10"/>
   <rect x="-98.124" y="50.501" width="10" height="10"/>
   <rect x="-87.499" y="50.501" width="10" height="10"/>
   <rect x="-130" y="61.501" width="10" height="10"/>
   <rect x="-119.37" y="61.501" width="10" height="10"/>
   <rect x="-108.75" y="61.501" width="10" height="10"/>
   <rect x="-98.124" y="61.501" width="10" height="10"/>
   <rect x="-87.499" y="61.501" width="10" height="10"/>
   <rect x="-130" y="72.126" width="10" height="10"/>
   <rect x="-119.37" y="72.126" width="10" height="10"/>
   <rect x="-108.75" y="72.126" width="10" height="10"/>
   <rect x="-98.124" y="72.126" width="10" height="10"/>
   <rect x="-87.499" y="72.126" width="10" height="10"/>
   <rect x="-130" y="82.626" width="10" height="10"/>
   <rect x="-119.37" y="82.626" width="10" height="10"/>
   <rect x="-108.75" y="82.626" width="10" height="10"/>
   <rect x="-98.124" y="82.626" width="10" height="10"/>
   <rect x="-87.499" y="82.626" width="10" height="10"/>
   <rect x="-130" y="93.251" width="10" height="10"/>
   <rect x="-119.37" y="93.251" width="10" height="10"/>
   <rect x="-108.75" y="93.251" width="10" height="10"/>
   <rect x="-98.124" y="93.251" width="10" height="10"/>
   <rect x="-87.499" y="93.251" width="10" height="10"/>
  </g>
  <g transform="translate(210,164.5)" fill="#ccc" fill-rule="evenodd" stroke="#000" stroke-linecap="round" stroke-linejoin="round" stroke-width="1.0016">
   <rect x="-130" y="50.501" width="10" height="10"/>
   <rect x="-119.37" y="50.501" width="10" height="10"/>
   <rect x="-108.75" y="50.501" width="10" height="10"/>
   <rect x="-98.124" y="50.501" width="10" height="10"/>
   <rect x="-87.499" y="50.501" width="10" height="10"/>
   <rect x="-130" y="61.501" width="10" height="10"/>
   <rect x="-119.37" y="61.501" width="10" height="10"/>
   <rect x="-108.75" y="61.501" width="10" height="10"/>
   <rect x="-98.124" y="61.501" width="10" height="10"/>
   <rect x="-87.499" y="61.501" width="10" height="10"/>
   <rect x="-130" y="72.126" width="10" height="10"/>
   <rect x="-119.37" y="72.126" width="10" height="10"/>
   <rect x="-108.75" y="72.126" width="10" height="10"/>
   <rect x="-98.124" y="72.126" width="10" height="10"/>
   <rect x="-87.499" y="72.126" width="10" height="10"/>
   <rect x="-130" y="82.626" width="10" height="10"/>
   <rect x="-119.37" y="82.626" width="10" height="10"/>
   <rect x="-108.75" y="82.626" width="10" height="10"/>
   <rect x="-98.124" y="82.626" width="10" height="10"/>
   <rect x="-87.499" y="82.626" width="10" height="10"/>
   <rect x="-130" y="93.251" width="10" height="10"/>
   <rect x="-119.37" y="93.251" width="10" height="10"/>
   <rect x="-108.75" y="93.251" width="10" height="10"/>
   <rect x="-98.124" y="93.251" width="10" height="10"/>
   <rect x="-87.499" y="93.251" width="10" height="10"/>
  </g>
 </g>
 <g transform="translate(46,3)">
  <g transform="translate(157.5,111.5)" fill="#ccc" fill-rule="evenodd" stroke="#000" stroke-linecap="round" stroke-linejoin="round" stroke-width="1.0016">
   <rect x="-130" y="50.501" width="10" height="10"/>
   <rect x="-119.37" y="50.501" width="10" height="10"/>
   <rect x="-108.75" y="50.501" width="10" height="10"/>
   <rect x="-98.124" y="50.501" width="10" height="10"/>
   <rect x="-87.499" y="50.501" width="10" height="10"/>
   <rect x="-130" y="61.501" width="10" height="10"/>
   <rect x="-119.37" y="61.501" width="10" height="10"/>
   <rect x="-108.75" y="61.501" width="10" height="10"/>
   <rect x="-98.124" y="61.501" width="10" height="10"/>
   <rect x="-87.499" y="61.501" width="10" height="10"/>
   <rect x="-130" y="72.126" width="10" height="10"/>
   <rect x="-119.37" y="72.126" width="10" height="10"/>
   <rect x="-108.75" y="72.126" width="10" height="10"/>
   <rect x="-98.124" y="72.126" width="10" height="10"/>
   <rect x="-87.499" y="72.126" width="10" height="10"/>
   <rect x="-130" y="82.626" width="10" height="10"/>
   <rect x="-119.37" y="82.626" width="10" height="10"/>
   <rect x="-108.75" y="82.626" width="10" height="10"/>
   <rect x="-98.124" y="82.626" width="10" height="10"/>
   <rect x="-87.499" y="82.626" width="10" height="10"/>
   <rect x="-130" y="93.251" width="10" height="10"/>
   <rect x="-119.37" y="93.251" width="10" height="10"/>
   <rect x="-108.75" y="93.251" width="10" height="10"/>
   <rect x="-98.124" y="93.251" width="10" height="10"/>
   <rect x="-87.499" y="93.251" width="10" height="10"/>
  </g>
  <g transform="translate(210,111.5)" fill="#ccc" fill-rule="evenodd" stroke="#000" stroke-linecap="round" stroke-linejoin="round" stroke-width="1.0016">
   <rect x="-130" y="50.501" width="10" height="10"/>
   <rect x="-119.37" y="50.501" width="10" height="10"/>
   <rect x="-108.75" y="50.501" width="10" height="10"/>
   <rect x="-98.124" y="50.501" width="10" height="10"/>
   <rect x="-87.499" y="50.501" width="10" height="10"/>
   <rect x="-130" y="61.501" width="10" height="10"/>
   <rect x="-119.37" y="61.501" width="10" height="10"/>
   <rect x="-108.75" y="61.501" width="10" height="10"/>
   <rect x="-98.124" y="61.501" width="10" height="10"/>
   <rect x="-87.499" y="61.501" width="10" height="10"/>
   <rect x="-130" y="72.126" width="10" height="10"/>
   <rect x="-119.37" y="72.126" width="10" height="10"/>
   <rect x="-108.75" y="72.126" width="10" height="10"/>
   <rect x="-98.124" y="72.126" width="10" height="10"/>
   <rect x="-87.499" y="72.126" width="10" height="10"/>
   <rect x="-130" y="82.626" width="10" height="10"/>
   <rect x="-119.37" y="82.626" width="10" height="10"/>
   <rect x="-108.75" y="82.626" width="10" height="10"/>
   <rect x="-98.124" y="82.626" width="10" height="10"/>
   <rect x="-87.499" y="82.626" width="10" height="10"/>
   <rect x="-130" y="93.251" width="10" height="10"/>
   <rect x="-119.37" y="93.251" width="10" height="10"/>
   <rect x="-108.75" y="93.251" width="10" height="10"/>
   <rect x="-98.124" y="93.251" width="10" height="10"/>
   <rect x="-87.499" y="93.251" width="10" height="10"/>
  </g>
  <g transform="translate(157.5,164.5)" fill="#ccc" fill-rule="evenodd" stroke="#000" stroke-linecap="round" stroke-linejoin="round" stroke-width="1.0016">
   <rect x="-130" y="50.501" width="10" height="10"/>
   <rect x="-119.37" y="50.501" width="10" height="10"/>
   <rect x="-108.75" y="50.501" width="10" height="10"/>
   <rect x="-98.124" y="50.501" width="10" height="10"/>
   <rect x="-87.499" y="50.501" width="10" height="10"/>
   <rect x="-130" y="61.501" width="10" height="10"/>
   <rect x="-119.37" y="61.501" width="10" height="10"/>
   <rect x="-108.75" y="61.501" width="10" height="10"/>
   <rect x="-98.124" y="61.501" width="10" height="10"/>
   <rect x="-87.499" y="61.501" width="10" height="10"/>
   <rect x="-130" y="72.126" width="10" height="10"/>
   <rect x="-119.37" y="72.126" width="10" height="10"/>
   <rect x="-108.75" y="72.126" width="10" height="10"/>
   <rect x="-98.124" y="72.126" width="10" height="10"/>
   <rect x="-87.499" y="72.126" width="10" height="10"/>
   <rect x="-130" y="82.626" width="10" height="10"/>
   <rect x="-119.37" y="82.626" width="10" height="10"/>
   <rect x="-108.75" y="82.626" width="10" height="10"/>
   <rect x="-98.124" y="82.626" width="10" height="10"/>
   <rect x="-87.499" y="82.626" width="10" height="10"/>
   <rect x="-130" y="93.251" width="10" height="10"/>
   <rect x="-119.37" y="93.251" width="10" height="10"/>
   <rect x="-108.75" y="93.251" width="10" height="10"/>
   <rect x="-98.124" y="93.251" width="10" height="10"/>
   <rect x="-87.499" y="93.251" width="10" height="10"/>
  </g>
  <g transform="translate(210,164.5)" fill="#ccc" fill-rule="evenodd" stroke="#000" stroke-linecap="round" stroke-linejoin="round" stroke-width="1.0016">
   <rect x="-130" y="50.501" width="10" height="10"/>
   <rect x="-119.37" y="50.501" width="10" height="10"/>
   <rect x="-108.75" y="50.501" width="10" height="10"/>
   <rect x="-98.124" y="50.501" width="10" height="10"/>
   <rect x="-87.499" y="50.501" width="10" height="10"/>
   <rect x="-130" y="61.501" width="10" height="10"/>
   <rect x="-119.37" y="61.501" width="10" height="10"/>
   <rect x="-108.75" y="61.501" width="10" height="10"/>
   <rect x="-98.124" y="61.501" width="10" height="10"/>
   <rect x="-87.499" y="61.501" width="10" height="10"/>
   <rect x="-130" y="72.126" width="10" height="10"/>
   <rect x="-119.37" y="72.126" width="10" height="10"/>
   <rect x="-108.75" y="72.126" width="10" height="10"/>
   <rect x="-98.124" y="72.126" width="10" height="10"/>
   <rect x="-87.499" y="72.126" width="10" height="10"/>
   <rect x="-130" y="82.626" width="10" height="10"/>
   <rect x="-119.37" y="82.626" width="10" height="10"/>
   <rect x="-108.75" y="82.626" width="10" height="10"/>
   <rect x="-98.124" y="82.626" width="10" height="10"/>
   <rect x="-87.499" y="82.626" width="10" height="10"/>
   <rect x="-130" y="93.251" width="10" height="10"/>
   <rect x="-119.37" y="93.251" width="10" height="10"/>
   <rect x="-108.75" y="93.251" width="10" height="10"/>
   <rect x="-98.124" y="93.251" width="10" height="10"/>
   <rect x="-87.499" y="93.251" width="10" height="10"/>
  </g>
 </g>
 <g transform="translate(59,-9)">
  <g transform="translate(157.5,111.5)" fill="#ccc" fill-rule="evenodd" stroke="#000" stroke-linecap="round" stroke-linejoin="round" stroke-width="1.0016">
   <rect x="-130" y="50.501" width="10" height="10"/>
   <rect x="-119.37" y="50.501" width="10" height="10"/>
   <rect x="-108.75" y="50.501" width="10" height="10"/>
   <rect x="-98.124" y="50.501" width="10" height="10"/>
   <rect x="-87.499" y="50.501" width="10" height="10"/>
   <rect x="-130" y="61.501" width="10" height="10"/>
   <rect x="-119.37" y="61.501" width="10" height="10"/>
   <rect x="-108.75" y="61.501" width="10" height="10"/>
   <rect x="-98.124" y="61.501" width="10" height="10"/>
   <rect x="-87.499" y="61.501" width="10" height="10"/>
   <rect x="-130" y="72.126" width="10" height="10"/>
   <rect x="-119.37" y="72.126" width="10" height="10"/>
   <rect x="-108.75" y="72.126" width="10" height="10"/>
   <rect x="-98.124" y="72.126" width="10" height="10"/>
   <rect x="-87.499" y="72.126" width="10" height="10"/>
   <rect x="-130" y="82.626" width="10" height="10"/>
   <rect x="-119.37" y="82.626" width="10" height="10"/>
   <rect x="-108.75" y="82.626" width="10" height="10"/>
   <rect x="-98.124" y="82.626" width="10" height="10"/>
   <rect x="-87.499" y="82.626" width="10" height="10"/>
   <rect x="-130" y="93.251" width="10" height="10"/>
   <rect x="-119.37" y="93.251" width="10" height="10"/>
   <rect x="-108.75" y="93.251" width="10" height="10"/>
   <rect x="-98.124" y="93.251" width="10" height="10"/>
   <rect x="-87.499" y="93.251" width="10" height="10"/>
  </g>
  <g transform="translate(210,111.5)" fill="#ccc" fill-rule="evenodd" stroke="#000" stroke-linecap="round" stroke-linejoin="round" stroke-width="1.0016">
   <rect x="-130" y="50.501" width="10" height="10"/>
   <rect x="-119.37" y="50.501" width="10" height="10"/>
   <rect x="-108.75" y="50.501" width="10" height="10"/>
   <rect x="-98.124" y="50.501" width="10" height="10"/>
   <rect x="-87.499" y="50.501" width="10" height="10"/>
   <rect x="-130" y="61.501" width="10" height="10"/>
   <rect x="-119.37" y="61.501" width="10" height="10"/>
   <rect x="-108.75" y="61.501" width="10" height="10"/>
   <rect x="-98.124" y="61.501" width="10" height="10"/>
   <rect x="-87.499" y="61.501" width="10" height="10"/>
   <rect x="-130" y="72.126" width="10" height="10"/>
   <rect x="-119.37" y="72.126" width="10" height="10"/>
   <rect x="-108.75" y="72.126" width="10" height="10"/>
   <rect x="-98.124" y="72.126" width="10" height="10"/>
   <rect x="-87.499" y="72.126" width="10" height="10"/>
   <rect x="-130" y="82.626" width="10" height="10"/>
   <rect x="-119.37" y="82.626" width="10" height="10"/>
   <rect x="-108.75" y="82.626" width="10" height="10"/>
   <rect x="-98.124" y="82.626" width="10" height="10"/>
   <rect x="-87.499" y="82.626" width="10" height="10"/>
   <rect x="-130" y="93.251" width="10" height="10"/>
   <rect x="-119.37" y="93.251" width="10" height="10"/>
   <rect x="-108.75" y="93.251" width="10" height="10"/>
   <rect x="-98.124" y="93.251" width="10" height="10"/>
   <rect x="-87.499" y="93.251" width="10" height="10"/>
  </g>
  <g transform="translate(157.5,164.5)" fill="#ccc" fill-rule="evenodd" stroke="#000" stroke-linecap="round" stroke-linejoin="round" stroke-width="1.0016">
   <rect x="-130" y="50.501" width="10" height="10"/>
   <rect x="-119.37" y="50.501" width="10" height="10"/>
   <rect x="-108.75" y="50.501" width="10" height="10"/>
   <rect x="-98.124" y="50.501" width="10" height="10"/>
   <rect x="-87.499" y="50.501" width="10" height="10"/>
   <rect x="-130" y="61.501" width="10" height="10"/>
   <rect x="-119.37" y="61.501" width="10" height="10"/>
   <rect x="-108.75" y="61.501" width="10" height="10"/>
   <rect x="-98.124" y="61.501" width="10" height="10"/>
   <rect x="-87.499" y="61.501" width="10" height="10"/>
   <rect x="-130" y="72.126" width="10" height="10"/>
   <rect x="-119.37" y="72.126" width="10" height="10"/>
   <rect x="-108.75" y="72.126" width="10" height="10"/>
   <rect x="-98.124" y="72.126" width="10" height="10"/>
   <rect x="-87.499" y="72.126" width="10" height="10"/>
   <rect x="-130" y="82.626" width="10" height="10"/>
   <rect x="-119.37" y="82.626" width="10" height="10"/>
   <rect x="-108.75" y="82.626" width="10" height="10"/>
   <rect x="-98.124" y="82.626" width="10" height="10"/>
   <rect x="-87.499" y="82.626" width="10" height="10"/>
   <rect x="-130" y="93.251" width="10" height="10"/>
   <rect x="-119.37" y="93.251" width="10" height="10"/>
   <rect x="-108.75" y="93.251" width="10" height="10"/>
   <rect x="-98.124" y="93.251" width="10" height="10"/>
   <rect x="-87.499" y="93.251" width="10" height="10"/>
  </g>
  <g transform="translate(210,164.5)" fill="#ccc" fill-rule="evenodd" stroke="#000" stroke-linecap="round" stroke-linejoin="round" stroke-width="1.0016">
   <rect x="-130" y="50.501" width="10" height="10"/>
   <rect x="-119.37" y="50.501" width="10" height="10"/>
   <rect x="-108.75" y="50.501" width="10" height="10"/>
   <rect x="-98.124" y="50.501" width="10" height="10"/>
   <rect x="-87.499" y="50.501" width="10" height="10"/>
   <rect x="-130" y="61.501" width="10" height="10"/>
   <rect x="-119.37" y="61.501" width="10" height="10"/>
   <rect x="-108.75" y="61.501" width="10" height="10"/>
   <rect x="-98.124" y="61.501" width="10" height="10"/>
   <rect x="-87.499" y="61.501" width="10" height="10"/>
   <rect x="-130" y="72.126" width="10" height="10"/>
   <rect x="-119.37" y="72.126" width="10" height="10"/>
   <rect x="-108.75" y="72.126" width="10" height="10"/>
   <rect x="-98.124" y="72.126" width="10" height="10"/>
   <rect x="-87.499" y="72.126" width="10" height="10"/>
   <rect x="-130" y="82.626" width="10" height="10"/>
   <rect x="-119.37" y="82.626" width="10" height="10"/>
   <rect x="-108.75" y="82.626" width="10" height="10"/>
   <rect x="-98.124" y="82.626" width="10" height="10"/>
   <rect x="-87.499" y="82.626" width="10" height="10"/>
   <rect x="-130" y="93.251" width="10" height="10"/>
   <rect x="-119.37" y="93.251" width="10" height="10"/>
   <rect x="-108.75" y="93.251" width="10" height="10"/>
   <rect x="-98.124" y="93.251" width="10" height="10"/>
   <rect x="-87.499" y="93.251" width="10" height="10"/>
  </g>
 </g>
 <g transform="translate(71,-19)">
  <g transform="translate(157.5,111.5)" fill="#ccc" fill-rule="evenodd" stroke="#000" stroke-linecap="round" stroke-linejoin="round" stroke-width="1.0016">
   <rect x="-130" y="50.501" width="10" height="10"/>
   <rect x="-119.37" y="50.501" width="10" height="10"/>
   <rect x="-108.75" y="50.501" width="10" height="10"/>
   <rect x="-98.124" y="50.501" width="10" height="10"/>
   <rect x="-87.499" y="50.501" width="10" height="10"/>
   <rect x="-130" y="61.501" width="10" height="10"/>
   <rect x="-119.37" y="61.501" width="10" height="10"/>
   <rect x="-108.75" y="61.501" width="10" height="10"/>
   <rect x="-98.124" y="61.501" width="10" height="10"/>
   <rect x="-87.499" y="61.501" width="10" height="10"/>
   <rect x="-130" y="72.126" width="10" height="10"/>
   <rect x="-119.37" y="72.126" width="10" height="10"/>
   <rect x="-108.75" y="72.126" width="10" height="10"/>
   <rect x="-98.124" y="72.126" width="10" height="10"/>
   <rect x="-87.499" y="72.126" width="10" height="10"/>
   <rect x="-130" y="82.626" width="10" height="10"/>
   <rect x="-119.37" y="82.626" width="10" height="10"/>
   <rect x="-108.75" y="82.626" width="10" height="10"/>
   <rect x="-98.124" y="82.626" width="10" height="10"/>
   <rect x="-87.499" y="82.626" width="10" height="10"/>
   <rect x="-130" y="93.251" width="10" height="10"/>
   <rect x="-119.37" y="93.251" width="10" height="10"/>
   <rect x="-108.75" y="93.251" width="10" height="10"/>
   <rect x="-98.124" y="93.251" width="10" height="10"/>
   <rect x="-87.499" y="93.251" width="10" height="10"/>
  </g>
  <g transform="translate(210,111.5)" fill="#ccc" fill-rule="evenodd" stroke="#000" stroke-linecap="round" stroke-linejoin="round" stroke-width="1.0016">
   <rect x="-130" y="50.501" width="10" height="10"/>
   <rect x="-119.37" y="50.501" width="10" height="10"/>
   <rect x="-108.75" y="50.501" width="10" height="10"/>
   <rect x="-98.124" y="50.501" width="10" height="10"/>
   <rect x="-87.499" y="50.501" width="10" height="10"/>
   <rect x="-130" y="61.501" width="10" height="10"/>
   <rect x="-119.37" y="61.501" width="10" height="10"/>
   <rect x="-108.75" y="61.501" width="10" height="10"/>
   <rect x="-98.124" y="61.501" width="10" height="10"/>
   <rect x="-87.499" y="61.501" width="10" height="10"/>
   <rect x="-130" y="72.126" width="10" height="10"/>
   <rect x="-119.37" y="72.126" width="10" height="10"/>
   <rect x="-108.75" y="72.126" width="10" height="10"/>
   <rect x="-98.124" y="72.126" width="10" height="10"/>
   <rect x="-87.499" y="72.126" width="10" height="10"/>
   <rect x="-130" y="82.626" width="10" height="10"/>
   <rect x="-119.37" y="82.626" width="10" height="10"/>
   <rect x="-108.75" y="82.626" width="10" height="10"/>
   <rect x="-98.124" y="82.626" width="10" height="10"/>
   <rect x="-87.499" y="82.626" width="10" height="10"/>
   <rect x="-130" y="93.251" width="10" height="10"/>
   <rect x="-119.37" y="93.251" width="10" height="10"/>
   <rect x="-108.75" y="93.251" width="10" height="10"/>
   <rect x="-98.124" y="93.251" width="10" height="10"/>
   <rect x="-87.499" y="93.251" width="10" height="10"/>
  </g>
  <g transform="translate(157.5,164.5)" fill="#ccc" fill-rule="evenodd" stroke="#000" stroke-linecap="round" stroke-linejoin="round" stroke-width="1.0016">
   <rect x="-130" y="50.501" width="10" height="10"/>
   <rect x="-119.37" y="50.501" width="10" height="10"/>
   <rect x="-108.75" y="50.501" width="10" height="10"/>
   <rect x="-98.124" y="50.501" width="10" height="10"/>
   <rect x="-87.499" y="50.501" width="10" height="10"/>
   <rect x="-130" y="61.501" width="10" height="10"/>
   <rect x="-119.37" y="61.501" width="10" height="10"/>
   <rect x="-108.75" y="61.501" width="10" height="10"/>
   <rect x="-98.124" y="61.501" width="10" height="10"/>
   <rect x="-87.499" y="61.501" width="10" height="10"/>
   <rect x="-130" y="72.126" width="10" height="10"/>
   <rect x="-119.37" y="72.126" width="10" height="10"/>
   <rect x="-108.75" y="72.126" width="10" height="10"/>
   <rect x="-98.124" y="72.126" width="10" height="10"/>
   <rect x="-87.499" y="72.126" width="10" height="10"/>
   <rect x="-130" y="82.626" width="10" height="10"/>
   <rect x="-119.37" y="82.626" width="10" height="10"/>
   <rect x="-108.75" y="82.626" width="10" height="10"/>
   <rect x="-98.124" y="82.626" width="10" height="10"/>
   <rect x="-87.499" y="82.626" width="10" height="10"/>
   <rect x="-130" y="93.251" width="10" height="10"/>
   <rect x="-119.37" y="93.251" width="10" height="10"/>
   <rect x="-108.75" y="93.251" width="10" height="10"/>
   <rect x="-98.124" y="93.251" width="10" height="10"/>
   <rect x="-87.499" y="93.251" width="10" height="10"/>
  </g>
  <g transform="translate(210,164.5)" fill="#ccc" fill-rule="evenodd" stroke="#000" stroke-linecap="round" stroke-linejoin="round" stroke-width="1.0016">
   <rect x="-130" y="50.501" width="10" height="10"/>
   <rect x="-119.37" y="50.501" width="10" height="10"/>
   <rect x="-108.75" y="50.501" width="10" height="10"/>
   <rect x="-98.124" y="50.501" width="10" height="10"/>
   <rect x="-87.499" y="50.501" width="10" height="10"/>
   <rect x="-130" y="61.501" width="10" height="10"/>
   <rect x="-119.37" y="61.501" width="10" height="10"/>
   <rect x="-108.75" y="61.501" width="10" height="10"/>
   <rect x="-98.124" y="61.501" width="10" height="10"/>
   <rect x="-87.499" y="61.501" width="10" height="10"/>
   <rect x="-130" y="72.126" width="10" height="10"/>
   <rect x="-119.37" y="72.126" width="10" height="10"/>
   <rect x="-108.75" y="72.126" width="10" height="10"/>
   <rect x="-98.124" y="72.126" width="10" height="10"/>
   <rect x="-87.499" y="72.126" width="10" height="10"/>
   <rect x="-130" y="82.626" width="10" height="10"/>
   <rect x="-119.37" y="82.626" width="10" height="10"/>
   <rect x="-108.75" y="82.626" width="10" height="10"/>
   <rect x="-98.124" y="82.626" width="10" height="10"/>
   <rect x="-87.499" y="82.626" width="10" height="10"/>
   <rect x="-130" y="93.251" width="10" height="10"/>
   <rect x="-119.37" y="93.251" width="10" height="10"/>
   <rect x="-108.75" y="93.251" width="10" height="10"/>
   <rect x="-98.124" y="93.251" width="10" height="10"/>
   <rect x="-87.499" y="93.251" width="10" height="10"/>
  </g>
 </g>
 <g fill-rule="evenodd" stroke="#000" stroke-linecap="round" stroke-linejoin="round" stroke-width="2">
  <ellipse cx="221.62" cy="188.44" rx="4.0617" ry="4.443"/>
  <ellipse cx="221.62" cy="222.75" rx="4.0617" ry="4.443"/>
  <ellipse cx="221.62" cy="257.56" rx="4.0617" ry="4.443"/>
 </g>
</svg>
