<?xml version="1.0" encoding="UTF-8"?>
<svg width="500" height="500" version="1.1" viewBox="0 0 500 500" xmlns="http://www.w3.org/2000/svg" xmlns:cc="http://creativecommons.org/ns#" xmlns:dc="http://purl.org/dc/elements/1.1/" xmlns:rdf="http://www.w3.org/1999/02/22-rdf-syntax-ns#">
 <defs>
  <marker id="Arrow1Mend" overflow="visible" orient="auto">
   <path transform="scale(.4) rotate(180) translate(10)" d="m0 0 5-5-17.5 5 17.5 5-5-5z" fill="context-stroke" fill-rule="evenodd" stroke="context-stroke" stroke-width="1pt"/>
  </marker>
  <marker id="marker27437" overflow="visible" orient="auto">
   <path transform="scale(.6) rotate(180) translate(0)" d="m8.7186 4.0337-10.926-4.0177 10.926-4.0177c-1.7455 2.3721-1.7354 5.6175-6e-7 8.0354z" fill="context-stroke" fill-rule="evenodd" stroke-linejoin="round" stroke-width=".625"/>
  </marker>
  <marker id="marker10844" overflow="visible" orient="auto">
   <path transform="scale(.4)" d="m-5-5v10h10v-10z" fill-rule="evenodd" stroke="#000" stroke-width="1pt"/>
  </marker>
 </defs>
 <metadata>
  <rdf:RDF>
   <cc:Work rdf:about="">
    <dc:format>image/svg+xml</dc:format>
    <dc:type rdf:resource="http://purl.org/dc/dcmitype/StillImage"/>
   </cc:Work>
  </rdf:RDF>
 </metadata>
 <path d="m0.499 0.499h499v499h-499z" fill="none" stroke="#000" stroke-width=".998"/>
 <g transform="matrix(1.6016 0 0 1.6016 -679.36 -257.49)" stroke="#000">
  <g transform="matrix(.13379 0 0 .13379 531.03 162.48)" fill="#fd5" fill-rule="evenodd" stroke-linejoin="round" stroke-width="7.4742">
   <circle cx="678.64" cy="642.95" r="10"/>
   <circle cx="701.66" cy="449.46" r="10"/>
   <circle cx="629.76" cy="368.51" r="10"/>
   <circle cx="706.03" cy="298.86" r="10"/>
   <circle cx="628.91" cy="228.29" r="10"/>
  </g>
  <g transform="translate(144.19 -2.74)">
   <g transform="matrix(.13379 0 0 .13379 386.33 165.3)" fill="none" stroke-width="7.4742">
    <path d="m317.42 159.98v-71.523"/>
    <path d="m467.42 159.98v-71.523"/>
    <path d="m419.27 159.98v-71.523"/>
    <path d="m369.27 159.98s-6.3853-48.553 0-71.523c5.0705-18.24 29.312-48.648 29.312-48.648"/>
   </g>
   <rect x="411.81" y="186.09" width="47.848" height="47.848" ry="4.7861" fill="#f59"/>
   <rect x="416.6" y="190.88" width="38.277" height="38.277" ry="2.6463" fill="#ececec"/>
   <g transform="matrix(.13379 0 0 .13379 386.33 165.3)" fill="none" stroke-width="7.4742">
    <path d="m367.42 514.82v127.54"/>
    <path d="m548.07 226.92h71.523"/>
    <path d="m548.07 298.44h147.66"/>
    <path d="m548.07 369.97h71.523"/>
    <path d="m190.46 226.92h-71.523"/>
    <path d="m190.46 298.44h-153.01"/>
    <path d="m190.46 441.49h-136.34"/>
    <path d="m321.12 514.82v161.74"/>
    <path d="m269.27 149.98s10-20 0-60-80-90-150-50-80 50-80 50"/>
   </g>
   <g transform="matrix(.13379 0 0 .13379 386.33 165.3)" stroke-width="7.4742">
    <circle cx="39.266" cy="89.975" r="10" fill="#fd5" fill-rule="evenodd" stroke-linejoin="round"/>
    <path d="m265.15 514.83s54.116 65.144 4.1155 85.144-80 30-80 30" fill="none"/>
    <circle cx="189.27" cy="629.98" r="10" fill="#fd5" fill-rule="evenodd" stroke-linejoin="round"/>
   </g>
   <circle cx="435.74" cy="210.02" r="13.15" fill="#fd5" fill-rule="evenodd" stroke-linejoin="round"/>
   <g transform="matrix(.13379 0 0 .13379 386.33 165.3)" stroke-width="7.4742">
    <path d="m401.14 259.34h-62.657l31.328-54.262z"/>
    <circle cx="460.29" cy="360.93" r="26.243"/>
    <rect transform="rotate(-45)" x="-89.012" y="456.01" width="42.74" height="42.74"/>
   </g>
   <g transform="matrix(.13379 0 0 .13379 386.33 165.3)" fill="#fd5" fill-rule="evenodd" stroke-linejoin="round" stroke-width="7.4742">
    <circle cx="317.18" cy="81.245" r="10"/>
    <circle cx="404.64" cy="33.402" r="10"/>
    <circle cx="114.93" cy="225.3" r="10"/>
    <circle cx="419.56" cy="80.216" r="10"/>
    <circle cx="467.4" cy="82.788" r="10"/>
    <circle cx="34.117" cy="298.35" r="10"/>
   </g>
   <path d="m411.69 213.37s-9.7737-4.0609-16.174 0.0688" fill="none"/>
   <g transform="matrix(.13379 0 0 .13379 386.33 165.3)" fill="#fd5" fill-rule="evenodd" stroke-linejoin="round" stroke-width="7.4742">
    <circle cx="67.81" cy="361.39" r="10"/>
    <circle cx="43.936" cy="441.36" r="10"/>
    <circle cx="321.12" cy="681.44" r="10"/>
    <circle cx="366.95" cy="651.62" r="10"/>
   </g>
   <g transform="matrix(.13379 0 0 .13379 386.33 165.3)" stroke-width="7.4742">
    <path d="m418.49 514.13s-28.809 53.502-2.0578 93.628c26.751 40.126 79.224 80.253 114.21 78.195" fill="none"/>
    <circle cx="541.86" cy="686.6" r="10" fill="#fd5" fill-rule="evenodd" stroke-linejoin="round"/>
    <path d="m470.6 513.42s-36.376 93.124 197.89 126.59" fill="none"/>
   </g>
   <path d="m459.66 225.48h19.756" fill="none"/>
  </g>
 </g>
 <g stroke="#000" stroke-linecap="square" stroke-width="1px">
  <path d="m4.6727 382.79h16.655v16.708h-16.655v-16.708" fill="#ff8080"/>
  <path d="m21.327 319.5h-16.655v-16.708h16.655v16.708" fill="#fd5"/>
  <path d="m21.327 359.5h-16.655v-16.708h16.655v16.708" fill="#f59"/>
  <path d="m21.327 439.5h-16.655v-16.708h16.655v16.708" fill="#008080"/>
  <path d="m21.327 279.5h-16.655v-16.708h16.655v16.708" fill="#59f"/>
 </g>
 <path d="m50 450h400v-200h-400v200" fill="none" stroke="#000" stroke-width="1px"/>
 <g stroke="#000" stroke-linecap="square" stroke-width="1px">
  <path d="m72.845 382.79h16.655v16.708h-16.655v-16.708" fill="#ff8080"/>
  <path d="m89.5 319.5h-16.655v-16.708h16.655v16.708" fill="#fd5"/>
  <path d="m89.5 359.5h-16.655v-16.708h16.655v16.708" fill="#f59"/>
  <path d="m89.5 439.5h-16.655v-16.708h16.655v16.708" fill="#008080"/>
  <path d="m89.5 279.5h-16.655v-16.708h16.655v16.708" fill="#59f"/>
  <path d="m92.699 382.79h16.655v16.708h-16.655v-16.708" fill="#ff8080"/>
  <path d="m109.35 319.5h-16.655v-16.708h16.655v16.708" fill="#fd5"/>
  <path d="m109.35 359.5h-16.655v-16.708h16.655v16.708" fill="#f59"/>
  <path d="m109.35 439.5h-16.655v-16.708h16.655v16.708" fill="#008080"/>
  <path d="m109.35 279.5h-16.655v-16.708h16.655v16.708" fill="#59f"/>
  <path d="m112.55 382.79h16.655v16.708h-16.655v-16.708" fill="#ff8080"/>
  <path d="m129.21 319.5h-16.655v-16.708h16.655v16.708" fill="#fd5"/>
  <path d="m129.21 359.5h-16.655v-16.708h16.655v16.708" fill="#f59"/>
  <path d="m129.21 439.5h-16.655v-16.708h16.655v16.708" fill="#008080"/>
  <path d="m129.21 279.5h-16.655v-16.708h16.655v16.708" fill="#59f"/>
  <path d="m132.41 382.79h16.655v16.708h-16.655v-16.708" fill="#ff8080"/>
  <path d="m149.06 319.5h-16.655v-16.708h16.655v16.708" fill="#fd5"/>
  <path d="m149.06 359.5h-16.655v-16.708h16.655v16.708" fill="#f59"/>
  <path d="m149.06 439.5h-16.655v-16.708h16.655v16.708" fill="#008080"/>
  <path d="m149.06 279.5h-16.655v-16.708h16.655v16.708" fill="#59f"/>
  <path d="m152.26 382.79h16.655v16.708h-16.655v-16.708" fill="#ff8080"/>
  <path d="m168.91 319.5h-16.655v-16.708h16.655v16.708" fill="#fd5"/>
  <path d="m168.91 359.5h-16.655v-16.708h16.655v16.708" fill="#f59"/>
  <path d="m168.91 439.5h-16.655v-16.708h16.655v16.708" fill="#008080"/>
  <path d="m168.91 279.5h-16.655v-16.708h16.655v16.708" fill="#59f"/>
  <path d="m172.11 382.79h16.655v16.708h-16.655v-16.708" fill="#ff8080"/>
  <path d="m188.77 319.5h-16.655v-16.708h16.655v16.708" fill="#fd5"/>
  <path d="m188.77 359.5h-16.655v-16.708h16.655v16.708" fill="#f59"/>
  <path d="m188.77 439.5h-16.655v-16.708h16.655v16.708" fill="#008080"/>
  <path d="m188.77 279.5h-16.655v-16.708h16.655v16.708" fill="#59f"/>
  <path d="m191.97 382.79h16.654v16.708h-16.654v-16.708" fill="#ff8080"/>
  <path d="m208.62 319.5h-16.654v-16.708h16.654v16.708" fill="#fd5"/>
  <path d="m208.62 359.5h-16.654v-16.708h16.654v16.708" fill="#f59"/>
  <path d="m208.62 439.5h-16.654v-16.708h16.654v16.708" fill="#008080"/>
  <path d="m208.62 279.5h-16.654v-16.708h16.654v16.708" fill="#59f"/>
  <path d="m211.82 382.79h16.654v16.708h-16.654v-16.708" fill="#ff8080"/>
  <path d="m228.47 319.5h-16.654v-16.708h16.654v16.708" fill="#fd5"/>
  <path d="m228.47 359.5h-16.654v-16.708h16.654v16.708" fill="#f59"/>
  <path d="m228.47 439.5h-16.654v-16.708h16.654v16.708" fill="#008080"/>
  <path d="m228.47 279.5h-16.654v-16.708h16.654v16.708" fill="#59f"/>
  <path d="m231.67 382.79h16.654v16.708h-16.654v-16.708" fill="#ff8080"/>
  <path d="m248.33 319.5h-16.654v-16.708h16.654v16.708" fill="#fd5"/>
  <path d="m248.33 359.5h-16.654v-16.708h16.654v16.708" fill="#f59"/>
  <path d="m248.33 439.5h-16.654v-16.708h16.654v16.708" fill="#008080"/>
  <path d="m248.33 279.5h-16.654v-16.708h16.654v16.708" fill="#59f"/>
 </g>
 <g fill-rule="evenodd">
  <circle cx="271.94" cy="270" r="2.5"/>
  <circle cx="278.33" cy="270" r="2.5"/>
  <circle cx="285" cy="270" r="2.5"/>
  <circle cx="291.67" cy="270" r="2.5"/>
  <circle cx="298.06" cy="270" r="2.5"/>
  <circle cx="271.94" cy="311" r="2.5"/>
  <circle cx="278.33" cy="311" r="2.5"/>
  <circle cx="285" cy="311" r="2.5"/>
  <circle cx="291.67" cy="311" r="2.5"/>
  <circle cx="298.06" cy="311" r="2.5"/>
  <circle cx="271.94" cy="350.5" r="2.5"/>
  <circle cx="278.33" cy="350.5" r="2.5"/>
  <circle cx="285" cy="350.5" r="2.5"/>
  <circle cx="291.67" cy="350.5" r="2.5"/>
  <circle cx="298.06" cy="350.5" r="2.5"/>
  <circle cx="271.94" cy="390.5" r="2.5"/>
  <circle cx="278.33" cy="390.5" r="2.5"/>
  <circle cx="285" cy="390.5" r="2.5"/>
  <circle cx="291.67" cy="390.5" r="2.5"/>
  <circle cx="298.06" cy="390.5" r="2.5"/>
  <circle cx="271.94" cy="431" r="2.5"/>
  <circle cx="278.33" cy="431" r="2.5"/>
  <circle cx="285" cy="431" r="2.5"/>
  <circle cx="291.67" cy="431" r="2.5"/>
  <circle cx="298.06" cy="431" r="2.5"/>
 </g>
 <g stroke="#000" stroke-linecap="square" stroke-width="1px">
  <path d="m328.35 382.79h16.655v16.708h-16.655v-16.708" fill="#ff8080"/>
  <path d="m345 319.5h-16.655v-16.708h16.655v16.708" fill="#fd5"/>
  <path d="m345 359.5h-16.655v-16.708h16.655v16.708" fill="#f59"/>
  <path d="m345 439.5h-16.655v-16.708h16.655v16.708" fill="#008080"/>
  <path d="m345 279.5h-16.655v-16.708h16.655v16.708" fill="#59f"/>
  <path d="m348.05 382.79h16.655v16.708h-16.655v-16.708" fill="#ff8080"/>
  <path d="m364.71 319.5h-16.655v-16.708h16.655v16.708" fill="#fd5"/>
  <path d="m364.71 359.5h-16.655v-16.708h16.655v16.708" fill="#f59"/>
  <path d="m364.71 439.5h-16.655v-16.708h16.655v16.708" fill="#008080"/>
  <path d="m363.83 279.5h-16.655v-16.708h16.655v16.708" fill="#59f"/>
  <path d="m367.76 382.79h16.654v16.708h-16.654v-16.708" fill="#ff8080"/>
  <path d="m384.41 319.5h-16.654v-16.708h16.654v16.708" fill="#fd5"/>
  <path d="m384.41 359.5h-16.654v-16.708h16.654v16.708" fill="#f59"/>
  <path d="m384.41 439.5h-16.654v-16.708h16.654v16.708" fill="#008080"/>
  <path d="m383.83 279.5h-16.654v-16.708h16.654v16.708" fill="#59f"/>
  <path d="m387.47 382.79h16.654v16.708h-16.654v-16.708" fill="#ff8080"/>
  <path d="m404.12 319.5h-16.654v-16.708h16.654v16.708" fill="#fd5"/>
  <path d="m404.12 359.5h-16.654v-16.708h16.654v16.708" fill="#f59"/>
  <path d="m404.12 439.5h-16.654v-16.708h16.654v16.708" fill="#008080"/>
  <path d="m403.83 279.5h-16.654v-16.708h16.654v16.708" fill="#59f"/>
  <path d="m407.17 382.79h16.654v16.708h-16.654v-16.708" fill="#ff8080"/>
  <path d="m423.83 319.5h-16.654v-16.708h16.654v16.708" fill="#fd5"/>
  <path d="m423.83 359.5h-16.654v-16.708h16.654v16.708" fill="#f59"/>
  <path d="m423.83 439.5h-16.654v-16.708h16.654v16.708" fill="#008080"/>
  <path d="m423.83 279.5h-16.654v-16.708h16.654v16.708" fill="#59f"/>
 </g>
 <g fill="none" stroke="#000">
  <g stroke-width="1px">
   <path d="m30 270h30" marker-end="url(#marker27437)"/>
   <path d="m30 310.6h30" marker-end="url(#marker27437)"/>
   <path d="m30 350.6h30" marker-end="url(#marker27437)"/>
   <path d="m30 390.6h30" marker-end="url(#marker27437)"/>
   <path d="m30 430.01h30" marker-end="url(#marker27437)"/>
   <path d="m440 270h30" marker-end="url(#marker27437)"/>
   <path d="m440 310.6h30" marker-end="url(#marker27437)"/>
   <path d="m440 350.6h30" marker-end="url(#marker27437)"/>
   <path d="m440 390.6h30" marker-end="url(#marker27437)"/>
   <path d="m440 430.01h30" marker-end="url(#marker27437)"/>
  </g>
  <g stroke-dasharray="1, 1">
   <path d="m100 260 120-100" marker-end="url(#Arrow1Mend)" marker-start="url(#marker10844)"/>
   <path d="m180 260 50-100" marker-end="url(#Arrow1Mend)" marker-start="url(#marker10844)"/>
   <path d="m280 260-30-100" marker-end="url(#Arrow1Mend)" marker-start="url(#marker10844)"/>
   <path d="m370 260-100-100" marker-end="url(#Arrow1Mend)" marker-start="url(#marker10844)"/>
  </g>
 </g>
</svg>
