<?xml version="1.0" encoding="UTF-8"?>
<svg width="500" height="500" version="1.1" viewBox="0 0 500 500" xmlns="http://www.w3.org/2000/svg" xmlns:cc="http://creativecommons.org/ns#" xmlns:dc="http://purl.org/dc/elements/1.1/" xmlns:osb="http://www.openswatchbook.org/uri/2009/osb" xmlns:rdf="http://www.w3.org/1999/02/22-rdf-syntax-ns#">
 <metadata>
  <rdf:RDF>
   <cc:Work rdf:about="">
    <dc:format>image/svg+xml</dc:format>
    <dc:type rdf:resource="http://purl.org/dc/dcmitype/StillImage"/>
    <dc:title/>
   </cc:Work>
  </rdf:RDF>
 </metadata>
 <g fill="none" stroke="#000">
  <path d="m0.499 0.499h499v499h-499z" stroke-width=".998"/>
  <g stroke-width="1px">
   <path d="m125.5 0v500"/>
   <path d="m250.5 0v500"/>
   <path d="m375.5 0v500"/>
   <path d="m0 125.5h500"/>
   <path d="m0 250.5h500"/>
   <path d="m0 375.5h500"/>
  </g>
 </g>
 <g font-family="Roboto" font-size="40px">
  <text x="49.569958" y="79.390327" style="line-height:1.25" xml:space="preserve"><tspan x="49.569958" y="79.390327">0</tspan></text>
  <text x="179.56996" y="79.390327" style="line-height:1.25" xml:space="preserve"><tspan x="179.56996" y="79.390327">1</tspan></text>
  <text x="305.56995" y="79.390327" style="line-height:1.25" xml:space="preserve"><tspan x="305.56995" y="79.390327">2</tspan></text>
  <text x="427.56995" y="79.390327" style="line-height:1.25" xml:space="preserve"><tspan x="427.56995" y="79.390327">3</tspan></text>
  <text x="49.569958" y="204.39032" style="line-height:1.25" xml:space="preserve"><tspan x="49.569958" y="204.39032">4</tspan></text>
  <text x="49.569958" y="328.39032" style="line-height:1.25" xml:space="preserve"><tspan x="49.569958" y="328.39032">8</tspan></text>
  <text x="39.569958" y="456.39032" style="line-height:1.25" xml:space="preserve"><tspan x="39.569958" y="456.39032">12</tspan></text>
  <text x="175.56996" y="204.39032" style="line-height:1.25" xml:space="preserve"><tspan x="175.56996" y="204.39032">5</tspan></text>
  <text x="302.56995" y="204.39032" style="line-height:1.25" xml:space="preserve"><tspan x="302.56995" y="204.39032">6</tspan></text>
  <text x="426.56995" y="204.39032" style="line-height:1.25" xml:space="preserve"><tspan x="426.56995" y="204.39032">7</tspan></text>
  <text x="175.56996" y="328.39032" style="line-height:1.25" xml:space="preserve"><tspan x="175.56996" y="328.39032">9</tspan></text>
  <text x="290.56995" y="328.39032" style="line-height:1.25" xml:space="preserve"><tspan x="290.56995" y="328.39032">10</tspan></text>
  <text x="416.56995" y="328.39032" style="line-height:1.25" xml:space="preserve"><tspan x="416.56995" y="328.39032">11</tspan></text>
  <text x="166.56996" y="456.39032" style="line-height:1.25" xml:space="preserve"><tspan x="166.56996" y="456.39032">13</tspan></text>
  <text x="288.56995" y="456.39032" style="line-height:1.25" xml:space="preserve"><tspan x="288.56995" y="456.39032">14</tspan></text>
  <text x="418.56995" y="456.39032" style="line-height:1.25" xml:space="preserve"><tspan x="418.56995" y="456.39032">15</tspan></text>
 </g>
</svg>
