<?xml version="1.0" encoding="UTF-8"?>
<svg width="500" height="500" version="1.1" viewBox="0 0 500 500" xmlns="http://www.w3.org/2000/svg" xmlns:cc="http://creativecommons.org/ns#" xmlns:dc="http://purl.org/dc/elements/1.1/" xmlns:rdf="http://www.w3.org/1999/02/22-rdf-syntax-ns#">
 <defs>
  <marker id="marker27437" overflow="visible" orient="auto">
   <path transform="scale(.6) rotate(180) translate(0)" d="m8.7186 4.0337-10.926-4.0177 10.926-4.0177c-1.7455 2.3721-1.7354 5.6175-6e-7 8.0354z" fill="context-stroke" fill-rule="evenodd" stroke-linejoin="round" stroke-width=".625"/>
  </marker>
 </defs>
 <metadata>
  <rdf:RDF>
   <cc:Work rdf:about="">
    <dc:format>image/svg+xml</dc:format>
    <dc:type rdf:resource="http://purl.org/dc/dcmitype/StillImage"/>
   </cc:Work>
  </rdf:RDF>
 </metadata>
 <rect x="370" y="130" width="80" height="150" ry="40" fill="#acf" fill-rule="evenodd" stroke="#000" stroke-linecap="round" stroke-linejoin="round" stroke-width="3" style="paint-order:markers fill stroke"/>
 <path d="m0.499 0.499h499v499h-499z" fill="none" stroke="#000" stroke-width=".998"/>
 <g fill="#fd5" fill-rule="evenodd" stroke="#000" stroke-linecap="round" stroke-linejoin="round" stroke-width="2">
  <circle cx="55" cy="54" r="20"/>
  <circle cx="55" cy="119" r="20"/>
  <circle cx="53" cy="203" r="20"/>
  <circle cx="55" cy="280" r="20"/>
 </g>
 <g fill-rule="evenodd" stroke="#000" stroke-linecap="round" stroke-linejoin="round" stroke-width="2">
  <ellipse cx="306" cy="207.44" rx="4.0617" ry="4.443"/>
  <ellipse cx="306" cy="241.75" rx="4.0617" ry="4.443"/>
  <ellipse cx="306" cy="276.56" rx="4.0617" ry="4.443"/>
  <ellipse cx="161.06" cy="202" rx="4.0617" ry="4.443"/>
  <ellipse cx="161.06" cy="242" rx="4.0617" ry="4.443"/>
  <ellipse cx="161.06" cy="276.56" rx="4.0617" ry="4.443"/>
 </g>
 <g fill="none" stroke="#000" stroke-dasharray="6, 12" stroke-width="3">
  <path d="m306 52 100 190"/>
  <path d="m306 152 100 90"/>
  <path d="m306 322 100-80"/>
  <path d="m306 422 100-180"/>
 </g>
 <g fill="#fd5" fill-rule="evenodd" stroke="#000" stroke-linecap="round" stroke-linejoin="round" stroke-width="2">
  <circle cx="306" cy="152" r="20"/>
  <circle cx="306" cy="321" r="20"/>
  <circle cx="306" cy="421" r="20"/>
 </g>
 <circle cx="410" cy="242" r="20" fill="#59f" fill-rule="evenodd" stroke="#000" stroke-linecap="round" stroke-linejoin="round" stroke-width="2"/>
 <g fill="none" stroke="#000">
  <path d="m226 52.25h80" stroke-dasharray="1, 1"/>
  <path d="m226.27 101.65 79.681-49.641" stroke-dasharray="0.999996, 0.999996"/>
  <path d="m216.39 211.75 89.653-159.69" stroke-dasharray="0.999999, 0.999999"/>
  <path d="m216.36 281.82 89.664-229.75" stroke-dasharray="0.999998, 0.999998"/>
 </g>
 <g fill="#fd5" fill-rule="evenodd" stroke="#000" stroke-linecap="round" stroke-linejoin="round" stroke-width="2">
  <circle cx="166" cy="152" r="20"/>
  <circle cx="166" cy="332" r="20"/>
  <circle cx="166" cy="422" r="20"/>
  <circle cx="306" cy="53" r="20"/>
 </g>
 <g fill="none" stroke="#000">
  <path d="m86.102 42.246h80" stroke-dasharray="1, 1"/>
  <path d="m86.368 91.65 79.681-49.641" stroke-dasharray="0.999996, 0.999996"/>
  <path d="m76.495 201.74 89.653-159.69" stroke-dasharray="0.999999, 0.999999"/>
  <path d="m76.466 271.82 89.664-229.75" stroke-dasharray="0.999998, 0.999998"/>
 </g>
 <circle cx="166" cy="51" r="20" fill="#fd5" fill-rule="evenodd" stroke="#000" stroke-linecap="round" stroke-linejoin="round" stroke-width="2"/>
 <circle cx="410" cy="168" r="11" fill="#59f" fill-rule="evenodd" stroke="#000" stroke-linecap="round" stroke-linejoin="round" stroke-width="2"/>
 <text transform="rotate(-90)" x="-486.08356" y="427.9823" font-family="Roboto" font-size="50.588px" style="line-height:1.25" xml:space="preserve"><tspan x="-486.08356" y="427.9823">MAX</tspan></text>
 <path d="m411.48 364.54v-70" fill="none" marker-end="url(#marker27437)" stroke="#000" stroke-width="3"/>
</svg>
