<?xml version="1.0" encoding="UTF-8"?>
<svg width="500" height="500" version="1.1" viewBox="0 0 500 500" xmlns="http://www.w3.org/2000/svg" xmlns:cc="http://creativecommons.org/ns#" xmlns:dc="http://purl.org/dc/elements/1.1/" xmlns:rdf="http://www.w3.org/1999/02/22-rdf-syntax-ns#">
 <defs>
  <marker id="Arrow1Mend" overflow="visible" orient="auto">
   <path transform="scale(.4) rotate(180) translate(10)" d="m0 0 5-5-17.5 5 17.5 5-5-5z" fill="context-stroke" fill-rule="evenodd" stroke="context-stroke" stroke-width="1pt"/>
  </marker>
  <marker id="marker27437" overflow="visible" orient="auto">
   <path transform="scale(.6) rotate(180) translate(0)" d="m8.7186 4.0337-10.926-4.0177 10.926-4.0177c-1.7455 2.3721-1.7354 5.6175-6e-7 8.0354z" fill="context-stroke" fill-rule="evenodd" stroke-linejoin="round" stroke-width=".625"/>
  </marker>
  <marker id="marker10844" overflow="visible" orient="auto">
   <path transform="scale(.4)" d="m-5-5v10h10v-10z" fill-rule="evenodd" stroke="#000" stroke-width="1pt"/>
  </marker>
 </defs>
 <metadata>
  <rdf:RDF>
   <cc:Work rdf:about="">
    <dc:format>image/svg+xml</dc:format>
    <dc:type rdf:resource="http://purl.org/dc/dcmitype/StillImage"/>
   </cc:Work>
  </rdf:RDF>
 </metadata>
 <path d="m0.499 0.499h499v499h-499z" fill="none" stroke="#000" stroke-width=".998"/>
 <g transform="matrix(1.6016 0 0 1.6016 -679.36 -257.49)" stroke="#000">
  <g transform="matrix(.13379 0 0 .13379 531.03 162.48)" fill="#fd5" fill-rule="evenodd" stroke-linejoin="round" stroke-width="7.4742">
   <circle cx="678.64" cy="642.95" r="10"/>
   <circle cx="701.66" cy="449.46" r="10"/>
   <circle cx="629.76" cy="368.51" r="10"/>
   <circle cx="706.03" cy="298.86" r="10"/>
   <circle cx="628.91" cy="228.29" r="10"/>
  </g>
  <g transform="translate(144.19 -2.74)">
   <g transform="matrix(.13379 0 0 .13379 386.33 165.3)" fill="none" stroke-width="7.4742">
    <path d="m317.42 159.98v-71.523"/>
    <path d="m467.42 159.98v-71.523"/>
    <path d="m419.27 159.98v-71.523"/>
    <path d="m369.27 159.98s-6.3853-48.553 0-71.523c5.0705-18.24 29.312-48.648 29.312-48.648"/>
   </g>
   <rect x="411.81" y="186.09" width="47.848" height="47.848" ry="4.7861" fill="#f59"/>
   <rect x="416.6" y="190.88" width="38.277" height="38.277" ry="2.6463" fill="#ececec"/>
   <g transform="matrix(.13379 0 0 .13379 386.33 165.3)" fill="none" stroke-width="7.4742">
    <path d="m367.42 514.82v127.54"/>
    <path d="m548.07 226.92h71.523"/>
    <path d="m548.07 298.44h147.66"/>
    <path d="m548.07 369.97h71.523"/>
    <path d="m190.46 226.92h-71.523"/>
    <path d="m190.46 298.44h-153.01"/>
    <path d="m190.46 441.49h-136.34"/>
    <path d="m321.12 514.82v161.74"/>
    <path d="m269.27 149.98s10-20 0-60-80-90-150-50-80 50-80 50"/>
   </g>
   <g transform="matrix(.13379 0 0 .13379 386.33 165.3)" stroke-width="7.4742">
    <circle cx="39.266" cy="89.975" r="10" fill="#fd5" fill-rule="evenodd" stroke-linejoin="round"/>
    <path d="m265.15 514.83s54.116 65.144 4.1155 85.144-80 30-80 30" fill="none"/>
    <circle cx="189.27" cy="629.98" r="10" fill="#fd5" fill-rule="evenodd" stroke-linejoin="round"/>
   </g>
   <circle cx="435.74" cy="210.02" r="13.15" fill="#fd5" fill-rule="evenodd" stroke-linejoin="round"/>
   <g transform="matrix(.13379 0 0 .13379 386.33 165.3)" stroke-width="7.4742">
    <path d="m401.14 259.34h-62.657l31.328-54.262z"/>
    <circle cx="460.29" cy="360.93" r="26.243"/>
    <rect transform="rotate(-45)" x="-89.012" y="456.01" width="42.74" height="42.74"/>
   </g>
   <g transform="matrix(.13379 0 0 .13379 386.33 165.3)" fill="#fd5" fill-rule="evenodd" stroke-linejoin="round" stroke-width="7.4742">
    <circle cx="317.18" cy="81.245" r="10"/>
    <circle cx="404.64" cy="33.402" r="10"/>
    <circle cx="114.93" cy="225.3" r="10"/>
    <circle cx="419.56" cy="80.216" r="10"/>
    <circle cx="467.4" cy="82.788" r="10"/>
    <circle cx="34.117" cy="298.35" r="10"/>
   </g>
   <path d="m411.69 213.37s-9.7737-4.0609-16.174 0.0688" fill="none"/>
   <g transform="matrix(.13379 0 0 .13379 386.33 165.3)" fill="#fd5" fill-rule="evenodd" stroke-linejoin="round" stroke-width="7.4742">
    <circle cx="67.81" cy="361.39" r="10"/>
    <circle cx="43.936" cy="441.36" r="10"/>
    <circle cx="321.12" cy="681.44" r="10"/>
    <circle cx="366.95" cy="651.62" r="10"/>
   </g>
   <g transform="matrix(.13379 0 0 .13379 386.33 165.3)" stroke-width="7.4742">
    <path d="m418.49 514.13s-28.809 53.502-2.0578 93.628c26.751 40.126 79.224 80.253 114.21 78.195" fill="none"/>
    <circle cx="541.86" cy="686.6" r="10" fill="#fd5" fill-rule="evenodd" stroke-linejoin="round"/>
    <path d="m470.6 513.42s-36.376 93.124 197.89 126.59" fill="none"/>
   </g>
   <path d="m459.66 225.48h19.756" fill="none"/>
  </g>
 </g>
 <path d="m50.5 450.5h400v-200h-400v200" fill="none" stroke="#000" stroke-width="1px"/>
 <g transform="translate(0,-6)">
  <g fill="#59f" stroke="#000" stroke-linecap="square" stroke-width="1px">
   <path d="m21.327 351.5h-16.655v-16.708h16.655v16.708"/>
   <path d="m89.5 351.5h-16.655v-16.708h16.655v16.708"/>
   <path d="m109.35 351.5h-16.655v-16.708h16.655v16.708"/>
   <path d="m129.21 351.5h-16.655v-16.708h16.655v16.708"/>
   <path d="m149.06 351.5h-16.655v-16.708h16.655v16.708"/>
   <path d="m168.91 351.5h-16.655v-16.708h16.655v16.708"/>
   <path d="m188.77 351.5h-16.655v-16.708h16.655v16.708"/>
   <path d="m208.62 351.5h-16.654v-16.708h16.654v16.708"/>
   <path d="m228.47 351.5h-16.654v-16.708h16.654v16.708"/>
   <path d="m248.33 351.5h-16.654v-16.708h16.654v16.708"/>
  </g>
  <g fill-rule="evenodd">
   <circle cx="271.94" cy="342" r="2.5"/>
   <circle cx="278.33" cy="342" r="2.5"/>
   <circle cx="285" cy="342" r="2.5"/>
   <circle cx="291.67" cy="342" r="2.5"/>
   <circle cx="298.06" cy="342" r="2.5"/>
  </g>
  <g fill="#59f" stroke="#000" stroke-linecap="square" stroke-width="1px">
   <path d="m345 351.5h-16.655v-16.708h16.655v16.708"/>
   <path d="m363.83 351.5h-16.655v-16.708h16.655v16.708"/>
   <path d="m383.83 351.5h-16.654v-16.708h16.654v16.708"/>
   <path d="m403.83 351.5h-16.654v-16.708h16.654v16.708"/>
   <path d="m423.83 351.5h-16.654v-16.708h16.654v16.708"/>
  </g>
  <path d="m30 342h30" fill="none" marker-end="url(#marker27437)" stroke="#000" stroke-width="1px"/>
  <path d="m440 342h30" fill="none" marker-end="url(#marker27437)" stroke="#000" stroke-width="1px"/>
 </g>
 <g transform="translate(0,-7)">
  <g fill="#fd5" stroke="#000" stroke-linecap="square" stroke-width="1px">
   <path d="m21.327 375.5h-16.655v-16.708h16.655v16.708"/>
   <path d="m89.5 375.5h-16.655v-16.708h16.655v16.708"/>
   <path d="m109.35 375.5h-16.655v-16.708h16.655v16.708"/>
   <path d="m129.21 375.5h-16.655v-16.708h16.655v16.708"/>
   <path d="m149.06 375.5h-16.655v-16.708h16.655v16.708"/>
   <path d="m168.91 375.5h-16.655v-16.708h16.655v16.708"/>
   <path d="m188.77 375.5h-16.655v-16.708h16.655v16.708"/>
   <path d="m208.62 375.5h-16.654v-16.708h16.654v16.708"/>
   <path d="m228.47 375.5h-16.654v-16.708h16.654v16.708"/>
   <path d="m248.33 375.5h-16.654v-16.708h16.654v16.708"/>
  </g>
  <g fill-rule="evenodd">
   <circle cx="271.94" cy="367" r="2.5"/>
   <circle cx="278.33" cy="367" r="2.5"/>
   <circle cx="285" cy="367" r="2.5"/>
   <circle cx="291.67" cy="367" r="2.5"/>
   <circle cx="298.06" cy="367" r="2.5"/>
  </g>
  <g fill="#fd5" stroke="#000" stroke-linecap="square" stroke-width="1px">
   <path d="m345 375.5h-16.655v-16.708h16.655v16.708"/>
   <path d="m364.71 375.5h-16.655v-16.708h16.655v16.708"/>
   <path d="m384.41 375.5h-16.654v-16.708h16.654v16.708"/>
   <path d="m404.12 375.5h-16.654v-16.708h16.654v16.708"/>
   <path d="m423.83 375.5h-16.654v-16.708h16.654v16.708"/>
  </g>
  <path d="m30 366.6h30" fill="none" marker-end="url(#marker27437)" stroke="#000" stroke-width="1px"/>
  <path d="m440 366.6h30" fill="none" marker-end="url(#marker27437)" stroke="#000" stroke-width="1px"/>
 </g>
 <g transform="translate(0,-2)">
  <g fill="#f59" stroke="#000" stroke-linecap="square" stroke-width="1px">
   <path d="m21.327 393.5h-16.655v-16.708h16.655v16.708"/>
   <path d="m89.5 393.5h-16.655v-16.708h16.655v16.708"/>
   <path d="m109.35 393.5h-16.655v-16.708h16.655v16.708"/>
   <path d="m129.21 393.5h-16.655v-16.708h16.655v16.708"/>
   <path d="m149.06 393.5h-16.655v-16.708h16.655v16.708"/>
   <path d="m168.91 393.5h-16.655v-16.708h16.655v16.708"/>
   <path d="m188.77 393.5h-16.655v-16.708h16.655v16.708"/>
   <path d="m208.62 393.5h-16.654v-16.708h16.654v16.708"/>
   <path d="m228.47 393.5h-16.654v-16.708h16.654v16.708"/>
   <path d="m248.33 393.5h-16.654v-16.708h16.654v16.708"/>
  </g>
  <g fill-rule="evenodd">
   <circle cx="271.94" cy="384.5" r="2.5"/>
   <circle cx="278.33" cy="384.5" r="2.5"/>
   <circle cx="285" cy="384.5" r="2.5"/>
   <circle cx="291.67" cy="384.5" r="2.5"/>
   <circle cx="298.06" cy="384.5" r="2.5"/>
  </g>
  <g fill="#f59" stroke="#000" stroke-linecap="square" stroke-width="1px">
   <path d="m345 393.5h-16.655v-16.708h16.655v16.708"/>
   <path d="m364.71 393.5h-16.655v-16.708h16.655v16.708"/>
   <path d="m384.41 393.5h-16.654v-16.708h16.654v16.708"/>
   <path d="m404.12 393.5h-16.654v-16.708h16.654v16.708"/>
   <path d="m423.83 393.5h-16.654v-16.708h16.654v16.708"/>
  </g>
  <path d="m30 384.6h30" fill="none" marker-end="url(#marker27437)" stroke="#000" stroke-width="1px"/>
  <path d="m440 384.6h30" fill="none" marker-end="url(#marker27437)" stroke="#000" stroke-width="1px"/>
 </g>
 <g transform="translate(0,-3)">
  <g fill="#ff8080" stroke="#000" stroke-linecap="square" stroke-width="1px">
   <path d="m4.6727 400.79h16.655v16.708h-16.655v-16.708"/>
   <path d="m72.845 400.79h16.655v16.708h-16.655v-16.708"/>
   <path d="m92.699 400.79h16.655v16.708h-16.655v-16.708"/>
   <path d="m112.55 400.79h16.655v16.708h-16.655v-16.708"/>
   <path d="m132.41 400.79h16.655v16.708h-16.655v-16.708"/>
   <path d="m152.26 400.79h16.655v16.708h-16.655v-16.708"/>
   <path d="m172.11 400.79h16.655v16.708h-16.655v-16.708"/>
   <path d="m191.97 400.79h16.654v16.708h-16.654v-16.708"/>
   <path d="m211.82 400.79h16.654v16.708h-16.654v-16.708"/>
   <path d="m231.67 400.79h16.654v16.708h-16.654v-16.708"/>
  </g>
  <g fill-rule="evenodd">
   <circle cx="271.94" cy="408.5" r="2.5"/>
   <circle cx="278.33" cy="408.5" r="2.5"/>
   <circle cx="285" cy="408.5" r="2.5"/>
   <circle cx="291.67" cy="408.5" r="2.5"/>
   <circle cx="298.06" cy="408.5" r="2.5"/>
  </g>
  <g fill="#ff8080" stroke="#000" stroke-linecap="square" stroke-width="1px">
   <path d="m328.35 400.79h16.655v16.708h-16.655v-16.708"/>
   <path d="m348.05 400.79h16.655v16.708h-16.655v-16.708"/>
   <path d="m367.76 400.79h16.654v16.708h-16.654v-16.708"/>
   <path d="m387.47 400.79h16.654v16.708h-16.654v-16.708"/>
   <path d="m407.17 400.79h16.654v16.708h-16.654v-16.708"/>
  </g>
  <path d="m30 408.6h30" fill="none" marker-end="url(#marker27437)" stroke="#000" stroke-width="1px"/>
  <path d="m440 408.6h30" fill="none" marker-end="url(#marker27437)" stroke="#000" stroke-width="1px"/>
 </g>
 <g transform="translate(0,-2)">
  <g fill="#008080" stroke="#000" stroke-linecap="square" stroke-width="1px">
   <path d="m21.327 439.5h-16.655v-16.708h16.655v16.708"/>
   <path d="m89.5 439.5h-16.655v-16.708h16.655v16.708"/>
   <path d="m109.35 439.5h-16.655v-16.708h16.655v16.708"/>
   <path d="m129.21 439.5h-16.655v-16.708h16.655v16.708"/>
   <path d="m149.06 439.5h-16.655v-16.708h16.655v16.708"/>
   <path d="m168.91 439.5h-16.655v-16.708h16.655v16.708"/>
   <path d="m188.77 439.5h-16.655v-16.708h16.655v16.708"/>
   <path d="m208.62 439.5h-16.654v-16.708h16.654v16.708"/>
   <path d="m228.47 439.5h-16.654v-16.708h16.654v16.708"/>
   <path d="m248.33 439.5h-16.654v-16.708h16.654v16.708"/>
  </g>
  <g fill-rule="evenodd">
   <circle cx="271.94" cy="431" r="2.5"/>
   <circle cx="278.33" cy="431" r="2.5"/>
   <circle cx="285" cy="431" r="2.5"/>
   <circle cx="291.67" cy="431" r="2.5"/>
   <circle cx="298.06" cy="431" r="2.5"/>
  </g>
  <g fill="#008080" stroke="#000" stroke-linecap="square" stroke-width="1px">
   <path d="m345 439.5h-16.655v-16.708h16.655v16.708"/>
   <path d="m364.71 439.5h-16.655v-16.708h16.655v16.708"/>
   <path d="m384.41 439.5h-16.654v-16.708h16.654v16.708"/>
   <path d="m404.12 439.5h-16.654v-16.708h16.654v16.708"/>
   <path d="m423.83 439.5h-16.654v-16.708h16.654v16.708"/>
  </g>
  <path d="m30 430.01h30" fill="none" marker-end="url(#marker27437)" stroke="#000" stroke-width="1px"/>
  <path d="m440 430.01h30" fill="none" marker-end="url(#marker27437)" stroke="#000" stroke-width="1px"/>
 </g>
 <g fill="none" stroke="#000" stroke-dasharray="1, 1">
  <path d="m100 260 120-100" marker-end="url(#Arrow1Mend)" marker-start="url(#marker10844)"/>
  <path d="m180 260 50-100" marker-end="url(#Arrow1Mend)" marker-start="url(#marker10844)"/>
  <path d="m280 260-30-100" marker-end="url(#Arrow1Mend)" marker-start="url(#marker10844)"/>
  <path d="m370 260-100-100" marker-end="url(#Arrow1Mend)" marker-start="url(#marker10844)"/>
 </g>
 <g fill="#6c5367" fill-rule="evenodd" stroke="#6c5367" stroke-linecap="round" stroke-linejoin="round">
  <g stroke-width="1.5">
   <rect x="77.25" y="306" width="7.5" height="14" ry="0" style="paint-order:markers fill stroke"/>
   <rect x="97.125" y="288" width="7.5" height="32" ry="0" style="paint-order:markers fill stroke"/>
   <rect x="117" y="261.5" width="7.5" height="58.5" ry="0" style="paint-order:markers fill stroke"/>
   <rect x="136.88" y="300.5" width="7.5" height="19.5" ry="0" style="paint-order:markers fill stroke"/>
   <rect x="156.75" y="289.5" width="7.5" height="30.5" ry="0" style="paint-order:markers fill stroke"/>
   <rect x="176.62" y="311" width="7.5" height="9" ry="0" style="paint-order:markers fill stroke"/>
   <rect x="196.5" y="272" width="7.5" height="48" ry="0" style="paint-order:markers fill stroke"/>
   <rect x="216.38" y="306.5" width="7.5" height="13.5" ry="0" style="paint-order:markers fill stroke"/>
   <rect x="236.25" y="284" width="7.5" height="36" ry="0" style="paint-order:markers fill stroke"/>
  </g>
  <rect x="332.25" y="256" width="7.5" height="64" ry="0" stroke-width="1.5" style="paint-order:markers fill stroke"/>
  <g stroke-width="1.5">
   <rect x="352" y="312.5" width="7.5" height="7.5" ry="0" style="paint-order:markers fill stroke"/>
   <rect x="371.75" y="305" width="7.5" height="15" ry="0" style="paint-order:markers fill stroke"/>
   <rect x="391.5" y="313" width="7.5" height="7" ry="0" style="paint-order:markers fill stroke"/>
   <rect x="411.25" y="287" width="7.5" height="33" ry="0" style="paint-order:markers fill stroke"/>
  </g>
 </g>
</svg>
