<?xml version="1.0" encoding="UTF-8"?>
<svg width="500" height="500" version="1.1" viewBox="0 0 500 500" xmlns="http://www.w3.org/2000/svg" xmlns:cc="http://creativecommons.org/ns#" xmlns:dc="http://purl.org/dc/elements/1.1/" xmlns:rdf="http://www.w3.org/1999/02/22-rdf-syntax-ns#">
 <defs>
  <marker id="Arrow1Mstart" overflow="visible" orient="auto">
   <path transform="scale(.4) translate(10)" d="m0 0 5-5-17.5 5 17.5 5-5-5z" fill="context-stroke" fill-rule="evenodd" stroke="context-stroke" stroke-width="1pt"/>
  </marker>
  <marker id="marker27437" overflow="visible" orient="auto">
   <path transform="scale(.6) rotate(180) translate(0)" d="m8.7186 4.0337-10.926-4.0177 10.926-4.0177c-1.7455 2.3721-1.7354 5.6175-6e-7 8.0354z" fill="context-stroke" fill-rule="evenodd" stroke-linejoin="round" stroke-width=".625"/>
  </marker>
  <marker id="marker3806" overflow="visible" orient="auto">
   <path transform="scale(.8)" d="m0-7.0711-7.0711 7.0711 7.0711 7.0711 7.071-7.0711-7.071-7.0711z" fill="#fff" fill-rule="evenodd" stroke="#000" stroke-width="1pt"/>
  </marker>
 </defs>
 <metadata>
  <rdf:RDF>
   <cc:Work rdf:about="">
    <dc:format>image/svg+xml</dc:format>
    <dc:type rdf:resource="http://purl.org/dc/dcmitype/StillImage"/>
   </cc:Work>
  </rdf:RDF>
 </metadata>
 <g stroke="#000">
  <path d="m0.499 0.499h499v499h-499z" fill="none" stroke-width=".998"/>
  <g transform="matrix(.57917 0 0 .5796 165.55 121.41)" stroke-linejoin="round">
   <rect x="-200" y="210" width="80" height="80" fill="#ff8080" fill-rule="evenodd" opacity=".999" stroke-width="1.726"/>
   <path d="m-180 225 20 50 20-50" fill="none" stroke-linecap="round" stroke-width="8.6298"/>
  </g>
  <g transform="matrix(.57917 0 0 .5796 509.08 225.74)">
   <rect x="-180" y="30" width="80" height="80" fill="#ff8080" fill-rule="evenodd" opacity=".999" stroke-linejoin="round" stroke-width="1.726"/>
   <path d="m-160 96.25v-50h40v50" fill="none" stroke-width="8.6298"/>
  </g>
  <g transform="matrix(1.6655 0 0 1.6708 -235.23 -122.89)" stroke-linecap="square" stroke-width=".59948px">
   <path d="m145 285h10v10h-10v-10" fill="#fd5"/>
   <path d="m155 285h10v10h-10v-10" fill="#acf"/>
   <path d="m165 285h10v10h-10v-10" fill="#59f"/>
   <path d="m215 255h10v10h-10v-10" fill="#f59"/>
   <path d="m145 255h10v10h-10v-10" fill="#f59"/>
   <path d="m155 255h10v10h-10v-10" fill="#fd5"/>
   <path d="m175 255h10v10h-10v-10" fill="#59f"/>
   <path d="m165 255h10v10h-10v-10" fill="#acf"/>
   <path d="m195 255h10v10h-10v-10" fill="#ff8080"/>
   <path d="m185 255h10v10h-10v-10" fill="#f59"/>
   <path d="m205 255h10v10h-10v-10" fill="#59f"/>
   <path d="m165 265h10v10h-10v-10" fill="#f59"/>
   <path d="m145 265h10v10h-10v-10" fill="#f59"/>
   <path d="m185 265h10v10h-10v-10" fill="#fd5"/>
   <path d="m175 265h10v10h-10v-10" fill="#59f"/>
   <path d="m215 265h10v10h-10v-10" fill="#acf"/>
   <path d="m195 265h10v10h-10v-10" fill="#ff8080"/>
   <path d="m155 265h10v10h-10v-10" fill="#f59"/>
   <path d="m205 265h10v10h-10v-10" fill="#59f"/>
   <path d="m205 275h10v10h-10v-10" fill="#f59"/>
   <path d="m175 275h10v10h-10v-10" fill="#f59"/>
   <path d="m155 275h10v10h-10v-10" fill="#fd5"/>
   <path d="m145 275h10v10h-10v-10" fill="#59f"/>
   <path d="m165 275h10v10h-10v-10" fill="#acf"/>
   <path d="m215 275h10v10h-10v-10" fill="#ff8080"/>
   <path d="m195 275h10v10h-10v-10" fill="#f59"/>
   <path d="m185 275h10v10h-10v-10" fill="#59f"/>
   <path d="m175 285h10v10h-10v-10" fill="#f59"/>
   <path d="m185 285h10v10h-10v-10" fill="#f59"/>
   <path d="m195 285h10v10h-10v-10" fill="#acf"/>
   <g fill="#fd5">
    <path d="m205 285h10v10h-10v-10"/>
    <path d="m215 285h10v10h-10v-10"/>
    <path d="m225 305h-10v-10h10v10"/>
   </g>
   <path d="m215 305h-10v-10h10v10" fill="#acf"/>
   <path d="m205 305h-10v-10h10v10" fill="#59f"/>
   <path d="m155 335h-10v-10h10v10" fill="#f59"/>
   <path d="m225 335h-10v-10h10v10" fill="#f59"/>
   <path d="m215 335h-10v-10h10v10" fill="#fd5"/>
   <path d="m195 335h-10v-10h10v10" fill="#59f"/>
   <path d="m205 335h-10v-10h10v10" fill="#acf"/>
   <path d="m175 335h-10v-10h10v10" fill="#ff8080"/>
   <path d="m185 335h-10v-10h10v10" fill="#f59"/>
   <path d="m165 335h-10v-10h10v10" fill="#59f"/>
   <path d="m205 325h-10v-10h10v10" fill="#f59"/>
   <path d="m225 325h-10v-10h10v10" fill="#f59"/>
   <path d="m185 325h-10v-10h10v10" fill="#fd5"/>
   <path d="m195 325h-10v-10h10v10" fill="#59f"/>
   <path d="m155 325h-10v-10h10v10" fill="#acf"/>
   <path d="m175 325h-10v-10h10v10" fill="#ff8080"/>
   <path d="m215 325h-10v-10h10v10" fill="#f59"/>
   <path d="m165 325h-10v-10h10v10" fill="#59f"/>
   <path d="m165 315h-10v-10h10v10" fill="#f59"/>
   <path d="m195 315h-10v-10h10v10" fill="#f59"/>
   <path d="m215 315h-10v-10h10v10" fill="#fd5"/>
   <path d="m225 315h-10v-10h10v10" fill="#59f"/>
   <path d="m205 315h-10v-10h10v10" fill="#acf"/>
   <path d="m155 315h-10v-10h10v10" fill="#ff8080"/>
   <path d="m175 315h-10v-10h10v10" fill="#f59"/>
   <path d="m185 315h-10v-10h10v10" fill="#59f"/>
   <path d="m195 305h-10v-10h10v10" fill="#f59"/>
   <path d="m185 305h-10v-10h10v10" fill="#f59"/>
   <path d="m175 305h-10v-10h10v10" fill="#acf"/>
   <path d="m165 305h-10v-10h10v10" fill="#fd5"/>
   <path d="m155 305h-10v-10h10v10" fill="#fd5"/>
  </g>
  <g transform="translate(230.42 80.168)" stroke-width="1px">
   <g fill="#fd5" stroke-linecap="square">
    <path d="m130.96 273.12h16.655v16.708h-16.655v-16.708"/>
    <path d="m147.61 273.12h16.655v16.708h-16.655v-16.708"/>
    <path d="m164.27 273.12h16.655v16.708h-16.655v-16.708"/>
    <path d="m247.54 223h16.655v16.708h-16.655v-16.708"/>
    <path d="m130.96 223h16.655v16.708h-16.655v-16.708"/>
    <path d="m147.61 223h16.655v16.708h-16.655v-16.708"/>
    <path d="m180.92 223h16.655v16.708h-16.655v-16.708"/>
    <path d="m164.27 223h16.655v16.708h-16.655v-16.708"/>
    <path d="m214.23 223h16.655v16.708h-16.655v-16.708"/>
    <path d="m197.58 223h16.655v16.708h-16.655v-16.708"/>
    <path d="m230.88 223h16.655v16.708h-16.655v-16.708"/>
    <path d="m164.27 239.71h16.655v16.708h-16.655v-16.708"/>
    <path d="m130.96 239.71h16.655v16.708h-16.655v-16.708"/>
    <path d="m197.58 239.71h16.655v16.708h-16.655v-16.708"/>
    <path d="m180.92 239.71h16.655v16.708h-16.655v-16.708"/>
    <path d="m247.54 239.71h16.655v16.708h-16.655v-16.708"/>
    <path d="m214.23 239.71h16.655v16.708h-16.655v-16.708"/>
    <path d="m147.61 239.71h16.655v16.708h-16.655v-16.708"/>
    <path d="m230.88 239.71h16.655v16.708h-16.655v-16.708"/>
    <path d="m230.88 256.42h16.655v16.708h-16.655v-16.708"/>
    <path d="m180.92 256.42h16.655v16.708h-16.655v-16.708"/>
    <path d="m147.61 256.42h16.655v16.708h-16.655v-16.708"/>
    <path d="m130.96 256.42h16.655v16.708h-16.655v-16.708"/>
    <path d="m164.27 256.42h16.655v16.708h-16.655v-16.708"/>
    <path d="m247.54 256.42h16.655v16.708h-16.655v-16.708"/>
    <path d="m214.23 256.42h16.655v16.708h-16.655v-16.708"/>
    <path d="m197.58 256.42h16.655v16.708h-16.655v-16.708"/>
    <path d="m180.92 273.12h16.655v16.708h-16.655v-16.708"/>
    <path d="m197.58 273.12h16.655v16.708h-16.655v-16.708"/>
    <path d="m214.23 273.12h16.655v16.708h-16.655v-16.708"/>
    <path d="m230.88 273.12h16.655v16.708h-16.655v-16.708"/>
    <path d="m247.54 273.12h16.655v16.708h-16.655v-16.708"/>
    <path d="m264.19 306.54h-16.655v-16.708h16.655v16.708"/>
    <path d="m247.54 306.54h-16.655v-16.708h16.655v16.708"/>
    <path d="m230.88 306.54h-16.655v-16.708h16.655v16.708"/>
    <path d="m147.61 356.66h-16.655v-16.708h16.655v16.708"/>
    <path d="m264.19 356.66h-16.655v-16.708h16.655v16.708"/>
    <path d="m247.54 356.66h-16.655v-16.708h16.655v16.708"/>
    <path d="m214.23 356.66h-16.655v-16.708h16.655v16.708"/>
    <path d="m230.88 356.66h-16.655v-16.708h16.655v16.708"/>
    <path d="m180.92 356.66h-16.655v-16.708h16.655v16.708"/>
    <path d="m197.58 356.66h-16.655v-16.708h16.655v16.708"/>
    <path d="m164.27 356.66h-16.655v-16.708h16.655v16.708"/>
    <path d="m230.88 339.96h-16.655v-16.708h16.655v16.708"/>
    <path d="m264.19 339.96h-16.655v-16.708h16.655v16.708"/>
    <path d="m197.58 339.96h-16.655v-16.708h16.655v16.708"/>
    <path d="m214.23 339.96h-16.655v-16.708h16.655v16.708"/>
    <path d="m147.61 339.96h-16.655v-16.708h16.655v16.708"/>
    <path d="m180.92 339.96h-16.655v-16.708h16.655v16.708"/>
    <path d="m247.54 339.96h-16.655v-16.708h16.655v16.708"/>
    <path d="m164.27 339.96h-16.655v-16.708h16.655v16.708"/>
    <path d="m164.27 323.25h-16.655v-16.708h16.655v16.708"/>
    <path d="m214.23 323.25h-16.655v-16.708h16.655v16.708"/>
    <path d="m247.54 323.25h-16.655v-16.708h16.655v16.708"/>
    <path d="m264.19 323.25h-16.655v-16.708h16.655v16.708"/>
    <path d="m230.88 323.25h-16.655v-16.708h16.655v16.708"/>
    <path d="m147.61 323.25h-16.655v-16.708h16.655v16.708"/>
    <path d="m180.92 323.25h-16.655v-16.708h16.655v16.708"/>
    <path d="m197.58 323.25h-16.655v-16.708h16.655v16.708"/>
    <path d="m214.23 306.54h-16.655v-16.708h16.655v16.708"/>
    <path d="m197.58 306.54h-16.655v-16.708h16.655v16.708"/>
    <path d="m180.92 306.54h-16.655v-16.708h16.655v16.708"/>
    <path d="m164.27 306.54h-16.655v-16.708h16.655v16.708"/>
    <path d="m147.61 306.54h-16.655v-16.708h16.655v16.708"/>
   </g>
   <g fill="none">
    <path d="m141.57 231.77h16.655" marker-end="url(#marker27437)"/>
    <path d="m139.15 248.76v16.655" marker-end="url(#marker27437)"/>
    <path d="m141.42 265.26h16.655" marker-end="url(#marker27437)"/>
    <path d="m172.57 298.77h16.655" marker-end="url(#marker27437)"/>
    <path d="m189.07 281.27h16.655" marker-end="url(#marker27437)"/>
    <path d="m237.07 349.27h16.655" marker-end="url(#marker27437)"/>
    <path d="m220.57 248.02h16.655" marker-end="url(#marker27437)"/>
    <path d="m188.55 232.52v16.655" marker-end="url(#marker27437)"/>
    <path d="m255.55 231.25h-16.655" marker-end="url(#marker27437)"/>
    <path d="m155.3 269.27v16.655" marker-end="url(#marker27437)"/>
    <path d="m139.05 299.77v16.655" marker-end="url(#marker27437)"/>
    <path d="m236.3 231.25h-16.655" marker-end="url(#marker27437)"/>
    <path d="m208.55 248.25h-16.655" marker-end="url(#marker27437)"/>
    <path d="m155.42 314.51h16.655" marker-end="url(#marker27437)"/>
    <path d="m139.67 331.76h16.655" marker-end="url(#marker27437)"/>
    <path d="m189.3 316.02v16.655" marker-end="url(#marker27437)"/>
    <path d="m256.05 281.5h-16.655" marker-end="url(#marker27437)"/>
    <path d="m222.05 281.02v16.655" marker-end="url(#marker27437)"/>
    <path d="m238.55 314.52v16.655" marker-end="url(#marker27437)"/>
    <path d="m207.8 335.27v16.655" marker-end="url(#marker27437)"/>
    <path d="m207.32 315.02h16.655" marker-end="url(#marker27437)"/>
    <path d="m173.32 349.02h16.655" marker-end="url(#marker27437)"/>
   </g>
  </g>
  <g transform="matrix(1.6016 0 0 1.6016 -679.36 82.508)">
   <g transform="matrix(.13379 0 0 .13379 531.03 162.48)" fill="#fd5" fill-rule="evenodd" stroke-linejoin="round" stroke-width="7.4742">
    <circle cx="678.64" cy="642.95" r="10"/>
    <circle cx="701.66" cy="449.46" r="10"/>
    <circle cx="629.76" cy="368.51" r="10"/>
    <circle cx="706.03" cy="298.86" r="10"/>
    <circle cx="628.91" cy="228.29" r="10"/>
   </g>
   <g transform="translate(144.19 -2.74)">
    <g transform="matrix(.13379 0 0 .13379 386.33 165.3)" fill="none" stroke-width="7.4742">
     <path d="m317.42 159.98v-71.523"/>
     <path d="m467.42 159.98v-71.523"/>
     <path d="m419.27 159.98v-71.523"/>
     <path d="m369.27 159.98s-6.3853-48.553 0-71.523c5.0705-18.24 29.312-48.648 29.312-48.648"/>
    </g>
    <rect x="411.81" y="186.09" width="47.848" height="47.848" ry="4.7861" fill="#f59"/>
    <rect x="416.6" y="190.88" width="38.277" height="38.277" ry="2.6463" fill="#ececec"/>
    <g transform="matrix(.13379 0 0 .13379 386.33 165.3)" fill="none" stroke-width="7.4742">
     <path d="m367.42 514.82v127.54"/>
     <path d="m548.07 226.92h71.523"/>
     <path d="m548.07 298.44h147.66"/>
     <path d="m548.07 369.97h71.523"/>
     <path d="m190.46 226.92h-71.523"/>
     <path d="m190.46 298.44h-153.01"/>
     <path d="m190.46 441.49h-136.34"/>
     <path d="m321.12 514.82v161.74"/>
     <path d="m269.27 149.98s10-20 0-60-80-90-150-50-80 50-80 50"/>
    </g>
    <g transform="matrix(.13379 0 0 .13379 386.33 165.3)" stroke-width="7.4742">
     <circle cx="39.266" cy="89.975" r="10" fill="#fd5" fill-rule="evenodd" stroke-linejoin="round"/>
     <path d="m265.15 514.83s54.116 65.144 4.1155 85.144-80 30-80 30" fill="none"/>
     <circle cx="189.27" cy="629.98" r="10" fill="#fd5" fill-rule="evenodd" stroke-linejoin="round"/>
    </g>
    <circle cx="435.74" cy="210.02" r="13.15" fill="#fd5" fill-rule="evenodd" stroke-linejoin="round"/>
    <g transform="matrix(.13379 0 0 .13379 386.33 165.3)" stroke-width="7.4742">
     <path d="m401.14 259.34h-62.657l31.328-54.262z"/>
     <circle cx="460.29" cy="360.93" r="26.243"/>
     <rect transform="rotate(-45)" x="-89.012" y="456.01" width="42.74" height="42.74"/>
    </g>
    <g transform="matrix(.13379 0 0 .13379 386.33 165.3)" fill="#fd5" fill-rule="evenodd" stroke-linejoin="round" stroke-width="7.4742">
     <circle cx="317.18" cy="81.245" r="10"/>
     <circle cx="404.64" cy="33.402" r="10"/>
     <circle cx="114.93" cy="225.3" r="10"/>
     <circle cx="419.56" cy="80.216" r="10"/>
     <circle cx="467.4" cy="82.788" r="10"/>
     <circle cx="34.117" cy="298.35" r="10"/>
    </g>
    <path d="m411.69 213.37s-9.7737-4.0609-16.174 0.0688" fill="none"/>
    <g transform="matrix(.13379 0 0 .13379 386.33 165.3)" fill="#fd5" fill-rule="evenodd" stroke-linejoin="round" stroke-width="7.4742">
     <circle cx="67.81" cy="361.39" r="10"/>
     <circle cx="43.936" cy="441.36" r="10"/>
     <circle cx="321.12" cy="681.44" r="10"/>
     <circle cx="366.95" cy="651.62" r="10"/>
    </g>
    <g transform="matrix(.13379 0 0 .13379 386.33 165.3)" stroke-width="7.4742">
     <path d="m418.49 514.13s-28.809 53.502-2.0578 93.628c26.751 40.126 79.224 80.253 114.21 78.195" fill="none"/>
     <circle cx="541.86" cy="686.6" r="10" fill="#fd5" fill-rule="evenodd" stroke-linejoin="round"/>
     <path d="m470.6 513.42s-36.376 93.124 197.89 126.59" fill="none"/>
    </g>
    <path d="m459.66 225.48h19.756" fill="none"/>
   </g>
  </g>
  <g transform="translate(25)">
   <g transform="matrix(.4832 0 0 .4832 124.25 21.599)">
    <g transform="translate(-230,-110)">
     <rect x="40" y="80" width="120" height="120" fill="#acf" fill-rule="evenodd" opacity=".999" stroke-linejoin="round" stroke-width="1.2"/>
     <rect x="50" y="90" width="100" height="100" fill="#59f" fill-rule="evenodd" opacity=".999" stroke-linejoin="round"/>
     <g fill="none" stroke-width="1px">
      <path d="m60 90v100"/>
      <path d="m70 90v100"/>
      <path d="m80 90v100"/>
      <path d="m90 90v100"/>
      <path d="m100 90v100"/>
      <path d="m110 90v100"/>
      <path d="m120 90v100"/>
      <path d="m130 90v100"/>
      <path d="m140 90v100"/>
      <path d="m50 100h100"/>
      <path d="m50 110h100"/>
      <path d="m50 120h100"/>
      <path d="m50 130h100"/>
      <path d="m50 140h100"/>
      <path d="m50 150h100"/>
      <path d="m50 160h100"/>
      <path d="m50 170h100"/>
      <path d="m50 180h100"/>
     </g>
    </g>
    <g transform="matrix(1.6016 0 0 1.6016 -1059.4 -138.09)">
     <g transform="matrix(.13379 0 0 .13379 531.03 162.48)" fill="#fd5" fill-rule="evenodd" stroke-linejoin="round" stroke-width="7.4742">
      <circle cx="678.64" cy="642.95" r="10"/>
      <circle cx="701.66" cy="449.46" r="10"/>
      <circle cx="629.76" cy="368.51" r="10"/>
      <circle cx="706.03" cy="298.86" r="10"/>
      <circle cx="628.91" cy="228.29" r="10"/>
     </g>
     <g transform="translate(144.19 -2.74)">
      <g transform="matrix(.13379 0 0 .13379 386.33 165.3)" fill="none" stroke-width="7.4742">
       <path d="m317.42 159.98v-71.523"/>
       <path d="m467.42 159.98v-71.523"/>
       <path d="m419.27 159.98v-71.523"/>
       <path d="m369.27 159.98s-6.3853-48.553 0-71.523c5.0705-18.24 29.312-48.648 29.312-48.648"/>
      </g>
      <rect x="411.81" y="186.09" width="47.848" height="47.848" ry="4.7861" fill="#f59"/>
      <rect x="416.6" y="190.88" width="38.277" height="38.277" ry="2.6463" fill="#ececec"/>
      <g transform="matrix(.13379 0 0 .13379 386.33 165.3)" fill="none" stroke-width="7.4742">
       <path d="m367.42 514.82v127.54"/>
       <path d="m548.07 226.92h71.523"/>
       <path d="m548.07 298.44h147.66"/>
       <path d="m548.07 369.97h71.523"/>
       <path d="m190.46 226.92h-71.523"/>
       <path d="m190.46 298.44h-153.01"/>
       <path d="m190.46 441.49h-136.34"/>
       <path d="m321.12 514.82v161.74"/>
       <path d="m269.27 149.98s10-20 0-60-80-90-150-50-80 50-80 50"/>
      </g>
      <g transform="matrix(.13379 0 0 .13379 386.33 165.3)" stroke-width="7.4742">
       <circle cx="39.266" cy="89.975" r="10" fill="#fd5" fill-rule="evenodd" stroke-linejoin="round"/>
       <path d="m265.15 514.83s54.116 65.144 4.1155 85.144-80 30-80 30" fill="none"/>
       <circle cx="189.27" cy="629.98" r="10" fill="#fd5" fill-rule="evenodd" stroke-linejoin="round"/>
      </g>
      <circle cx="435.74" cy="210.02" r="13.15" fill="#fd5" fill-rule="evenodd" stroke-linejoin="round"/>
      <g transform="matrix(.13379 0 0 .13379 386.33 165.3)" stroke-width="7.4742">
       <path d="m401.14 259.34h-62.657l31.328-54.262z"/>
       <circle cx="460.29" cy="360.93" r="26.243"/>
       <rect transform="rotate(-45)" x="-89.012" y="456.01" width="42.74" height="42.74"/>
      </g>
      <g transform="matrix(.13379 0 0 .13379 386.33 165.3)" fill="#fd5" fill-rule="evenodd" stroke-linejoin="round" stroke-width="7.4742">
       <circle cx="317.18" cy="81.245" r="10"/>
       <circle cx="404.64" cy="33.402" r="10"/>
       <circle cx="114.93" cy="225.3" r="10"/>
       <circle cx="419.56" cy="80.216" r="10"/>
       <circle cx="467.4" cy="82.788" r="10"/>
       <circle cx="34.117" cy="298.35" r="10"/>
      </g>
      <path d="m411.69 213.37s-9.7737-4.0609-16.174 0.0688" fill="none"/>
      <g transform="matrix(.13379 0 0 .13379 386.33 165.3)" fill="#fd5" fill-rule="evenodd" stroke-linejoin="round" stroke-width="7.4742">
       <circle cx="67.81" cy="361.39" r="10"/>
       <circle cx="43.936" cy="441.36" r="10"/>
       <circle cx="321.12" cy="681.44" r="10"/>
       <circle cx="366.95" cy="651.62" r="10"/>
      </g>
      <g transform="matrix(.13379 0 0 .13379 386.33 165.3)" stroke-width="7.4742">
       <path d="m418.49 514.13s-28.809 53.502-2.0578 93.628c26.751 40.126 79.224 80.253 114.21 78.195" fill="none"/>
       <circle cx="541.86" cy="686.6" r="10" fill="#fd5" fill-rule="evenodd" stroke-linejoin="round"/>
       <path d="m470.6 513.42s-36.376 93.124 197.89 126.59" fill="none"/>
      </g>
      <path d="m459.66 225.48h19.756" fill="none"/>
     </g>
    </g>
    <path d="m-60 30h30v170h-30" fill="none" marker-end="url(#marker3806)" marker-start="url(#marker3806)" stroke-dasharray="1, 1"/>
    <path d="m-205.96 200h-30v-170h30" fill="none" marker-end="url(#marker3806)" marker-start="url(#marker3806)" stroke-dasharray="1, 1"/>
   </g>
   <g transform="matrix(.4832 0 0 .4832 234.25 21.599)">
    <g transform="translate(-230,-110)">
     <rect x="40" y="80" width="120" height="120" fill="#acf" fill-rule="evenodd" opacity=".999" stroke-linejoin="round" stroke-width="1.2"/>
     <rect x="50" y="90" width="100" height="100" fill="#59f" fill-rule="evenodd" opacity=".999" stroke-linejoin="round"/>
     <g fill="none" stroke-width="1px">
      <path d="m60 90v100"/>
      <path d="m70 90v100"/>
      <path d="m80 90v100"/>
      <path d="m90 90v100"/>
      <path d="m100 90v100"/>
      <path d="m110 90v100"/>
      <path d="m120 90v100"/>
      <path d="m130 90v100"/>
      <path d="m140 90v100"/>
      <path d="m50 100h100"/>
      <path d="m50 110h100"/>
      <path d="m50 120h100"/>
      <path d="m50 130h100"/>
      <path d="m50 140h100"/>
      <path d="m50 150h100"/>
      <path d="m50 160h100"/>
      <path d="m50 170h100"/>
      <path d="m50 180h100"/>
     </g>
    </g>
    <g transform="matrix(1.6016 0 0 1.6016 -1059.4 -138.09)">
     <g transform="matrix(.13379 0 0 .13379 531.03 162.48)" fill="#fd5" fill-rule="evenodd" stroke-linejoin="round" stroke-width="7.4742">
      <circle cx="678.64" cy="642.95" r="10"/>
      <circle cx="701.66" cy="449.46" r="10"/>
      <circle cx="629.76" cy="368.51" r="10"/>
      <circle cx="706.03" cy="298.86" r="10"/>
      <circle cx="628.91" cy="228.29" r="10"/>
     </g>
     <g transform="translate(144.19 -2.74)">
      <g transform="matrix(.13379 0 0 .13379 386.33 165.3)" fill="none" stroke-width="7.4742">
       <path d="m317.42 159.98v-71.523"/>
       <path d="m467.42 159.98v-71.523"/>
       <path d="m419.27 159.98v-71.523"/>
       <path d="m369.27 159.98s-6.3853-48.553 0-71.523c5.0705-18.24 29.312-48.648 29.312-48.648"/>
      </g>
      <rect x="411.81" y="186.09" width="47.848" height="47.848" ry="4.7861" fill="#f59"/>
      <rect x="416.6" y="190.88" width="38.277" height="38.277" ry="2.6463" fill="#ececec"/>
      <g transform="matrix(.13379 0 0 .13379 386.33 165.3)" fill="none" stroke-width="7.4742">
       <path d="m367.42 514.82v127.54"/>
       <path d="m548.07 226.92h71.523"/>
       <path d="m548.07 298.44h147.66"/>
       <path d="m548.07 369.97h71.523"/>
       <path d="m190.46 226.92h-71.523"/>
       <path d="m190.46 298.44h-153.01"/>
       <path d="m190.46 441.49h-136.34"/>
       <path d="m321.12 514.82v161.74"/>
       <path d="m269.27 149.98s10-20 0-60-80-90-150-50-80 50-80 50"/>
      </g>
      <g transform="matrix(.13379 0 0 .13379 386.33 165.3)" stroke-width="7.4742">
       <circle cx="39.266" cy="89.975" r="10" fill="#fd5" fill-rule="evenodd" stroke-linejoin="round"/>
       <path d="m265.15 514.83s54.116 65.144 4.1155 85.144-80 30-80 30" fill="none"/>
       <circle cx="189.27" cy="629.98" r="10" fill="#fd5" fill-rule="evenodd" stroke-linejoin="round"/>
      </g>
      <circle cx="435.74" cy="210.02" r="13.15" fill="#fd5" fill-rule="evenodd" stroke-linejoin="round"/>
      <g transform="matrix(.13379 0 0 .13379 386.33 165.3)" stroke-width="7.4742">
       <path d="m401.14 259.34h-62.657l31.328-54.262z"/>
       <circle cx="460.29" cy="360.93" r="26.243"/>
       <rect transform="rotate(-45)" x="-89.012" y="456.01" width="42.74" height="42.74"/>
      </g>
      <g transform="matrix(.13379 0 0 .13379 386.33 165.3)" fill="#fd5" fill-rule="evenodd" stroke-linejoin="round" stroke-width="7.4742">
       <circle cx="317.18" cy="81.245" r="10"/>
       <circle cx="404.64" cy="33.402" r="10"/>
       <circle cx="114.93" cy="225.3" r="10"/>
       <circle cx="419.56" cy="80.216" r="10"/>
       <circle cx="467.4" cy="82.788" r="10"/>
       <circle cx="34.117" cy="298.35" r="10"/>
      </g>
      <path d="m411.69 213.37s-9.7737-4.0609-16.174 0.0688" fill="none"/>
      <g transform="matrix(.13379 0 0 .13379 386.33 165.3)" fill="#fd5" fill-rule="evenodd" stroke-linejoin="round" stroke-width="7.4742">
       <circle cx="67.81" cy="361.39" r="10"/>
       <circle cx="43.936" cy="441.36" r="10"/>
       <circle cx="321.12" cy="681.44" r="10"/>
       <circle cx="366.95" cy="651.62" r="10"/>
      </g>
      <g transform="matrix(.13379 0 0 .13379 386.33 165.3)" stroke-width="7.4742">
       <path d="m418.49 514.13s-28.809 53.502-2.0578 93.628c26.751 40.126 79.224 80.253 114.21 78.195" fill="none"/>
       <circle cx="541.86" cy="686.6" r="10" fill="#fd5" fill-rule="evenodd" stroke-linejoin="round"/>
       <path d="m470.6 513.42s-36.376 93.124 197.89 126.59" fill="none"/>
      </g>
      <path d="m459.66 225.48h19.756" fill="none"/>
     </g>
    </g>
    <path d="m-60 30h30v170h-30" fill="none" marker-end="url(#marker3806)" marker-start="url(#marker3806)" stroke-dasharray="1, 1"/>
    <path d="m-205.96 200h-30v-170h30" fill="none" marker-end="url(#marker3806)" marker-start="url(#marker3806)" stroke-dasharray="1, 1"/>
   </g>
   <g transform="matrix(.4832 0 0 .4832 344.25 21.599)">
    <g transform="translate(-230,-110)">
     <rect x="40" y="80" width="120" height="120" fill="#acf" fill-rule="evenodd" opacity=".999" stroke-linejoin="round" stroke-width="1.2"/>
     <rect x="50" y="90" width="100" height="100" fill="#59f" fill-rule="evenodd" opacity=".999" stroke-linejoin="round"/>
     <g fill="none" stroke-width="1px">
      <path d="m60 90v100"/>
      <path d="m70 90v100"/>
      <path d="m80 90v100"/>
      <path d="m90 90v100"/>
      <path d="m100 90v100"/>
      <path d="m110 90v100"/>
      <path d="m120 90v100"/>
      <path d="m130 90v100"/>
      <path d="m140 90v100"/>
      <path d="m50 100h100"/>
      <path d="m50 110h100"/>
      <path d="m50 120h100"/>
      <path d="m50 130h100"/>
      <path d="m50 140h100"/>
      <path d="m50 150h100"/>
      <path d="m50 160h100"/>
      <path d="m50 170h100"/>
      <path d="m50 180h100"/>
     </g>
    </g>
    <g transform="matrix(1.6016 0 0 1.6016 -1059.4 -138.09)">
     <g transform="matrix(.13379 0 0 .13379 531.03 162.48)" fill="#fd5" fill-rule="evenodd" stroke-linejoin="round" stroke-width="7.4742">
      <circle cx="678.64" cy="642.95" r="10"/>
      <circle cx="701.66" cy="449.46" r="10"/>
      <circle cx="629.76" cy="368.51" r="10"/>
      <circle cx="706.03" cy="298.86" r="10"/>
      <circle cx="628.91" cy="228.29" r="10"/>
     </g>
     <g transform="translate(144.19 -2.74)">
      <g transform="matrix(.13379 0 0 .13379 386.33 165.3)" fill="none" stroke-width="7.4742">
       <path d="m317.42 159.98v-71.523"/>
       <path d="m467.42 159.98v-71.523"/>
       <path d="m419.27 159.98v-71.523"/>
       <path d="m369.27 159.98s-6.3853-48.553 0-71.523c5.0705-18.24 29.312-48.648 29.312-48.648"/>
      </g>
      <rect x="411.81" y="186.09" width="47.848" height="47.848" ry="4.7861" fill="#f59"/>
      <rect x="416.6" y="190.88" width="38.277" height="38.277" ry="2.6463" fill="#ececec"/>
      <g transform="matrix(.13379 0 0 .13379 386.33 165.3)" fill="none" stroke-width="7.4742">
       <path d="m367.42 514.82v127.54"/>
       <path d="m548.07 226.92h71.523"/>
       <path d="m548.07 298.44h147.66"/>
       <path d="m548.07 369.97h71.523"/>
       <path d="m190.46 226.92h-71.523"/>
       <path d="m190.46 298.44h-153.01"/>
       <path d="m190.46 441.49h-136.34"/>
       <path d="m321.12 514.82v161.74"/>
       <path d="m269.27 149.98s10-20 0-60-80-90-150-50-80 50-80 50"/>
      </g>
      <g transform="matrix(.13379 0 0 .13379 386.33 165.3)" stroke-width="7.4742">
       <circle cx="39.266" cy="89.975" r="10" fill="#fd5" fill-rule="evenodd" stroke-linejoin="round"/>
       <path d="m265.15 514.83s54.116 65.144 4.1155 85.144-80 30-80 30" fill="none"/>
       <circle cx="189.27" cy="629.98" r="10" fill="#fd5" fill-rule="evenodd" stroke-linejoin="round"/>
      </g>
      <circle cx="435.74" cy="210.02" r="13.15" fill="#fd5" fill-rule="evenodd" stroke-linejoin="round"/>
      <g transform="matrix(.13379 0 0 .13379 386.33 165.3)" stroke-width="7.4742">
       <path d="m401.14 259.34h-62.657l31.328-54.262z"/>
       <circle cx="460.29" cy="360.93" r="26.243"/>
       <rect transform="rotate(-45)" x="-89.012" y="456.01" width="42.74" height="42.74"/>
      </g>
      <g transform="matrix(.13379 0 0 .13379 386.33 165.3)" fill="#fd5" fill-rule="evenodd" stroke-linejoin="round" stroke-width="7.4742">
       <circle cx="317.18" cy="81.245" r="10"/>
       <circle cx="404.64" cy="33.402" r="10"/>
       <circle cx="114.93" cy="225.3" r="10"/>
       <circle cx="419.56" cy="80.216" r="10"/>
       <circle cx="467.4" cy="82.788" r="10"/>
       <circle cx="34.117" cy="298.35" r="10"/>
      </g>
      <path d="m411.69 213.37s-9.7737-4.0609-16.174 0.0688" fill="none"/>
      <g transform="matrix(.13379 0 0 .13379 386.33 165.3)" fill="#fd5" fill-rule="evenodd" stroke-linejoin="round" stroke-width="7.4742">
       <circle cx="67.81" cy="361.39" r="10"/>
       <circle cx="43.936" cy="441.36" r="10"/>
       <circle cx="321.12" cy="681.44" r="10"/>
       <circle cx="366.95" cy="651.62" r="10"/>
      </g>
      <g transform="matrix(.13379 0 0 .13379 386.33 165.3)" stroke-width="7.4742">
       <path d="m418.49 514.13s-28.809 53.502-2.0578 93.628c26.751 40.126 79.224 80.253 114.21 78.195" fill="none"/>
       <circle cx="541.86" cy="686.6" r="10" fill="#fd5" fill-rule="evenodd" stroke-linejoin="round"/>
       <path d="m470.6 513.42s-36.376 93.124 197.89 126.59" fill="none"/>
      </g>
      <path d="m459.66 225.48h19.756" fill="none"/>
     </g>
    </g>
    <path d="m-60 30h30v170h-30" fill="none" marker-end="url(#marker3806)" marker-start="url(#marker3806)" stroke-dasharray="1, 1"/>
    <path d="m-205.96 200h-30v-170h30" fill="none" marker-end="url(#marker3806)" marker-start="url(#marker3806)" stroke-dasharray="1, 1"/>
   </g>
   <g transform="matrix(.4832 0 0 .4832 454.25 21.599)">
    <g transform="translate(-230,-110)">
     <rect x="40" y="80" width="120" height="120" fill="#acf" fill-rule="evenodd" opacity=".999" stroke-linejoin="round" stroke-width="1.2"/>
     <rect x="50" y="90" width="100" height="100" fill="#59f" fill-rule="evenodd" opacity=".999" stroke-linejoin="round"/>
     <g fill="none" stroke-width="1px">
      <path d="m60 90v100"/>
      <path d="m70 90v100"/>
      <path d="m80 90v100"/>
      <path d="m90 90v100"/>
      <path d="m100 90v100"/>
      <path d="m110 90v100"/>
      <path d="m120 90v100"/>
      <path d="m130 90v100"/>
      <path d="m140 90v100"/>
      <path d="m50 100h100"/>
      <path d="m50 110h100"/>
      <path d="m50 120h100"/>
      <path d="m50 130h100"/>
      <path d="m50 140h100"/>
      <path d="m50 150h100"/>
      <path d="m50 160h100"/>
      <path d="m50 170h100"/>
      <path d="m50 180h100"/>
     </g>
    </g>
    <g transform="matrix(1.6016 0 0 1.6016 -1059.4 -138.09)">
     <g transform="matrix(.13379 0 0 .13379 531.03 162.48)" fill="#fd5" fill-rule="evenodd" stroke-linejoin="round" stroke-width="7.4742">
      <circle cx="678.64" cy="642.95" r="10"/>
      <circle cx="701.66" cy="449.46" r="10"/>
      <circle cx="629.76" cy="368.51" r="10"/>
      <circle cx="706.03" cy="298.86" r="10"/>
      <circle cx="628.91" cy="228.29" r="10"/>
     </g>
     <g transform="translate(144.19 -2.74)">
      <g transform="matrix(.13379 0 0 .13379 386.33 165.3)" fill="none" stroke-width="7.4742">
       <path d="m317.42 159.98v-71.523"/>
       <path d="m467.42 159.98v-71.523"/>
       <path d="m419.27 159.98v-71.523"/>
       <path d="m369.27 159.98s-6.3853-48.553 0-71.523c5.0705-18.24 29.312-48.648 29.312-48.648"/>
      </g>
      <rect x="411.81" y="186.09" width="47.848" height="47.848" ry="4.7861" fill="#f59"/>
      <rect x="416.6" y="190.88" width="38.277" height="38.277" ry="2.6463" fill="#ececec"/>
      <g transform="matrix(.13379 0 0 .13379 386.33 165.3)" fill="none" stroke-width="7.4742">
       <path d="m367.42 514.82v127.54"/>
       <path d="m548.07 226.92h71.523"/>
       <path d="m548.07 298.44h147.66"/>
       <path d="m548.07 369.97h71.523"/>
       <path d="m190.46 226.92h-71.523"/>
       <path d="m190.46 298.44h-153.01"/>
       <path d="m190.46 441.49h-136.34"/>
       <path d="m321.12 514.82v161.74"/>
       <path d="m269.27 149.98s10-20 0-60-80-90-150-50-80 50-80 50"/>
      </g>
      <g transform="matrix(.13379 0 0 .13379 386.33 165.3)" stroke-width="7.4742">
       <circle cx="39.266" cy="89.975" r="10" fill="#fd5" fill-rule="evenodd" stroke-linejoin="round"/>
       <path d="m265.15 514.83s54.116 65.144 4.1155 85.144-80 30-80 30" fill="none"/>
       <circle cx="189.27" cy="629.98" r="10" fill="#fd5" fill-rule="evenodd" stroke-linejoin="round"/>
      </g>
      <circle cx="435.74" cy="210.02" r="13.15" fill="#fd5" fill-rule="evenodd" stroke-linejoin="round"/>
      <g transform="matrix(.13379 0 0 .13379 386.33 165.3)" stroke-width="7.4742">
       <path d="m401.14 259.34h-62.657l31.328-54.262z"/>
       <circle cx="460.29" cy="360.93" r="26.243"/>
       <rect transform="rotate(-45)" x="-89.012" y="456.01" width="42.74" height="42.74"/>
      </g>
      <g transform="matrix(.13379 0 0 .13379 386.33 165.3)" fill="#fd5" fill-rule="evenodd" stroke-linejoin="round" stroke-width="7.4742">
       <circle cx="317.18" cy="81.245" r="10"/>
       <circle cx="404.64" cy="33.402" r="10"/>
       <circle cx="114.93" cy="225.3" r="10"/>
       <circle cx="419.56" cy="80.216" r="10"/>
       <circle cx="467.4" cy="82.788" r="10"/>
       <circle cx="34.117" cy="298.35" r="10"/>
      </g>
      <path d="m411.69 213.37s-9.7737-4.0609-16.174 0.0688" fill="none"/>
      <g transform="matrix(.13379 0 0 .13379 386.33 165.3)" fill="#fd5" fill-rule="evenodd" stroke-linejoin="round" stroke-width="7.4742">
       <circle cx="67.81" cy="361.39" r="10"/>
       <circle cx="43.936" cy="441.36" r="10"/>
       <circle cx="321.12" cy="681.44" r="10"/>
       <circle cx="366.95" cy="651.62" r="10"/>
      </g>
      <g transform="matrix(.13379 0 0 .13379 386.33 165.3)" stroke-width="7.4742">
       <path d="m418.49 514.13s-28.809 53.502-2.0578 93.628c26.751 40.126 79.224 80.253 114.21 78.195" fill="none"/>
       <circle cx="541.86" cy="686.6" r="10" fill="#fd5" fill-rule="evenodd" stroke-linejoin="round"/>
       <path d="m470.6 513.42s-36.376 93.124 197.89 126.59" fill="none"/>
      </g>
      <path d="m459.66 225.48h19.756" fill="none"/>
     </g>
    </g>
    <path d="m-60 30h30v170h-30" fill="none" marker-end="url(#marker3806)" marker-start="url(#marker3806)" stroke-dasharray="1, 1"/>
    <path d="m-205.96 200h-30v-170h30" fill="none" marker-end="url(#marker3806)" marker-start="url(#marker3806)" stroke-dasharray="1, 1"/>
   </g>
  </g>
  <g fill="none">
   <path d="m150 310h80v40" marker-end="url(#marker3806)" marker-start="url(#marker3806)" stroke-width="1px"/>
   <path d="m270 350v-40h80" marker-end="url(#marker3806)" marker-start="url(#marker3806)" stroke-width="1px"/>
   <g stroke-dasharray="1, 1">
    <path d="m60 230c0-9.999 0-19.999 3.3339-25s10-5.0005 13.333-11.667c3.3328-6.6663 3.3328-19.999 3.3328-33.334" marker-end="url(#marker27437)" marker-start="url(#Arrow1Mstart)"/>
    <path d="m70 230c0-6.6657 0-13.332 13.334-16.666 13.334-3.3338 40-3.3338 53.333-13.334 13.333-9.9997 13.333-29.999 16.667-40s10-10 16.666-10" marker-end="url(#marker27437)" marker-start="url(#Arrow1Mstart)"/>
    <path d="m90 230c33.334 0 66.668 0 83.334-8.333 16.666-8.333 16.666-24.999 36.667-33.333 20.001-8.3338 60-8.3338 80-11.667s20-9.9994 20-16.667" marker-end="url(#marker27437)" marker-start="url(#Arrow1Mstart)"/>
    <path d="m110 260c63.334 0 126.67 0 158.33-11.666 31.666-11.666 31.666-34.999 51.667-46.666 20.001-11.667 60-11.667 80-16.667s20-14.999 20-25" marker-end="url(#marker27437)" marker-start="url(#Arrow1Mstart)"/>
    <path d="m400 270c-43.332 0-86.666 0-108.33-11.666-21.667-11.666-21.667-34.999-51.667-46.666-30-11.667-89.999-11.667-120-18.333s-30-19.999-30-33.334" marker-end="url(#marker27437)" marker-start="url(#Arrow1Mstart)"/>
    <path d="m400 260c-26.666 0-53.332 0-66.666-11.666-13.334-11.666-13.334-34.999-35-46.666-21.667-11.667-64.999-11.667-86.666-16.667-21.667-4.9996-21.667-14.999-21.667-25" marker-end="url(#marker27437)" marker-start="url(#Arrow1Mstart)"/>
    <path d="m420 240c0-13.332 0-26.666-16.094-33.215-16.094-6.5493-48.281-6.3136-64.612-12.711-16.331-6.3971-16.802-19.427-17.274-32.459" marker-end="url(#marker27437)" marker-start="url(#Arrow1Mstart)"/>
    <path d="m430 240c0-19.999 0-39.999 5.0006-50s15-10 20-16.667 4.9995-19.999 3.3333-26.667c-1.6662-6.6672-4.9995-6.6672-8.3338-6.6672" marker-end="url(#marker27437)" marker-start="url(#Arrow1Mstart)"/>
   </g>
  </g>
 </g>
</svg>
