<?xml version="1.0" encoding="UTF-8"?>
<svg width="500" height="150" version="1.1" viewBox="0 0 500 150" xmlns="http://www.w3.org/2000/svg" xmlns:cc="http://creativecommons.org/ns#" xmlns:dc="http://purl.org/dc/elements/1.1/" xmlns:rdf="http://www.w3.org/1999/02/22-rdf-syntax-ns#">
 <defs>
  <marker id="marker4005" overflow="visible" orient="auto">
   <path transform="scale(.8)" d="m5.77 0-8.65 5v-10z" fill-rule="evenodd" stroke="#000" stroke-width="1pt"/>
  </marker>
  <marker id="marker9686" overflow="visible" orient="auto">
   <path transform="scale(.4)" d="m-5-5v10h10v-10z" fill-rule="evenodd" stroke="#000" stroke-width="1pt"/>
  </marker>
 </defs>
 <metadata>
  <rdf:RDF>
   <cc:Work rdf:about="">
    <dc:format>image/svg+xml</dc:format>
    <dc:type rdf:resource="http://purl.org/dc/dcmitype/StillImage"/>
   </cc:Work>
  </rdf:RDF>
 </metadata>
 <g stroke="#000">
  <g fill-rule="evenodd" stroke-linecap="round" stroke-linejoin="round" stroke-width="2">
   <circle cx="39.568" cy="76.49" r="10" fill="#c8b7b7"/>
   <circle cx="103.52" cy="74.05" r="4.9497"/>
   <rect x="441.05" y="66.728" width="14.142" height="14.142" fill="#999"/>
  </g>
  <path d="m52.388 74.05h36.223" fill="none" marker-end="url(#marker4005)" stroke-width="1px"/>
  <circle cx="172.5" cy="76.49" r="10" fill="#aade87" fill-rule="evenodd" stroke-linecap="round" stroke-linejoin="round" stroke-width="2"/>
  <path d="m115.32 74.05h36.223" fill="none" marker-end="url(#marker4005)" stroke-width="1px"/>
  <circle cx="243.41" cy="74.05" r="4.9497" fill-rule="evenodd" stroke-linecap="round" stroke-linejoin="round" stroke-width="2"/>
  <path d="m190.27 74.05h36.223" fill="none" marker-end="url(#marker4005)" stroke-width="1px"/>
  <circle cx="311.8" cy="76.49" r="10" fill="#ffe680" fill-rule="evenodd" stroke-linecap="round" stroke-linejoin="round" stroke-width="2"/>
  <path d="m254.62 74.05h36.223" fill="none" marker-end="url(#marker4005)" stroke-width="1px"/>
  <circle cx="382" cy="74.05" r="4.9497" fill-rule="evenodd" stroke-linecap="round" stroke-linejoin="round" stroke-width="2"/>
  <g fill="none">
   <g stroke-width="1px">
    <path d="m328.87 74.05h36.223" marker-end="url(#marker4005)"/>
    <path d="m391.8 73.766h36.223" marker-end="url(#marker4005)"/>
    <path d="m36.453 49.854v-20.631h133.57v20.631" marker-end="url(#marker4005)" marker-mid="url(#marker9686)" marker-start="url(#marker9686)"/>
   </g>
   <g>
    <path d="m20 38.462v-24.462h170v79.5h-170z" stroke-dasharray="4, 2" stroke-width="2"/>
    <path d="m28 110 10 20 10-20" stroke-width="3"/>
    <path d="m162.66 110 10 20 10-20" stroke-width="3"/>
    <path d="m60 120h90" stroke-dasharray="2,4"/>
   </g>
  </g>
 </g>
</svg>
