<?xml version="1.0" encoding="UTF-8"?>
<svg width="500" height="250" version="1.1" viewBox="0 0 500 250" xmlns="http://www.w3.org/2000/svg" xmlns:cc="http://creativecommons.org/ns#" xmlns:dc="http://purl.org/dc/elements/1.1/" xmlns:rdf="http://www.w3.org/1999/02/22-rdf-syntax-ns#">
 <defs>
  <marker id="marker4005" overflow="visible" orient="auto">
   <path transform="scale(.8)" d="m5.77 0-8.65 5v-10z" fill-rule="evenodd" stroke="#000" stroke-width="1pt"/>
  </marker>
  <marker id="Arrow2Mend" overflow="visible" orient="auto">
   <path transform="scale(-.6)" d="m8.7186 4.0337-10.926-4.0177 10.926-4.0177c-1.7455 2.3721-1.7354 5.6175-6e-7 8.0354z" fill-rule="evenodd" stroke="#000" stroke-linejoin="round" stroke-width=".625"/>
  </marker>
 </defs>
 <metadata>
  <rdf:RDF>
   <cc:Work rdf:about="">
    <dc:format>image/svg+xml</dc:format>
    <dc:type rdf:resource="http://purl.org/dc/dcmitype/StillImage"/>
   </cc:Work>
  </rdf:RDF>
 </metadata>
 <g fill="none" stroke="#000">
  <path d="m19.711 170h455.13" marker-end="url(#marker4005)" stroke-width=".99999px"/>
  <rect x=".5" y=".5" width="499" height="249" stroke-linecap="round" stroke-linejoin="round" stroke-width=".99999"/>
  <path d="m250 235.68v-226.01" marker-end="url(#marker4005)" stroke-width="1px"/>
 </g>
 <text x="259.80743" y="26.891792" font-family="Roboto" font-size="19.388px" style="line-height:1.25" xml:space="preserve"><tspan x="259.80743" y="26.891792">MSE</tspan></text>
 <text x="458.66785" y="197.99309" font-family="Roboto" font-size="30.258px" style="line-height:1.25" xml:space="preserve"><tspan x="458.66785" y="197.99309">w</tspan></text>
 <g fill="none" stroke="#000">
  <path d="m250 170s14.412-5.0672 20-10c9.01-7.9539 14.405-19.363 20-30s9.3757-19.654 17.5-19.5c42.47 0.80347 16.025 113.98 58.5 114.5 73.225 0.90152 77-199.5 77-199.5" stroke-width="1px"/>
  <path d="m250.16 169.83s-14.412-5.0672-20-10c-9.01-7.9539-14.405-19.363-20-30-8.3568-15.887-14.193-33.015-20-50-7.8499-22.962-20-70-20-70" stroke-width="1px"/>
  <g>
   <path d="m168.29 3.4046 11.169 42.686" marker-end="url(#Arrow2Mend)"/>
   <path d="m201.08 120.34 28.028 41.086" marker-end="url(#Arrow2Mend)"/>
   <path d="m213.84 169.56 70.827 0.37709" stroke-width="3"/>
  </g>
 </g>
 <circle cx="250.5" cy="166.5" r="6" fill="#c8b7b7" fill-rule="evenodd"/>
 <path d="m182.26 56.139 17.092 52.457" fill="none" marker-end="url(#Arrow2Mend)" stroke="#000"/>
 <path d="m335.34 226.56 70.827 0.37709" fill="none" stroke="#d40000" stroke-width="3"/>
</svg>
