<?xml version="1.0" encoding="UTF-8"?>
<svg width="500" height="350" version="1.1" viewBox="0 0 500 350" xmlns="http://www.w3.org/2000/svg" xmlns:cc="http://creativecommons.org/ns#" xmlns:dc="http://purl.org/dc/elements/1.1/" xmlns:osb="http://www.openswatchbook.org/uri/2009/osb" xmlns:rdf="http://www.w3.org/1999/02/22-rdf-syntax-ns#">
 <defs>
  <marker id="marker6695" overflow="visible" orient="auto">
   <path transform="scale(.8)" d="m5.77 0-8.65 5v-10l8.65 5z" fill-rule="evenodd" stroke="#000" stroke-width="1pt"/>
  </marker>
  <marker id="marker6341" overflow="visible" orient="auto">
   <path transform="scale(.8)" d="m5.77 0-8.65 5v-10l8.65 5z" fill-rule="evenodd" stroke="#000" stroke-width="1pt"/>
  </marker>
  <marker id="marker6331" overflow="visible" orient="auto">
   <path transform="scale(.8)" d="m5.77 0-8.65 5v-10l8.65 5z" fill-rule="evenodd" stroke="#000" stroke-width="1pt"/>
  </marker>
  <marker id="marker5043" overflow="visible" orient="auto">
   <path transform="scale(.8)" d="m5.77 0-8.65 5v-10l8.65 5z" fill-rule="evenodd" stroke="#000" stroke-width="1pt"/>
  </marker>
  <marker id="marker4739" overflow="visible" orient="auto">
   <path transform="scale(.8)" d="m5.77 0-8.65 5v-10l8.65 5z" fill-rule="evenodd" stroke="#000" stroke-width="1pt"/>
  </marker>
  <marker id="marker4317" overflow="visible" orient="auto">
   <path transform="scale(.8)" d="m5.77 0-8.65 5v-10l8.65 5z" fill-rule="evenodd" stroke="#000" stroke-width="1pt"/>
  </marker>
  <marker id="marker4307" overflow="visible" orient="auto">
   <path transform="scale(.8)" d="m5.77 0-8.65 5v-10l8.65 5z" fill-rule="evenodd" stroke="#000" stroke-width="1pt"/>
  </marker>
  <marker id="marker4297" overflow="visible" orient="auto">
   <path transform="scale(.8)" d="m5.77 0-8.65 5v-10l8.65 5z" fill-rule="evenodd" stroke="#000" stroke-width="1pt"/>
  </marker>
  <marker id="marker4287" overflow="visible" orient="auto">
   <path transform="scale(.8)" d="m5.77 0-8.65 5v-10l8.65 5z" fill-rule="evenodd" stroke="#000" stroke-width="1pt"/>
  </marker>
  <marker id="marker4277" overflow="visible" orient="auto">
   <path transform="scale(.8)" d="m5.77 0-8.65 5v-10l8.65 5z" fill-rule="evenodd" stroke="#000" stroke-width="1pt"/>
  </marker>
  <marker id="marker4267" overflow="visible" orient="auto">
   <path transform="scale(.8)" d="m5.77 0-8.65 5v-10l8.65 5z" fill-rule="evenodd" stroke="#000" stroke-width="1pt"/>
  </marker>
  <marker id="marker4257" overflow="visible" orient="auto">
   <path transform="scale(.8)" d="m5.77 0-8.65 5v-10l8.65 5z" fill-rule="evenodd" stroke="#000" stroke-width="1pt"/>
  </marker>
  <marker id="marker4247" overflow="visible" orient="auto">
   <path transform="scale(.8)" d="m5.77 0-8.65 5v-10l8.65 5z" fill-rule="evenodd" stroke="#000" stroke-width="1pt"/>
  </marker>
  <marker id="marker4237" overflow="visible" orient="auto">
   <path transform="scale(.8)" d="m5.77 0-8.65 5v-10l8.65 5z" fill-rule="evenodd" stroke="#000" stroke-width="1pt"/>
  </marker>
  <marker id="marker4227" overflow="visible" orient="auto">
   <path transform="scale(.8)" d="m5.77 0-8.65 5v-10l8.65 5z" fill-rule="evenodd" stroke="#000" stroke-width="1pt"/>
  </marker>
  <marker id="marker4217" overflow="visible" orient="auto">
   <path transform="scale(.8)" d="m5.77 0-8.65 5v-10l8.65 5z" fill-rule="evenodd" stroke="#000" stroke-width="1pt"/>
  </marker>
  <marker id="marker3815" overflow="visible" orient="auto">
   <path transform="scale(.8)" d="m5.77 0-8.65 5v-10l8.65 5z" fill-rule="evenodd" stroke="#000" stroke-width="1pt"/>
  </marker>
  <marker id="marker3805" overflow="visible" orient="auto">
   <path transform="scale(.8)" d="m5.77 0-8.65 5v-10l8.65 5z" fill-rule="evenodd" stroke="#000" stroke-width="1pt"/>
  </marker>
  <marker id="marker3795" overflow="visible" orient="auto">
   <path transform="scale(.8)" d="m5.77 0-8.65 5v-10l8.65 5z" fill-rule="evenodd" stroke="#000" stroke-width="1pt"/>
  </marker>
  <marker id="marker3785" overflow="visible" orient="auto">
   <path transform="scale(.8)" d="m5.77 0-8.65 5v-10l8.65 5z" fill-rule="evenodd" stroke="#000" stroke-width="1pt"/>
  </marker>
  <marker id="marker3531" overflow="visible" orient="auto">
   <path transform="scale(.8)" d="m5.77 0-8.65 5v-10l8.65 5z" fill-rule="evenodd" stroke="#000" stroke-width="1pt"/>
  </marker>
  <marker id="marker3363" overflow="visible" orient="auto">
   <path transform="scale(.8)" d="m5.77 0-8.65 5v-10l8.65 5z" fill-rule="evenodd" stroke="#000" stroke-width="1pt"/>
  </marker>
  <marker id="marker3203" overflow="visible" orient="auto">
   <path transform="scale(.8)" d="m5.77 0-8.65 5v-10l8.65 5z" fill-rule="evenodd" stroke="#000" stroke-width="1pt"/>
  </marker>
  <marker id="marker3045" overflow="visible" orient="auto">
   <path transform="scale(.8)" d="m5.77 0-8.65 5v-10l8.65 5z" fill-rule="evenodd" stroke="#000" stroke-width="1pt"/>
  </marker>
  <marker id="marker2889" overflow="visible" orient="auto">
   <path transform="scale(.8)" d="m5.77 0-8.65 5v-10l8.65 5z" fill-rule="evenodd" stroke="#000" stroke-width="1pt"/>
  </marker>
  <marker id="marker2753" overflow="visible" orient="auto">
   <path transform="scale(.8)" d="m5.77 0-8.65 5v-10l8.65 5z" fill-rule="evenodd" stroke="#000" stroke-width="1pt"/>
  </marker>
  <marker id="marker2619" overflow="visible" orient="auto">
   <path transform="scale(.8)" d="m5.77 0-8.65 5v-10l8.65 5z" fill-rule="evenodd" stroke="#000" stroke-width="1pt"/>
  </marker>
  <marker id="TriangleOutL" overflow="visible" orient="auto">
   <path transform="scale(.8)" d="m5.77 0-8.65 5v-10l8.65 5z" fill-rule="evenodd" stroke="#000" stroke-width="1pt"/>
  </marker>
 </defs>
 <metadata>
  <rdf:RDF>
   <cc:Work rdf:about="">
    <dc:format>image/svg+xml</dc:format>
    <dc:type rdf:resource="http://purl.org/dc/dcmitype/StillImage"/>
    <dc:title/>
   </cc:Work>
  </rdf:RDF>
 </metadata>
 <g stroke="#000">
  <g>
   <path d="m340 122h20v20h-20z" fill="#8dd35f"/>
   <path d="m0.4998 0.4998h499v349h-499z" fill="none" stroke-width=".9996"/>
   <path d="m460 290h20v20h-20z" fill="#8dd35f"/>
  </g>
  <path d="m0 175.5h500" fill="none" stroke-width="1px"/>
 </g>
 <text x="5.3417969" y="54.804688" font-family="Roboto" font-size="40px" style="line-height:1.25" xml:space="preserve"><tspan x="5.3417969" y="54.804688">Trial 1</tspan></text>
 <text x="5.3417969" y="224.80469" font-family="Roboto" font-size="40px" style="line-height:1.25" xml:space="preserve"><tspan x="5.3417969" y="224.80469">Trial 2</tspan></text>
 <g fill="none" stroke="#000" stroke-width="1px">
  <path d="m20 112v-20" marker-end="url(#TriangleOutL)"/>
  <path d="m37.159 99.159h20" marker-end="url(#marker2619)"/>
  <path d="m68 99.159h20" marker-end="url(#marker2753)"/>
  <path d="m97.159 99.159h20" marker-end="url(#marker2889)"/>
  <path d="m127.16 99.159h20" marker-end="url(#marker3045)"/>
  <path d="m170 112v-20" marker-end="url(#marker3203)"/>
  <path d="m200 112v-20" marker-end="url(#marker3363)"/>
  <path d="m230 112v-20" marker-end="url(#marker3531)"/>
  <path d="m247.16 99.159h20" marker-end="url(#marker3815)"/>
  <path d="m278 99.159h20" marker-end="url(#marker3805)"/>
  <path d="m307.16 99.159h20" marker-end="url(#marker3795)"/>
  <path d="m337.16 99.159h20" marker-end="url(#marker3785)"/>
  <path d="m157.16 270h20" marker-end="url(#marker4317)"/>
  <path d="m188 270h20" marker-end="url(#marker4307)"/>
  <path d="m217.16 270h20" marker-end="url(#marker4297)"/>
  <path d="m247.16 270h20" marker-end="url(#marker4287)"/>
  <path d="m290 282.84v-20" marker-end="url(#marker4277)"/>
  <path d="m320 282.84v-20" marker-end="url(#marker4267)"/>
  <path d="m350 282.84v-20" marker-end="url(#marker4257)"/>
  <path d="m367.16 270h20" marker-end="url(#marker4247)"/>
  <path d="m398 270h20" marker-end="url(#marker4237)"/>
  <path d="m427.16 270h20" marker-end="url(#marker4227)"/>
  <path d="m457.16 270h20" marker-end="url(#marker4217)"/>
  <path d="m20 280v-20" marker-end="url(#marker4739)"/>
  <path d="m50 280v-20" marker-end="url(#marker5043)"/>
  <path d="m80 280v-20" marker-end="url(#marker6341)"/>
  <path d="m110 280v-20" marker-end="url(#marker6331)"/>
  <path d="m140 280v-20" marker-end="url(#marker6695)"/>
 </g>
</svg>
