<?xml version="1.0" encoding="UTF-8"?>
<!-- Created with Inkscape (http://www.inkscape.org/) -->
<svg width="470" height="51.8" version="1.1" viewBox="0 0 470 51.8" xmlns="http://www.w3.org/2000/svg">
 <g transform="matrix(.99574 0 0 .99559 -.49354 -.49347)" fill="#FFFFFF" stroke="#000" stroke-width="2.0087">
  <path d="m181.5 1.5v50h10v-50z"/>
  <path d="m191.5 41.5h40v10h-40z"/>
  <path d="m11.5 1.5h-10v50h10z"/>
  <path d="m41.5 1.5h10v50h-10z"/>
  <path d="m21.5 51.5v-20h10v20z"/>
  <path d="m421.5 1.5h50v10h-50z"/>
  <path d="m421.5 41.5h50v10h-50z"/>
  <path d="m441.5 11.5v30h10v-30z"/>
  <path d="m61.5 1.5v40h10v-40z"/>
  <path d="m71.5 1.5h40v10h-40z"/>
  <path d="m101.5 11.5v40h10v-40z"/>
  <path d="m61.5 41.5h40v10h-40z"/>
  <path d="m361.5 21.5h50v10h-50z"/>
  <path d="m361.5 51.5v-20h10v20z"/>
  <path d="m361.5 21.5v-20h10v20z"/>
  <path d="m371.5 1.5h40v10h-40z"/>
  <path d="m401.5 11.5h10v10h-10z"/>
  <path d="m401.5 31.5h10v20h-10z"/>
  <path d="m121.5 31.5h10v20h-10z"/>
  <path d="m121.5 21.5h50v10h-50z"/>
  <path d="m121.5 21.5v-20h10v20z"/>
  <path d="m131.5 1.5h40v10h-40z"/>
  <path d="m161.5 11.5v10h10v-10z"/>
  <path d="m151.5 31.5v20h10v-20z"/>
  <path d="m341.5 31.5v20h10v-20z"/>
  <path d="m351.5 21.5h-50v10h50z"/>
  <path d="m301.5 1.5v20h10v-20z"/>
  <path d="m341.5 1.5v20h10v-20z"/>
  <path d="m241.5 21.5v20h10v-20z"/>
  <path d="m251.5 21.5h40v10h-40z"/>
  <path d="m281.5 31.5v20h10v-20z"/>
  <path d="m241.5 41.5h40v10h-40z"/>
  <path d="m281.5 21.5v-20h10v20z"/>
 </g>
</svg>
