<?xml version="1.0" encoding="UTF-8"?>
<svg width="500" height="500" version="1.1" viewBox="0 0 500 500" xmlns="http://www.w3.org/2000/svg" xmlns:cc="http://creativecommons.org/ns#" xmlns:dc="http://purl.org/dc/elements/1.1/" xmlns:rdf="http://www.w3.org/1999/02/22-rdf-syntax-ns#">
 <defs>
  <marker id="marker1804" overflow="visible" orient="auto">
   <path transform="matrix(-1.1,0,0,-1.1,-1.1,0)" d="m8.7186 4.0337-10.926-4.0177 10.926-4.0177c-1.7455 2.3721-1.7354 5.6175-6e-7 8.0354z" fill-rule="evenodd" stroke="#000" stroke-linejoin="round" stroke-width=".625"/>
  </marker>
  <marker id="marker1706" overflow="visible" orient="auto">
   <path transform="matrix(-1.1,0,0,-1.1,-1.1,0)" d="m8.7186 4.0337-10.926-4.0177 10.926-4.0177c-1.7455 2.3721-1.7354 5.6175-6e-7 8.0354z" fill-rule="evenodd" stroke="#000" stroke-linejoin="round" stroke-width=".625"/>
  </marker>
  <marker id="marker1225" overflow="visible" orient="auto">
   <path transform="matrix(-1.1,0,0,-1.1,-1.1,0)" d="m8.7186 4.0337-10.926-4.0177 10.926-4.0177c-1.7455 2.3721-1.7354 5.6175-6e-7 8.0354z" fill-rule="evenodd" stroke="#000" stroke-linejoin="round" stroke-width=".625"/>
  </marker>
  <marker id="marker1147" overflow="visible" orient="auto">
   <path transform="matrix(-1.1,0,0,-1.1,-1.1,0)" d="m8.7186 4.0337-10.926-4.0177 10.926-4.0177c-1.7455 2.3721-1.7354 5.6175-6e-7 8.0354z" fill-rule="evenodd" stroke="#000" stroke-linejoin="round" stroke-width=".625"/>
  </marker>
  <marker id="marker1671" overflow="visible" orient="auto">
   <path transform="matrix(-1.1,0,0,-1.1,-1.1,0)" d="m8.7186 4.0337-10.926-4.0177 10.926-4.0177c-1.7455 2.3721-1.7354 5.6175-6e-7 8.0354z" fill-rule="evenodd" stroke="#000" stroke-linejoin="round" stroke-width=".625"/>
  </marker>
  <marker id="marker1605" overflow="visible" orient="auto">
   <path transform="matrix(-1.1,0,0,-1.1,-1.1,0)" d="m8.7186 4.0337-10.926-4.0177 10.926-4.0177c-1.7455 2.3721-1.7354 5.6175-6e-7 8.0354z" fill-rule="evenodd" stroke="#000" stroke-linejoin="round" stroke-width=".625"/>
  </marker>
  <marker id="marker1545" overflow="visible" orient="auto">
   <path transform="matrix(-1.1,0,0,-1.1,-1.1,0)" d="m8.7186 4.0337-10.926-4.0177 10.926-4.0177c-1.7455 2.3721-1.7354 5.6175-6e-7 8.0354z" fill-rule="evenodd" stroke="#000" stroke-linejoin="round" stroke-width=".625"/>
  </marker>
  <marker id="Arrow2Lend" overflow="visible" orient="auto">
   <path transform="matrix(-1.1,0,0,-1.1,-1.1,0)" d="m8.7186 4.0337-10.926-4.0177 10.926-4.0177c-1.7455 2.3721-1.7354 5.6175-6e-7 8.0354z" fill-rule="evenodd" stroke="#000" stroke-linejoin="round" stroke-width=".625"/>
  </marker>
 </defs>
 <metadata>
  <rdf:RDF>
   <cc:Work rdf:about="">
    <dc:format>image/svg+xml</dc:format>
    <dc:type rdf:resource="http://purl.org/dc/dcmitype/StillImage"/>
    <dc:title/>
   </cc:Work>
  </rdf:RDF>
 </metadata>
 <rect x=".50003" y=".5" width="499" height="249.5" ry="0" fill-opacity=".15663" fill-rule="evenodd"/>
 <g fill="none" stroke="#000">
  <path d="m0.5 200.1 199.6-199.6" opacity=".05"/>
  <path d="m0.5 225.05 224.55-224.55" opacity=".05"/>
  <path d="m0.5 250 249.5-249.5" opacity=".05"/>
  <path d="m0.5 274.95 274.45-274.45" opacity=".05"/>
  <path d="m0.5 299.9 299.4-299.4" opacity=".05"/>
  <path d="m0.5 324.85 324.35-324.35" opacity=".05"/>
  <path d="m0.5 349.8 349.3-349.3" opacity=".05"/>
  <path d="m0.5 374.75 374.25-374.25" opacity=".05"/>
  <path d="m0.5 399.7 399.2-399.2" opacity=".05"/>
  <path d="m0.5 424.65 424.15-424.15" opacity=".05"/>
  <path d="m0.5 449.6 449.1-449.1" opacity=".05"/>
  <path d="m0.5 474.55 474.05-474.05" opacity=".05"/>
  <path d="m0.5 499.5 499-499" opacity=".05"/>
  <path d="m25.45 499.5 474.05-474.05" opacity=".05"/>
  <path d="m50.4 499.5 449.1-449.1" opacity=".05"/>
  <path d="m75.35 499.5 424.15-424.15" opacity=".05"/>
  <path d="m100.3 499.5 399.2-399.2" opacity=".05"/>
  <path d="m125.25 499.5 374.25-374.25" opacity=".05"/>
  <path d="m150.2 499.5 349.3-349.3" opacity=".05"/>
  <path d="m175.15 499.5 324.35-324.35" opacity=".05"/>
  <path d="m200.1 499.5 299.4-299.4" opacity=".05"/>
  <path d="m225.05 499.5 274.45-274.45" opacity=".05"/>
  <path d="m250 499.5 249.5-249.5" opacity=".05"/>
  <path d="m324.85 499.5 174.65-174.65" opacity=".05"/>
  <path d="m349.8 499.5 149.7-149.7" opacity=".05"/>
  <path d="m374.75 499.5 124.75-124.75" opacity=".05"/>
  <path d="m399.7 499.5 99.8-99.8" opacity=".05"/>
  <path d="m424.65 499.5 74.85-74.85" opacity=".05"/>
  <path d="m449.6 499.5 49.9-49.9" opacity=".05"/>
  <path d="m474.55 499.5 24.95-24.95" opacity=".05"/>
  <path d="m0.5 50.4 49.9-49.9" opacity=".05"/>
  <path d="m0.5 75.35 74.85-74.85" opacity=".05"/>
  <path d="m0.5 100.3 99.8-99.8" opacity=".05"/>
  <path d="m0.5 125.25 124.75-124.75" opacity=".05"/>
  <path d="m0.5 150.2 149.7-149.7" opacity=".05"/>
  <path d="m0.5 175.15 174.65-174.65" opacity=".05"/>
 </g>
 <g fill="#fff" fill-rule="evenodd" stroke="#000" stroke-linejoin="round" stroke-width="4.008">
  <path transform="matrix(.24116 .063986 -.063986 .24116 -117.47 -32.314)" d="m1688.9 1414.4-67.578-28.866 58.788-44.091z"/>
  <path transform="matrix(.24808 .026562 -.026562 .24808 183.77 -33.043)" d="m280.01 1889.4-67.578-28.866 58.788-44.091z"/>
  <path transform="matrix(.24283 .057312 -.057312 .24283 211.16 -64.4)" d="m280.01 1889.4-67.578-28.866 58.788-44.091z"/>
  <path transform="matrix(-.05959 -.24228 .24228 -.05959 -265.86 600.29)" d="m280.01 1889.4-67.578-28.866 58.788-44.091z"/>
 </g>
 <g fill-rule="evenodd">
  <g>
   <ellipse cx="314.38" cy="462.38" rx="6.7041" ry="6.7041"/>
   <ellipse cx="442.69" cy="420.27" rx="6.7041" ry="6.7041"/>
   <ellipse cx="114.79" cy="409.24" rx="6.7041" ry="6.7041"/>
   <ellipse cx="323.78" cy="365.38" rx="6.7041" ry="6.7041"/>
   <ellipse cx="463.53" cy="408.32" rx="6.7041" ry="6.7041"/>
  </g>
  <rect x=".5" y="250" width="249.5" height="124.75" ry="0" fill-opacity=".15663"/>
 </g>
 <g fill="none" stroke="#000">
  <path d="m0.5 175.15h199.6"/>
  <path d="m250 125.25v-124.75"/>
  <path d="m499.5 324.85h-199.6"/>
  <path d="m250 499.5v-124.75"/>
 </g>
 <rect x="250" y="250" width="249.5" height="74.85" ry="0" fill-opacity=".15663" fill-rule="evenodd"/>
 <rect x="275" y="449.6" width="24.903" height="49.492" fill-rule="evenodd"/>
 <g fill="none" stroke="#000">
  <path d="m312.42 361.11s-87.506-23.994-52.221-63.512c35.285-39.519 122.79 26.111 123.5-50.81 0.70571-76.92 48.693-14.114 49.398-60.69 0.70572-46.576 0.70572-74.098 0.70572-74.098" marker-end="url(#Arrow2Lend)"/>
  <path d="m332.18 463.43 84.683-0.70569" marker-end="url(#marker1545)"/>
  <path d="m434.5 416.15s-57.161-45.164-88.917-21.171c-31.756 23.994-52.927 46.576-52.927 46.576" marker-end="url(#marker1605)"/>
  <path d="m456.38 401.33s-57.867-62.101-103.74-28.228c-45.87 33.873-71.275 66.335-71.275 66.335" marker-end="url(#marker1671)"/>
 </g>
 <g stroke="#000">
  <path d="m266.88 385.1 0.20209-14.428 14.166 0.20584-14.368 14.222"/>
  <path d="m263.89 410.05 0.20209-14.428 14.166 0.20584-14.368 14.222"/>
  <path d="m290.34 388.59 0.20209-14.428 14.166 0.20584-14.368 14.222"/>
  <path d="m287.34 408.05 0.20209-14.428 14.166 0.20584-14.368 14.222"/>
 </g>
 <g fill="none" stroke="#000">
  <g stroke-linejoin="round" stroke-width="6.351">
   <path transform="matrix(.15677 -.018591 .018692 .15592 18.164 181.45)" d="m138 1586-36.945-4.0096-15-34 21.945-29.99 36.945 4.0096 15 34z"/>
   <path transform="matrix(.15677 -.018591 .018692 .15592 33.633 183.94)" d="m138 1586-36.945-4.0096-15-34 21.945-29.99 36.945 4.0096 15 34z"/>
   <path transform="matrix(.15677 -.018591 .018692 .15592 22.156 196.17)" d="m138 1586-36.945-4.0096-15-34 21.945-29.99 36.945 4.0096 15 34z"/>
   <path transform="matrix(.15677 -.018591 .018692 .15592 6.9367 194.92)" d="m138 1586-36.945-4.0096-15-34 21.945-29.99 36.945 4.0096 15 34z"/>
   <path transform="matrix(.15677 -.018591 .018692 .15592 3.1942 179.7)" d="m138 1586-36.945-4.0096-15-34 21.945-29.99 36.945 4.0096 15 34z"/>
   <path transform="matrix(.15677 -.018591 .018692 .15592 15.17 166.73)" d="m138 1586-36.945-4.0096-15-34 21.945-29.99 36.945 4.0096 15 34z"/>
   <path transform="matrix(.15677 -.018591 .018692 .15592 30.889 168.23)" d="m138 1586-36.945-4.0096-15-34 21.945-29.99 36.945 4.0096 15 34z"/>
   <path transform="matrix(.15677 -.018591 .018692 .15592 401 217.79)" d="m138 1586-36.945-4.0096-15-34 21.945-29.99 36.945 4.0096 15 34z"/>
   <path transform="matrix(.15677 -.018591 .018692 .15592 416.47 220.29)" d="m138 1586-36.945-4.0096-15-34 21.945-29.99 36.945 4.0096 15 34z"/>
   <path transform="matrix(.15677 -.018591 .018692 .15592 404.99 232.51)" d="m138 1586-36.945-4.0096-15-34 21.945-29.99 36.945 4.0096 15 34z"/>
   <path transform="matrix(.15677 -.018591 .018692 .15592 389.77 231.27)" d="m138 1586-36.945-4.0096-15-34 21.945-29.99 36.945 4.0096 15 34z"/>
   <path transform="matrix(.15677 -.018591 .018692 .15592 386.03 216.05)" d="m138 1586-36.945-4.0096-15-34 21.945-29.99 36.945 4.0096 15 34z"/>
   <path transform="matrix(.15677 -.018591 .018692 .15592 398.01 203.07)" d="m138 1586-36.945-4.0096-15-34 21.945-29.99 36.945 4.0096 15 34z"/>
   <path transform="matrix(.15677 -.018591 .018692 .15592 413.73 204.57)" d="m138 1586-36.945-4.0096-15-34 21.945-29.99 36.945 4.0096 15 34z"/>
  </g>
  <g>
   <path d="m0.5 0.5h499v499h-499z"/>
   <path d="m274.95 499.5 224.55-224.55" opacity=".05"/>
   <path d="m299.9 499.5 199.6-199.6" opacity=".05"/>
  </g>
  <g stroke-linejoin="round" stroke-width="6.351">
   <path transform="matrix(.15677 -.018591 .018692 .15592 380.4 -181.74)" d="m138 1586-36.945-4.0096-15-34 21.945-29.99 36.945 4.0096 15 34z"/>
   <path transform="matrix(.15677 -.018591 .018692 .15592 395.87 -179.24)" d="m138 1586-36.945-4.0096-15-34 21.945-29.99 36.945 4.0096 15 34z"/>
   <path transform="matrix(.15677 -.018591 .018692 .15592 384.39 -167.02)" d="m138 1586-36.945-4.0096-15-34 21.945-29.99 36.945 4.0096 15 34z"/>
   <path transform="matrix(.15677 -.018591 .018692 .15592 369.17 -168.26)" d="m138 1586-36.945-4.0096-15-34 21.945-29.99 36.945 4.0096 15 34z"/>
   <path transform="matrix(.15677 -.018591 .018692 .15592 365.43 -183.48)" d="m138 1586-36.945-4.0096-15-34 21.945-29.99 36.945 4.0096 15 34z"/>
   <path transform="matrix(.15677 -.018591 .018692 .15592 377.41 -196.46)" d="m138 1586-36.945-4.0096-15-34 21.945-29.99 36.945 4.0096 15 34z"/>
   <path transform="matrix(.15677 -.018591 .018692 .15592 393.13 -194.96)" d="m138 1586-36.945-4.0096-15-34 21.945-29.99 36.945 4.0096 15 34z"/>
   <path transform="matrix(.15677 -.018591 .018692 .15592 -2.8304 -201.2)" d="m138 1586-36.945-4.0096-15-34 21.945-29.99 36.945 4.0096 15 34z"/>
   <path transform="matrix(.15677 -.018591 .018692 .15592 12.639 -198.7)" d="m138 1586-36.945-4.0096-15-34 21.945-29.99 36.945 4.0096 15 34z"/>
   <path transform="matrix(.15677 -.018591 .018692 .15592 1.1616 -186.48)" d="m138 1586-36.945-4.0096-15-34 21.945-29.99 36.945 4.0096 15 34z"/>
   <path transform="matrix(.15677 -.018591 .018692 .15592 -14.058 -187.72)" d="m138 1586-36.945-4.0096-15-34 21.945-29.99 36.945 4.0096 15 34z"/>
   <path transform="matrix(.15677 -.018591 .018692 .15592 -17.8 -202.94)" d="m138 1586-36.945-4.0096-15-34 21.945-29.99 36.945 4.0096 15 34z"/>
   <path transform="matrix(.15677 -.018591 .018692 .15592 -5.8244 -215.92)" d="m138 1586-36.945-4.0096-15-34 21.945-29.99 36.945 4.0096 15 34z"/>
   <path transform="matrix(.15677 -.018591 .018692 .15592 9.8941 -214.42)" d="m138 1586-36.945-4.0096-15-34 21.945-29.99 36.945 4.0096 15 34z"/>
  </g>
 </g>
 <rect transform="rotate(90)" x="324.85" y="-499.5" width="24.903" height="74.85" fill-rule="evenodd"/>
 <g fill="none" stroke="#000">
  <path d="m177.63 390.04s-43.753-83.272 1.4114-127.02c45.164-43.753 105.85-33.168 77.626-67.746-28.228-34.579-9.8797-60.69-52.927-62.101" marker-end="url(#marker1147)"/>
  <path d="m203.74 392.16s-43.753-83.272 1.4114-127.02c45.164-43.753 105.85-33.168 77.626-67.746-28.228-34.579-23.288-81.86-66.335-83.272" marker-end="url(#marker1225)"/>
  <rect x="25.497" y="449.6" width="24.903" height="49.492" stroke-dasharray="1,3" stroke-linejoin="round"/>
  <path d="m115 422.15s5.1163 19.23-1.7642 34.755c-6.8805 15.525-52.221 17.113-52.221 17.113" marker-end="url(#marker1706)"/>
 </g>
 <path transform="matrix(-.096894 -.22992 .22992 -.096894 229.99 853.12)" d="m1688.9 1414.4-67.578-28.866 58.788-44.091z" fill="#fff" fill-rule="evenodd" stroke="#000" stroke-dasharray="4.00801644,12.02404931" stroke-linejoin="round" stroke-width="4.008"/>
 <path d="m423.99 337.57-28.376 0.2495" fill="none" marker-end="url(#marker1804)" stroke="#000"/>
</svg>
