<?xml version="1.0" encoding="UTF-8"?>
<svg width="500" height="500" version="1.1" viewBox="0 0 500 500" xmlns="http://www.w3.org/2000/svg" xmlns:cc="http://creativecommons.org/ns#" xmlns:dc="http://purl.org/dc/elements/1.1/" xmlns:rdf="http://www.w3.org/1999/02/22-rdf-syntax-ns#">
 <defs>
  <marker id="Arrow1Mend" overflow="visible" orient="auto">
   <path transform="scale(.4) rotate(180) translate(10)" d="m0 0 5-5-17.5 5 17.5 5-5-5z" fill="context-stroke" fill-rule="evenodd" stroke="context-stroke" stroke-width="1pt"/>
  </marker>
  <marker id="DotM" overflow="visible" orient="auto">
   <path transform="scale(.4) translate(7.4 1)" d="m-2.5-1c0 2.76-2.24 5-5 5s-5-2.24-5-5 2.24-5 5-5 5 2.24 5 5z" fill="context-stroke" fill-rule="evenodd" stroke="context-stroke" stroke-width="1pt"/>
  </marker>
 </defs>
 <metadata>
  <rdf:RDF>
   <cc:Work rdf:about="">
    <dc:format>image/svg+xml</dc:format>
    <dc:type rdf:resource="http://purl.org/dc/dcmitype/StillImage"/>
   </cc:Work>
  </rdf:RDF>
 </metadata>
 <path d="m0.499 0.499h499v499h-499z" fill="none" stroke="#000" stroke-width=".998"/>
 <g transform="translate(40,44)" stroke="#000" stroke-width="3">
  <rect x="50" y="50" width="400" height="50" fill="#fd5" fill-rule="evenodd" stroke-linecap="round" stroke-linejoin="round"/>
  <g fill="none">
   <path d="m100 50v50"/>
   <path d="m150 50v50"/>
   <path d="m200 50v50"/>
   <path d="m250 50v50"/>
   <path d="m300 50v50"/>
   <path d="m350 50v50"/>
   <path d="m400 50v50"/>
  </g>
 </g>
 <g transform="translate(40,113)" fill="#fea" stroke="#000" stroke-width="3">
  <rect x="50" y="50" width="400" height="50" fill-rule="evenodd" stroke-linecap="round" stroke-linejoin="round"/>
  <g>
   <path d="m100 50v50"/>
   <path d="m150 50v50"/>
   <path d="m200 50v50"/>
   <path d="m250 50v50"/>
   <path d="m300 50v50"/>
   <path d="m350 50v50"/>
   <path d="m400 50v50"/>
  </g>
 </g>
 <path d="m44.346 111.22h-28.692v18.785h28.692v18.785h-28.692" fill="none" stroke="#000" stroke-width="3"/>
 <g transform="translate(57.967 15.018)" fill="none" stroke="#000" stroke-width="3">
  <path d="m42.905 34.052 9.564-37.57h19.128l9.564 37.57"/>
  <path d="m52.469 15.267h19.128"/>
 </g>
 <text x="57.220703" y="134.28711" font-family="Roboto" font-size="40px" style="line-height:1.25" xml:space="preserve"><tspan x="57.220703" y="134.28711">1</tspan></text>
 <text x="57.220703" y="200" font-family="Roboto" font-size="40px" style="line-height:1.25" xml:space="preserve"><tspan x="57.220703" y="200">2</tspan></text>
 <g transform="translate(0,-4)" font-family="Roboto" font-size="40px">
  <text x="105.76172" y="90" style="line-height:1.25" xml:space="preserve"><tspan x="105.76172" y="90">1</tspan></text>
  <text x="155.76172" y="90" style="line-height:1.25" xml:space="preserve"><tspan x="155.76172" y="90">2</tspan></text>
  <text x="205.76172" y="90" style="line-height:1.25" xml:space="preserve"><tspan x="205.76172" y="90">3</tspan></text>
  <text x="255.76172" y="90" style="line-height:1.25" xml:space="preserve"><tspan x="255.76172" y="90">4</tspan></text>
  <text x="305.76172" y="90" style="line-height:1.25" xml:space="preserve"><tspan x="305.76172" y="90">5</tspan></text>
  <text x="355.76172" y="90" style="line-height:1.25" xml:space="preserve"><tspan x="355.76172" y="90">6</tspan></text>
  <text x="405.76172" y="90" style="line-height:1.25" xml:space="preserve"><tspan x="405.76172" y="90">7</tspan></text>
  <text x="455.76172" y="90" style="line-height:1.25" xml:space="preserve"><tspan x="455.76172" y="90">8</tspan></text>
 </g>
 <g fill="none" stroke="#000">
  <path d="m100 70" stroke-width="1px"/>
  <path d="m166.34 27.461h292.15" marker-end="url(#Arrow1Mend)" marker-start="url(#DotM)" stroke-width="1px"/>
  <path d="m30 174.64v291.02" marker-end="url(#Arrow1Mend)" marker-start="url(#DotM)" stroke-width="1px"/>
 </g>
 <g transform="matrix(.84227 0 0 .842 -440.76 -131.43)" stroke="#000" stroke-width="1.9018">
  <g transform="matrix(.13379 0 0 .13379 531.03 162.48)" fill="#fd5" fill-rule="evenodd" stroke-linejoin="round" stroke-width="14.214">
   <circle cx="678.64" cy="642.95" r="10"/>
   <circle cx="701.66" cy="449.46" r="10"/>
   <circle cx="629.76" cy="368.51" r="10"/>
   <circle cx="706.03" cy="298.86" r="10"/>
   <circle cx="628.91" cy="228.29" r="10"/>
  </g>
  <g transform="translate(144.19 -2.74)">
   <g transform="matrix(.13379 0 0 .13379 386.33 165.3)" fill="none" stroke-width="14.214">
    <path d="m317.42 159.98v-71.523"/>
    <path d="m467.42 159.98v-71.523"/>
    <path d="m419.27 159.98v-71.523"/>
    <path d="m369.27 159.98s-6.3853-48.553 0-71.523c5.0705-18.24 29.312-48.648 29.312-48.648"/>
   </g>
   <rect x="411.81" y="186.09" width="47.848" height="47.848" ry="4.7861" fill="#f59" stroke-width="1.9018"/>
   <rect x="416.6" y="190.88" width="38.277" height="38.277" ry="2.6463" fill="#ececec" stroke-width="1.9018"/>
   <g transform="matrix(.13379 0 0 .13379 386.33 165.3)" fill="none" stroke-width="14.214">
    <path d="m367.42 514.82v127.54"/>
    <path d="m548.07 226.92h71.523"/>
    <path d="m548.07 298.44h147.66"/>
    <path d="m548.07 369.97h71.523"/>
    <path d="m190.46 226.92h-71.523"/>
    <path d="m190.46 298.44h-153.01"/>
    <path d="m190.46 441.49h-136.34"/>
    <path d="m321.12 514.82v161.74"/>
    <path d="m269.27 149.98s10-20 0-60-80-90-150-50-80 50-80 50"/>
   </g>
   <g transform="matrix(.13379 0 0 .13379 386.33 165.3)" stroke-width="14.214">
    <circle cx="39.266" cy="89.975" r="10" fill="#fd5" fill-rule="evenodd" stroke-linejoin="round"/>
    <path d="m265.15 514.83s54.116 65.144 4.1155 85.144-80 30-80 30" fill="none"/>
    <circle cx="189.27" cy="629.98" r="10" fill="#fd5" fill-rule="evenodd" stroke-linejoin="round"/>
   </g>
   <circle cx="435.74" cy="210.02" r="13.15" fill="#fd5" fill-rule="evenodd" stroke-linejoin="round" stroke-width="1.9018"/>
   <g transform="matrix(.13379 0 0 .13379 386.33 165.3)" stroke-width="14.214">
    <path d="m401.14 259.34h-62.657l31.328-54.262z"/>
    <circle cx="460.29" cy="360.93" r="26.243"/>
    <rect transform="rotate(-45)" x="-89.012" y="456.01" width="42.74" height="42.74"/>
   </g>
   <g transform="matrix(.13379 0 0 .13379 386.33 165.3)" fill="#fd5" fill-rule="evenodd" stroke-linejoin="round" stroke-width="14.214">
    <circle cx="317.18" cy="81.245" r="10"/>
    <circle cx="404.64" cy="33.402" r="10"/>
    <circle cx="114.93" cy="225.3" r="10"/>
    <circle cx="419.56" cy="80.216" r="10"/>
    <circle cx="467.4" cy="82.788" r="10"/>
    <circle cx="34.117" cy="298.35" r="10"/>
   </g>
   <path d="m411.69 213.37s-9.7737-4.0609-16.174 0.0688" fill="none" stroke-width="1.9018"/>
   <g transform="matrix(.13379 0 0 .13379 386.33 165.3)" fill="#fd5" fill-rule="evenodd" stroke-linejoin="round" stroke-width="14.214">
    <circle cx="67.81" cy="361.39" r="10"/>
    <circle cx="43.936" cy="441.36" r="10"/>
    <circle cx="321.12" cy="681.44" r="10"/>
    <circle cx="366.95" cy="651.62" r="10"/>
   </g>
   <g transform="matrix(.13379 0 0 .13379 386.33 165.3)" stroke-width="14.214">
    <path d="m418.49 514.13s-28.809 53.502-2.0578 93.628c26.751 40.126 79.224 80.253 114.21 78.195" fill="none"/>
    <circle cx="541.86" cy="686.6" r="10" fill="#fd5" fill-rule="evenodd" stroke-linejoin="round"/>
    <path d="m470.6 513.42s-36.376 93.124 197.89 126.59" fill="none"/>
   </g>
   <path d="m459.66 225.48h19.756" fill="none" stroke-width="1.9018"/>
  </g>
 </g>
 <g font-family="Roboto" font-size="27.234px">
  <text x="92.897636" y="129.73404" style="line-height:1.25" xml:space="preserve"><tspan x="92.897636" y="129.73404">-0.5</tspan></text>
  <text x="145.65961" y="129.73404" style="line-height:1.25" xml:space="preserve"><tspan x="145.65961" y="129.73404">1.2</tspan></text>
  <text x="196.49205" y="129.73404" style="line-height:1.25" xml:space="preserve"><tspan x="196.49205" y="129.73404">0.5</tspan></text>
  <text x="242.89763" y="129.73404" style="line-height:1.25" xml:space="preserve"><tspan x="242.89763" y="129.73404">-0.2</tspan></text>
  <text x="296.49207" y="129.73404" style="line-height:1.25" xml:space="preserve"><tspan x="296.49207" y="129.73404">0.3</tspan></text>
  <text x="344.01602" y="129.73404" style="line-height:1.25" xml:space="preserve"><tspan x="344.01602" y="129.73404">1.0</tspan></text>
  <text x="392.76465" y="129.73404" style="line-height:1.25" xml:space="preserve"><tspan x="392.76465" y="129.73404">-0.7</tspan></text>
  <text x="445.7128" y="129.73404" style="line-height:1.25" xml:space="preserve"><tspan x="445.7128" y="129.73404">1.6</tspan></text>
 </g>
 <g fill="#1a1a1a" fill-rule="evenodd">
  <circle cx="114.14" cy="244.34" r="6.4645"/>
  <circle cx="163.64" cy="244.34" r="6.4645"/>
  <circle cx="215.26" cy="244.34" r="6.4645"/>
  <circle cx="262.63" cy="244.34" r="6.4645"/>
  <circle cx="313.55" cy="244.34" r="6.4645"/>
  <circle cx="363.75" cy="244.34" r="6.4645"/>
  <circle cx="415.37" cy="244.34" r="6.4645"/>
  <circle cx="464.16" cy="244.34" r="6.4645"/>
  <circle cx="114.14" cy="270.51" r="6.4645"/>
  <circle cx="163.64" cy="270.51" r="6.4645"/>
  <circle cx="215.26" cy="270.51" r="6.4645"/>
  <circle cx="262.63" cy="270.51" r="6.4645"/>
  <circle cx="313.55" cy="270.51" r="6.4645"/>
  <circle cx="363.75" cy="270.51" r="6.4645"/>
  <circle cx="415.37" cy="270.51" r="6.4645"/>
  <circle cx="464.16" cy="270.51" r="6.4645"/>
  <circle cx="114.14" cy="295.25" r="6.4645"/>
  <circle cx="163.64" cy="295.25" r="6.4645"/>
  <circle cx="215.26" cy="295.25" r="6.4645"/>
  <circle cx="262.63" cy="295.25" r="6.4645"/>
  <circle cx="313.55" cy="295.25" r="6.4645"/>
  <circle cx="363.75" cy="295.25" r="6.4645"/>
  <circle cx="415.37" cy="295.25" r="6.4645"/>
  <circle cx="464.16" cy="295.25" r="6.4645"/>
 </g>
 <g transform="translate(40 313.41)" stroke="#000" stroke-width="3">
  <rect x="50" y="50" width="400" height="50" fill="#fd5" fill-rule="evenodd" stroke-linecap="round" stroke-linejoin="round"/>
  <g fill="none">
   <path d="m100 50v50"/>
   <path d="m150 50v50"/>
   <path d="m200 50v50"/>
   <path d="m250 50v50"/>
   <path d="m300 50v50"/>
   <path d="m350 50v50"/>
   <path d="m400 50v50"/>
  </g>
 </g>
 <g transform="translate(40 382.41)" fill="#fea" stroke="#000" stroke-width="3">
  <rect x="50" y="50" width="400" height="50" fill-rule="evenodd" stroke-linecap="round" stroke-linejoin="round"/>
  <g>
   <path d="m100 50v50"/>
   <path d="m150 50v50"/>
   <path d="m200 50v50"/>
   <path d="m250 50v50"/>
   <path d="m300 50v50"/>
   <path d="m350 50v50"/>
   <path d="m400 50v50"/>
  </g>
 </g>
 <text x="57.220703" y="403.69479" font-family="Roboto" font-size="40px" style="line-height:1.25" xml:space="preserve"><tspan x="57.220703" y="403.69479">1</tspan></text>
 <text x="57.220703" y="469.40768" font-family="Roboto" font-size="40px" style="line-height:1.25" xml:space="preserve"><tspan x="57.220703" y="469.40768">2</tspan></text>
 <g transform="translate(0 265.41)" font-family="Roboto" font-size="40px">
  <text x="105.76172" y="90" style="line-height:1.25" xml:space="preserve"><tspan x="105.76172" y="90">1</tspan></text>
  <text x="155.76172" y="90" style="line-height:1.25" xml:space="preserve"><tspan x="155.76172" y="90">2</tspan></text>
  <text x="205.76172" y="90" style="line-height:1.25" xml:space="preserve"><tspan x="205.76172" y="90">3</tspan></text>
  <text x="255.76172" y="90" style="line-height:1.25" xml:space="preserve"><tspan x="255.76172" y="90">4</tspan></text>
  <text x="305.76172" y="90" style="line-height:1.25" xml:space="preserve"><tspan x="305.76172" y="90">5</tspan></text>
  <text x="355.76172" y="90" style="line-height:1.25" xml:space="preserve"><tspan x="355.76172" y="90">6</tspan></text>
  <text x="405.76172" y="90" style="line-height:1.25" xml:space="preserve"><tspan x="405.76172" y="90">7</tspan></text>
  <text x="455.76172" y="90" style="line-height:1.25" xml:space="preserve"><tspan x="455.76172" y="90">8</tspan></text>
 </g>
 <g font-family="Roboto" font-size="27.234px">
  <text x="92.897636" y="399.14172" style="line-height:1.25" xml:space="preserve"><tspan x="92.897636" y="399.14172">1.0</tspan></text>
  <text x="145.65961" y="399.14172" style="line-height:1.25" xml:space="preserve"><tspan x="145.65961" y="399.14172">0.5</tspan></text>
  <text x="194.49205" y="399.14172" style="line-height:1.25" xml:space="preserve"><tspan x="194.49205" y="399.14172">-0.1</tspan></text>
  <text x="242.89763" y="399.14172" style="line-height:1.25" xml:space="preserve"><tspan x="242.89763" y="399.14172">-0.4</tspan></text>
  <text x="296.49207" y="399.14172" style="line-height:1.25" xml:space="preserve"><tspan x="296.49207" y="399.14172">0.1</tspan></text>
  <text x="344.01602" y="399.14172" style="line-height:1.25" xml:space="preserve"><tspan x="344.01602" y="399.14172">0.3</tspan></text>
  <text x="392.76465" y="399.14172" style="line-height:1.25" xml:space="preserve"><tspan x="392.76465" y="399.14172">0.1</tspan></text>
  <text x="445.7128" y="399.14172" style="line-height:1.25" xml:space="preserve"><tspan x="445.7128" y="399.14172">0.7</tspan></text>
 </g>
</svg>
