<?xml version="1.0" encoding="UTF-8"?>
<svg width="500" height="500" version="1.1" viewBox="0 0 500 500" xmlns="http://www.w3.org/2000/svg" xmlns:cc="http://creativecommons.org/ns#" xmlns:dc="http://purl.org/dc/elements/1.1/" xmlns:osb="http://www.openswatchbook.org/uri/2009/osb" xmlns:rdf="http://www.w3.org/1999/02/22-rdf-syntax-ns#">
 <defs>
  <marker id="Arrow2Sstart" overflow="visible" orient="auto">
   <path transform="scale(.3) translate(-2.3)" d="m8.7186 4.0337-10.926-4.0177 10.926-4.0177c-1.7455 2.3721-1.7354 5.6175-6e-7 8.0354z" fill="#f55" fill-rule="evenodd" stroke="#f55" stroke-linejoin="round" stroke-width=".625"/>
  </marker>
  <marker id="marker2128" overflow="visible" orient="auto">
   <path transform="scale(.2) rotate(180) translate(6)" d="m0 0 5-5-17.5 5 17.5 5-5-5z" fill-rule="evenodd" stroke="#000" stroke-width="1pt"/>
  </marker>
  <marker id="marker1885" overflow="visible" orient="auto">
   <path transform="scale(.2) rotate(180) translate(6)" d="m0 0 5-5-17.5 5 17.5 5-5-5z" fill="#f55" fill-rule="evenodd" stroke="#f55" stroke-width="1pt"/>
  </marker>
  <marker id="marker1815" overflow="visible" orient="auto">
   <path transform="scale(.2) rotate(180) translate(6)" d="m0 0 5-5-17.5 5 17.5 5-5-5z" fill="#f55" fill-rule="evenodd" stroke="#f55" stroke-width="1pt"/>
  </marker>
  <marker id="marker1751" overflow="visible" orient="auto">
   <path transform="scale(.2) rotate(180) translate(6)" d="m0 0 5-5-17.5 5 17.5 5-5-5z" fill="#f55" fill-rule="evenodd" stroke="#f55" stroke-width="1pt"/>
  </marker>
  <marker id="marker1693" overflow="visible" orient="auto">
   <path transform="scale(.2) rotate(180) translate(6)" d="m0 0 5-5-17.5 5 17.5 5-5-5z" fill="#f55" fill-rule="evenodd" stroke="#f55" stroke-width="1pt"/>
  </marker>
  <marker id="Arrow1Send" overflow="visible" orient="auto">
   <path transform="scale(.2) rotate(180) translate(6)" d="m0 0 5-5-17.5 5 17.5 5-5-5z" fill="#f55" fill-rule="evenodd" stroke="#f55" stroke-width="1pt"/>
  </marker>
 </defs>
 <metadata>
  <rdf:RDF>
   <cc:Work rdf:about="">
    <dc:format>image/svg+xml</dc:format>
    <dc:type rdf:resource="http://purl.org/dc/dcmitype/StillImage"/>
    <dc:title/>
   </cc:Work>
  </rdf:RDF>
 </metadata>
 <rect x=".5" y=".5" width="499" height="499" fill="none" stroke="#000" stroke-linejoin="round"/>
 <g transform="translate(366.45 159)" fill="none" stroke="#000" stroke-linejoin="round" stroke-width=".39057">
  <ellipse cx="-41.159" cy="41.925" rx="3.5528" ry="3.552"/>
  <rect x="-48.264" y="46.292" width="14.211" height="3.552" ry="1.776"/>
  <rect x="-48.264" y="50.91" width="14.211" height="3.552" ry="1.776"/>
  <rect x="-48.264" y="55.527" width="14.211" height="3.552" ry="1.776"/>
  <rect x="-47.226" y="59.561" width="11.881" height="4.8206" ry="2.4103"/>
  <ellipse cx="-32.456" cy="48.922" rx="1.4892" ry="1.4889"/>
  <rect transform="matrix(.32368 .94617 -.94664 .32229 0 0)" x="37.52" y="44.948" width="7.171" height="1.4336" ry=".71679" opacity=".999"/>
  <ellipse cx="-30.505" cy="64.906" rx=".68171" ry=".68155"/>
  <rect transform="matrix(-.24792 .96878 -.96846 -.24916 0 0)" x="62.446" y="12.764" width="7.1699" height="1.4338" ry=".71689" opacity=".999"/>
  <rect transform="matrix(.0066154 .99998 -.99999 .0051102 0 0)" x="64.814" y="45.626" width="11.296" height="2.3083" ry="1.1542" opacity=".999"/>
  <rect transform="matrix(.0066154 .99998 -.99999 .0051102 0 0)" x="76.297" y="45.612" width="11.296" height="2.3083" ry="1.1542" opacity=".999"/>
  <ellipse cx="-46.072" cy="89.519" rx="1.4892" ry="1.4889"/>
  <rect transform="matrix(.0066154 .99998 -.99999 .0051102 0 0)" x="64.741" y="35.094" width="11.296" height="2.3083" ry="1.1542" opacity=".999"/>
  <rect transform="matrix(.033012 .99945 -.99951 .031317 0 0)" x="75.314" y="36.923" width="11.297" height="2.3082" ry="1.1541" opacity=".999"/>
  <ellipse transform="matrix(.87235 -.48889 .48906 .87225 0 0)" cx="-74.308" cy="60.97" rx="1.4891" ry="1.4889"/>
  <ellipse transform="scale(-1,1)" cx="49.767" cy="48.541" rx="1.4892" ry="1.4889"/>
  <rect transform="matrix(-.13491 .99086 .99102 .1337 0 0)" x="55.913" y="-43.532" width="7.1716" height="1.4335" ry=".71673" opacity=".999"/>
  <ellipse transform="matrix(-.7858 .61847 .6183 .78594 0 0)" cx="80.465" cy="19.155" rx=".68162" ry=".68163"/>
  <rect transform="matrix(-.086162 .99628 .99641 .084697 0 0)" x="60.866" y="-46.552" width="7.1709" height="1.4336" ry=".7168" opacity=".999"/>
 </g>
 <path d="m150 500v-500" fill="none" stroke="#000" stroke-width="1px"/>
 <path d="m301.52 0v500" fill="none" stroke="#000" stroke-width="1px"/>
 <g fill="#1a1a1a" fill-rule="evenodd" stroke="#000" stroke-linejoin="round">
  <rect x="220" width="10" height="50" ry="0"/>
  <rect x="220" y="100" width="10" height="50" ry="0"/>
  <rect x="220" y="200" width="10" height="50" ry="0"/>
  <rect x="220" y="300" width="10" height="50" ry="0"/>
  <rect x="220" y="400" width="10" height="50" ry="0"/>
 </g>
 <path d="m272.83 355.05v-75" fill="none" marker-end="url(#Arrow1Send)" stroke="#f55" stroke-dasharray="1, 1"/>
 <path d="m247.86 385s-72.857-32.857-74.286-74.286c-1.4286-41.429-1.4286-160-1.4286-160" fill="none" marker-end="url(#marker1885)" stroke="#f55" stroke-dasharray="1, 1"/>
 <g transform="rotate(90.145 350.64 32.907)" fill-rule="evenodd" stroke="#000" stroke-linejoin="round">
  <rect x="319.45" y="90.146" width="18.708" height="50.528" fill="#d7e3f4" stroke-width="1.4851"/>
  <g fill="#b7b7c8">
   <circle cx="328.8" cy="100.51" r="5.5558"/>
   <circle cx="328.8" cy="115.16" r="5.5558"/>
   <circle cx="328.8" cy="129.8" r="5.5558"/>
  </g>
 </g>
 <g transform="translate(-19.429 11.429)" stroke="#000">
  <path d="m346.69 54.043-5.406 9.3635h-10.812l-5.406-9.3635 5.406-9.3635h10.812z" fill="#d7e3f4" fill-rule="evenodd" stroke-linejoin="round" stroke-width=".69054"/>
  <path d="m343.97 54.043-4.0466 7.0089h-8.0932l-4.0466-7.0089 4.0466-7.0089h8.0932z" fill="#d7e3f4" fill-rule="evenodd" stroke-linejoin="round" stroke-width=".5169"/>
  <path d="m333.4 66.035v20.4h4.4508v-21.93" fill="#374548" stroke-width=".7031px"/>
 </g>
 <g fill="none" stroke="#f55" stroke-dasharray="1, 1">
  <path d="m304.06 388.91 21.213-129.4" marker-end="url(#marker1693)"/>
  <path d="m296.28 419.31 84.853-192.33-55.154-135.06" marker-end="url(#marker1751)"/>
  <path d="m299.11 434.16c3.5355-3.5355 156.27-272.94 156.27-272.94l-145.66-147.08" marker-end="url(#marker1815)"/>
 </g>
 <g fill="#374548" fill-rule="evenodd">
  <rect x="256.68" y="372.65" width="34.648" height="90.51" ry="11.314"/>
  <rect x="255.97" y="173.95" width="34.648" height="90.51" ry="7.0711"/>
  <rect x="156.27" y="46.669" width="34.648" height="90.51" ry="9.8995"/>
 </g>
 <g fill="none">
  <g stroke="#000">
   <g stroke-linejoin="round" stroke-width=".39057">
    <ellipse cx="34.671" cy="182.54" rx="3.5528" ry="3.552"/>
    <rect x="27.566" y="186.91" width="14.211" height="3.552" ry="1.776"/>
    <rect x="27.566" y="191.53" width="14.211" height="3.552" ry="1.776"/>
    <rect x="27.566" y="196.15" width="14.211" height="3.552" ry="1.776"/>
    <rect x="28.604" y="200.18" width="11.881" height="4.8206" ry="2.4103"/>
    <ellipse cx="43.374" cy="189.54" rx="1.4892" ry="1.4889"/>
    <rect transform="matrix(.32368 .94617 -.94664 .32229 0 0)" x="195.08" y="18.715" width="7.171" height="1.4336" ry=".71679" opacity=".999"/>
    <ellipse cx="51.601" cy="204.82" rx=".68171" ry=".68155"/>
    <rect transform="matrix(.49579 .86844 -.86907 .49468 0 0)" x="195.12" y="56.316" width="7.1699" height="1.4338" ry=".71689" opacity=".999"/>
    <rect transform="matrix(.0066154 .99998 -.99999 .0051102 0 0)" x="205.82" y="-29.272" width="11.296" height="2.3083" ry="1.1542" opacity=".999"/>
    <rect transform="matrix(.0066154 .99998 -.99999 .0051102 0 0)" x="217.3" y="-29.286" width="11.296" height="2.3083" ry="1.1542" opacity=".999"/>
    <ellipse cx="29.758" cy="230.14" rx="1.4892" ry="1.4889"/>
    <rect transform="matrix(.50804 .86133 -.8621 .50674 0 0)" x="196.71" y="71.646" width="11.296" height="2.3083" ry="1.1542" opacity=".999"/>
    <rect transform="matrix(.5105 .85988 -.86074 .50904 0 0)" x="208.46" y="71.988" width="11.297" height="2.3082" ry="1.1541" opacity=".999"/>
    <ellipse transform="matrix(.87235 -.48889 .48906 .87225 0 0)" cx="-68.313" cy="224.13" rx="1.4891" ry="1.4889"/>
    <ellipse transform="scale(-1,1)" cx="-26.063" cy="189.16" rx="1.4892" ry="1.4889"/>
    <rect transform="matrix(-.13491 .99086 .99102 .1337 0 0)" x="185.13" y="50.576" width="7.1716" height="1.4335" ry=".71673" opacity=".999"/>
    <ellipse transform="matrix(-.7858 .61847 .6183 .78594 0 0)" cx="107.81" cy="176.55" rx=".68162" ry=".68163"/>
    <rect transform="matrix(-.086162 .99628 .99641 .084697 0 0)" x="194.56" y="41.112" width="7.1709" height="1.4336" ry=".7168" opacity=".999"/>
   </g>
   <path d="m58.69 208.6h81.317" marker-end="url(#marker2128)" stroke-width="1px"/>
  </g>
  <path d="m247.49 398.81s-219.2 7.7782-218.5-74.246c0.70711-82.024 0.70711-79.196 0.70711-79.196" marker-end="url(#Arrow2Sstart)" stroke="#f55" stroke-dasharray="1, 1"/>
 </g>
</svg>
