<?xml version="1.0" encoding="UTF-8"?>
<svg width="500" height="500" version="1.1" viewBox="0 0 500 500" xmlns="http://www.w3.org/2000/svg" xmlns:cc="http://creativecommons.org/ns#" xmlns:dc="http://purl.org/dc/elements/1.1/" xmlns:osb="http://www.openswatchbook.org/uri/2009/osb" xmlns:rdf="http://www.w3.org/1999/02/22-rdf-syntax-ns#">
 <defs>
  <marker id="marker9761" overflow="visible" orient="auto">
   <path transform="scale(.8)" d="m5.77 0-8.65 5v-10l8.65 5z" fill-rule="evenodd" stroke="#000" stroke-width="1pt"/>
  </marker>
  <marker id="marker9751" overflow="visible" orient="auto">
   <path transform="scale(.8)" d="m5.77 0-8.65 5v-10l8.65 5z" fill-rule="evenodd" stroke="#000" stroke-width="1pt"/>
  </marker>
  <marker id="marker9741" overflow="visible" orient="auto">
   <path transform="scale(.8)" d="m5.77 0-8.65 5v-10l8.65 5z" fill-rule="evenodd" stroke="#000" stroke-width="1pt"/>
  </marker>
  <marker id="marker9731" overflow="visible" orient="auto">
   <path transform="scale(.8)" d="m5.77 0-8.65 5v-10l8.65 5z" fill-rule="evenodd" stroke="#000" stroke-width="1pt"/>
  </marker>
  <marker id="marker9043" overflow="visible" orient="auto">
   <path transform="scale(.8)" d="m5.77 0-8.65 5v-10l8.65 5z" fill-rule="evenodd" stroke="#000" stroke-width="1pt"/>
  </marker>
  <marker id="marker9033" overflow="visible" orient="auto">
   <path transform="scale(.8)" d="m5.77 0-8.65 5v-10l8.65 5z" fill-rule="evenodd" stroke="#000" stroke-width="1pt"/>
  </marker>
  <marker id="marker9023" overflow="visible" orient="auto">
   <path transform="scale(.8)" d="m5.77 0-8.65 5v-10l8.65 5z" fill-rule="evenodd" stroke="#000" stroke-width="1pt"/>
  </marker>
  <marker id="marker9013" overflow="visible" orient="auto">
   <path transform="scale(.8)" d="m5.77 0-8.65 5v-10l8.65 5z" fill-rule="evenodd" stroke="#000" stroke-width="1pt"/>
  </marker>
  <marker id="marker8357" overflow="visible" orient="auto">
   <path transform="scale(.8)" d="m5.77 0-8.65 5v-10l8.65 5z" fill-rule="evenodd" stroke="#000" stroke-width="1pt"/>
  </marker>
  <marker id="marker8347" overflow="visible" orient="auto">
   <path transform="scale(.8)" d="m5.77 0-8.65 5v-10l8.65 5z" fill-rule="evenodd" stroke="#000" stroke-width="1pt"/>
  </marker>
  <marker id="marker8337" overflow="visible" orient="auto">
   <path transform="scale(.8)" d="m5.77 0-8.65 5v-10l8.65 5z" fill-rule="evenodd" stroke="#000" stroke-width="1pt"/>
  </marker>
  <marker id="marker8327" overflow="visible" orient="auto">
   <path transform="scale(.8)" d="m5.77 0-8.65 5v-10l8.65 5z" fill-rule="evenodd" stroke="#000" stroke-width="1pt"/>
  </marker>
  <marker id="marker7655" overflow="visible" orient="auto">
   <path transform="scale(.8)" d="m5.77 0-8.65 5v-10l8.65 5z" fill-rule="evenodd" stroke="#000" stroke-width="1pt"/>
  </marker>
  <marker id="marker7645" overflow="visible" orient="auto">
   <path transform="scale(.8)" d="m5.77 0-8.65 5v-10l8.65 5z" fill-rule="evenodd" stroke="#000" stroke-width="1pt"/>
  </marker>
  <marker id="marker7635" overflow="visible" orient="auto">
   <path transform="scale(.8)" d="m5.77 0-8.65 5v-10l8.65 5z" fill-rule="evenodd" stroke="#000" stroke-width="1pt"/>
  </marker>
  <marker id="marker7625" overflow="visible" orient="auto">
   <path transform="scale(.8)" d="m5.77 0-8.65 5v-10l8.65 5z" fill-rule="evenodd" stroke="#000" stroke-width="1pt"/>
  </marker>
  <marker id="marker6985" overflow="visible" orient="auto">
   <path transform="scale(.8)" d="m5.77 0-8.65 5v-10l8.65 5z" fill-rule="evenodd" stroke="#000" stroke-width="1pt"/>
  </marker>
  <marker id="marker6975" overflow="visible" orient="auto">
   <path transform="scale(.8)" d="m5.77 0-8.65 5v-10l8.65 5z" fill-rule="evenodd" stroke="#000" stroke-width="1pt"/>
  </marker>
  <marker id="marker6965" overflow="visible" orient="auto">
   <path transform="scale(.8)" d="m5.77 0-8.65 5v-10l8.65 5z" fill-rule="evenodd" stroke="#000" stroke-width="1pt"/>
  </marker>
  <marker id="marker6955" overflow="visible" orient="auto">
   <path transform="scale(.8)" d="m5.77 0-8.65 5v-10l8.65 5z" fill-rule="evenodd" stroke="#000" stroke-width="1pt"/>
  </marker>
  <marker id="marker6371" overflow="visible" orient="auto">
   <path transform="scale(.8)" d="m5.77 0-8.65 5v-10l8.65 5z" fill-rule="evenodd" stroke="#000" stroke-width="1pt"/>
  </marker>
  <marker id="marker6361" overflow="visible" orient="auto">
   <path transform="scale(.8)" d="m5.77 0-8.65 5v-10l8.65 5z" fill-rule="evenodd" stroke="#000" stroke-width="1pt"/>
  </marker>
  <marker id="marker6351" overflow="visible" orient="auto">
   <path transform="scale(.8)" d="m5.77 0-8.65 5v-10l8.65 5z" fill-rule="evenodd" stroke="#000" stroke-width="1pt"/>
  </marker>
  <marker id="marker6341" overflow="visible" orient="auto">
   <path transform="scale(.8)" d="m5.77 0-8.65 5v-10l8.65 5z" fill-rule="evenodd" stroke="#000" stroke-width="1pt"/>
  </marker>
  <marker id="marker5813" overflow="visible" orient="auto">
   <path transform="scale(.8)" d="m5.77 0-8.65 5v-10l8.65 5z" fill-rule="evenodd" stroke="#000" stroke-width="1pt"/>
  </marker>
  <marker id="marker5803" overflow="visible" orient="auto">
   <path transform="scale(.8)" d="m5.77 0-8.65 5v-10l8.65 5z" fill-rule="evenodd" stroke="#000" stroke-width="1pt"/>
  </marker>
  <marker id="marker5793" overflow="visible" orient="auto">
   <path transform="scale(.8)" d="m5.77 0-8.65 5v-10l8.65 5z" fill-rule="evenodd" stroke="#000" stroke-width="1pt"/>
  </marker>
  <marker id="marker5783" overflow="visible" orient="auto">
   <path transform="scale(.8)" d="m5.77 0-8.65 5v-10l8.65 5z" fill-rule="evenodd" stroke="#000" stroke-width="1pt"/>
  </marker>
  <marker id="marker5530" overflow="visible" orient="auto">
   <path transform="scale(.8)" d="m5.77 0-8.65 5v-10l8.65 5z" fill-rule="evenodd" stroke="#000" stroke-width="1pt"/>
  </marker>
  <marker id="marker5520" overflow="visible" orient="auto">
   <path transform="scale(.8)" d="m5.77 0-8.65 5v-10l8.65 5z" fill-rule="evenodd" stroke="#000" stroke-width="1pt"/>
  </marker>
  <marker id="marker5510" overflow="visible" orient="auto">
   <path transform="scale(.8)" d="m5.77 0-8.65 5v-10l8.65 5z" fill-rule="evenodd" stroke="#000" stroke-width="1pt"/>
  </marker>
  <marker id="marker5500" overflow="visible" orient="auto">
   <path transform="scale(.8)" d="m5.77 0-8.65 5v-10l8.65 5z" fill-rule="evenodd" stroke="#000" stroke-width="1pt"/>
  </marker>
  <marker id="marker4496" overflow="visible" orient="auto">
   <path transform="scale(.8)" d="m5.77 0-8.65 5v-10l8.65 5z" fill-rule="evenodd" stroke="#000" stroke-width="1pt"/>
  </marker>
  <marker id="marker4486" overflow="visible" orient="auto">
   <path transform="scale(.8)" d="m5.77 0-8.65 5v-10l8.65 5z" fill-rule="evenodd" stroke="#000" stroke-width="1pt"/>
  </marker>
  <marker id="marker4476" overflow="visible" orient="auto">
   <path transform="scale(.8)" d="m5.77 0-8.65 5v-10l8.65 5z" fill-rule="evenodd" stroke="#000" stroke-width="1pt"/>
  </marker>
  <marker id="marker4466" overflow="visible" orient="auto">
   <path transform="scale(.8)" d="m5.77 0-8.65 5v-10l8.65 5z" fill-rule="evenodd" stroke="#000" stroke-width="1pt"/>
  </marker>
  <marker id="marker4010" overflow="visible" orient="auto">
   <path transform="scale(.8)" d="m5.77 0-8.65 5v-10l8.65 5z" fill-rule="evenodd" stroke="#000" stroke-width="1pt"/>
  </marker>
  <marker id="marker4000" overflow="visible" orient="auto">
   <path transform="scale(.8)" d="m5.77 0-8.65 5v-10l8.65 5z" fill-rule="evenodd" stroke="#000" stroke-width="1pt"/>
  </marker>
  <marker id="marker3990" overflow="visible" orient="auto">
   <path transform="scale(.8)" d="m5.77 0-8.65 5v-10l8.65 5z" fill-rule="evenodd" stroke="#000" stroke-width="1pt"/>
  </marker>
  <marker id="marker3980" overflow="visible" orient="auto">
   <path transform="scale(.8)" d="m5.77 0-8.65 5v-10l8.65 5z" fill-rule="evenodd" stroke="#000" stroke-width="1pt"/>
  </marker>
  <marker id="marker3580" overflow="visible" orient="auto">
   <path transform="scale(.8)" d="m5.77 0-8.65 5v-10l8.65 5z" fill-rule="evenodd" stroke="#000" stroke-width="1pt"/>
  </marker>
  <marker id="marker3570" overflow="visible" orient="auto">
   <path transform="scale(.8)" d="m5.77 0-8.65 5v-10l8.65 5z" fill-rule="evenodd" stroke="#000" stroke-width="1pt"/>
  </marker>
  <marker id="marker3560" overflow="visible" orient="auto">
   <path transform="scale(.8)" d="m5.77 0-8.65 5v-10l8.65 5z" fill-rule="evenodd" stroke="#000" stroke-width="1pt"/>
  </marker>
  <marker id="marker3550" overflow="visible" orient="auto">
   <path transform="scale(.8)" d="m5.77 0-8.65 5v-10l8.65 5z" fill-rule="evenodd" stroke="#000" stroke-width="1pt"/>
  </marker>
  <marker id="marker3158" overflow="visible" orient="auto">
   <path transform="scale(.8)" d="m5.77 0-8.65 5v-10l8.65 5z" fill-rule="evenodd" stroke="#000" stroke-width="1pt"/>
  </marker>
  <marker id="marker3148" overflow="visible" orient="auto">
   <path transform="scale(.8)" d="m5.77 0-8.65 5v-10l8.65 5z" fill-rule="evenodd" stroke="#000" stroke-width="1pt"/>
  </marker>
  <marker id="marker3138" overflow="visible" orient="auto">
   <path transform="scale(.8)" d="m5.77 0-8.65 5v-10l8.65 5z" fill-rule="evenodd" stroke="#000" stroke-width="1pt"/>
  </marker>
  <marker id="marker3128" overflow="visible" orient="auto">
   <path transform="scale(.8)" d="m5.77 0-8.65 5v-10l8.65 5z" fill-rule="evenodd" stroke="#000" stroke-width="1pt"/>
  </marker>
  <marker id="marker2792" overflow="visible" orient="auto">
   <path transform="scale(.8)" d="m5.77 0-8.65 5v-10l8.65 5z" fill-rule="evenodd" stroke="#000" stroke-width="1pt"/>
  </marker>
  <marker id="marker2782" overflow="visible" orient="auto">
   <path transform="scale(.8)" d="m5.77 0-8.65 5v-10l8.65 5z" fill-rule="evenodd" stroke="#000" stroke-width="1pt"/>
  </marker>
  <marker id="marker2772" overflow="visible" orient="auto">
   <path transform="scale(.8)" d="m5.77 0-8.65 5v-10l8.65 5z" fill-rule="evenodd" stroke="#000" stroke-width="1pt"/>
  </marker>
  <marker id="marker2762" overflow="visible" orient="auto">
   <path transform="scale(.8)" d="m5.77 0-8.65 5v-10l8.65 5z" fill-rule="evenodd" stroke="#000" stroke-width="1pt"/>
  </marker>
  <marker id="marker2434" overflow="visible" orient="auto">
   <path transform="scale(.8)" d="m5.77 0-8.65 5v-10l8.65 5z" fill-rule="evenodd" stroke="#000" stroke-width="1pt"/>
  </marker>
  <marker id="marker2424" overflow="visible" orient="auto">
   <path transform="scale(.8)" d="m5.77 0-8.65 5v-10l8.65 5z" fill-rule="evenodd" stroke="#000" stroke-width="1pt"/>
  </marker>
  <marker id="marker2414" overflow="visible" orient="auto">
   <path transform="scale(.8)" d="m5.77 0-8.65 5v-10l8.65 5z" fill-rule="evenodd" stroke="#000" stroke-width="1pt"/>
  </marker>
  <marker id="marker2404" overflow="visible" orient="auto">
   <path transform="scale(.8)" d="m5.77 0-8.65 5v-10l8.65 5z" fill-rule="evenodd" stroke="#000" stroke-width="1pt"/>
  </marker>
  <marker id="marker2108" overflow="visible" orient="auto">
   <path transform="scale(.8)" d="m5.77 0-8.65 5v-10l8.65 5z" fill-rule="evenodd" stroke="#000" stroke-width="1pt"/>
  </marker>
  <marker id="marker2098" overflow="visible" orient="auto">
   <path transform="scale(.8)" d="m5.77 0-8.65 5v-10l8.65 5z" fill-rule="evenodd" stroke="#000" stroke-width="1pt"/>
  </marker>
  <marker id="marker2088" overflow="visible" orient="auto">
   <path transform="scale(.8)" d="m5.77 0-8.65 5v-10l8.65 5z" fill-rule="evenodd" stroke="#000" stroke-width="1pt"/>
  </marker>
  <marker id="marker2078" overflow="visible" orient="auto">
   <path transform="scale(.8)" d="m5.77 0-8.65 5v-10l8.65 5z" fill-rule="evenodd" stroke="#000" stroke-width="1pt"/>
  </marker>
  <marker id="marker1584" overflow="visible" orient="auto">
   <path transform="scale(.8)" d="m5.77 0-8.65 5v-10l8.65 5z" fill-rule="evenodd" stroke="#000" stroke-width="1pt"/>
  </marker>
  <marker id="marker1574" overflow="visible" orient="auto">
   <path transform="scale(.8)" d="m5.77 0-8.65 5v-10l8.65 5z" fill-rule="evenodd" stroke="#000" stroke-width="1pt"/>
  </marker>
  <marker id="marker1423" overflow="visible" orient="auto">
   <path transform="scale(.8)" d="m5.77 0-8.65 5v-10l8.65 5z" fill-rule="evenodd" stroke="#000" stroke-width="1pt"/>
  </marker>
  <marker id="marker1278" overflow="visible" orient="auto">
   <path transform="scale(.8)" d="m5.77 0-8.65 5v-10l8.65 5z" fill-rule="evenodd" stroke="#000" stroke-width="1pt"/>
  </marker>
 </defs>
 <metadata>
  <rdf:RDF>
   <cc:Work rdf:about="">
    <dc:format>image/svg+xml</dc:format>
    <dc:type rdf:resource="http://purl.org/dc/dcmitype/StillImage"/>
    <dc:title/>
   </cc:Work>
  </rdf:RDF>
 </metadata>
 <g transform="translate(380,380)" fill="none" stroke="#000" stroke-width="1.0016">
  <path d="m60 60v-50" marker-end="url(#marker9731)"/>
  <path d="m60 60h50" marker-end="url(#marker9741)"/>
  <path d="m60 60v50" marker-end="url(#marker9751)"/>
  <path d="m60 60h-50" marker-end="url(#marker9761)"/>
 </g>
 <g transform="translate(0,376)" fill="none" stroke="#000" stroke-width="1.0016">
  <path d="m60 60v-50" marker-end="url(#marker7625)"/>
  <path d="m60 60h50" marker-end="url(#marker7635)"/>
  <path d="m60 60v50" marker-end="url(#marker7645)"/>
  <path d="m60 60h-50" marker-end="url(#marker7655)"/>
 </g>
 <g transform="translate(380,250)" fill="none" stroke="#000" stroke-width="1.0016">
  <path d="m60 60v-50" marker-end="url(#marker6955)"/>
  <path d="m60 60h50" marker-end="url(#marker6965)"/>
  <path d="m60 60v50" marker-end="url(#marker6975)"/>
  <path d="m60 60h-50" marker-end="url(#marker6985)"/>
 </g>
 <g transform="translate(130,130)" fill="none" stroke="#000" stroke-width="1.0016">
  <path d="m60 60v-50" marker-end="url(#marker3550)"/>
  <path d="m60 60h50" marker-end="url(#marker3560)"/>
  <path d="m60 60v50" marker-end="url(#marker3570)"/>
  <path d="m60 60h-50" marker-end="url(#marker3580)"/>
 </g>
 <g transform="translate(380,130)" fill="none" stroke="#000" stroke-width="1.0016">
  <path d="m60 60v-50" marker-end="url(#marker4466)"/>
  <path d="m60 60h50" marker-end="url(#marker4476)"/>
  <path d="m60 60v50" marker-end="url(#marker4486)"/>
  <path d="m60 60h-50" marker-end="url(#marker4496)"/>
 </g>
 <g transform="translate(0,250)" fill="none" stroke="#000" stroke-width="1.0016">
  <path d="m60 60v-50" marker-end="url(#marker5500)"/>
  <path d="m60 60h50" marker-end="url(#marker5510)"/>
  <path d="m60 60v50" marker-end="url(#marker5520)"/>
  <path d="m60 60h-50" marker-end="url(#marker5530)"/>
 </g>
 <g transform="translate(130)" fill="none" stroke="#000" stroke-width="1.0016">
  <path d="m60 60v-50" marker-end="url(#marker2078)"/>
  <path d="m60 60h50" marker-end="url(#marker2088)"/>
  <path d="m60 60v50" marker-end="url(#marker2098)"/>
  <path d="m60 60h-50" marker-end="url(#marker2108)"/>
 </g>
 <g fill="none" stroke="#000" stroke-width="1.0016">
  <path d="m60 60v-50" marker-end="url(#marker1574)"/>
  <path d="m60 60h50" marker-end="url(#marker1584)"/>
  <path d="m60 60v50" marker-end="url(#marker1278)"/>
  <path d="m60 60h-50" marker-end="url(#marker1423)"/>
 </g>
 <g fill="none" stroke="#000">
  <path d="m0.499 0.499h499v499h-499z" stroke-width=".998"/>
  <g stroke-width="1px">
   <path d="m125.5 0v500"/>
   <path d="m250.5 0v500"/>
   <path d="m375.5 0v500"/>
   <path d="m0 125.5h500"/>
   <path d="m0 250.5h500"/>
   <path d="m0 375.5h500"/>
  </g>
 </g>
 <circle cx="60" cy="60" r="42" fill="#fd5" fill-rule="evenodd" stroke="#000" stroke-linejoin="round" stroke-width="1.0016"/>
 <path transform="matrix(1.2025 0 0 1.2029 -89.098 -79.475)" d="m478.73 463.54h-77.46l38.73-67.082z" fill="#f59" fill-rule="evenodd" stroke="#000" stroke-linejoin="round" stroke-width=".83277"/>
 <g fill="#acf" fill-rule="evenodd" stroke="#000" stroke-linejoin="round">
  <rect x="154" y="154" width="66" height="66"/>
  <g stroke-width="1.0016">
   <rect x="404" y="152" width="68" height="68"/>
   <rect x="399" y="272" width="78" height="78"/>
   <rect x="22" y="398" width="78" height="78"/>
  </g>
 </g>
 <g font-family="Roboto" font-size="40px">
  <text x="48.105469" y="74.21875" style="line-height:1.25" xml:space="preserve"><tspan x="48.105469" y="74.21875">S</tspan></text>
  <text x="426.56995" y="461.39032" style="line-height:1.25" xml:space="preserve"><tspan x="426.56995" y="461.39032">G</tspan></text>
  <text x="178.92023" y="74.21875" style="line-height:1.25" xml:space="preserve"><tspan x="178.92023" y="74.21875">F</tspan></text>
  <text x="297.49234" y="74.21875" style="line-height:1.25" xml:space="preserve"><tspan x="297.49234" y="74.21875">F</tspan></text>
  <text x="427.82181" y="74.21875" style="line-height:1.25" xml:space="preserve"><tspan x="427.82181" y="74.21875">F</tspan></text>
  <text x="49.984146" y="198.66954" style="line-height:1.25" xml:space="preserve"><tspan x="49.984146" y="198.66954">F</tspan></text>
  <text x="304.07812" y="198.66954" style="line-height:1.25" xml:space="preserve"><tspan x="304.07812" y="198.66954">F</tspan></text>
  <text x="47.984146" y="325.48428" style="line-height:1.25" xml:space="preserve"><tspan x="47.984146" y="325.48428">F</tspan></text>
  <text x="179.62732" y="329.48428" style="line-height:1.25" xml:space="preserve"><tspan x="179.62732" y="329.48428">F</tspan></text>
  <text x="302.66391" y="329.48428" style="line-height:1.25" xml:space="preserve"><tspan x="302.66391" y="329.48428">F</tspan></text>
  <text x="179.62732" y="456.76349" style="line-height:1.25" xml:space="preserve"><tspan x="179.62732" y="456.76349">F</tspan></text>
  <text x="303.371" y="456.76349" style="line-height:1.25" xml:space="preserve"><tspan x="303.371" y="456.76349">F</tspan></text>
  <text x="173.97047" y="198.66954" style="line-height:1.25" xml:space="preserve"><tspan x="173.97047" y="198.66954">H</tspan></text>
  <text x="425.11469" y="198.66954" style="line-height:1.25" xml:space="preserve"><tspan x="425.11469" y="198.66954">H</tspan></text>
  <text x="44.569935" y="450.39954" style="line-height:1.25" xml:space="preserve"><tspan x="44.569935" y="450.39954">H</tspan></text>
  <text x="425.11469" y="326.77719" style="line-height:1.25" xml:space="preserve"><tspan x="425.11469" y="326.77719">H</tspan></text>
 </g>
 <g transform="translate(250)" fill="none" stroke="#000" stroke-width="1.0016">
  <path d="m60 60v-50" marker-end="url(#marker2404)"/>
  <path d="m60 60h50" marker-end="url(#marker2414)"/>
  <path d="m60 60v50" marker-end="url(#marker2424)"/>
  <path d="m60 60h-50" marker-end="url(#marker2434)"/>
 </g>
 <g transform="translate(380)" fill="none" stroke="#000" stroke-width="1.0016">
  <path d="m60 60v-50" marker-end="url(#marker2762)"/>
  <path d="m60 60h50" marker-end="url(#marker2772)"/>
  <path d="m60 60v50" marker-end="url(#marker2782)"/>
  <path d="m60 60h-50" marker-end="url(#marker2792)"/>
 </g>
 <g transform="translate(0,130)" fill="none" stroke="#000" stroke-width="1.0016">
  <path d="m60 60v-50" marker-end="url(#marker3128)"/>
  <path d="m60 60h50" marker-end="url(#marker3138)"/>
  <path d="m60 60v50" marker-end="url(#marker3148)"/>
  <path d="m60 60h-50" marker-end="url(#marker3158)"/>
 </g>
 <g transform="translate(250,130)" fill="none" stroke="#000" stroke-width="1.0016">
  <path d="m60 60v-50" marker-end="url(#marker3980)"/>
  <path d="m60 60h50" marker-end="url(#marker3990)"/>
  <path d="m60 60v50" marker-end="url(#marker4000)"/>
  <path d="m60 60h-50" marker-end="url(#marker4010)"/>
 </g>
 <g transform="translate(130,250)" fill="none" stroke="#000" stroke-width="1.0016">
  <path d="m60 60v-50" marker-end="url(#marker5783)"/>
  <path d="m60 60h50" marker-end="url(#marker5793)"/>
  <path d="m60 60v50" marker-end="url(#marker5803)"/>
  <path d="m60 60h-50" marker-end="url(#marker5813)"/>
 </g>
 <g transform="translate(250,250)" fill="none" stroke="#000" stroke-width="1.0016">
  <path d="m60 60v-50" marker-end="url(#marker6341)"/>
  <path d="m60 60h50" marker-end="url(#marker6351)"/>
  <path d="m60 60v50" marker-end="url(#marker6361)"/>
  <path d="m60 60h-50" marker-end="url(#marker6371)"/>
 </g>
 <g transform="translate(130,380)" fill="none" stroke="#000" stroke-width="1.0016">
  <path d="m60 60v-50" marker-end="url(#marker8327)"/>
  <path d="m60 60h50" marker-end="url(#marker8337)"/>
  <path d="m60 60v50" marker-end="url(#marker8347)"/>
  <path d="m60 60h-50" marker-end="url(#marker8357)"/>
 </g>
 <g transform="translate(260,380)" fill="none" stroke="#000" stroke-width="1.0016">
  <path d="m60 60v-50" marker-end="url(#marker9013)"/>
  <path d="m60 60h50" marker-end="url(#marker9023)"/>
  <path d="m60 60v50" marker-end="url(#marker9033)"/>
  <path d="m60 60h-50" marker-end="url(#marker9043)"/>
 </g>
</svg>
