<?xml version="1.0" encoding="UTF-8"?>
<svg width="500" height="500" version="1.1" viewBox="0 0 500 500" xmlns="http://www.w3.org/2000/svg" xmlns:cc="http://creativecommons.org/ns#" xmlns:dc="http://purl.org/dc/elements/1.1/" xmlns:rdf="http://www.w3.org/1999/02/22-rdf-syntax-ns#">
 <defs>
  <marker id="marker12004" overflow="visible" orient="auto">
   <path transform="scale(.8)" d="m5.77 0-8.65 5v-10l8.65 5z" fill-rule="evenodd" stroke="#000" stroke-width="1pt"/>
  </marker>
  <marker id="marker11964" overflow="visible" orient="auto">
   <path transform="scale(.8)" d="m5.77 0-8.65 5v-10l8.65 5z" fill-rule="evenodd" stroke="#000" stroke-width="1pt"/>
  </marker>
  <marker id="marker11724" overflow="visible" orient="auto">
   <path transform="scale(.8)" d="m5.77 0-8.65 5v-10l8.65 5z" fill-rule="evenodd" stroke="#000" stroke-width="1pt"/>
  </marker>
 </defs>
 <metadata>
  <rdf:RDF>
   <cc:Work rdf:about="">
    <dc:format>image/svg+xml</dc:format>
    <dc:type rdf:resource="http://purl.org/dc/dcmitype/StillImage"/>
    <dc:title/>
   </cc:Work>
  </rdf:RDF>
 </metadata>
 <g fill="none" stroke="#000">
  <path d="m0.499 0.499h499v499h-499z" stroke-width=".998"/>
  <g stroke-width="1px">
   <path d="m125.5 0v500"/>
   <path d="m250.5 0v500"/>
   <path d="m375.5 0v500"/>
   <path d="m0 125.5h500"/>
   <path d="m0 250.5h500"/>
   <path d="m0 375.5h500"/>
  </g>
 </g>
 <g fill-rule="evenodd" stroke="#000" stroke-linejoin="round">
  <circle cx="190.45" cy="313.36" r="30.435" fill="#fd5" stroke-width="1.0016"/>
  <path transform="matrix(1.2025 0 0 1.2029 -91.098 -81.475)" d="m478.73 463.54h-77.46l38.73-67.082z" fill="#f59" stroke-width=".83277"/>
  <g fill="#acf">
   <rect x="137" y="137" width="100" height="100"/>
   <g stroke-width="1.0016">
    <rect x="388" y="136" width="100" height="100"/>
    <rect x="388" y="263" width="100" height="100"/>
    <rect x="13" y="387" width="100" height="100"/>
   </g>
  </g>
 </g>
 <g font-family="Roboto" font-size="40px">
  <text x="48.105469" y="74.21875" style="line-height:1.25" xml:space="preserve"><tspan x="48.105469" y="74.21875">S</tspan></text>
  <text x="424.56995" y="461.39032" style="line-height:1.25" xml:space="preserve"><tspan x="424.56995" y="461.39032">G</tspan></text>
  <text x="178.92023" y="74.21875" style="line-height:1.25" xml:space="preserve"><tspan x="178.92023" y="74.21875">F</tspan></text>
  <text x="305.49234" y="74.21875" style="line-height:1.25" xml:space="preserve"><tspan x="305.49234" y="74.21875">F</tspan></text>
  <text x="427.82181" y="74.21875" style="line-height:1.25" xml:space="preserve"><tspan x="427.82181" y="74.21875">F</tspan></text>
  <text x="45.984146" y="198.66954" style="line-height:1.25" xml:space="preserve"><tspan x="45.984146" y="198.66954">F</tspan></text>
  <text x="304.07812" y="198.66954" style="line-height:1.25" xml:space="preserve"><tspan x="304.07812" y="198.66954">F</tspan></text>
  <text x="45.984146" y="329.48428" style="line-height:1.25" xml:space="preserve"><tspan x="45.984146" y="329.48428">F</tspan></text>
  <text x="179.62732" y="329.48428" style="line-height:1.25" xml:space="preserve"><tspan x="179.62732" y="329.48428">F</tspan></text>
  <text x="302.66391" y="329.48428" style="line-height:1.25" xml:space="preserve"><tspan x="302.66391" y="329.48428">F</tspan></text>
  <text x="179.62732" y="456.76349" style="line-height:1.25" xml:space="preserve"><tspan x="179.62732" y="456.76349">F</tspan></text>
  <text x="303.371" y="456.76349" style="line-height:1.25" xml:space="preserve"><tspan x="303.371" y="456.76349">F</tspan></text>
  <text x="173.97047" y="198.66954" style="line-height:1.25" xml:space="preserve"><tspan x="173.97047" y="198.66954">H</tspan></text>
  <text x="425.11469" y="198.66954" style="line-height:1.25" xml:space="preserve"><tspan x="425.11469" y="198.66954">H</tspan></text>
  <text x="44.569935" y="450.39954" style="line-height:1.25" xml:space="preserve"><tspan x="44.569935" y="450.39954">H</tspan></text>
  <text x="425.11469" y="328.77719" style="line-height:1.25" xml:space="preserve"><tspan x="425.11469" y="328.77719">H</tspan></text>
 </g>
 <g fill="none" stroke="#000" stroke-width="1px">
  <path d="m190 350v60" marker-end="url(#marker11724)"/>
  <path d="m210 440h60" marker-end="url(#marker11964)"/>
  <path d="m330 440h60" marker-end="url(#marker12004)"/>
 </g>
 <g font-family="Roboto" font-size="30.687px">
  <text x="226.36476" y="490.11945" style="line-height:1.25" xml:space="preserve"><tspan x="226.36476" y="490.11945">0</tspan></text>
  <text x="352.89539" y="490.11945" style="line-height:1.25" xml:space="preserve"><tspan x="352.89539" y="490.11945">0</tspan></text>
  <text x="485.46683" y="490.11945" style="line-height:1.25" xml:space="preserve"><tspan x="485.46683" y="490.11945">1</tspan></text>
 </g>
</svg>
