<?xml version="1.0" encoding="UTF-8"?>
<svg width="500" height="100" version="1.1" viewBox="0 0 500 100" xmlns="http://www.w3.org/2000/svg" xmlns:cc="http://creativecommons.org/ns#" xmlns:dc="http://purl.org/dc/elements/1.1/" xmlns:osb="http://www.openswatchbook.org/uri/2009/osb" xmlns:rdf="http://www.w3.org/1999/02/22-rdf-syntax-ns#">
 <metadata>
  <rdf:RDF>
   <cc:Work rdf:about="">
    <dc:format>image/svg+xml</dc:format>
    <dc:type rdf:resource="http://purl.org/dc/dcmitype/StillImage"/>
    <dc:title/>
   </cc:Work>
  </rdf:RDF>
 </metadata>
 <g stroke="#000">
  <path d="m0.22301 0.22301h499.55v99.554h-499.55z" fill="none" stroke-width=".44602"/>
  <g transform="translate(15.611 10)" fill-rule="evenodd" stroke-linejoin="round">
   <g transform="matrix(.69861 0 0 .69861 -31.083 5.0695)">
    <circle cx="100" cy="50" r="30" fill="#fd5"/>
    <circle cx="100" cy="50" r="14.003" fill="#fff" stroke-width=".46677"/>
   </g>
   <g transform="matrix(.69861 0 0 .69861 -191.76 -29.861)">
    <circle cx="400" cy="100" r="30" fill="#f59"/>
    <circle cx="400" cy="100" r="14.003" fill="#fff" stroke-width=".46677"/>
   </g>
   <g transform="matrix(.69861 0 0 .69861 31.792 -99.722)">
    <circle cx="150" cy="200" r="30" fill="#c8b7b7"/>
    <circle cx="150" cy="200" r="14.003" fill="#fff" stroke-width=".46677"/>
   </g>
   <g transform="matrix(.69861 0 0 .69861 -59.027 -134.65)">
    <circle cx="350" cy="250" r="30" fill="#acf"/>
    <circle cx="350" cy="250" r="14.003" fill="#fff" stroke-width=".46677"/>
   </g>
   <g transform="matrix(.69861 0 0 .69861 129.6 -99.722)">
    <circle cx="150" cy="200" r="30" fill="#c8b7b7"/>
    <circle cx="150" cy="200" r="14.003" fill="#fff" stroke-width=".46677"/>
   </g>
   <g transform="matrix(.69861 0 0 .69861 38.778 -134.65)">
    <circle cx="350" cy="250" r="30" fill="#acf"/>
    <circle cx="350" cy="250" r="14.003" fill="#fff" stroke-width=".46677"/>
   </g>
   <g transform="matrix(.69861 0 0 .69861 262.33 5.0695)">
    <circle cx="100" cy="50" r="30" fill="#fd5"/>
    <circle cx="100" cy="50" r="14.003" fill="#fff" stroke-width=".46677"/>
   </g>
   <g transform="matrix(.69861 0 0 .69861 276.31 -99.722)">
    <circle cx="150" cy="200" r="30" fill="#c8b7b7"/>
    <circle cx="150" cy="200" r="14.003" fill="#fff" stroke-width=".46677"/>
   </g>
   <g transform="matrix(.69861 0 0 .69861 185.49 -134.65)">
    <circle cx="350" cy="250" r="30" fill="#acf"/>
    <circle cx="350" cy="250" r="14.003" fill="#fff" stroke-width=".46677"/>
   </g>
  </g>
 </g>
</svg>
