<?xml version="1.0" encoding="UTF-8"?>
<svg width="500" height="350" version="1.1" viewBox="0 0 500 350" xmlns="http://www.w3.org/2000/svg" xmlns:cc="http://creativecommons.org/ns#" xmlns:dc="http://purl.org/dc/elements/1.1/" xmlns:osb="http://www.openswatchbook.org/uri/2009/osb" xmlns:rdf="http://www.w3.org/1999/02/22-rdf-syntax-ns#">
 <defs>
  <marker id="marker12670" overflow="visible" orient="auto">
   <path transform="scale(.4)" d="m-5-5v10h10v-10z" fill-rule="evenodd" stroke="#000" stroke-width="1pt"/>
  </marker>
  <marker id="marker12435" overflow="visible" orient="auto">
   <path transform="scale(.4)" d="m-5-5v10h10v-10z" fill-rule="evenodd" stroke="#000" stroke-width="1pt"/>
  </marker>
  <marker id="marker12206" overflow="visible" orient="auto">
   <path transform="scale(.4)" d="m-5-5v10h10v-10z" fill-rule="evenodd" stroke="#000" stroke-width="1pt"/>
  </marker>
  <marker id="marker11983" overflow="visible" orient="auto">
   <path transform="scale(.4)" d="m-5-5v10h10v-10z" fill-rule="evenodd" stroke="#000" stroke-width="1pt"/>
  </marker>
  <marker id="marker11766" overflow="visible" orient="auto">
   <path transform="scale(.4)" d="m-5-5v10h10v-10z" fill-rule="evenodd" stroke="#000" stroke-width="1pt"/>
  </marker>
  <marker id="marker11555" overflow="visible" orient="auto">
   <path transform="scale(.4)" d="m-5-5v10h10v-10z" fill-rule="evenodd" stroke="#000" stroke-width="1pt"/>
  </marker>
  <marker id="marker11284" overflow="visible" orient="auto">
   <path transform="scale(.8)" d="m5.77 0-8.65 5v-10z" fill-rule="evenodd" stroke="#000" stroke-width="1pt"/>
  </marker>
  <marker id="marker11101" overflow="visible" orient="auto">
   <path transform="scale(.8)" d="m5.77 0-8.65 5v-10z" fill-rule="evenodd" stroke="#000" stroke-width="1pt"/>
  </marker>
  <marker id="marker10924" overflow="visible" orient="auto">
   <path transform="scale(.8)" d="m5.77 0-8.65 5v-10z" fill-rule="evenodd" stroke="#000" stroke-width="1pt"/>
  </marker>
  <marker id="marker10753" overflow="visible" orient="auto">
   <path transform="scale(.8)" d="m5.77 0-8.65 5v-10z" fill-rule="evenodd" stroke="#000" stroke-width="1pt"/>
  </marker>
  <marker id="marker10590" overflow="visible" orient="auto">
   <path transform="scale(.8)" d="m5.77 0-8.65 5v-10z" fill-rule="evenodd" stroke="#000" stroke-width="1pt"/>
  </marker>
  <marker id="marker10433" overflow="visible" orient="auto">
   <path transform="scale(.8)" d="m5.77 0-8.65 5v-10z" fill-rule="evenodd" stroke="#000" stroke-width="1pt"/>
  </marker>
  <marker id="marker4005" overflow="visible" orient="auto">
   <path transform="scale(.8)" d="m5.77 0-8.65 5v-10z" fill-rule="evenodd" stroke="#000" stroke-width="1pt"/>
  </marker>
  <marker id="marker10844" overflow="visible" orient="auto">
   <path transform="scale(.4)" d="m-5-5v10h10v-10z" fill-rule="evenodd" stroke="#000" stroke-width="1pt"/>
  </marker>
 </defs>
 <metadata>
  <rdf:RDF>
   <cc:Work rdf:about="">
    <dc:format>image/svg+xml</dc:format>
    <dc:type rdf:resource="http://purl.org/dc/dcmitype/StillImage"/>
    <dc:title/>
   </cc:Work>
  </rdf:RDF>
 </metadata>
 <path d="m0.41748 0.41748h499.17v349.17h-499.17z" fill="none" stroke="#000" stroke-width=".83496"/>
 <g fill-rule="evenodd" stroke="#000" stroke-linejoin="round">
  <circle cx="100" cy="50" r="30" fill="#fd5"/>
  <circle cx="400" cy="100" r="30" fill="#f59"/>
  <circle cx="150" cy="200" r="30" fill="#c8b7b7"/>
  <circle cx="350" cy="250" r="30" fill="#acf"/>
 </g>
 <g fill="none" stroke="#000" stroke-width="1px">
  <path d="m130 50h270v20" marker-end="url(#marker4005)" marker-start="url(#marker10844)"/>
  <path d="m100 80v120h20" marker-end="url(#marker10433)" marker-start="url(#marker12435)"/>
  <path d="m180 200h70v50h70" marker-end="url(#marker10590)" marker-start="url(#marker12670)"/>
  <path d="m400 130v120h-20" marker-end="url(#marker10753)" marker-start="url(#marker11766)"/>
 </g>
 <g fill="#fff" fill-rule="evenodd" stroke="#000" stroke-linejoin="round" stroke-width=".46677">
  <circle cx="100" cy="50" r="14.003"/>
  <circle cx="150" cy="200" r="14.003"/>
  <circle cx="350" cy="250" r="14.003"/>
  <circle cx="400" cy="100" r="14.003"/>
 </g>
 <g fill="none" stroke="#000" stroke-width="1px">
  <path d="m350 280v20h-200v-70" marker-end="url(#marker10924)" marker-start="url(#marker11983)"/>
  <path d="m370 100h-220v70" marker-end="url(#marker11101)" marker-start="url(#marker11555)"/>
  <path d="m360 280v30h-270v-230" marker-end="url(#marker11284)" marker-start="url(#marker12206)"/>
 </g>
 <g font-family="Roboto" font-size="25.786px" stroke-width=".64466">
  <text x="131.87531" y="49.166225" style="line-height:1.25" xml:space="preserve"><tspan x="131.87531" y="49.166225" stroke-width=".64466">0.2</tspan></text>
  <text transform="rotate(-90)" x="-117.89176" y="119.16622" style="line-height:1.25" xml:space="preserve"><tspan x="-117.89176" y="119.16622" stroke-width=".64466">0.8</tspan></text>
  <text x="331.87531" y="99.166222" style="line-height:1.25" xml:space="preserve"><tspan x="331.87531" y="99.166222" stroke-width=".64466">0.6</tspan></text>
  <text transform="rotate(-90)" x="-168.30727" y="419.16623" style="line-height:1.25" xml:space="preserve"><tspan x="-168.30727" y="419.16623" stroke-width=".64466">0.4</tspan></text>
  <text x="182.0201" y="199.16623" style="line-height:1.25" xml:space="preserve"><tspan x="182.0201" y="199.16623" stroke-width=".64466">1</tspan></text>
  <text x="302.02011" y="299.16623" style="line-height:1.25" xml:space="preserve"><tspan x="302.02011" y="299.16623" stroke-width=".64466">0.5</tspan></text>
  <text x="361.91309" y="299.16623" style="line-height:1.25" xml:space="preserve"><tspan x="361.91309" y="299.16623" stroke-width=".64466">0.5</tspan></text>
 </g>
</svg>
